<svg id="FOX_EDU_LOGO_black_v2_211013" data-name="FOX EDU LOGO_black_v2_211013" xmlns="http://www.w3.org/2000/svg" width="126.194" height="25.003" viewBox="0 0 126.194 25.003">
  <g id="그룹_4" data-name="그룹 4" transform="translate(24.961 3.115)">
    <g id="그룹_3" data-name="그룹 3">
      <g id="그룹_2" data-name="그룹 2">
        <g id="그룹_1" data-name="그룹 1">
          <path id="패스_1" data-name="패스 1" d="M59.3,26.284V8.1H70.539v2.82H62.962v5.051h5.893v2.862H62.962v7.408H59.3Z" transform="translate(-59.3 -7.805)" fill="#fff"/>
          <path id="패스_2" data-name="패스 2" d="M104.217,23.816a8.654,8.654,0,0,1-11.828.042C90.916,22.3,90.2,20.07,90.2,17.123v-.631c0-2.9.758-5.177,2.273-6.735A7.925,7.925,0,0,1,98.408,7.4,7.737,7.737,0,0,1,104.3,9.715c1.473,1.557,2.189,3.788,2.189,6.777v.589A9.452,9.452,0,0,1,104.217,23.816Zm-5.851-.505a3.663,3.663,0,0,0,3.2-1.6,7.587,7.587,0,0,0,1.094-4.336v-.884a8.349,8.349,0,0,0-1.052-4.672,3.836,3.836,0,0,0-3.325-1.6,3.639,3.639,0,0,0-3.157,1.6,7.587,7.587,0,0,0-1.094,4.336v.926C94.073,21.249,95.5,23.311,98.366,23.311Z" transform="translate(-77.193 -7.4)" fill="#fff"/>
          <path id="패스_3" data-name="패스 3" d="M132.3,26.284l5.514-9.345L132.679,8.1h4.083l3.662,6.44h.084L144,8.1h3.62l-5.009,8.8L148,26.284h-4.083L140,19.423h-.084l-3.873,6.861Z" transform="translate(-101.572 -7.805)" fill="#fff"/>
          <path id="패스_4" data-name="패스 4" d="M191.2,26.284V8.1h11.323v2.82h-7.661v4.63h5.977v2.82h-5.977v5.051h7.829v2.9H191.2Z" transform="translate(-135.68 -7.805)" fill="#fff"/>
          <path id="패스_5" data-name="패스 5" d="M225.8,26.284V8.1h6.061c5.725,0,8.587,2.862,8.587,8.629v.547c0,2.946-.716,5.177-2.147,6.735-1.431,1.515-3.578,2.315-6.4,2.315h-6.1Zm3.662-2.9h2.4a4.452,4.452,0,0,0,3.578-1.347c.758-.884,1.137-2.4,1.137-4.462v-.884c0-2.1-.421-3.62-1.221-4.462a4.844,4.844,0,0,0-3.662-1.3h-2.231Z" transform="translate(-155.715 -7.805)" fill="#fff"/>
          <path id="패스_6" data-name="패스 6" d="M273.914,26.621c-4.756,0-7.114-2.231-7.114-6.735V8.1h3.662V19.676a4.858,4.858,0,0,0,.842,3.2A3.489,3.489,0,0,0,274,23.8a3.194,3.194,0,0,0,2.568-.926,4.879,4.879,0,0,0,.8-3.2V8.1h3.325V19.8c0,2.315-.547,4.041-1.684,5.135C278,26.032,276.271,26.621,273.914,26.621Z" transform="translate(-179.457 -7.805)" fill="#fff"/>
        </g>
      </g>
    </g>
  </g>
  <g id="그룹_6" data-name="그룹 6">
    <g id="그룹_5" data-name="그룹 5" transform="translate(0.547 1.81)">
      <path id="패스_7" data-name="패스 7" d="M29.519,6.042A.927.927,0,0,1,29.182,6V19.68L22.7,26.2a2.412,2.412,0,0,1,.463.463L29.73,20.1l.084-.084V6C29.772,6.042,29.645,6.042,29.519,6.042Z" transform="translate(-13.692 -5.284)" fill="#fff"/>
      <path id="패스_8" data-name="패스 8" d="M4.3,4.805l6.819,6.819,6.819-6.819a2.412,2.412,0,0,1-.463-.463l-6.356,6.314L4.805,4.3A1.451,1.451,0,0,1,4.3,4.805Z" transform="translate(-3.037 -4.3)" fill="#fff"/>
      <path id="패스_9" data-name="패스 9" d="M8.456,26.2,1.973,19.722V6a.821.821,0,0,1-.337.042A.927.927,0,0,1,1.3,6V19.975l6.693,6.693A2.412,2.412,0,0,1,8.456,26.2Z" transform="translate(-1.3 -5.284)" fill="#fff"/>
    </g>
    <path id="패스_10" data-name="패스 10" d="M37.684,0A.889.889,0,0,0,36.8.884a.884.884,0,0,0,1.768,0A.889.889,0,0,0,37.684,0Z" transform="translate(-21.31)" fill="#fff"/>
    <rect id="사각형_3" data-name="사각형 3" width="8.25" height="0.463" transform="matrix(0.707, -0.707, 0.707, 0.707, 1.689, 15.28)" fill="#fff"/>
    <rect id="사각형_4" data-name="사각형 4" width="0.463" height="8.25" transform="translate(9.433 9.741) rotate(-45)" fill="#fff"/>
    <path id="패스_11" data-name="패스 11" d="M.884,0A.918.918,0,0,0,0,.884a.918.918,0,0,0,.884.884A.889.889,0,0,0,1.768.884.889.889,0,0,0,.884,0Z" fill="#fff"/>
    <path id="패스_12" data-name="패스 12" d="M19.284,55.2a.884.884,0,1,0,.884.884A.839.839,0,0,0,19.284,55.2Z" transform="translate(-10.655 -31.965)" fill="#fff"/>
  </g>
</svg>
