<?xml version="1.0" encoding="utf-8"?>
<!-- Generator: Adobe Illustrator 26.0.3, SVG Export Plug-In . SVG Version: 6.00 Build 0)  -->
<svg version="1.1" id="레이어_1" xmlns="http://www.w3.org/2000/svg" xmlns:xlink="http://www.w3.org/1999/xlink" x="0px"
	 y="0px" viewBox="0 0 76 109.7" style="enable-background:new 0 0 76 109.7;" xml:space="preserve">
<style type="text/css">
	.st0{fill:#EA5B56;}
	.st1{fill:#003566;}
</style>
<g>
	<polygon class="st0" points="57,0 17.6,35.2 25.1,35.2 64.5,0 	"/>
	<path class="st1" d="M59.7,4.3v35.3c0,0.7-0.3,0.9-1.3,1.8L38,57.5L17.7,41.5c-1-0.9-1.4-1.1-1.4-1.8V4.3l16.7,15l3.7-3.4L19,0
		h-7.5v41.5c0,0.6,0.2,1.2,0.6,1.6c0.1,0.1,0.2,0.2,0.4,0.3l24,19c0.4,0.3,1,0.4,1.5,0.4l0,0c0.5,0,1.1-0.1,1.5-0.4l24-19
		c0.1-0.1,0.2-0.2,0.3-0.3c0.4-0.5,0.6-1,0.6-1.6V0L59.7,4.3z"/>
	<polygon class="st1" points="58.4,35.2 43,21.4 39.2,24.8 50.8,35.2 	"/>
	<path class="st1" d="M64.5,0L64.5,0L64.5,0z"/>
</g>
<g>
	<g>
		<path class="st1" d="M16.2,87.9V70.9h10.4v2.6h-7v4.7h5.5V81h-5.5v6.9L16.2,87.9L16.2,87.9z"/>
		<path class="st1" d="M41.6,85.9c-1.4,1.5-3.2,2.2-5.5,2.2s-4.1-0.7-5.5-2.2c-1.4-1.4-2-3.5-2-6.3v-0.6c0-2.7,0.7-4.8,2.1-6.3
			c1.4-1.5,3.3-2.2,5.5-2.2s4.1,0.7,5.5,2.2s2,3.5,2,6.3v0.5C43.7,82.4,43,84.5,41.6,85.9z M36.1,85.5c1.3,0,2.3-0.5,3-1.5
			s1-2.3,1-4v-0.8c0-1.9-0.3-3.4-1-4.3c-0.7-1-1.7-1.5-3.1-1.5c-1.3,0-2.2,0.5-2.9,1.5s-1,2.3-1,4v0.9
			C32.1,83.6,33.4,85.5,36.1,85.5z"/>
		<path class="st1" d="M45.2,87.9l5.2-8.7l-4.8-8.2h3.8l3.4,6h0.1l3.3-6h3.4l-4.7,8.2l5,8.7H56l-3.6-6.4h-0.1l-3.6,6.4
			C48.7,87.9,45.2,87.9,45.2,87.9z"/>
	</g>
</g>
<g>
	<path class="st0" d="M12.8,108.4c-0.9,0.9-2.4,1.3-4.3,1.3c-1.9,0-3.5-0.4-4.9-1.1v-1.9c1.4,0.7,3,1.1,4.7,1.1c2.4,0,3.5-1,3.5-2.9
		c0-0.8-0.2-1.4-0.6-1.8c-0.4-0.4-1.1-0.8-2.1-1.2l-1.8-0.6c-1.2-0.4-2.1-1-2.7-1.7C4.2,99,3.9,98,3.9,96.8c0-1.4,0.5-2.5,1.4-3.3
		c0.9-0.8,2.2-1.2,4-1.2c1.5,0,2.9,0.3,4.1,0.9V95c-1.3-0.6-2.7-0.9-4.2-0.9c-1,0-1.7,0.2-2.3,0.6c-0.5,0.4-0.8,1-0.8,1.8
		c0,0.8,0.2,1.4,0.5,1.8c0.3,0.4,0.9,0.8,1.8,1.1l1.7,0.6c1.4,0.4,2.4,1,3,1.7c0.7,0.7,1,1.7,1,3C14.2,106.3,13.8,107.5,12.8,108.4z
		"/>
	<path class="st0" d="M20.9,109.4v-15h-5v-1.9h12.2v1.9h-5v15H20.9z"/>
	<path class="st0" d="M37.1,109.7c-2.3,0-4.1-0.7-5.4-2.2c-1.3-1.5-2-3.6-2-6.3v-0.5c0-2.6,0.7-4.7,2-6.2c1.3-1.5,3.2-2.3,5.5-2.3
		c2.3,0,4.1,0.7,5.4,2.2c1.3,1.5,1.9,3.6,1.9,6.3v0.5c0,2.6-0.7,4.7-2,6.2C41.3,109,39.5,109.7,37.1,109.7z M37.2,107.9
		c1.7,0,2.9-0.6,3.8-1.7c0.8-1.2,1.3-2.7,1.3-4.6v-0.8c0-4.5-1.7-6.7-5.1-6.7c-1.6,0-2.9,0.6-3.7,1.7c-0.8,1.1-1.3,2.7-1.3,4.5v0.8
		C32.1,105.7,33.8,107.9,37.2,107.9z"/>
	<path class="st0" d="M47.8,109.4V92.5h5c3.8,0,5.7,1.6,5.7,4.8c0,2.2-1.1,3.7-3.2,4.4v0.1l4.4,7.5h-2.5l-4.1-7.1h-3v7.1H47.8z
		 M50,100.5h2.6c1.2,0,2.1-0.3,2.6-0.8c0.5-0.5,0.8-1.3,0.8-2.4c0-1.1-0.3-1.8-0.8-2.3c-0.5-0.5-1.4-0.7-2.7-0.7H50V100.5z"/>
	<path class="st0" d="M62.2,109.4V92.5h10.1v1.9h-7.8v5.3h6.1v1.9h-6.1v5.9h7.9v1.9H62.2z"/>
</g>
</svg>
