<?xml version="1.0" encoding="utf-8"?>
<!-- Generator: Adobe Illustrator 26.0.3, SVG Export Plug-In . SVG Version: 6.00 Build 0)  -->
<svg version="1.1" id="FOX_EDU_LOGO_black_v2_211013"
	 xmlns="http://www.w3.org/2000/svg" xmlns:xlink="http://www.w3.org/1999/xlink" x="0px" y="0px" viewBox="0 0 147.7 25"
	 style="enable-background:new 0 0 147.7 25;" xml:space="preserve">
<style type="text/css">
	.st0{fill:#EA5B56;}
	.st1{fill:#1D3661;}
</style>
<g>
	<polygon class="st0" points="18.1,0 2.4,14 5.4,14 21.1,0 	"/>
	<path class="st1" d="M19.1,1.7v14c0,0.3-0.1,0.4-0.5,0.7l-8.1,6.4l-8.1-6.4C2,16.1,1.9,16,1.9,15.8v-14l6.6,5.9l1.5-1.3L3,0H0v16.5
		c0,0.2,0.1,0.5,0.2,0.6c0,0,0.1,0.1,0.1,0.1l9.6,7.6c0.2,0.1,0.4,0.2,0.6,0.2h0c0.2,0,0.4,0,0.6-0.2l9.6-7.6c0,0,0.1-0.1,0.1-0.1
		c0.2-0.2,0.2-0.4,0.2-0.6V0L19.1,1.7z"/>
	<polygon class="st1" points="18.6,14 12.5,8.5 11,9.8 15.6,14 	"/>
	<polygon class="st1" points="21.1,0 21.1,0 21.1,0 	"/>
	<g>
		<g>
			<path class="st1" d="M30.3,19.4V2.7h10.3v2.6h-6.9v4.6h5.4v2.6h-5.4v6.8H30.3z"/>
			<path class="st1" d="M55.3,17.4c-1.4,1.5-3.2,2.2-5.4,2.2c-2.2,0-4-0.7-5.4-2.1c-1.3-1.4-2-3.5-2-6.2v-0.6c0-2.7,0.7-4.7,2.1-6.2
				c1.4-1.4,3.2-2.2,5.4-2.2c2.2,0,4,0.7,5.4,2.1c1.3,1.4,2,3.5,2,6.2v0.5C57.4,13.9,56.7,16,55.3,17.4z M49.9,17
				c1.3,0,2.3-0.5,2.9-1.4c0.7-1,1-2.3,1-4v-0.8c0-1.9-0.3-3.3-1-4.3c-0.6-1-1.7-1.4-3.1-1.5c-1.3,0-2.2,0.5-2.9,1.4
				c-0.7,1-1,2.3-1,4v0.9C46,15.1,47.3,17,49.9,17z"/>
			<path class="st1" d="M58.9,19.4l5.1-8.6l-4.7-8.1H63l3.4,5.9h0.1l3.2-5.9h3.3l-4.6,8.1l4.9,8.6h-3.7L66,13.1h-0.1l-3.6,6.3H58.9z
				"/>
		</g>
		<g>
			<path class="st0" d="M89.3,18.2c-0.9,0.9-2.3,1.3-4.2,1.3c-1.9,0-3.5-0.4-4.8-1.1v-1.9c1.4,0.7,2.9,1.1,4.6,1.1
				c2.3,0,3.5-1,3.5-2.9c0-0.8-0.2-1.3-0.6-1.8c-0.4-0.4-1.1-0.8-2-1.1l-1.7-0.6c-1.2-0.4-2.1-0.9-2.7-1.6c-0.6-0.7-0.9-1.7-0.9-2.9
				c0-1.3,0.5-2.4,1.4-3.2c0.9-0.8,2.2-1.2,3.9-1.2c1.5,0,2.9,0.3,4,0.9v1.8c-1.3-0.6-2.7-0.9-4.1-0.9c-1,0-1.7,0.2-2.2,0.6
				c-0.5,0.4-0.8,1-0.8,1.8c0,0.8,0.2,1.3,0.5,1.7c0.3,0.4,0.9,0.7,1.8,1l1.7,0.6c1.3,0.4,2.3,1,3,1.7c0.7,0.7,1,1.7,1,3
				C90.7,16.2,90.3,17.4,89.3,18.2z"/>
			<path class="st0" d="M97.2,19.2V4.5h-4.9V2.6h12v1.9h-4.9v14.7H97.2z"/>
			<path class="st0" d="M113.2,19.5c-2.3,0-4-0.7-5.3-2.2c-1.3-1.4-1.9-3.5-1.9-6.2v-0.5c0-2.6,0.7-4.6,2-6.1
				c1.3-1.5,3.1-2.2,5.4-2.2c2.3,0,4,0.7,5.3,2.2c1.3,1.4,1.9,3.5,1.9,6.2v0.5c0,2.6-0.6,4.6-1.9,6.1
				C117.3,18.8,115.5,19.5,113.2,19.5z M113.3,17.7c1.6,0,2.9-0.6,3.7-1.7c0.8-1.1,1.2-2.6,1.2-4.5v-0.8c0-4.4-1.7-6.6-5-6.6
				c-1.6,0-2.8,0.6-3.7,1.7c-0.8,1.1-1.2,2.6-1.2,4.5v0.8C108.3,15.5,110,17.7,113.3,17.7z"/>
			<path class="st0" d="M123.7,19.2V2.6h4.9c3.7,0,5.6,1.6,5.6,4.7c0,2.2-1,3.6-3.1,4.3v0.1l4.3,7.4h-2.5l-4-7h-3v7H123.7z
				 M125.8,10.5h2.6c1.2,0,2-0.2,2.6-0.7c0.5-0.5,0.8-1.3,0.8-2.3c0-1-0.3-1.8-0.8-2.2c-0.5-0.4-1.4-0.7-2.6-0.7h-2.5V10.5z"/>
			<path class="st0" d="M137.8,19.2V2.6h9.9v1.9H140v5.2h5.9v1.8H140v5.8h7.8v1.9H137.8z"/>
		</g>
	</g>
</g>
</svg>
