<svg id="레이어_1" data-name="레이어 1" xmlns="http://www.w3.org/2000/svg" xmlns:xlink="http://www.w3.org/1999/xlink" viewBox="0 0 425 156"><defs><style>.cls-1{fill:none;}.cls-2{clip-path:url(#clip-path);}.cls-3{fill:#f5c174;}.cls-4{fill:#e9932b;}.cls-5{fill:#26316e;}.cls-6{fill:#732a7d;}.cls-7{fill:#bf2244;}.cls-8{fill:#d94f27;}.cls-9{fill:#75c188;}.cls-10{fill:#59afba;}.cls-11{fill:#a5d9e1;}.cls-12{fill:#1794ab;}.cls-13{fill:#075197;}.cls-14{fill:#186859;}.cls-15{fill:#383375;}</style><clipPath id="clip-path"><rect class="cls-1" y="0.36" width="425" height="155.28"/></clipPath></defs><g id="모두의구독_가로"><g class="cls-2"><g class="cls-2"><path class="cls-3" d="M91.2,68A9,9,0,0,0,95.64,67L114.77,55.9a3,3,0,0,0,0-5.69l-19.11-5.7a9.85,9.85,0,0,0-8.89,0L67.65,50.22a3,3,0,0,0,0,5.7l19.1,11A9,9,0,0,0,91.2,68"/><path class="cls-4" d="M95.09,100.19a4.16,4.16,0,0,0,2.19-.73L115,88.14a11.09,11.09,0,0,0,4.56-7.84L120.53,61a3.65,3.65,0,0,0-.82-2.76,2.41,2.41,0,0,0-1.78-.74,4.23,4.23,0,0,0-2.09.64l-19,11a9.84,9.84,0,0,0-4.45,7.7v20c0,2.06,1,3.39,2.65,3.39"/><path class="cls-5" d="M25.45,135.92c1.61,0,2.65-1.33,2.65-3.39V110.59a10.42,10.42,0,0,0-4.32-7.88L6.23,91.52a4,4,0,0,0-2.16-.74,2.19,2.19,0,0,0-1.64.69,3.56,3.56,0,0,0-.79,2.72l1.13,23A11.13,11.13,0,0,0,7.32,125l15.94,10.17a4.16,4.16,0,0,0,2.19.73"/><path class="cls-6" d="M56.38,155.64c1.61,0,2.66-1.33,2.66-3.38V130.31a10.42,10.42,0,0,0-4.32-7.87L35.39,110.11a4,4,0,0,0-2.19-.73c-1.61,0-2.65,1.32-2.65,3.38v22a10.42,10.42,0,0,0,4.32,7.87L54.2,154.91a4.13,4.13,0,0,0,2.18.73"/><path class="cls-7" d="M64.14,155.64a4.16,4.16,0,0,0,2.19-.73l19.34-12.33A10.42,10.42,0,0,0,90,134.71v-22c0-2.06-1-3.38-2.65-3.38a4.12,4.12,0,0,0-2.19.72L65.8,122.44a10.42,10.42,0,0,0-4.31,7.87v21.95c0,2.05,1,3.38,2.65,3.38"/><path class="cls-8" d="M64.14,119.93a4.16,4.16,0,0,0,2.19-.73l19.34-12.33A10.42,10.42,0,0,0,90,99V78.74c0-2.11-1.11-3.48-2.82-3.48a4.25,4.25,0,0,0-2.11.63l-19.13,11a9.83,9.83,0,0,0-4.44,7.7v21.91c0,2.06,1,3.39,2.65,3.39"/><path class="cls-9" d="M62.93,39.12a10,10,0,0,0,3.87-.71l13.94-4.1c1.15-.51,1.77-1.22,1.77-2s-.62-1.49-1.77-2L66.8,24.17a11.08,11.08,0,0,0-7.75,0L45.11,30.3c-1.14.51-1.77,1.22-1.77,2s.63,1.5,1.77,2l13.94,4.1a10.07,10.07,0,0,0,3.88.71"/><path class="cls-10" d="M23.43,26.14a27.23,27.23,0,0,0,8.51-1.45L42.7,20.57c1.5-.58,2.18-1.19,2.08-1.86s-.92-1.05-2.53-1.16l-11.49-.83c-.33,0-.69,0-1.06,0a27.06,27.06,0,0,0-8.52,1.46L10.43,22.27c-1.5.57-2.18,1.18-2.08,1.85s.93,1.05,2.53,1.17l11.48.82c.34,0,.69,0,1.07,0"/><path class="cls-11" d="M33.23,3.56,42.6,7.72a8.19,8.19,0,0,0,2.9.58l10.26-.2c1.59,0,2.44-.36,2.58-1,.2-.9-1.12-1.56-1.55-1.78l-.43-.19L47,1A8.13,8.13,0,0,0,44.08.36L33.83.56c-1.59,0-2.44.37-2.58,1-.21.9,1.12,1.56,1.55,1.78l.43.2"/><path class="cls-12" d="M26.77,63.16A7.92,7.92,0,0,0,31.09,62l17.4-13.87a3.11,3.11,0,0,0-.27-5.77L31.28,35.8a9.84,9.84,0,0,0-4.51-1,9.88,9.88,0,0,0-4.52,1L8,44.76a3.48,3.48,0,0,0-2.1,2.8,3.48,3.48,0,0,0,1.83,3L22.45,62a8,8,0,0,0,4.32,1.17"/><path class="cls-13" d="M25.45,100.2c1.61,0,2.65-1.32,2.65-3.38v-20a9.86,9.86,0,0,0-4.45-7.7L4.7,58.13a4.13,4.13,0,0,0-2.09-.64,2.39,2.39,0,0,0-1.78.73A3.65,3.65,0,0,0,0,61L1,80.31a11.09,11.09,0,0,0,4.56,7.84L23.26,99.48a4.12,4.12,0,0,0,2.19.72"/><path class="cls-14" d="M60.26,85.87a9.12,9.12,0,0,0,4.45-1.06l19.1-11a3,3,0,0,0,0-5.69L64.72,59.71a9.77,9.77,0,0,0-8.89,0L36.71,68.08a3,3,0,0,0,0,5.69l19.11,11a9.11,9.11,0,0,0,4.44,1.06"/><path class="cls-5" d="M56.38,119.93c1.62,0,2.66-1.33,2.66-3.39V94.63a9.86,9.86,0,0,0-4.45-7.7l-19.11-11a4.17,4.17,0,0,0-2.11-.64c-1.71,0-2.82,1.37-2.82,3.48V99a10.42,10.42,0,0,0,4.32,7.87L54.2,119.2a4.13,4.13,0,0,0,2.18.73"/><path class="cls-8" d="M95.09,135.9a4.08,4.08,0,0,0,2.19-.73l16-10.17a11.07,11.07,0,0,0,4.56-7.84l1.12-23a3.63,3.63,0,0,0-.79-2.71,2.23,2.23,0,0,0-1.65-.69,4.1,4.1,0,0,0-2.16.73L96.76,102.7a10.4,10.4,0,0,0-4.32,7.87v22c0,2,1,3.38,2.65,3.38"/><path class="cls-15" d="M173.05,98.33h16.58V56.69H146.68V88.34c0,5.52,5,10,11.22,10h5.35v12.39H143v8.73h50.37v-8.73H173.05Zm-16.6-10V65.4h23.4V89.62H157.9a1.37,1.37,0,0,1-1.45-1.28"/><path class="cls-15" d="M214.69,90.78h32.8v-8.7h-32.8a.35.35,0,0,1-.37-.33V65.4h33.17V56.69h-43V81.75c0,5,4.54,9,10.15,9"/><polygon class="cls-15" points="200.83 105.43 221.11 105.43 221.11 119.97 230.92 119.97 230.92 105.43 251.2 105.43 251.2 96.7 200.83 96.7 200.83 105.43"/><rect class="cls-15" x="299.47" y="56.69" width="9.8" height="63.27"/><path class="cls-15" d="M413.2,98.32H378.34V107h33.17V120h9.77V105.52c0-4-3.61-7.2-8.08-7.2"/><path class="cls-15" d="M404.71,85.72V81.84h16.58v-8.7H388.11V65.4h33.18V56.69h-43V73.84c0,4.41,4,8,9,8h7.59v3.88H374.63v8.72H425V85.72Z"/><rect class="cls-15" x="258.69" y="107.5" width="33.29" height="8.73"/><path class="cls-15" d="M275.34,103h0c8.73,0,15.88-6.36,15.88-14.14v-18c0-7.77-7.15-14.14-15.88-14.14s-15.89,6.37-15.89,14.14v18c0,7.78,7.15,14.14,15.89,14.14m-6.11-32.16c0-3,2.8-5.43,6.11-5.43s6.1,2.48,6.1,5.43v18c0,3-2.8,5.44-6.1,5.44s-6.11-2.49-6.11-5.44Z"/><polygon class="cls-15" points="316.76 105.43 337.05 105.43 337.05 119.97 346.85 119.97 346.85 105.43 367.14 105.43 367.14 96.7 316.76 96.7 316.76 105.43"/><path class="cls-15" d="M353.65,65.73v25h9.78v-25c0-5-4.55-9-10.16-9H320.48V65.4h32.79a.35.35,0,0,1,.38.33"/></g></g></g></svg>