<svg id="레이어_1" data-name="레이어 1" xmlns="http://www.w3.org/2000/svg" xmlns:xlink="http://www.w3.org/1999/xlink" viewBox="0 0 230 241"><defs><style>.cls-1{fill:none;}.cls-2{clip-path:url(#clip-path);}.cls-3{fill:#f5c174;}.cls-4{fill:#e9932b;}.cls-5{fill:#26316e;}.cls-6{fill:#732a7d;}.cls-7{fill:#bf2244;}.cls-8{fill:#d94f27;}.cls-9{fill:#75c188;}.cls-10{fill:#59afba;}.cls-11{fill:#a5d9e1;}.cls-12{fill:#1794ab;}.cls-13{fill:#075197;}.cls-14{fill:#186859;}.cls-15{fill:#383375;}</style><clipPath id="clip-path"><rect class="cls-1" y="0.05" width="230" height="240.89"/></clipPath></defs><g id="모두의구독_세로"><g class="cls-2"><g class="cls-2"><path class="cls-3" d="M148.9,74.22a9.87,9.87,0,0,0,4.88-1.17l21-12.11a3.33,3.33,0,0,0,0-6.24L153.8,48.45a10.74,10.74,0,0,0-9.75,0l-21,6.27a3.33,3.33,0,0,0,0,6.24L144,73.05a9.86,9.86,0,0,0,4.87,1.17"/><path class="cls-4" d="M153.17,109.49a4.51,4.51,0,0,0,2.4-.8L175,96.28a12.13,12.13,0,0,0,5-8.6l1-21.18a4,4,0,0,0-.9-3,2.62,2.62,0,0,0-1.95-.81,4.65,4.65,0,0,0-2.29.7l-20.78,12a10.78,10.78,0,0,0-4.87,8.44v22c0,2.25,1.14,3.71,2.9,3.71"/><path class="cls-5" d="M76.83,148.65c1.76,0,2.9-1.45,2.9-3.7V120.88A11.42,11.42,0,0,0,75,112.25L55.76,100a4.47,4.47,0,0,0-2.36-.8,2.44,2.44,0,0,0-1.81.75,4,4,0,0,0-.87,3L52,128.11a12.23,12.23,0,0,0,5,8.6l17.47,11.14a4.51,4.51,0,0,0,2.4.8"/><path class="cls-6" d="M110.74,170.28c1.76,0,2.91-1.46,2.91-3.71V142.51a11.4,11.4,0,0,0-4.74-8.63L87.73,120.36a4.53,4.53,0,0,0-2.4-.8c-1.77,0-2.91,1.46-2.91,3.71v24.08A11.43,11.43,0,0,0,87.16,156l21.18,13.5a4.51,4.51,0,0,0,2.4.8"/><path class="cls-7" d="M119.24,170.28a4.51,4.51,0,0,0,2.4-.8L142.85,156a11.41,11.41,0,0,0,4.73-8.63V123.27c0-2.25-1.14-3.71-2.91-3.71a4.53,4.53,0,0,0-2.4.8l-21.2,13.52a11.39,11.39,0,0,0-4.73,8.63v24.06c0,2.25,1.14,3.71,2.9,3.71"/><path class="cls-8" d="M119.24,131.13a4.51,4.51,0,0,0,2.4-.8l21.21-13.52a11.41,11.41,0,0,0,4.73-8.63V86c0-2.32-1.21-3.82-3.1-3.82a4.69,4.69,0,0,0-2.31.7L121.21,95a10.79,10.79,0,0,0-4.87,8.44v24c0,2.25,1.14,3.71,2.9,3.71"/><path class="cls-9" d="M117.91,42.54a10.89,10.89,0,0,0,4.25-.78l15.28-4.49c1.26-.56,1.95-1.33,1.95-2.2s-.69-1.64-1.95-2.19l-15.28-6.72a11.94,11.94,0,0,0-8.49,0L98.38,32.88c-1.25.55-1.94,1.33-1.94,2.19s.69,1.64,1.94,2.2l15.29,4.49a10.81,10.81,0,0,0,4.24.78"/><path class="cls-10" d="M74.61,28.32A29.66,29.66,0,0,0,84,26.72L95.74,22.2c1.65-.63,2.39-1.29,2.28-2S97,19,95.25,18.89L82.65,18c-.36,0-.75,0-1.16,0a29.66,29.66,0,0,0-9.34,1.6L60.37,24.07c-1.65.63-2.4,1.29-2.29,2s1,1.15,2.78,1.28l12.58.9c.37,0,.76,0,1.17,0"/><path class="cls-11" d="M85.36,3.56,95.62,8.12a8.94,8.94,0,0,0,3.19.64l11.24-.22c1.75,0,2.68-.4,2.84-1.12.22-1-1.23-1.71-1.71-1.95l-.47-.22L100.44.7A8.74,8.74,0,0,0,97.25.05L86,.27c-1.75,0-2.68.41-2.84,1.12-.22,1,1.23,1.71,1.71,2l.47.22"/><path class="cls-12" d="M78.28,68.9A8.66,8.66,0,0,0,83,67.6l19.07-15.2a3.82,3.82,0,0,0,2-3.27,3.8,3.8,0,0,0-2.3-3.06L83.23,38.9a11.81,11.81,0,0,0-9.91,0L57.68,48.73a3.41,3.41,0,0,0-.3,6.33L73.54,67.61a8.74,8.74,0,0,0,4.74,1.29"/><path class="cls-13" d="M76.83,109.51c1.76,0,2.9-1.46,2.9-3.71v-22a10.78,10.78,0,0,0-4.87-8.44l-20.78-12a4.55,4.55,0,0,0-2.29-.7,2.62,2.62,0,0,0-1.95.81,4,4,0,0,0-.9,3L50,87.7a12.17,12.17,0,0,0,5,8.6l19.46,12.41a4.51,4.51,0,0,0,2.4.8"/><path class="cls-14" d="M115,93.8a9.91,9.91,0,0,0,4.87-1.17l21-12.1a3.33,3.33,0,0,0,0-6.24l-20.93-9.18a10.72,10.72,0,0,0-9.74,0l-21,9.18a3.33,3.33,0,0,0,0,6.24l21,12.1A9.91,9.91,0,0,0,115,93.8"/><path class="cls-5" d="M110.74,131.13c1.77,0,2.91-1.46,2.91-3.71v-24A10.81,10.81,0,0,0,108.77,95L87.83,82.86a4.59,4.59,0,0,0-2.32-.7c-1.87,0-3.09,1.5-3.09,3.82v22.2a11.42,11.42,0,0,0,4.73,8.63l21.19,13.52a4.51,4.51,0,0,0,2.4.8"/><path class="cls-8" d="M153.18,148.64a4.5,4.5,0,0,0,2.39-.8l17.49-11.15a12.13,12.13,0,0,0,5-8.6l1.23-25.18a4,4,0,0,0-.87-3,2.41,2.41,0,0,0-1.8-.75,4.47,4.47,0,0,0-2.37.8L155,112.24a11.39,11.39,0,0,0-4.73,8.63v24.06c0,2.25,1.14,3.71,2.91,3.71"/><path class="cls-15" d="M24.54,223.3H38.05v-34H3v25.8c0,4.5,4.09,8.15,9.15,8.15h4.36v10.11H0v7.11H41.08v-7.11H24.54ZM11,215.15V196.44H30.08V216.2H12.18a1.12,1.12,0,0,1-1.18-1"/><path class="cls-15" d="M58.49,217.15H85.24v-7.1H58.49a.28.28,0,0,1-.3-.27V196.45H85.24v-7.11h-35v20.44c0,4.07,3.7,7.37,8.27,7.37"/><polygon class="cls-15" points="47.19 229.09 63.73 229.09 63.73 240.95 71.72 240.95 71.72 229.09 88.27 229.09 88.27 221.97 47.19 221.97 47.19 229.09"/><rect class="cls-15" x="127.63" y="189.35" width="8" height="51.6"/><path class="cls-15" d="M220.38,223.29H192v7.11H219V241h8V229.17c0-3.25-2.95-5.88-6.59-5.88"/><path class="cls-15" d="M213.46,213v-3.16H227v-7.1H199.92v-6.3H227v-7.11H192v14c0,3.6,3.27,6.52,7.32,6.52h6.19V213H188.92v7.12H230V213Z"/><rect class="cls-15" x="94.37" y="230.78" width="27.15" height="7.12"/><path class="cls-15" d="M108,227.1h0c7.12,0,13-5.19,13-11.53v-14.7c0-6.34-5.83-11.52-13-11.52s-13,5.18-13,11.52v14.7c0,6.34,5.83,11.53,13,11.53m-5-26.23c0-2.4,2.28-4.43,5-4.43s5,2,5,4.43v14.7c0,2.4-2.28,4.43-5,4.43s-5-2-5-4.43Z"/><polygon class="cls-15" points="141.73 229.09 158.28 229.09 158.28 240.95 166.27 240.95 166.27 229.09 182.81 229.09 182.81 221.97 141.73 221.97 141.73 229.09"/><path class="cls-15" d="M171.81,196.71v20.44h8V196.71c0-4.06-3.71-7.37-8.29-7.37H144.76v7.11H171.5a.28.28,0,0,1,.31.26"/></g></g></g></svg>