<?xml version="1.0" encoding="utf-8"?>
<!-- Generator: Adobe Illustrator 25.0.0, SVG Export Plug-In . SVG Version: 6.00 Build 0)  -->
<svg version="1.1" id="레이어_1" xmlns="http://www.w3.org/2000/svg" xmlns:xlink="http://www.w3.org/1999/xlink" x="0px"
	 y="0px" viewBox="0 0 165 65" style="enable-background:new 0 0 165 65;" xml:space="preserve">
<style type="text/css">
	.st0{clip-path:url(#SVGID_2_);}
	.st1{clip-path:url(#SVGID_4_);fill:#F5C174;}
	.st2{clip-path:url(#SVGID_6_);fill:#E9932B;}
	.st3{clip-path:url(#SVGID_8_);fill:#26316E;}
	.st4{clip-path:url(#SVGID_10_);fill:#732A7D;}
	.st5{clip-path:url(#SVGID_12_);fill:#BF2244;}
	.st6{clip-path:url(#SVGID_14_);fill:#D94F27;}
	.st7{clip-path:url(#SVGID_16_);fill:#75C188;}
	.st8{clip-path:url(#SVGID_18_);fill:#59AFBA;}
	.st9{clip-path:url(#SVGID_20_);fill:#A5D9E1;}
	.st10{clip-path:url(#SVGID_22_);fill:#1794AB;}
	.st11{clip-path:url(#SVGID_24_);fill:#075197;}
	.st12{clip-path:url(#SVGID_26_);fill:#186859;}
	.st13{clip-path:url(#SVGID_28_);fill:#26316E;}
	.st14{clip-path:url(#SVGID_30_);fill:#D94F27;}
	.st15{clip-path:url(#SVGID_32_);fill:#383375;stroke:#383375;stroke-width:0.5;stroke-miterlimit:10;}
	.st16{clip-path:url(#SVGID_34_);fill:#383375;stroke:#383375;stroke-width:0.5;stroke-miterlimit:10;}
	.st17{clip-path:url(#SVGID_36_);fill:#383375;stroke:#383375;stroke-width:0.5;stroke-miterlimit:10;}
	.st18{clip-path:url(#SVGID_38_);fill:#383375;stroke:#383375;stroke-width:0.5;stroke-miterlimit:10;}
	.st19{clip-path:url(#SVGID_40_);fill:#383375;stroke:#383375;stroke-width:0.5;stroke-miterlimit:10;}
	.st20{clip-path:url(#SVGID_42_);fill:#383375;stroke:#383375;stroke-width:0.5;stroke-miterlimit:10;}
	.st21{clip-path:url(#SVGID_44_);fill:#383375;stroke:#383375;stroke-width:0.5;stroke-miterlimit:10;}
	.st22{clip-path:url(#SVGID_46_);fill:#383375;stroke:#383375;stroke-width:0.5;stroke-miterlimit:10;}
	.st23{clip-path:url(#SVGID_48_);fill:#383375;stroke:#383375;stroke-width:0.5;stroke-miterlimit:10;}
	.st24{clip-path:url(#SVGID_50_);fill:#383375;}
	.st25{clip-path:url(#SVGID_52_);fill:#383375;}
	.st26{clip-path:url(#SVGID_54_);fill:#383375;}
	.st27{clip-path:url(#SVGID_56_);fill:#383375;}
	.st28{clip-path:url(#SVGID_58_);fill:#383375;}
	.st29{clip-path:url(#SVGID_60_);fill:#383375;}
	.st30{clip-path:url(#SVGID_62_);fill:#383375;}
	.st31{clip-path:url(#SVGID_64_);fill:#383375;}
	.st32{clip-path:url(#SVGID_66_);fill:#383375;}
	.st33{clip-path:url(#SVGID_68_);fill:#383375;}
</style>
<g id="모두의구독_x5F_가로_x5F_SUB_1_">
	<g>
		<g>
			<defs>
				<rect id="SVGID_1_" y="2.4" width="165" height="60.3"/>
			</defs>
			<clipPath id="SVGID_2_">
				<use xlink:href="#SVGID_1_"  style="overflow:visible;"/>
			</clipPath>
			<g class="st0">
				<g>
					<defs>
						<rect id="SVGID_3_" y="2.4" width="165" height="60.3"/>
					</defs>
					<clipPath id="SVGID_4_">
						<use xlink:href="#SVGID_3_"  style="overflow:visible;"/>
					</clipPath>
					<path class="st1" d="M35.4,28.6c0.7,0,1.3-0.1,1.7-0.4l7.4-4.3c0.5-0.3,0.8-0.7,0.8-1.1S45,22,44.6,21.8l-7.4-2.2
						c-0.5-0.2-1.1-0.4-1.7-0.4c-0.7,0-1.3,0.1-1.7,0.4l-7.4,2.2c-0.5,0.3-0.8,0.7-0.8,1.1s0.3,0.8,0.8,1.1l7.4,4.3
						C34.1,28.5,34.8,28.6,35.4,28.6"/>
				</g>
				<g>
					<defs>
						<rect id="SVGID_5_" y="2.4" width="165" height="60.3"/>
					</defs>
					<clipPath id="SVGID_6_">
						<use xlink:href="#SVGID_5_"  style="overflow:visible;"/>
					</clipPath>
					<path class="st2" d="M36.9,41.1c0.2,0,0.5-0.1,0.8-0.3l6.9-4.4c0.9-0.6,1.7-1.9,1.7-3.1l0.4-7.5c0-0.5-0.1-0.8-0.3-1.1
						c-0.2-0.2-0.4-0.3-0.7-0.3s-0.5,0.1-0.8,0.2l-7.4,4.2c-1,0.5-1.7,1.9-1.7,3v7.8C35.9,40.6,36.3,41.1,36.9,41.1"/>
				</g>
				<g>
					<defs>
						<rect id="SVGID_7_" y="2.4" width="165" height="60.3"/>
					</defs>
					<clipPath id="SVGID_8_">
						<use xlink:href="#SVGID_7_"  style="overflow:visible;"/>
					</clipPath>
					<path class="st3" d="M9.9,55c0.6,0,1-0.5,1-1.3v-8.5c0-1.1-0.7-2.5-1.7-3.1l-6.8-4.3c-0.3-0.2-0.6-0.3-0.8-0.3
						s-0.5,0.1-0.7,0.2c-0.2,0.2-0.3,0.6-0.3,1L1,47.6c0.1,1.1,0.9,2.5,1.8,3.1l6.2,4C9.3,54.9,9.6,55,9.9,55"/>
				</g>
				<g>
					<defs>
						<rect id="SVGID_9_" y="2.4" width="165" height="60.3"/>
					</defs>
					<clipPath id="SVGID_10_">
						<use xlink:href="#SVGID_9_"  style="overflow:visible;"/>
					</clipPath>
					<path class="st4" d="M21.9,62.6c0.6,0,1-0.5,1-1.3v-8.5c0-1.1-0.7-2.5-1.7-3.1L13.7,45c-0.3-0.2-0.6-0.3-0.8-0.3
						c-0.6,0-1,0.5-1,1.3v8.5c0,1.1,0.7,2.5,1.7,3.1l7.5,4.8C21.3,62.5,21.6,62.6,21.9,62.6"/>
				</g>
				<g>
					<defs>
						<rect id="SVGID_11_" y="2.4" width="165" height="60.3"/>
					</defs>
					<clipPath id="SVGID_12_">
						<use xlink:href="#SVGID_11_"  style="overflow:visible;"/>
					</clipPath>
					<path class="st5" d="M24.9,62.6c0.2,0,0.5-0.1,0.8-0.3l7.5-4.8c0.9-0.6,1.7-2,1.7-3.1V46c0-0.8-0.4-1.3-1-1.3
						c-0.2,0-0.5,0.1-0.8,0.3l-7.5,4.8c-0.9,0.6-1.7,2-1.7,3.1v8.5C23.9,62.1,24.3,62.6,24.9,62.6"/>
				</g>
				<g>
					<defs>
						<rect id="SVGID_13_" y="2.4" width="165" height="60.3"/>
					</defs>
					<clipPath id="SVGID_14_">
						<use xlink:href="#SVGID_13_"  style="overflow:visible;"/>
					</clipPath>
					<path class="st6" d="M24.9,48.8c0.2,0,0.5-0.1,0.8-0.3l7.5-4.8c0.9-0.6,1.7-2,1.7-3.1v-7.8c0-0.8-0.4-1.3-1.1-1.3
						c-0.2,0-0.5,0.1-0.8,0.2L25.6,36c-1,0.5-1.7,1.9-1.7,3v8.5C23.9,48.2,24.3,48.8,24.9,48.8"/>
				</g>
				<g>
					<defs>
						<rect id="SVGID_15_" y="2.4" width="165" height="60.3"/>
					</defs>
					<clipPath id="SVGID_16_">
						<use xlink:href="#SVGID_15_"  style="overflow:visible;"/>
					</clipPath>
					<path class="st7" d="M24.4,17.4c0.5,0,1.1-0.1,1.5-0.3l5.4-1.6c0.4-0.2,0.7-0.5,0.7-0.8c0-0.3-0.2-0.6-0.7-0.8l-5.4-2.4
						c-0.4-0.2-1-0.3-1.5-0.3c-0.5,0-1.1,0.1-1.5,0.3L17.5,14c-0.4,0.2-0.7,0.5-0.7,0.8c0,0.3,0.2,0.6,0.7,0.8l5.4,1.6
						C23.3,17.3,23.9,17.4,24.4,17.4"/>
				</g>
				<g>
					<defs>
						<rect id="SVGID_17_" y="2.4" width="165" height="60.3"/>
					</defs>
					<clipPath id="SVGID_18_">
						<use xlink:href="#SVGID_17_"  style="overflow:visible;"/>
					</clipPath>
					<path class="st8" d="M9.1,12.4c1.1,0,2.5-0.2,3.3-0.5l4.2-1.6c0.6-0.2,0.8-0.5,0.8-0.7S17,9,16.4,9l-4.5-0.3
						c-0.1,0-0.2,0-0.4,0c-1.1,0-2.5,0.2-3.3,0.5L4,10.9c-0.6,0.2-0.8,0.5-0.8,0.7s0.4,0.4,1,0.5l4.5,0.3
						C8.8,12.4,8.9,12.4,9.1,12.4"/>
				</g>
				<g>
					<defs>
						<rect id="SVGID_19_" y="2.4" width="165" height="60.3"/>
					</defs>
					<clipPath id="SVGID_20_">
						<use xlink:href="#SVGID_19_"  style="overflow:visible;"/>
					</clipPath>
					<path class="st9" d="M12.9,3.6l3.6,1.6c0.3,0.1,0.8,0.2,1.1,0.2l4-0.1c0.6,0,1-0.1,1-0.4c0.1-0.4-0.4-0.6-0.6-0.7
						c-0.1,0-0.1-0.1-0.2-0.1l-3.6-1.6c-0.3-0.1-0.8-0.2-1.1-0.2l-4,0.1c-0.6,0-1,0.1-1,0.4c-0.1,0.4,0.4,0.6,0.6,0.7
						C12.8,3.6,12.8,3.6,12.9,3.6"/>
				</g>
				<g>
					<defs>
						<rect id="SVGID_21_" y="2.4" width="165" height="60.3"/>
					</defs>
					<clipPath id="SVGID_22_">
						<use xlink:href="#SVGID_21_"  style="overflow:visible;"/>
					</clipPath>
					<path class="st10" d="M10.4,26.7c0.6,0,1.2-0.2,1.7-0.5l6.8-5.4c0.5-0.3,0.7-0.7,0.7-1.1c0-0.4-0.3-0.8-0.8-1.1l-6.6-2.5
						c-0.5-0.2-1.1-0.4-1.7-0.4c-0.7,0-1.3,0.1-1.7,0.4l-5.5,3.5c-0.5,0.2-0.8,0.7-0.8,1.1s0.2,0.8,0.7,1.1l5.7,4.5
						C9.2,26.6,9.8,26.7,10.4,26.7"/>
				</g>
				<g>
					<defs>
						<rect id="SVGID_23_" y="2.4" width="165" height="60.3"/>
					</defs>
					<clipPath id="SVGID_24_">
						<use xlink:href="#SVGID_23_"  style="overflow:visible;"/>
					</clipPath>
					<path class="st11" d="M9.9,41.1c0.6,0,1-0.5,1-1.3V32c0-1.1-0.8-2.4-1.7-3l-7.4-4.2c-0.3-0.2-0.5-0.2-0.8-0.2
						c-0.3,0-0.5,0.1-0.7,0.3c-0.2,0.2-0.4,0.6-0.3,1.1l0.4,7.5c0.1,1.1,0.8,2.5,1.7,3L9,40.8C9.3,41,9.6,41.1,9.9,41.1"/>
				</g>
				<g>
					<defs>
						<rect id="SVGID_25_" y="2.4" width="165" height="60.3"/>
					</defs>
					<clipPath id="SVGID_26_">
						<use xlink:href="#SVGID_25_"  style="overflow:visible;"/>
					</clipPath>
					<path class="st12" d="M23.4,35.6c0.7,0,1.3-0.1,1.7-0.4l7.4-4.3c0.5-0.3,0.8-0.7,0.8-1.1s-0.3-0.8-0.8-1.1l-7.4-3.3
						c-0.5-0.2-1.1-0.4-1.7-0.4s-1.3,0.1-1.7,0.4l-7.4,3.3c-0.5,0.3-0.8,0.7-0.8,1.1c0,0.4,0.3,0.8,0.8,1.1l7.4,4.3
						C22.1,35.4,22.7,35.6,23.4,35.6"/>
				</g>
				<g>
					<defs>
						<rect id="SVGID_27_" y="2.4" width="165" height="60.3"/>
					</defs>
					<clipPath id="SVGID_28_">
						<use xlink:href="#SVGID_27_"  style="overflow:visible;"/>
					</clipPath>
					<path class="st13" d="M21.9,48.8c0.6,0,1-0.5,1-1.3V39c0-1.1-0.8-2.4-1.7-3l-7.4-4.3c-0.3-0.2-0.5-0.2-0.8-0.2
						c-0.7,0-1.1,0.5-1.1,1.3v7.8c0,1.1,0.7,2.5,1.7,3.1l7.5,4.8C21.3,48.7,21.6,48.8,21.9,48.8"/>
				</g>
				<g>
					<defs>
						<rect id="SVGID_29_" y="2.4" width="165" height="60.3"/>
					</defs>
					<clipPath id="SVGID_30_">
						<use xlink:href="#SVGID_29_"  style="overflow:visible;"/>
					</clipPath>
					<path class="st14" d="M36.9,55c0.2,0,0.5-0.1,0.8-0.3l6.2-4c0.9-0.6,1.7-1.9,1.7-3.1l0.4-8.9c0-0.5-0.1-0.8-0.3-1
						c-0.2-0.2-0.4-0.2-0.7-0.2c-0.2,0-0.5,0.1-0.8,0.3l-6.8,4.3c-0.9,0.6-1.7,2-1.7,3.1v8.5C35.9,54.4,36.3,55,36.9,55"/>
				</g>
				<g>
					<defs>
						<rect id="SVGID_31_" y="2.4" width="165" height="60.3"/>
					</defs>
					<clipPath id="SVGID_32_">
						<use xlink:href="#SVGID_31_"  style="overflow:visible;"/>
					</clipPath>
					<path class="st15" d="M62,17c-0.4,0.1-0.7,0.1-1,0.1c-0.4,0-0.7,0.1-1,0.1c-0.4,0-0.7,0-1,0s-0.7,0-1.1,0H57v-0.5h1l-0.1-2.9
						h-0.7v-0.5h4.2v0.5h-0.8l-0.1,2.9c0.3,0,0.5-0.1,0.8-0.1c0.2,0,0.5-0.1,0.7-0.1L62,17L62,17z M63.4,20.6h-5
						c-0.1,0-0.1,0-0.1-0.1c0,0-0.1-0.1-0.1-0.1v-2.3h0.5v2h4.6L63.4,20.6L63.4,20.6z M58.5,16.8c0.3,0,0.6,0,0.8,0s0.5,0,0.7,0
						v-2.9h-1.6L58.5,16.8z M63.2,18.8h-0.5V16h-1.4v-0.5h1.3v-0.8h-1.3v-0.5h1.3V13h0.5L63.2,18.8L63.2,18.8z"/>
				</g>
				<g>
					<defs>
						<rect id="SVGID_33_" y="2.4" width="165" height="60.3"/>
					</defs>
					<clipPath id="SVGID_34_">
						<use xlink:href="#SVGID_33_"  style="overflow:visible;"/>
					</clipPath>
					<path class="st16" d="M68,16.6c-0.2,0.2-0.4,0.3-0.6,0.4c-0.2,0.1-0.5,0.1-0.8,0.1c-0.3,0-0.6-0.1-0.8-0.2
						c-0.2-0.1-0.5-0.2-0.6-0.4c-0.2-0.2-0.3-0.4-0.4-0.7c-0.1-0.2-0.1-0.5-0.1-0.8c0-0.3,0.1-0.5,0.1-0.8c0.1-0.2,0.2-0.5,0.4-0.7
						c0.2-0.2,0.4-0.3,0.6-0.4s0.5-0.2,0.8-0.2c0.3,0,0.5,0.1,0.8,0.2c0.2,0.1,0.4,0.2,0.6,0.4c0.2,0.2,0.3,0.4,0.4,0.7
						c0.1,0.2,0.1,0.5,0.1,0.8s-0.1,0.5-0.1,0.8C68.3,16.2,68.2,16.4,68,16.6 M66.6,16.6c0.5,0,0.8-0.1,1-0.4
						c0.2-0.3,0.4-0.7,0.4-1.1c0-0.4-0.1-0.8-0.4-1.1c-0.2-0.3-0.6-0.5-1-0.5c-0.5,0-0.8,0.2-1,0.5c-0.2,0.3-0.4,0.7-0.4,1.1
						c0,0.4,0.1,0.8,0.4,1.1C65.8,16.5,66.1,16.6,66.6,16.6 M70.8,20.6h-4.9c-0.1,0-0.1,0-0.1-0.1c0,0-0.1-0.1-0.1-0.1V18h0.5v2h4.5
						C70.8,20.1,70.8,20.6,70.8,20.6z M70.5,18.8H70V13h0.5v2h1.1v0.5h-1.1V18.8z"/>
				</g>
				<g>
					<defs>
						<rect id="SVGID_35_" y="2.4" width="165" height="60.3"/>
					</defs>
					<clipPath id="SVGID_36_">
						<use xlink:href="#SVGID_35_"  style="overflow:visible;"/>
					</clipPath>
					<path class="st17" d="M76.7,14.5h-4.5v-0.5h4.5V14.5z M76.4,16.2c0,0.4-0.2,0.7-0.5,0.9c-0.3,0.2-0.8,0.4-1.4,0.4
						s-1.1-0.1-1.4-0.4c-0.3-0.2-0.5-0.5-0.5-0.9c0-0.4,0.2-0.7,0.5-0.9c0.3-0.2,0.8-0.4,1.4-0.4s1.1,0.1,1.4,0.4
						C76.2,15.6,76.4,15.9,76.4,16.2 M75.4,16.8c0.2-0.1,0.4-0.3,0.4-0.5c0-0.2-0.1-0.4-0.4-0.6c-0.2-0.1-0.5-0.2-1-0.2
						c-0.4,0-0.7,0.1-1,0.2c-0.2,0.1-0.4,0.4-0.4,0.6c0,0.2,0.1,0.4,0.4,0.5s0.5,0.2,1,0.2C74.9,17,75.2,16.9,75.4,16.8 M75.6,13.4
						h-2.3V13h2.3V13.4z M78.2,20.5c0,0.1,0,0.1-0.1,0.1c0,0-0.1,0.1-0.1,0.1h-4.5c-0.1,0-0.1,0-0.1-0.1c0,0-0.1-0.1-0.1-0.1v-2.2
						c0-0.1,0-0.1,0.1-0.1c0,0,0.1-0.1,0.1-0.1h4.5c0.1,0,0.2,0.1,0.2,0.2V20.5z M77.7,18.6H74v1.6h3.7V18.6z M78.2,17.7h-0.5V13
						h0.5v2.2h1.1v0.5h-1.1V17.7z"/>
				</g>
				<g>
					<defs>
						<rect id="SVGID_37_" y="2.4" width="165" height="60.3"/>
					</defs>
					<clipPath id="SVGID_38_">
						<use xlink:href="#SVGID_37_"  style="overflow:visible;"/>
					</clipPath>
					<path class="st18" d="M84.7,20.4h-0.5v-4h-1c-0.1,0.9-0.2,1.6-0.5,2c-0.3,0.4-0.7,0.7-1.1,0.7c-0.2,0-0.5-0.1-0.7-0.2
						c-0.2-0.1-0.4-0.3-0.5-0.5c-0.1-0.2-0.2-0.5-0.4-0.9c-0.1-0.4-0.1-0.8-0.1-1.3c0-0.5,0.1-0.9,0.1-1.3c0.1-0.4,0.2-0.7,0.4-0.9
						c0.1-0.2,0.3-0.4,0.5-0.5c0.2-0.1,0.4-0.2,0.7-0.2c0.5,0,0.8,0.2,1.1,0.7c0.3,0.4,0.5,1.1,0.5,2h1v-2.8h0.5V20.4z M82.3,17.9
						c0.2-0.4,0.3-1,0.3-1.8c0-0.4-0.1-0.7-0.1-1c-0.1-0.3-0.1-0.5-0.2-0.8c-0.2-0.4-0.5-0.7-0.8-0.7c-0.3,0-0.6,0.2-0.8,0.7
						c-0.2,0.5-0.3,1.1-0.3,1.7c0,0.4,0,0.7,0.1,1c0.1,0.3,0.1,0.5,0.2,0.8c0.1,0.2,0.2,0.4,0.4,0.5c0.1,0.1,0.3,0.2,0.4,0.2
						C81.8,18.6,82.1,18.3,82.3,17.9 M86.1,20.7h-0.5V13h0.5V20.7z"/>
				</g>
				<g>
					<defs>
						<rect id="SVGID_39_" y="2.4" width="165" height="60.3"/>
					</defs>
					<clipPath id="SVGID_40_">
						<use xlink:href="#SVGID_39_"  style="overflow:visible;"/>
					</clipPath>
					<path class="st19" d="M93.9,15.9c-0.1,0.2-0.2,0.4-0.4,0.6c-0.2,0.2-0.4,0.3-0.6,0.4C92.7,17,92.4,17,92.1,17
						c-0.3,0-0.6-0.1-0.8-0.1c-0.2-0.1-0.4-0.2-0.6-0.4c-0.2-0.2-0.3-0.4-0.4-0.6s-0.1-0.5-0.1-0.8s0.1-0.5,0.1-0.8
						c0.1-0.2,0.2-0.4,0.4-0.6c0.2-0.2,0.4-0.3,0.6-0.4c0.2-0.1,0.5-0.1,0.8-0.1c0.3,0,0.5,0.1,0.8,0.1c0.2,0.1,0.4,0.2,0.6,0.4
						c0.2,0.2,0.3,0.4,0.4,0.6c0.1,0.2,0.1,0.5,0.1,0.8C94,15.3,94,15.6,93.9,15.9 M93.5,15.1c0-0.4-0.1-0.8-0.4-1
						c-0.2-0.3-0.6-0.4-1-0.4c-0.5,0-0.8,0.1-1,0.4s-0.4,0.6-0.4,1c0,0.4,0.1,0.7,0.4,1c0.2,0.3,0.6,0.4,1,0.4c0.5,0,0.8-0.1,1-0.4
						C93.4,15.8,93.5,15.4,93.5,15.1 M96.2,20.8h-0.5v-2.4h-4.5v-0.5H96c0.1,0,0.2,0.1,0.2,0.2L96.2,20.8L96.2,20.8z M96.2,17.5
						h-0.5V13h0.5V17.5z"/>
				</g>
				<g>
					<defs>
						<rect id="SVGID_41_" y="2.4" width="165" height="60.3"/>
					</defs>
					<clipPath id="SVGID_42_">
						<use xlink:href="#SVGID_41_"  style="overflow:visible;"/>
					</clipPath>
					<path class="st20" d="M103.5,20.8H103v-2h-4.7v-0.5h2.4v-1.2h-3.3v-0.5h7.1v0.5h-3.3v1.2h2.2c0.1,0,0.2,0.1,0.2,0.2L103.5,20.8
						L103.5,20.8z M103.7,16c-0.3-0.1-0.5-0.2-0.8-0.2c-0.3-0.1-0.5-0.2-0.8-0.4c-0.2-0.2-0.5-0.3-0.7-0.5c-0.2-0.2-0.4-0.4-0.5-0.7
						c-0.2,0.5-0.6,0.8-1.1,1.1c-0.5,0.3-1,0.5-1.7,0.7l-0.4-0.4c0.4-0.1,0.7-0.2,1.1-0.4c0.4-0.1,0.7-0.3,0.9-0.5
						c0.2-0.2,0.5-0.4,0.6-0.7c0.2-0.2,0.2-0.5,0.2-0.8V13h0.6v0.2c0,0.3,0.1,0.5,0.2,0.8c0.2,0.2,0.4,0.5,0.7,0.7
						c0.3,0.2,0.6,0.4,0.9,0.5c0.4,0.1,0.7,0.2,1,0.3L103.7,16z"/>
				</g>
				<g>
					<defs>
						<rect id="SVGID_43_" y="2.4" width="165" height="60.3"/>
					</defs>
					<clipPath id="SVGID_44_">
						<use xlink:href="#SVGID_43_"  style="overflow:visible;"/>
					</clipPath>
					<path class="st21" d="M109,14.9h-3.7v-0.5h3.7V14.9z M108.8,17.4c0,0.5-0.1,0.9-0.4,1.3c-0.3,0.3-0.7,0.5-1.2,0.5
						c-0.2,0-0.5-0.1-0.7-0.1c-0.2-0.1-0.4-0.2-0.5-0.4s-0.2-0.4-0.3-0.5s-0.1-0.4-0.1-0.7c0-0.5,0.1-0.9,0.4-1.3
						c0.3-0.3,0.7-0.5,1.2-0.5c0.5,0,0.9,0.2,1.2,0.5C108.6,16.5,108.8,16.9,108.8,17.4 M107.1,18.6c0.4,0,0.6-0.1,0.8-0.4
						c0.2-0.2,0.3-0.5,0.3-0.9s-0.1-0.7-0.3-0.9c-0.2-0.2-0.5-0.4-0.8-0.4c-0.4,0-0.6,0.1-0.8,0.4c-0.2,0.2-0.3,0.5-0.3,0.9
						s0.1,0.7,0.3,0.9C106.5,18.5,106.8,18.6,107.1,18.6 M108.2,13.7h-2v-0.5h2V13.7z M111.8,20.7h-0.5v-4.1h-1.1v3.7h-0.6v-7.3h0.5
						v3h1.1V13h0.5L111.8,20.7L111.8,20.7z"/>
				</g>
				<g>
					<defs>
						<rect id="SVGID_45_" y="2.4" width="165" height="60.3"/>
					</defs>
					<clipPath id="SVGID_46_">
						<use xlink:href="#SVGID_45_"  style="overflow:visible;"/>
					</clipPath>
					<path class="st22" d="M117.3,18.9c-0.5-0.3-0.9-0.7-1.3-1.1c-0.4-0.4-0.7-1-0.8-1.5c-0.2,0.6-0.4,1.1-0.8,1.6
						c-0.4,0.5-0.8,0.9-1.3,1.3l-0.5-0.4c0.8-0.5,1.3-1.1,1.7-1.7c0.4-0.7,0.6-1.5,0.6-2.5v-0.6h-1.7v-0.5h4v0.5h-1.7v0.8
						c0,0.8,0.2,1.5,0.5,2.1c0.4,0.6,0.9,1.2,1.7,1.7L117.3,18.9z M119.2,20.7h-0.5V13h0.5V20.7z"/>
				</g>
				<g>
					<defs>
						<rect id="SVGID_47_" y="2.4" width="165" height="60.3"/>
					</defs>
					<clipPath id="SVGID_48_">
						<use xlink:href="#SVGID_47_"  style="overflow:visible;"/>
					</clipPath>
					<path class="st23" d="M125.4,18.3c-0.2,0.1-0.4,0.1-0.7,0.1c-0.2,0.1-0.5,0.1-0.8,0.1s-0.5,0.1-0.8,0.1c-0.2,0-0.5,0.1-0.7,0.1
						H121c-0.1,0-0.1,0-0.1-0.1c0,0-0.1-0.1-0.1-0.1v-4.9c0-0.1,0-0.1,0.1-0.1c0,0,0.1-0.1,0.1-0.1h3.4v0.5h-3v4.3h1
						c0.3,0,0.6,0,1-0.1c0.3,0,0.6-0.1,0.9-0.1c0.3-0.1,0.5-0.1,0.7-0.1c0.2-0.1,0.4-0.1,0.5-0.1L125.4,18.3L125.4,18.3z
						 M126.3,20.7h-0.6V13h0.6v2.7h1.2v0.5h-1.2V20.7z"/>
				</g>
				<g>
					<defs>
						<rect id="SVGID_49_" y="2.4" width="165" height="60.3"/>
					</defs>
					<clipPath id="SVGID_50_">
						<use xlink:href="#SVGID_49_"  style="overflow:visible;"/>
					</clipPath>
					<path class="st24" d="M67.2,43.2h6.5V27.1H57v12.3c0,2.2,1.9,3.9,4.3,3.9h2v4.8h-7.8v3.4h19.5v-3.4h-7.9
						C67.2,48.1,67.2,43.2,67.2,43.2z M60.8,39.3v-8.9h9.1v9.4h-8.6C61,39.9,60.8,39.6,60.8,39.3"/>
				</g>
				<g>
					<defs>
						<rect id="SVGID_51_" y="2.4" width="165" height="60.3"/>
					</defs>
					<clipPath id="SVGID_52_">
						<use xlink:href="#SVGID_51_"  style="overflow:visible;"/>
					</clipPath>
					<path class="st25" d="M83.4,40.3h12.7v-3.4H83.4c-0.1,0-0.1-0.1-0.1-0.1v-6.3h12.9v-3.4H79.4v9.7
						C79.4,38.7,81.2,40.3,83.4,40.3"/>
				</g>
				<g>
					<defs>
						<rect id="SVGID_53_" y="2.4" width="165" height="60.3"/>
					</defs>
					<clipPath id="SVGID_54_">
						<use xlink:href="#SVGID_53_"  style="overflow:visible;"/>
					</clipPath>
					<polygon class="st26" points="77.9,46 85.8,46 85.8,51.6 89.6,51.6 89.6,46 97.5,46 97.5,42.6 77.9,42.6 					"/>
				</g>
				<g>
					<defs>
						<rect id="SVGID_55_" y="2.4" width="165" height="60.3"/>
					</defs>
					<clipPath id="SVGID_56_">
						<use xlink:href="#SVGID_55_"  style="overflow:visible;"/>
					</clipPath>
					<rect x="116.3" y="27.1" class="st27" width="3.8" height="24.5"/>
				</g>
				<g>
					<defs>
						<rect id="SVGID_57_" y="2.4" width="165" height="60.3"/>
					</defs>
					<clipPath id="SVGID_58_">
						<use xlink:href="#SVGID_57_"  style="overflow:visible;"/>
					</clipPath>
					<path class="st28" d="M160.4,43.2h-13.6v3.4h12.9v5h3.8V46C163.6,44.5,162.2,43.2,160.4,43.2"/>
				</g>
				<g>
					<defs>
						<rect id="SVGID_59_" y="2.4" width="165" height="60.3"/>
					</defs>
					<clipPath id="SVGID_60_">
						<use xlink:href="#SVGID_59_"  style="overflow:visible;"/>
					</clipPath>
					<path class="st29" d="M157.1,38.3v-1.5h6.5v-3.4h-12.9v-3h12.9v-3.4h-16.6v6.6c0,1.7,1.6,3.1,3.5,3.1h3v1.5h-7.9v3.4H165v-3.4
						L157.1,38.3L157.1,38.3z"/>
				</g>
				<g>
					<defs>
						<rect id="SVGID_61_" y="2.4" width="165" height="60.3"/>
					</defs>
					<clipPath id="SVGID_62_">
						<use xlink:href="#SVGID_61_"  style="overflow:visible;"/>
					</clipPath>
					<rect x="100.4" y="46.8" class="st30" width="12.9" height="3.4"/>
				</g>
				<g>
					<defs>
						<rect id="SVGID_63_" y="2.4" width="165" height="60.3"/>
					</defs>
					<clipPath id="SVGID_64_">
						<use xlink:href="#SVGID_63_"  style="overflow:visible;"/>
					</clipPath>
					<path class="st31" d="M106.9,45L106.9,45c3.4,0,6.1-2.5,6.1-5.5v-7c0-3-2.8-5.5-6.1-5.5c-3.4,0-6.1,2.5-6.1,5.5v7
						C100.7,42.6,103.5,45,106.9,45 M104.5,32.6c0-1.1,1.1-2.1,2.4-2.1c1.3,0,2.4,1,2.4,2.1v7c0,1.1-1.1,2.1-2.4,2.1
						c-1.3,0-2.4-1-2.4-2.1V32.6z"/>
				</g>
				<g>
					<defs>
						<rect id="SVGID_65_" y="2.4" width="165" height="60.3"/>
					</defs>
					<clipPath id="SVGID_66_">
						<use xlink:href="#SVGID_65_"  style="overflow:visible;"/>
					</clipPath>
					<polygon class="st32" points="123,46 130.9,46 130.9,51.6 134.7,51.6 134.7,46 142.5,46 142.5,42.6 123,42.6 					"/>
				</g>
				<g>
					<defs>
						<rect id="SVGID_67_" y="2.4" width="165" height="60.3"/>
					</defs>
					<clipPath id="SVGID_68_">
						<use xlink:href="#SVGID_67_"  style="overflow:visible;"/>
					</clipPath>
					<path class="st33" d="M137.3,30.6v9.7h3.8v-9.7c0-1.9-1.7-3.5-3.9-3.5h-12.7v3.4h12.7C137.2,30.5,137.3,30.5,137.3,30.6"/>
				</g>
			</g>
		</g>
	</g>
</g>
</svg>
