<svg id="레이어_1" data-name="레이어 1" xmlns="http://www.w3.org/2000/svg" xmlns:xlink="http://www.w3.org/1999/xlink" viewBox="0 0 230 280"><defs><style>.cls-1{fill:none;}.cls-2{clip-path:url(#clip-path);}.cls-3{fill:#f5c174;}.cls-4{fill:#e9932b;}.cls-5{fill:#26316e;}.cls-6{fill:#732a7d;}.cls-7{fill:#bf2244;}.cls-8{fill:#d94f27;}.cls-9{fill:#75c188;}.cls-10{fill:#59afba;}.cls-11{fill:#a5d9e1;}.cls-12{fill:#1794ab;}.cls-13{fill:#075197;}.cls-14{fill:#186859;}.cls-15{fill:#383375;}</style><clipPath id="clip-path"><rect class="cls-1" width="230" height="279.03"/></clipPath></defs><g id="모두의구독_세로_SUB"><g class="cls-2"><g class="cls-2"><path class="cls-3" d="M148.9,74.17A10,10,0,0,0,153.78,73l21-12.11a3.33,3.33,0,0,0,0-6.24L153.8,48.4a10.74,10.74,0,0,0-9.75,0l-21,6.26a3.33,3.33,0,0,0,0,6.24L144,73a10,10,0,0,0,4.87,1.17"/><path class="cls-4" d="M153.17,109.43a4.49,4.49,0,0,0,2.4-.79L175,96.23a12.13,12.13,0,0,0,5-8.6l1-21.18a4,4,0,0,0-.9-3,2.62,2.62,0,0,0-1.95-.81,4.55,4.55,0,0,0-2.29.7l-20.78,12a10.78,10.78,0,0,0-4.87,8.44v22c0,2.25,1.14,3.7,2.9,3.7"/><path class="cls-5" d="M76.83,148.6c1.76,0,2.9-1.45,2.9-3.7V120.83A11.42,11.42,0,0,0,75,112.2L55.76,99.93a4.47,4.47,0,0,0-2.36-.8,2.44,2.44,0,0,0-1.81.75,4,4,0,0,0-.87,3L52,128.05a12.19,12.19,0,0,0,5,8.6L74.43,147.8a4.51,4.51,0,0,0,2.4.8"/><path class="cls-6" d="M110.74,170.23c1.76,0,2.91-1.46,2.91-3.71V142.45a11.43,11.43,0,0,0-4.74-8.63L87.73,120.31a4.53,4.53,0,0,0-2.4-.8c-1.77,0-2.91,1.46-2.91,3.71V147.3a11.43,11.43,0,0,0,4.74,8.63l21.18,13.49a4.44,4.44,0,0,0,2.4.81"/><path class="cls-7" d="M119.24,170.23a4.44,4.44,0,0,0,2.4-.81l21.21-13.51a11.42,11.42,0,0,0,4.73-8.63V123.22c0-2.25-1.14-3.71-2.91-3.71a4.53,4.53,0,0,0-2.4.8l-21.2,13.52a11.39,11.39,0,0,0-4.73,8.62v24.07c0,2.25,1.14,3.71,2.9,3.71"/><path class="cls-8" d="M119.24,131.07a4.49,4.49,0,0,0,2.4-.79l21.21-13.52a11.42,11.42,0,0,0,4.73-8.63V85.93c0-2.32-1.21-3.82-3.1-3.82a4.67,4.67,0,0,0-2.31.69l-21,12.1a10.78,10.78,0,0,0-4.87,8.44v24c0,2.25,1.14,3.7,2.9,3.7"/><path class="cls-9" d="M117.91,42.49a10.89,10.89,0,0,0,4.25-.78l15.28-4.5c1.26-.55,1.95-1.33,1.95-2.19s-.69-1.64-1.95-2.2l-15.28-6.71a11.94,11.94,0,0,0-8.49,0L98.38,32.82c-1.25.56-1.94,1.34-1.94,2.2s.69,1.64,1.94,2.19l15.29,4.5a10.81,10.81,0,0,0,4.24.78"/><path class="cls-10" d="M74.61,28.27A29.66,29.66,0,0,0,84,26.67l11.79-4.52c1.65-.63,2.39-1.29,2.28-2S97,19,95.25,18.84l-12.6-.9c-.36,0-.75,0-1.16,0a29.66,29.66,0,0,0-9.34,1.6L60.37,24c-1.65.64-2.4,1.3-2.29,2s1,1.15,2.78,1.28l12.58.9c.37,0,.76,0,1.17,0"/><path class="cls-11" d="M85.36,3.51,95.62,8.06a9,9,0,0,0,3.19.65l11.24-.23c1.75,0,2.68-.39,2.84-1.11.22-1-1.23-1.71-1.71-1.95l-.47-.22L100.44.64A8.94,8.94,0,0,0,97.25,0L86,.22c-1.75,0-2.68.4-2.84,1.12-.22,1,1.23,1.71,1.71,2l.47.22"/><path class="cls-12" d="M78.28,68.85A8.66,8.66,0,0,0,83,67.55l19.07-15.2a3.82,3.82,0,0,0,2-3.27,3.8,3.8,0,0,0-2.3-3.06L83.23,38.85a11.81,11.81,0,0,0-9.91,0L57.68,48.68a3.41,3.41,0,0,0-.3,6.33L73.54,67.56a8.74,8.74,0,0,0,4.74,1.29"/><path class="cls-13" d="M76.83,109.45c1.76,0,2.9-1.45,2.9-3.7v-22a10.76,10.76,0,0,0-4.87-8.44l-20.78-12a4.55,4.55,0,0,0-2.29-.7,2.65,2.65,0,0,0-1.95.8,4,4,0,0,0-.9,3l1,21.19a12.13,12.13,0,0,0,5,8.59l19.46,12.41a4.51,4.51,0,0,0,2.4.8"/><path class="cls-14" d="M115,93.74a9.91,9.91,0,0,0,4.87-1.16l21-12.1a3.33,3.33,0,0,0,0-6.24l-20.93-9.18a10.72,10.72,0,0,0-9.74,0l-21,9.18a3.33,3.33,0,0,0,0,6.24l21,12.1A9.91,9.91,0,0,0,115,93.74"/><path class="cls-5" d="M110.74,131.07c1.77,0,2.91-1.45,2.91-3.71v-24a10.79,10.79,0,0,0-4.88-8.44L87.83,82.81a4.59,4.59,0,0,0-2.32-.7c-1.87,0-3.09,1.5-3.09,3.82v22.2a11.45,11.45,0,0,0,4.73,8.63l21.19,13.51a4.51,4.51,0,0,0,2.4.8"/><path class="cls-8" d="M153.18,148.58a4.49,4.49,0,0,0,2.39-.79l17.49-11.16a12.11,12.11,0,0,0,5-8.59l1.23-25.19a3.94,3.94,0,0,0-.87-3,2.41,2.41,0,0,0-1.8-.75,4.47,4.47,0,0,0-2.37.8L155,112.19a11.39,11.39,0,0,0-4.73,8.62v24.07c0,2.25,1.14,3.7,2.91,3.7"/><path class="cls-15" d="M29.68,268.36c-1,.14-2,.24-2.95.33s-1.91.14-2.85.17l-2.93,0H15.36V267.6h2.92l-.13-8.27H16.08V258H27.91v1.29H25.63l-.09,8.15,2.25-.16q1.08-.09,1.89-.24Zm4,10.05H19.56a.51.51,0,0,1-.37-.1.48.48,0,0,1-.1-.37v-6.46h1.58v5.6h13ZM19.78,267.57h2.4l1.9,0,.05-8.2H19.68Zm13.31,5.64H31.54V265.3H27.76V264h3.78v-2.36H27.76v-1.31h3.78V257h1.55Z"/><path class="cls-15" d="M46.62,267.18a4.75,4.75,0,0,1-1.75,1.18,6.49,6.49,0,0,1-4.62,0,5.38,5.38,0,0,1-1.78-1.2,5.24,5.24,0,0,1-1.13-1.8,6.22,6.22,0,0,1-.4-2.29,6.37,6.37,0,0,1,.4-2.31,5.23,5.23,0,0,1,1.13-1.82,5.38,5.38,0,0,1,1.78-1.2,6.11,6.11,0,0,1,2.32-.43,5.94,5.94,0,0,1,2.28.43,5.23,5.23,0,0,1,1.77,1.2,5.43,5.43,0,0,1,1.15,1.82,6.68,6.68,0,0,1,0,4.61,5.33,5.33,0,0,1-1.15,1.82m-4,.2a3.63,3.63,0,0,0,3-1.24,5.1,5.1,0,0,0,0-6.17,4.06,4.06,0,0,0-5.92,0,5.1,5.1,0,0,0,0,6.17,3.63,3.63,0,0,0,3,1.24m11.88,11H40.59a.47.47,0,0,1-.36-.1.48.48,0,0,1-.1-.37v-6.69h1.55v5.83H54.45Zm-.74-5.13H52.15V257h1.56v5.68h3.11V264H53.71Z"/><path class="cls-15" d="M71.19,261.35H58.62v-1.28H71.19Zm-1,4.84a2.92,2.92,0,0,1-1.38,2.51,6.91,6.91,0,0,1-3.93.95A6.9,6.9,0,0,1,61,268.7a3,3,0,0,1,0-5,6.82,6.82,0,0,1,3.92-.95,6.83,6.83,0,0,1,3.93.95,2.91,2.91,0,0,1,1.38,2.5m-2.62,1.63a1.75,1.75,0,0,0,1-1.6,1.8,1.8,0,0,0-1-1.63,6.38,6.38,0,0,0-5.4,0,1.8,1.8,0,0,0-1,1.63,1.73,1.73,0,0,0,1,1.59,5.55,5.55,0,0,0,2.7.55,5.63,5.63,0,0,0,2.69-.54m.5-9.58h-6.5V257h6.5Zm7.45,19.95a.51.51,0,0,1-.11.37.5.5,0,0,1-.36.1H62.54a.51.51,0,0,1-.37-.1.57.57,0,0,1-.09-.37V272a.56.56,0,0,1,.09-.36.47.47,0,0,1,.37-.11H75.06a.41.41,0,0,1,.47.47ZM74,272.78H63.63v4.57H74Zm1.48-2.54H73.93V257h1.55V263H78.6v1.36H75.48Z"/><path class="cls-15" d="M93.71,277.85H92.15V266.56H89.36a11,11,0,0,1-1.43,5.69,3.8,3.8,0,0,1-3.21,1.87,3.62,3.62,0,0,1-1.89-.51,4.15,4.15,0,0,1-1.46-1.53,8.88,8.88,0,0,1-1-2.58,19.49,19.49,0,0,1,0-7.25,9,9,0,0,1,1-2.56,4.07,4.07,0,0,1,1.46-1.53,3.62,3.62,0,0,1,1.89-.51,3.82,3.82,0,0,1,3.21,1.85,10.77,10.77,0,0,1,1.43,5.63h2.79v-7.8h1.56Zm-6.77-6.94a11.86,11.86,0,0,0,.89-5,16.83,16.83,0,0,0-.26-2.86,8.93,8.93,0,0,0-.66-2.15c-.56-1.25-1.3-1.88-2.22-1.88s-1.66.63-2.22,1.88a12.72,12.72,0,0,0-.86,5,15.71,15.71,0,0,0,.23,2.88,9.42,9.42,0,0,0,.64,2.16,3.86,3.86,0,0,0,1,1.37,1.87,1.87,0,0,0,1.23.48c.91,0,1.66-.62,2.25-1.85m10.91,8H96.27V257h1.58Z"/><path class="cls-15" d="M119.73,265.06a4.88,4.88,0,0,1-1.14,1.73,5,5,0,0,1-1.76,1.13,6.4,6.4,0,0,1-2.29.4,6,6,0,0,1-2.3-.42,5.16,5.16,0,0,1-1.77-1.17,5.09,5.09,0,0,1-1.11-1.72,5.7,5.7,0,0,1-.4-2.17,5.8,5.8,0,0,1,.4-2.19,4.87,4.87,0,0,1,1.14-1.74,5,5,0,0,1,1.75-1.16,6.11,6.11,0,0,1,2.32-.42,5.85,5.85,0,0,1,2.27.42,5.3,5.3,0,0,1,1.75,1.16,4.81,4.81,0,0,1,1.15,1.73,5.86,5.86,0,0,1,.41,2.2,6.4,6.4,0,0,1-.42,2.22m-1.16-2.25a4.1,4.1,0,0,0-1.06-2.89,3.71,3.71,0,0,0-3-1.21,3.56,3.56,0,0,0-2.93,1.21,4.63,4.63,0,0,0,0,5.8,3.53,3.53,0,0,0,2.93,1.21,3.68,3.68,0,0,0,3-1.21,4.27,4.27,0,0,0,1.06-2.91M126.2,279h-1.56v-6.79H111.88v-1.33h13.85a.41.41,0,0,1,.47.47Zm0-9.28h-1.55V257h1.55Z"/><path class="cls-15" d="M146.86,279h-1.57v-5.82H132V271.9h6.73v-3.36h-9.23v-1.31h20.1v1.31h-9.31v3.36h6.07c.32,0,.47.15.47.46Zm.52-13.63a15,15,0,0,1-2.36-.75,15.66,15.66,0,0,1-2.2-1.12,10.12,10.12,0,0,1-1.87-1.47,7.81,7.81,0,0,1-1.35-1.82,9.2,9.2,0,0,1-3.12,3.21,15.49,15.49,0,0,1-4.7,1.95l-1.14-1.21a20,20,0,0,0,3.1-1,12.14,12.14,0,0,0,2.58-1.41,6.71,6.71,0,0,0,1.77-1.8,4.15,4.15,0,0,0,.65-2.27V257h1.65v.77a4,4,0,0,0,.72,2.31A7.58,7.58,0,0,0,143,262a13.28,13.28,0,0,0,2.62,1.38,17.28,17.28,0,0,0,2.86.86Z"/><path class="cls-15" d="M162.32,262.44H151.85v-1.33h10.47Zm-.59,6.94a4.93,4.93,0,0,1-1.26,3.5,4.23,4.23,0,0,1-3.33,1.36,4.93,4.93,0,0,1-1.94-.36,4,4,0,0,1-1.45-1,4.31,4.31,0,0,1-.9-1.53,5.86,5.86,0,0,1-.31-2,5.05,5.05,0,0,1,1.24-3.53,4.72,4.72,0,0,1,6.69,0,5,5,0,0,1,1.26,3.53m-4.59,3.55a2.77,2.77,0,0,0,2.24-1,3.82,3.82,0,0,0,.84-2.55,4.07,4.07,0,0,0-.8-2.58,3,3,0,0,0-4.57,0,4.07,4.07,0,0,0-.8,2.58,4,4,0,0,0,.8,2.55,2.77,2.77,0,0,0,2.29,1M160,259h-5.73v-1.36H160Zm10.17,19.9h-1.58V267.3h-3.11v10.55H163.9V257.33h1.53v8.54h3.11V257h1.58Z"/><path class="cls-15" d="M185.9,273.75a16.49,16.49,0,0,1-3.56-3.22,14,14,0,0,1-2.37-4.22,13.69,13.69,0,0,1-2.31,4.51,19,19,0,0,1-3.51,3.54l-1.48-1.08a13.58,13.58,0,0,0,4.86-4.94,14.1,14.1,0,0,0,1.63-7v-1.76h-4.87v-1.33h11.49v1.33h-5v2.25a12,12,0,0,0,1.5,6,13,13,0,0,0,4.9,4.69Zm5.38,5.13H189.7V257h1.58Z"/><path class="cls-15" d="M208.71,272.12l-1.84.32c-.7.11-1.42.22-2.18.32s-1.56.18-2.3.23-1.41.09-2,.09h-4.18a.51.51,0,0,1-.37-.11.55.55,0,0,1-.1-.36V258.76a.61.61,0,0,1,.1-.35.47.47,0,0,1,.37-.12h9.46v1.33h-8.37v12.05l2.79,0c.89,0,1.78,0,2.68-.11s1.74-.16,2.53-.26,1.49-.2,2.09-.31,1-.19,1.34-.26Zm2.55,6.79h-1.63V257h1.63v7.7h3.38V266h-3.38Z"/><path class="cls-15" d="M24.54,223.25H38.05v-34H3V215.1c0,4.5,4.09,8.15,9.15,8.15h4.36v10.1H0v7.12H41.08v-7.12H24.54ZM11,215.1V196.39H30.08v19.76H12.18A1.12,1.12,0,0,1,11,215.1"/><path class="cls-15" d="M58.49,217.09H85.24V210H58.49a.28.28,0,0,1-.3-.28V196.39H85.24v-7.1h-35v20.43c0,4.08,3.7,7.37,8.27,7.37"/><polygon class="cls-15" points="47.19 229.04 63.73 229.04 63.73 240.89 71.72 240.89 71.72 229.04 88.27 229.04 88.27 221.92 47.19 221.92 47.19 229.04"/><rect class="cls-15" x="127.63" y="189.29" width="8" height="51.6"/><path class="cls-15" d="M220.38,223.24H192v7.11H219V240.9h8V229.11c0-3.24-2.95-5.87-6.59-5.87"/><path class="cls-15" d="M213.46,213V209.8H227v-7.1H199.92v-6.31H227v-7.1H192v14c0,3.59,3.27,6.52,7.32,6.52h6.19V213H188.92v7.12H230V213Z"/><rect class="cls-15" x="94.37" y="230.73" width="27.15" height="7.12"/><path class="cls-15" d="M108,227.05h0c7.12,0,13-5.19,13-11.53v-14.7c0-6.34-5.83-11.53-13-11.53s-13,5.19-13,11.53v14.7c0,6.34,5.83,11.53,13,11.53m-5-26.23c0-2.4,2.28-4.43,5-4.43s5,2,5,4.43v14.7c0,2.4-2.28,4.43-5,4.43s-5-2-5-4.43Z"/><polygon class="cls-15" points="141.73 229.04 158.28 229.04 158.28 240.89 166.27 240.89 166.27 229.04 182.81 229.04 182.81 221.92 141.73 221.92 141.73 229.04"/><path class="cls-15" d="M171.81,196.66v20.43h8V196.66c0-4.07-3.71-7.37-8.29-7.37H144.76v7.1H171.5a.29.29,0,0,1,.31.27"/></g></g></g></svg>