<svg id="레이어_1" data-name="레이어 1" xmlns="http://www.w3.org/2000/svg" xmlns:xlink="http://www.w3.org/1999/xlink" viewBox="0 0 425 156"><defs><style>.cls-1{fill:none;}.cls-2{clip-path:url(#clip-path);}.cls-3{fill:#f5c174;}.cls-4{fill:#e9932b;}.cls-5{fill:#26316e;}.cls-6{fill:#732a7d;}.cls-7{fill:#bf2244;}.cls-8{fill:#d94f27;}.cls-9{fill:#75c188;}.cls-10{fill:#59afba;}.cls-11{fill:#a5d9e1;}.cls-12{fill:#1794ab;}.cls-13{fill:#075197;}.cls-14{fill:#186859;}.cls-15{fill:#383375;}</style><clipPath id="clip-path"><rect class="cls-1" y="0.36" width="425" height="155.28"/></clipPath></defs><g id="모두의구독_가로_SUB"><g class="cls-2"><g class="cls-2"><path class="cls-3" d="M91.2,68A9,9,0,0,0,95.64,67L114.77,55.9a3,3,0,0,0,0-5.69l-19.11-5.7a9.85,9.85,0,0,0-8.89,0L67.65,50.22a3,3,0,0,0,0,5.7l19.1,11A9,9,0,0,0,91.2,68"/><path class="cls-4" d="M95.09,100.19a4.16,4.16,0,0,0,2.19-.73L115,88.14a11.09,11.09,0,0,0,4.56-7.84L120.53,61a3.65,3.65,0,0,0-.82-2.76,2.41,2.41,0,0,0-1.78-.74,4.23,4.23,0,0,0-2.09.64l-19,10.94a9.86,9.86,0,0,0-4.45,7.71v20c0,2.06,1,3.39,2.65,3.39"/><path class="cls-5" d="M25.45,135.92c1.61,0,2.65-1.33,2.65-3.39v-22a10.42,10.42,0,0,0-4.32-7.87L6.23,91.52a4,4,0,0,0-2.16-.74,2.19,2.19,0,0,0-1.64.69,3.55,3.55,0,0,0-.79,2.71l1.13,23A11.13,11.13,0,0,0,7.32,125l15.94,10.17a4.16,4.16,0,0,0,2.19.73"/><path class="cls-6" d="M56.38,155.64c1.61,0,2.66-1.33,2.66-3.38V130.31a10.45,10.45,0,0,0-4.32-7.88L35.39,110.11a4,4,0,0,0-2.19-.73c-1.61,0-2.65,1.32-2.65,3.38v22a10.42,10.42,0,0,0,4.32,7.87L54.2,154.91a4.13,4.13,0,0,0,2.18.73"/><path class="cls-7" d="M64.14,155.64a4.16,4.16,0,0,0,2.19-.73l19.34-12.33A10.42,10.42,0,0,0,90,134.71v-22c0-2.06-1-3.38-2.65-3.38a4.12,4.12,0,0,0-2.19.72L65.8,122.44a10.42,10.42,0,0,0-4.31,7.87v21.95c0,2.05,1,3.38,2.65,3.38"/><path class="cls-8" d="M64.14,119.93a4.16,4.16,0,0,0,2.19-.73l19.34-12.33A10.42,10.42,0,0,0,90,99V78.74c0-2.11-1.11-3.48-2.82-3.48a4.25,4.25,0,0,0-2.11.63l-19.13,11a9.83,9.83,0,0,0-4.44,7.7v21.91c0,2.06,1,3.39,2.65,3.39"/><path class="cls-9" d="M62.93,39.12a10,10,0,0,0,3.87-.71l13.94-4.1c1.15-.51,1.77-1.22,1.77-2s-.62-1.49-1.77-2L66.8,24.17a11.08,11.08,0,0,0-7.75,0L45.11,30.3c-1.14.51-1.77,1.22-1.77,2s.63,1.5,1.77,2l13.94,4.1a10.07,10.07,0,0,0,3.88.71"/><path class="cls-10" d="M23.43,26.14a27.23,27.23,0,0,0,8.51-1.45L42.7,20.57c1.5-.58,2.18-1.19,2.08-1.86s-.92-1.05-2.53-1.17l-11.49-.82c-.33,0-.69,0-1.06,0a27.06,27.06,0,0,0-8.52,1.46L10.43,22.27c-1.5.57-2.18,1.18-2.08,1.85s.93,1.05,2.53,1.17l11.48.82c.34,0,.69,0,1.07,0"/><path class="cls-11" d="M33.23,3.56,42.6,7.72a8.19,8.19,0,0,0,2.9.58l10.26-.2c1.59,0,2.44-.36,2.58-1,.2-.9-1.12-1.56-1.55-1.78l-.43-.19L47,1A8.13,8.13,0,0,0,44.08.36L33.83.56c-1.59,0-2.44.37-2.58,1-.21.9,1.12,1.56,1.55,1.78l.43.2"/><path class="cls-12" d="M26.77,63.16A7.92,7.92,0,0,0,31.09,62l17.4-13.87a3.11,3.11,0,0,0-.27-5.77L31.28,35.8a9.84,9.84,0,0,0-4.51-1,9.88,9.88,0,0,0-4.52,1L8,44.76a3.48,3.48,0,0,0-2.1,2.8,3.48,3.48,0,0,0,1.83,3L22.45,62a8,8,0,0,0,4.32,1.17"/><path class="cls-13" d="M25.45,100.2c1.61,0,2.65-1.32,2.65-3.38v-20a9.86,9.86,0,0,0-4.45-7.7L4.7,58.13a4.13,4.13,0,0,0-2.09-.64,2.39,2.39,0,0,0-1.78.73A3.65,3.65,0,0,0,0,61L1,80.31a11.09,11.09,0,0,0,4.56,7.84L23.26,99.48a4.12,4.12,0,0,0,2.19.72"/><path class="cls-14" d="M60.26,85.87a9.12,9.12,0,0,0,4.45-1.06l19.1-11a3,3,0,0,0,0-5.69L64.72,59.71a9.77,9.77,0,0,0-8.89,0L36.71,68.08a3,3,0,0,0,0,5.69l19.11,11a9.11,9.11,0,0,0,4.44,1.06"/><path class="cls-5" d="M56.38,119.93c1.62,0,2.66-1.33,2.66-3.39V94.63a9.84,9.84,0,0,0-4.45-7.7l-19.11-11a4.17,4.17,0,0,0-2.11-.64c-1.71,0-2.82,1.37-2.82,3.48V99a10.42,10.42,0,0,0,4.32,7.87L54.2,119.2a4.13,4.13,0,0,0,2.18.73"/><path class="cls-8" d="M95.09,135.9a4.16,4.16,0,0,0,2.19-.73l16-10.17a11.09,11.09,0,0,0,4.56-7.84l1.12-23a3.63,3.63,0,0,0-.79-2.71,2.23,2.23,0,0,0-1.65-.69,4.1,4.1,0,0,0-2.16.73L96.76,102.7a10.38,10.38,0,0,0-4.32,7.87v22c0,2,1,3.38,2.65,3.38"/><path class="cls-15" d="M159.74,38.13c-.91.12-1.81.21-2.69.29s-1.74.13-2.6.16l-2.67,0h-5.1V37.43h2.66l-.12-7.55h-1.89V28.71h10.79v1.17h-2.07L156,37.32l2.06-.15a14.29,14.29,0,0,0,1.72-.22Zm3.6,9.17H150.51a.47.47,0,0,1-.34-.1.47.47,0,0,1-.09-.33V41h1.44v5.11h11.82Zm-12.63-9.89,2.18,0q1,0,1.74,0l0-7.48h-4Zm12.14,5.13h-1.42V35.33H158V34.14h3.44V32H158v-1.2h3.44V27.72h1.42Z"/><path class="cls-15" d="M175.19,37.05a4.52,4.52,0,0,1-1.6,1.08,5.63,5.63,0,0,1-2.09.38,5.52,5.52,0,0,1-2.12-.39,4.84,4.84,0,0,1-1.62-1.1,4.73,4.73,0,0,1-1-1.64,5.86,5.86,0,0,1-.36-2.1,5.94,5.94,0,0,1,.36-2.1,4.7,4.7,0,0,1,2.66-2.75A5.52,5.52,0,0,1,171.5,28a5.35,5.35,0,0,1,2.08.39,4.88,4.88,0,0,1,1.61,1.09,5,5,0,0,1,1.05,1.66,6.17,6.17,0,0,1,0,4.21,5,5,0,0,1-1.05,1.66m-3.69.18a3.33,3.33,0,0,0,2.7-1.13,4.65,4.65,0,0,0,0-5.63,3.7,3.7,0,0,0-5.4,0,4.65,4.65,0,0,0,0,5.63,3.33,3.33,0,0,0,2.7,1.13M182.33,47.3H169.7a.47.47,0,0,1-.34-.1.47.47,0,0,1-.09-.33V40.76h1.42v5.32h11.64Zm-.67-4.69h-1.42V27.72h1.42V32.9h2.83v1.24h-2.83Z"/><path class="cls-15" d="M197.6,31.73H186.14V30.56H197.6Zm-.9,4.41a2.66,2.66,0,0,1-1.26,2.29,7.8,7.8,0,0,1-7.16,0,2.7,2.7,0,0,1,0-4.57,7.8,7.8,0,0,1,7.16,0,2.66,2.66,0,0,1,1.26,2.28m-2.39,1.49a1.6,1.6,0,0,0,.93-1.46,1.67,1.67,0,0,0-.92-1.49,5.9,5.9,0,0,0-4.93,0,1.66,1.66,0,0,0-.91,1.49,1.58,1.58,0,0,0,.91,1.45,6.24,6.24,0,0,0,4.92,0m.45-8.74h-5.92V27.72h5.92Zm6.81,18.2a.47.47,0,0,1-.1.34.5.5,0,0,1-.33.09H189.72a.35.35,0,0,1-.43-.43v-5.7a.45.45,0,0,1,.09-.32.43.43,0,0,1,.34-.1h11.42a.38.38,0,0,1,.43.42Zm-1.4-4.93h-9.46v4.17h9.46Zm1.35-2.32H200.1V27.72h1.42v5.54h2.84V34.5h-2.84Z"/><path class="cls-15" d="M218.14,46.78h-1.42V36.48h-2.54a10,10,0,0,1-1.31,5.2,3.45,3.45,0,0,1-2.93,1.69,3.28,3.28,0,0,1-1.72-.46,3.8,3.8,0,0,1-1.33-1.39,7.82,7.82,0,0,1-.86-2.36,14.74,14.74,0,0,1-.32-3.31,14.65,14.65,0,0,1,.32-3.3,7.69,7.69,0,0,1,.86-2.34,3.91,3.91,0,0,1,1.33-1.4,3.38,3.38,0,0,1,1.72-.46A3.47,3.47,0,0,1,212.87,30a9.8,9.8,0,0,1,1.31,5.14h2.54V28.06h1.42ZM212,40.45a10.81,10.81,0,0,0,.81-4.6,15.16,15.16,0,0,0-.23-2.61,9.26,9.26,0,0,0-.6-2c-.51-1.14-1.19-1.71-2-1.71s-1.52.57-2,1.71a11.59,11.59,0,0,0-.79,4.57,14.91,14.91,0,0,0,.21,2.63,8.22,8.22,0,0,0,.59,2,3.46,3.46,0,0,0,.89,1.25,1.71,1.71,0,0,0,1.12.44c.83,0,1.51-.57,2.05-1.69m10,7.27h-1.44v-20h1.44Z"/><path class="cls-15" d="M241.88,35.11a4.37,4.37,0,0,1-1,1.58,4.58,4.58,0,0,1-1.61,1,5.8,5.8,0,0,1-2.09.36,5.57,5.57,0,0,1-2.1-.38,4.85,4.85,0,0,1-1.61-1.06,4.77,4.77,0,0,1-1-1.58,5.29,5.29,0,0,1-.36-2,5.38,5.38,0,0,1,.36-2,4.73,4.73,0,0,1,2.64-2.65,5.66,5.66,0,0,1,2.11-.38,5.51,5.51,0,0,1,2.08.38,5,5,0,0,1,1.6,1.06,4.4,4.4,0,0,1,1,1.58,5.23,5.23,0,0,1,.37,2,5.73,5.73,0,0,1-.38,2m-1.06-2a3.75,3.75,0,0,0-1-2.64,3.4,3.4,0,0,0-2.71-1.1,3.28,3.28,0,0,0-2.68,1.1,4.28,4.28,0,0,0,0,5.3,3.28,3.28,0,0,0,2.68,1.1,3.4,3.4,0,0,0,2.71-1.1,3.92,3.92,0,0,0,1-2.66m7,14.8h-1.41v-6.2H234.72V40.45h12.64a.37.37,0,0,1,.42.42Zm0-8.47h-1.42V27.72h1.42Z"/><path class="cls-15" d="M266.63,47.86h-1.44V42.54H253.1V41.35h6.15V38.28h-8.43V37.09h18.34v1.19h-8.49v3.07h5.54a.37.37,0,0,1,.42.43Zm.48-12.44a13.37,13.37,0,0,1-2.15-.68,14.18,14.18,0,0,1-2-1,9.39,9.39,0,0,1-1.7-1.34A7,7,0,0,1,260,30.72a8.48,8.48,0,0,1-2.85,2.93,14.11,14.11,0,0,1-4.29,1.77l-1-1.1a17.83,17.83,0,0,0,2.82-.88A11,11,0,0,0,257,32.16a6.14,6.14,0,0,0,1.61-1.65,3.68,3.68,0,0,0,.59-2.07v-.7h1.51v.7a3.64,3.64,0,0,0,.66,2.11,6.73,6.73,0,0,0,1.73,1.72,11.54,11.54,0,0,0,2.39,1.26,15.26,15.26,0,0,0,2.61.79Z"/><path class="cls-15" d="M280.73,32.72h-9.55V31.51h9.55Zm-.54,6.33a4.54,4.54,0,0,1-1.14,3.2A3.88,3.88,0,0,1,276,43.49a4.42,4.42,0,0,1-1.76-.33,3.76,3.76,0,0,1-1.32-.91,3.84,3.84,0,0,1-.82-1.4,5.39,5.39,0,0,1-.29-1.8,4.65,4.65,0,0,1,1.13-3.22A4,4,0,0,1,276,34.57a3.9,3.9,0,0,1,3.05,1.26,4.61,4.61,0,0,1,1.14,3.22M276,42.29a2.53,2.53,0,0,0,2.05-.91,3.5,3.5,0,0,0,.77-2.33,3.72,3.72,0,0,0-.73-2.35,2.78,2.78,0,0,0-4.17,0,3.66,3.66,0,0,0-.73,2.35,3.59,3.59,0,0,0,.73,2.33,2.51,2.51,0,0,0,2.08.91m2.57-12.72h-5.22V28.33h5.22Zm9.28,18.15h-1.44V37.16h-2.84v9.62h-1.39V28.06h1.39v7.79h2.84V27.72h1.44Z"/><path class="cls-15" d="M302.24,43A15,15,0,0,1,299,40.1a12.34,12.34,0,0,1-2.16-3.84,12.73,12.73,0,0,1-2.11,4.11,17.23,17.23,0,0,1-3.21,3.23l-1.35-1a12.35,12.35,0,0,0,4.44-4.51,12.87,12.87,0,0,0,1.48-6.35v-1.6h-4.43V28.94h10.47v1.21h-4.57V32.2a11,11,0,0,0,1.36,5.48A11.93,11.93,0,0,0,303.39,42Zm4.91,4.68h-1.44v-20h1.44Z"/><path class="cls-15" d="M323.05,41.55l-1.67.29c-.64.11-1.31.21-2,.3s-1.42.16-2.09.21-1.29.08-1.85.08h-3.8a.43.43,0,0,1-.34-.1.5.5,0,0,1-.09-.33V29.36a.48.48,0,0,1,.09-.31.43.43,0,0,1,.34-.11h8.62v1.21h-7.63v11l2.54,0c.81,0,1.63,0,2.44-.1s1.59-.15,2.31-.24,1.36-.18,1.91-.28.95-.17,1.22-.23Zm2.32,6.19h-1.48v-20h1.48v7h3.09V36h-3.09Z"/><path class="cls-15" d="M173.05,105.61h16.58V64H146.68V95.62c0,5.52,5,10,11.22,10h5.35V118H143v8.73h50.37V118H173.05Zm-16.6-10V72.68h23.4V96.91H157.9a1.38,1.38,0,0,1-1.45-1.29"/><path class="cls-15" d="M214.69,98.07h32.8V89.36h-32.8a.35.35,0,0,1-.37-.33V72.68h33.17V64h-43V89c0,5,4.54,9,10.15,9"/><polygon class="cls-15" points="200.83 112.71 221.11 112.71 221.11 127.25 230.92 127.25 230.92 112.71 251.2 112.71 251.2 103.98 200.83 103.98 200.83 112.71"/><rect class="cls-15" x="299.47" y="63.97" width="9.8" height="63.27"/><path class="cls-15" d="M413.2,105.6H378.34v8.71h33.17v12.94h9.77V112.8c0-4-3.61-7.2-8.08-7.2"/><path class="cls-15" d="M404.71,93V89.12h16.58v-8.7H388.11V72.68h33.18V64h-43V81.12c0,4.41,4,8,9,8h7.59V93H374.63v8.73H425V93Z"/><rect class="cls-15" x="258.69" y="114.78" width="33.29" height="8.73"/><path class="cls-15" d="M275.34,110.27h0c8.73,0,15.88-6.36,15.88-14.13v-18c0-7.77-7.15-14.13-15.88-14.13s-15.89,6.36-15.89,14.13v18c0,7.77,7.15,14.13,15.89,14.13m-6.11-32.16c0-2.94,2.8-5.43,6.11-5.43s6.1,2.49,6.1,5.43v18c0,2.94-2.8,5.43-6.1,5.43s-6.11-2.49-6.11-5.43Z"/><polygon class="cls-15" points="316.76 112.71 337.05 112.71 337.05 127.25 346.85 127.25 346.85 112.71 367.14 112.71 367.14 103.98 316.76 103.98 316.76 112.71"/><path class="cls-15" d="M353.65,73v25h9.77V73c0-5-4.54-9-10.15-9H320.48v8.71h32.79a.35.35,0,0,1,.38.33"/></g></g></g></svg>