<svg xmlns="http://www.w3.org/2000/svg" width="193.526" height="129.258" viewBox="0 0 193.526 129.258">
  <g id="그룹_1770" data-name="그룹 1770" transform="translate(296.67 -563.955)">
    <g id="그룹_1767" data-name="그룹 1767">
      <path id="패스_3683" data-name="패스 3683" d="M-119.9,594.277l-138.1-22.8a20.016,20.016,0,0,0-23.009,16.488l-9.77,59.167a20.015,20.015,0,0,0,16.488,23.009l30.714,5.072a10.89,10.89,0,0,1-.825,3.64c-2.247,5.344-8.153,7-9.2,7.273a44.268,44.268,0,0,0,19.866-3.827,42.756,42.756,0,0,0,7.33-4.251l90.213,14.9a20.017,20.017,0,0,0,23.01-16.488l9.769-59.167A20.017,20.017,0,0,0-119.9,594.277Z" fill="#fff"/>
    </g>
    <g id="그룹_1768" data-name="그룹 1768">
      <path id="패스_3684" data-name="패스 3684" d="M-137,688.966a21.793,21.793,0,0,1-3.553-.293l-89.6-14.794a44.371,44.371,0,0,1-7.075,4.036,45.236,45.236,0,0,1-20.539,3.96,1.5,1.5,0,0,1-1.437-1.333,1.5,1.5,0,0,1,1.109-1.616c1.452-.382,6.335-1.973,8.2-6.405a9.192,9.192,0,0,0,.548-1.812l-29.3-4.838a21.37,21.37,0,0,1-13.984-8.695,21.374,21.374,0,0,1-3.739-16.037l9.769-59.167a21.377,21.377,0,0,1,8.7-13.985,21.364,21.364,0,0,1,16.037-3.739l138.1,22.8a21.539,21.539,0,0,1,17.723,24.733l-9.769,59.167a21.375,21.375,0,0,1-8.7,13.985A21.356,21.356,0,0,1-137,688.966ZM-230.525,670.8a1.535,1.535,0,0,1,.244.02l90.214,14.9a18.394,18.394,0,0,0,13.8-3.218,18.392,18.392,0,0,0,7.484-12.034l9.769-59.167a18.538,18.538,0,0,0-15.252-21.286l-138.1-22.8a18.4,18.4,0,0,0-13.8,3.219,18.4,18.4,0,0,0-7.483,12.034l-9.769,59.167a18.391,18.391,0,0,0,3.217,13.8,18.4,18.4,0,0,0,12.034,7.484l30.715,5.071a1.5,1.5,0,0,1,1.253,1.562,12.4,12.4,0,0,1-.94,4.14,12.62,12.62,0,0,1-3.78,4.932,41.509,41.509,0,0,0,12.443-3.434,41.241,41.241,0,0,0,7.073-4.1A1.5,1.5,0,0,1-230.525,670.8Z" fill="#442a61"/>
    </g>
    <g id="그룹_1769" data-name="그룹 1769">
      <path id="패스_3685" data-name="패스 3685" d="M-229.751,609.891a1.949,1.949,0,0,1,.967.726c.849,1.244.765,3.129.581,4.639a17.922,17.922,0,0,1-.556,2.877A6.729,6.729,0,0,1-230,620.848a2.97,2.97,0,0,1-2.057.959,2.865,2.865,0,0,1-1.908-.625,3.071,3.071,0,0,1-.982-1.719,4.883,4.883,0,0,1-.1-1.623c.067-.9.181-1.787.327-2.672a17.035,17.035,0,0,1,.355-1.758,13.982,13.982,0,0,1,.425-1.389,4.7,4.7,0,0,1,.459-1.011,2.974,2.974,0,0,1,.786-.828,2.9,2.9,0,0,1,1.788-.516c.129,0,.271.027.4.033A6.406,6.406,0,0,1-229.751,609.891Zm-1.834,9.64a1.829,1.829,0,0,0,.766-1.1,16.066,16.066,0,0,0,.642-3.106,5.694,5.694,0,0,0,0-2.562.912.912,0,0,0-.767-.664,1.068,1.068,0,0,0-.963.523l-.2.309a5.722,5.722,0,0,0-.429,1.226c-.1.422-.207.858-.277,1.286-.054.429-.167.816-.2,1.23-.1,1.1-.23,2.77.809,2.957A1.081,1.081,0,0,0-231.585,619.531Zm4.445-2.265c-.718-.168-.977-.762-.623-1.532a1.281,1.281,0,0,1,.412-.433,1.074,1.074,0,0,1,.476-.135c.34.008.885.147,1.237.172l.049.01.01-.063c.1-.519.08-.394.154-.931.089-.538.163-1.094.266-1.612l.036-.221c.092-.552.227-1.375.668-1.691a.744.744,0,0,1,.539-.123l.032.006c1.019.217.926,1.467.816,2.131l-1.564,9.476c0,.03-.107.84-.525,1.114a1.175,1.175,0,0,1-.734.121.818.818,0,0,1-.558-.352,1.486,1.486,0,0,1-.173-1.017c.011-.063.006-.129.019-.209.022-.336.088-.731.134-1.114.024-.238.06-.461.1-.681l.06-.364c.073-.441.23-1.486.3-1.927a.862.862,0,0,0,.025-.354C-226.26,617.443-226.861,617.344-227.14,617.266Z"/>
      <path id="패스_3686" data-name="패스 3686" d="M-219.047,614.107a4.465,4.465,0,0,1,.214-.906c.191-.568.448-.947,1.18-.859a2.952,2.952,0,0,1,.448.138c.468.3.4.993.368,1.409a13.04,13.04,0,0,1-.219,1.326c-.048.576-.188,1.137-.285,1.721-.062.378-.083.8-.114,1.183a3.169,3.169,0,0,0,.376,1.553c.193.6.552,1.373.753,1.926.111.31.254.625.333.929a1.511,1.511,0,0,1-.032,1.18.861.861,0,0,1-.705.338.816.816,0,0,1-.68-.4,18.14,18.14,0,0,1-1.057-1.748c-.048-.106-.613-1.205-.645-1.209a1.834,1.834,0,0,1-.152.136c-.782.618-1.392,1.36-2.2,1.957a1.408,1.408,0,0,1-.643.25.955.955,0,0,1-.325.012.785.785,0,0,1-.553-.385.813.813,0,0,1-.178-.693,1.346,1.346,0,0,1,.242-.479,22.957,22.957,0,0,1,2.124-2.359c.2-.227.352-.461.547-.656a3.42,3.42,0,0,0,.278-.311,1.246,1.246,0,0,0,.205-.258.911.911,0,0,0,.11-.275,3.007,3.007,0,0,0,.116-.5Zm3.657,3a1.077,1.077,0,0,1,.447-.152,17.782,17.782,0,0,1,1.879.311l.23-1.584a2.572,2.572,0,0,1,.114-.7l.12-.726c.026-.159.086-.326.112-.485a2.481,2.481,0,0,1,.2-.422.769.769,0,0,1,.247-.316,1.015,1.015,0,0,1,1.3.215c.317.441.125,1.205.037,1.742l-1.585,9.6a1.25,1.25,0,0,1-.084.31.878.878,0,0,1-.157.363.579.579,0,0,1-.237.254,1.058,1.058,0,0,1-1.263-.209,1.816,1.816,0,0,1-.152-1.437l.313-1.895a4.4,4.4,0,0,0,.073-.636l.363-2c-.123-.051-.932-.153-1.054-.205a2.047,2.047,0,0,1-.437-.106.913.913,0,0,1-.453-.2,1.842,1.842,0,0,1-.368-.32,1.056,1.056,0,0,1-.154-.448,1.534,1.534,0,0,1,.089-.537.652.652,0,0,1,.205-.259A1.163,1.163,0,0,1-215.39,617.111Z"/>
      <path id="패스_3687" data-name="패스 3687" d="M-199.527,624.955a1.575,1.575,0,0,1,.888.52.774.774,0,0,1,.129.589,1.2,1.2,0,0,1-.318.645,1.864,1.864,0,0,1-1.186.113l-8.844-1.461c-.094-.015-.207-.017-.317-.037a2,2,0,0,1-1.317-.476.942.942,0,0,1-.219-.733.961.961,0,0,1,.659-.752,4.26,4.26,0,0,1,1.365.08l.08.012c.9.133,1.881.295,2.827.467l.363-2.309a4.05,4.05,0,0,1-3.02-2.039,3.634,3.634,0,0,1-.238-2.295,3.329,3.329,0,0,1,2.985-2.847,8.052,8.052,0,0,1,3.166.181,7.4,7.4,0,0,1,2.464.9,3.311,3.311,0,0,1,.878.873,3.521,3.521,0,0,1,.441,2.928c-.567,2.357-2.6,2.978-4.672,2.652l-.346,2.295c1.169.193,1.884.279,2.968.49.377.08.749.092,1.075.178A.713.713,0,0,0-199.527,624.955Zm-1.224-6.141a1.757,1.757,0,0,0-1.47-2.009c-1.16-.338-3.7-1.067-4.232.582-.31.988-.046,1.939,1.431,2.33a7.883,7.883,0,0,0,2.251.42,1.973,1.973,0,0,0,1.922-.932A1.092,1.092,0,0,0-200.751,618.814Z"/>
      <path id="패스_3688" data-name="패스 3688" d="M-186.706,627.057a1.562,1.562,0,0,1,.888.519.768.768,0,0,1,.129.588,1.2,1.2,0,0,1-.317.647,1.845,1.845,0,0,1-1.186.111l-8.845-1.459c-.094-.016-.208-.02-.317-.037a2.025,2.025,0,0,1-1.317-.477.954.954,0,0,1-.22-.734.966.966,0,0,1,.66-.752,4.353,4.353,0,0,1,1.366.08l.079.014c1.013.15,2.086.328,3.126.515l.313-1.992a1.16,1.16,0,0,1,.581-.764,1.037,1.037,0,0,1,1.437,1.016l-.325,2.072c1,.149,1.708.266,2.685.444.377.078.748.091,1.074.177A.86.86,0,0,0-186.706,627.057Zm-7-4.108a3.924,3.924,0,0,1-1.58.729,1.157,1.157,0,0,1-1.064-.533c-.251-.543.2-.94.582-1.268a21.425,21.425,0,0,1,2.274-1.684c.523-.32,1.956-1.332,1.956-1.332s.139-1.73.654-2.1a1.533,1.533,0,0,1,1.253-.022,1.1,1.1,0,0,1,.606,1.139c-.033.4-.3,1.119-.1,1.476.61,1.123,1.767,2.563,2.527,3.858.366.627.82,1.611-.135,1.892-.665.2-1.239-.351-1.582-.83l-2.426-3.093Z"/>
      <path id="패스_3689" data-name="패스 3689" d="M-175.593,624.867a4.131,4.131,0,0,1-.807.858,1.59,1.59,0,0,1-1.313.382,2.471,2.471,0,0,1-1.111-.443,6.94,6.94,0,0,1-.795-.682c-.235-.25-.459-.464-.683-.681a1.448,1.448,0,0,0-.777-.405,2.389,2.389,0,0,0-1.068.084c-.4.129-.673.538-1.1.5a.632.632,0,0,1-.485-.989,2.975,2.975,0,0,1,1.319-1.113,2.738,2.738,0,0,1,1.542-.3,1.9,1.9,0,0,1,.977.371,7.244,7.244,0,0,1,.713.686,6.749,6.749,0,0,0,.684.679,1.885,1.885,0,0,0,.939.4,1.052,1.052,0,0,0,.547-.071,1.376,1.376,0,0,0,.4-.275c.213-.207.33-.432.672-.439.637-.026.812.49.578,1.019C-175.436,624.6-175.526,624.75-175.593,624.867Z"/>
      <path id="패스_3690" data-name="패스 3690" d="M-165.618,626.516a4.035,4.035,0,0,1-.806.855,1.592,1.592,0,0,1-1.312.383,2.477,2.477,0,0,1-1.111-.441,7.076,7.076,0,0,1-.8-.684c-.235-.25-.459-.465-.683-.68a1.42,1.42,0,0,0-.777-.4,2.372,2.372,0,0,0-1.068.082c-.394.131-.673.537-1.1.5a.633.633,0,0,1-.485-.99,2.972,2.972,0,0,1,1.319-1.112,2.731,2.731,0,0,1,1.542-.3,1.877,1.877,0,0,1,.977.373,6.818,6.818,0,0,1,.714.685,7.059,7.059,0,0,0,.682.68,1.918,1.918,0,0,0,.94.4,1.074,1.074,0,0,0,.547-.072,1.41,1.41,0,0,0,.4-.273c.213-.209.331-.432.673-.442.636-.023.812.492.577,1.022C-165.459,626.25-165.549,626.4-165.618,626.516Z"/>
      <path id="패스_3691" data-name="패스 3691" d="M-162.149,632.311c.053.464-.086,1.105-.643,1.24-.49.115-1.361-.11-1.475-.7a1.648,1.648,0,0,1,.154-1.03.728.728,0,0,1,.81-.287,1.433,1.433,0,0,1,1.048.434A1,1,0,0,1-162.149,632.311Zm.593-11.063a3.089,3.089,0,0,1,.656.156c.846.383.321,2.082.21,2.76l-.769,4.66a3.6,3.6,0,0,1-.315,1.213c-.4.664-1.91.367-2.082-.359a3.758,3.758,0,0,1,.012-.762c.044-.365.126-.758.191-1.152l.873-5.291a2.145,2.145,0,0,1,.385-.957A.952.952,0,0,1-161.556,621.248Z"/>
      <path id="패스_3692" data-name="패스 3692" d="M-157.493,633.08c.054.463-.085,1.106-.643,1.24-.489.114-1.361-.109-1.474-.7a1.659,1.659,0,0,1,.153-1.029.73.73,0,0,1,.811-.287,1.427,1.427,0,0,1,1.048.431A.985.985,0,0,1-157.493,633.08Zm.594-11.062a2.972,2.972,0,0,1,.656.156c.846.383.322,2.08.209,2.76l-.769,4.658a3.619,3.619,0,0,1-.314,1.215c-.4.664-1.91.365-2.083-.362a3.73,3.73,0,0,1,.013-.759c.044-.366.125-.758.19-1.153l.874-5.291a2.138,2.138,0,0,1,.385-.959A.953.953,0,0,1-156.9,622.018Z"/>
      <path id="패스_3693" data-name="패스 3693" d="M-255.759,635.406c-.195.2-.392.407-.6.582-.039.043-.1.1-.137.141a2.662,2.662,0,0,1-1.159.732.577.577,0,0,1-.3.018c-.2-.035-.313-.166-.442-.365a1,1,0,0,1-.144-.7,2.407,2.407,0,0,1,.546-.95c.16-.086,2.288-2.752,2.553-2.986a1.639,1.639,0,0,0,.331-.625c.086-.326.139-.643.2-1.021l.462-2.795c.033-.207.065-.4.115-.6a2.961,2.961,0,0,1,.2-.648c.069-.118.174-.264.258-.379a.782.782,0,0,1,.553-.2l.033-.009a.531.531,0,0,1,.4.1.636.636,0,0,1,.2.178,1.259,1.259,0,0,1,.137.445,2.6,2.6,0,0,1,.03.8c-.067.9-.252,2.117-.4,3-.072.539-.164,1.092-.218,1.617a3.045,3.045,0,0,0,.268,1.327c.129.492.282,1.037.446,1.517.04.154.378,1.15.408,1.268l.01.132.032.1a1.278,1.278,0,0,1,.082.387,1.119,1.119,0,0,1-.164.8.785.785,0,0,1-.718.418l-.016,0c-.332-.055-.519-.4-.746-.788-.229-.378-.446-.935-.6-1.267a8.524,8.524,0,0,0-.573-1.248C-254.735,634.408-255.722,635.379-255.759,635.406Zm8.974,2.44c-.078.57-.187,1.234-.713,1.47a.934.934,0,0,1-.5.08c-.726-.119-.632-1.271-.536-1.857l.686-4.152-1.074-.176-.676,4.09a2.476,2.476,0,0,1-.508,1.31.6.6,0,0,1-.565.182.979.979,0,0,1-.585-.389,1.919,1.919,0,0,1-.182-1.457l1.542-9.334c.08-.588.353-1.449,1.076-1.509a.588.588,0,0,1,.555.271,3.2,3.2,0,0,1,.091,2.3l-.433,2.621,1.074.176.535-3.237c.1-.6.168-1.707,1.068-1.656a.649.649,0,0,1,.519.3c.406.588.152,1.73.037,2.426Z"/>
      <path id="패스_3694" data-name="패스 3694" d="M-239.55,631.725a3.122,3.122,0,0,1,.628,1.107,5.979,5.979,0,0,1,.123,1.416,8.457,8.457,0,0,1-.126,1.553,5.831,5.831,0,0,1-.406,1.474,4.931,4.931,0,0,1-.58,1.25,2.133,2.133,0,0,1-1.025.8,3.016,3.016,0,0,1-1.247.184,3.058,3.058,0,0,1-1.245-.416,1.935,1.935,0,0,1-.857-.905,4.191,4.191,0,0,1-.429-2.115,9.649,9.649,0,0,1,.09-1.137,7.371,7.371,0,0,1,.215-1,4.069,4.069,0,0,1,.343-1,2.883,2.883,0,0,1,3.434-1.834A2.278,2.278,0,0,1-239.55,631.725Zm.917-2.608a1.971,1.971,0,0,1,.508.164.656.656,0,0,1,.3.455,1.054,1.054,0,0,1-.227.791,1.373,1.373,0,0,1-.363.231,1.429,1.429,0,0,1-.49.017,1.5,1.5,0,0,1-.52-.086c-.158-.027-.332-.054-.506-.084l-2.977-.539a1.558,1.558,0,0,1-.848-.367,1.061,1.061,0,0,1-.191-.713.753.753,0,0,1,.339-.48.718.718,0,0,1,.6-.111c.032.005.11.017.237.039.173.029.3.048.474.078l.425.07c.1.016.174.029.182-.018.013-.08.068-.119.076-.166l.029-.173a1.419,1.419,0,0,1,.21-.487,1.191,1.191,0,0,1,.434-.267c.32-.076.873.015.974.386a.448.448,0,0,1,.055.254.333.333,0,0,1,.011.229.348.348,0,0,1-.041.252,1.106,1.106,0,0,0-.018.306l.505.082.3.051.316.051Zm-2.713,8.475a2.467,2.467,0,0,0,.423-.5,4.014,4.014,0,0,0,.286-.651,3.584,3.584,0,0,0,.159-.672c.029-.173.065-.394.1-.615-.011-.228.025-.449.015-.679a1.933,1.933,0,0,0-.075-.629,1.607,1.607,0,0,0-.206-.52,1.534,1.534,0,0,0-.4-.228.949.949,0,0,0-.514-.037.993.993,0,0,0-.505.113.941.941,0,0,0-.349.345,4.161,4.161,0,0,0-.429,1.229,8.412,8.412,0,0,0-.152,1.4c.014.213.068.481.1.746a1.257,1.257,0,0,0,.288.616c.024.052.071.06.158.125a.547.547,0,0,1,.2.064l.221.037.174.028A.952.952,0,0,0-241.346,637.592Zm7.371,2.222a3.479,3.479,0,0,1-.18.895c-.3.91-1.428.982-1.606-.1a1.832,1.832,0,0,1,.011-.55,1.958,1.958,0,0,1,.038-.53l.605-3.662-1.027-.17-.617,3.743a4.589,4.589,0,0,1-.131.789c-.165.509-.559.929-1.2.662a1.073,1.073,0,0,1-.5-.991,6.5,6.5,0,0,1,.1-.779l1.5-9.113.013-.078c.008-.049.016-.1.024-.143.028-.174.049-.3.078-.474a1.865,1.865,0,0,1,.162-.493,2.463,2.463,0,0,1,.336-.365.6.6,0,0,1,.408-.207c.274.012.474.078.571.272a1.965,1.965,0,0,1,.218.554,3.021,3.021,0,0,1-.034.692,4.447,4.447,0,0,1-.084.8c-.046.283-.08.488-.122.742l-.409,2.478,1.026.17.59-3.568c.023-.143.052-.317.086-.522a2.19,2.19,0,0,1,.138-.545.838.838,0,0,1,.329-.418.8.8,0,0,1,.5-.191.617.617,0,0,1,.517.312.961.961,0,0,1,.216.555,6.794,6.794,0,0,1,.015.7c-.037.221-.032.483-.076.75a2.555,2.555,0,0,0-.141.561Z"/>
      <path id="패스_3695" data-name="패스 3695" d="M-216.617,638.1a.638.638,0,0,1,.14.526.982.982,0,0,1-.307.584,2.056,2.056,0,0,1-1.231.088l-8.42-1.375a2.22,2.22,0,0,1-1.366-.469.771.771,0,0,1-.262-.676.872.872,0,0,1,.677-.666,5.126,5.126,0,0,1,1.409.119c1.031.137,1.658.274,2.716.448l.151-.914c-.176-.014-.35-.043-.524-.071-.5-.1-1.292-.23-1.8-.3a2.149,2.149,0,0,1-1.23-.509,2.019,2.019,0,0,1-.287-1.412l.444-2.686c.065-.393.333-.836.8-.824.453.011,1.022.3,1.034.82a4.7,4.7,0,0,0-.086.813c.029.119.258.109.35.14.485.112.982.145,1.488.229l4.358.72a1.109,1.109,0,0,1,.219.051,1.718,1.718,0,0,0,.5.035,3.078,3.078,0,0,0,.141-.66c.078-.375.262-.7.654-.719a.922.922,0,0,1,1.036,1.194c-.172.945-.308,2.156-.546,3.105a1.491,1.491,0,0,1-.4.649c-.394.422-1.25.2-1.742.134-.685-.08-.569-.093-1.248-.207-.363-.06-.65-.089-.934-.136-.036.318-.1.7-.135.918,1.168.191,2.519.367,3.411.562A1.825,1.825,0,0,1-216.617,638.1Zm-1.091,2.774-.177,1.074c-.015.192-.2,1.4-.269,1.625a.809.809,0,0,1-.975.6,1.255,1.255,0,0,1-.324-.1c-.54-.267-.485-.795-.422-1.271.015-.19.127-.967.121-1.131a6.04,6.04,0,0,0-1.05-.223c-.679-.111-1.2-.182-1.2-.182l-5.274-.871c-.032,0-.625-.248-.615-.7a1.174,1.174,0,0,1,.346-.916.914.914,0,0,1,.7-.193l7.915,1.291C-218.085,640.021-217.627,640.389-217.708,640.879Zm-6.459-6.762c.584.1,1.166.209,1.734.3.787.146,1.137.187,1.93.3.208.017.425.07.647.107a4.489,4.489,0,0,1,.492.065,2.974,2.974,0,0,0,.519.1c.216.068.6.213.655-.135.026-.158.109-.275.007-.437a.633.633,0,0,0-.546-.236l-2.368-.391-2.4-.412c-.391-.082-1.529-.463-1.616.154-.015.1,0,.082.009.149C-225.068,634.066-224.436,634.072-224.167,634.117Z"/>
      <path id="패스_3696" data-name="패스 3696" d="M-209.451,639.662l-.015,0c-.742-.123-1.551-.24-1.8-.785a4.141,4.141,0,0,1,.026-1.926s.086-.521.218-1.23c.142-.754.275-1.559.275-1.559a2.52,2.52,0,0,1,.323-.971.922.922,0,0,1,.757-.361c.241.008.91.086.91.086l3.569.59a2.793,2.793,0,0,1,1.372.533c.55.5.255,1.309.156,1.91-.055.33-.126.658-.164.994l-.144.87a2.806,2.806,0,0,0-.06.363,7.339,7.339,0,0,0-.136.82c-.072.442-.3,1.135-.837,1.24a4.658,4.658,0,0,1-1.764-.129C-207.071,640.088-209.1,639.705-209.451,639.662Zm3.313,5.188a1.152,1.152,0,0,1-.345.916,1.4,1.4,0,0,1-.921.172l-2.368-.391c-.87-.145-1.549-.549-1.469-1.037l.4-2.4a5.189,5.189,0,0,1,.115-.7.809.809,0,0,1,.975-.6,3.094,3.094,0,0,1,.545.138c.54.268.483.811.439,1.274-.031.189-.211,1.377-.188,1.527a5.066,5.066,0,0,0,1.048.236,3.752,3.752,0,0,0,.764.094l.395.064C-206.719,644.152-206.13,644.412-206.138,644.85Zm-1.872-9.784a2.058,2.058,0,0,0-.479-.046.467.467,0,0,0-.394.128.96.96,0,0,0-.15.415l-.109.662c-.066.3-.115.6-.115.6a1.5,1.5,0,0,0,.027.817c.141.234.566.3.945.367l.016,0c.557.076.806.135,1.374.228a3.072,3.072,0,0,0,.524.069.261.261,0,0,0,.291-.2.775.775,0,0,0,.067-.2,3.228,3.228,0,0,0,.174-.67c.055-.332.129-.676.167-1.01a2.8,2.8,0,0,0,.053-.511c-.043-.233-.264-.27-.454-.3Zm5.767,11.741a2.5,2.5,0,0,1-1.96.082,2.193,2.193,0,0,1-1.559-2.352,2,2,0,0,1,.561-1.139l-.11-.019a.826.826,0,0,1-.725-.914.826.826,0,0,1,.98-.633l1.169.193.032-.189a.779.779,0,0,1,.946-.525.78.78,0,0,1,.728.8l-.031.19,1.278.211a.825.825,0,0,1,.725.914.825.825,0,0,1-.98.635l-.127-.022a2.094,2.094,0,0,1,.165,1.26A2.1,2.1,0,0,1-202.243,646.807Zm-.376-1.75a.842.842,0,0,0-1.658-.274.778.778,0,0,0,.873.906A.762.762,0,0,0-202.619,645.057Zm2.443-6.151-.211,1.28a.949.949,0,0,1-1.133.867.846.846,0,0,1-.423-.184,1.052,1.052,0,0,1-.348-.949l.78-4.723a2.1,2.1,0,0,1,.279-.8.764.764,0,0,1,.694-.275,1.038,1.038,0,0,1,.83.381,1.226,1.226,0,0,1,.124.523,2.994,2.994,0,0,1-.091.846l-.211,1.279c.172.043,1.021.2,1.2.28.4.146.512.343.522.572a1.143,1.143,0,0,1-.177.781c-.321.369-.856.266-1.474.18Z"/>
      <path id="패스_3697" data-name="패스 3697" d="M-192.893,635.438a1.93,1.93,0,0,1,.967.726c.849,1.244.765,3.127.581,4.639a18.052,18.052,0,0,1-.556,2.877,6.717,6.717,0,0,1-1.244,2.715,2.966,2.966,0,0,1-2.056.959,2.876,2.876,0,0,1-1.908-.625,3.077,3.077,0,0,1-.982-1.719,4.868,4.868,0,0,1-.1-1.625c.067-.9.181-1.785.327-2.67a16.609,16.609,0,0,1,.387-1.752,14.028,14.028,0,0,1,.393-1.4,4.792,4.792,0,0,1,.459-1.011,3.016,3.016,0,0,1,.786-.828,2.894,2.894,0,0,1,1.788-.514c.129,0,.27.027.4.031A6.048,6.048,0,0,1-192.893,635.438Zm-1.835,9.64a1.831,1.831,0,0,0,.767-1.107,16.112,16.112,0,0,0,.643-3.106,5.694,5.694,0,0,0,0-2.562.91.91,0,0,0-.766-.662,1.065,1.065,0,0,0-.963.523l-.2.307a5.706,5.706,0,0,0-.429,1.226c-.1.422-.207.86-.277,1.285s-.168.817-.2,1.233c-.1,1.1-.229,2.767.81,2.957A1.077,1.077,0,0,0-194.728,645.078Zm6.616,3.461c-.045.074-.087.131-.132.205a.983.983,0,0,1-.342.3,1.12,1.12,0,0,1-.823-.022.912.912,0,0,1-.38-.257,1.908,1.908,0,0,1-.165-1.262l1.578-9.553c.065-.494.21-1.279.558-1.513a1,1,0,0,1,.816-.125.878.878,0,0,1,.727.7,3.907,3.907,0,0,1-.045,1.451l-.013.08c-.219,1.619-.561,3.394-.811,4.912l-.626,3.791c-.031.188-.047.381-.094.568A4.184,4.184,0,0,1-188.112,648.539Z"/>
      <path id="패스_3698" data-name="패스 3698" d="M-181.614,647.26a2.348,2.348,0,0,1,.453-1.369c.358-.4,1.21-.159,1.321-.139l7.533,1.244a3.319,3.319,0,0,1,1.219.379.751.751,0,0,1,.43.834.832.832,0,0,1-.752.623,4.318,4.318,0,0,1-.91-.086c-.269-.045-.472-.094-.487-.1l-5.765-.951c-.267-.045-.876-.291-1.064-.031-.1.115-.316.824-.189.943a1.92,1.92,0,0,0,.506.182c.218.051.442.072.679.111l3,.5a3.334,3.334,0,0,0,.553.092l2.29.377a2.985,2.985,0,0,1,1.272.358c.206.129.349.234.356.5a.876.876,0,0,1-.26.687,1.375,1.375,0,0,1-1.254.231c-.445-.057-3.527-.551-3.527-.551l-4.8-.793s-.429-.15-.639-.252c-.314-.164-.3-.648-.266-.951.045-.463.187-1.024.246-1.485Zm5.844-1.7a7.869,7.869,0,0,1-1.374-.228c-1.152-.19-2.3-.41-3.432-.631-.674-.144-.669-1.148-.581-1.685.144-.87.315-2.3.508-3.178a4.584,4.584,0,0,1,.5-1.75.927.927,0,0,1,1.54.107,3.943,3.943,0,0,1-.087,2.1l2.037.336s.3.035.759.127c.107-.453.13-.789.195-1.186a1.4,1.4,0,0,1,.593-1.037.979.979,0,0,1,.951.141c.39.388.181,1.554.181,1.554l-.757,4.581A1.1,1.1,0,0,1-175.77,645.564Zm-.542-2.312a3.178,3.178,0,0,0,.127-.773l.045-.27-1.6-.264a6.2,6.2,0,0,0-1.232-.2,6.072,6.072,0,0,0-.143,1.065c-.037.22-.065.3.153.349.234.055.474.078.711.117l1.879.311A2.088,2.088,0,0,1-176.312,643.252Zm6.062-1.043c.17.043,1.021.2,1.2.279.4.147.511.344.523.573a1.158,1.158,0,0,1-.179.783c-.32.367-.855.263-1.473.177l-.363-.06-.206,1.248a1.754,1.754,0,0,1-.291.682.861.861,0,0,1-.321.271.922.922,0,0,1-.547.072.845.845,0,0,1-.424-.183,1.229,1.229,0,0,1-.349-.934l.829-5.021a2.054,2.054,0,0,1,.279-.8.769.769,0,0,1,.693-.278,1.041,1.041,0,0,1,.83.381,1.242,1.242,0,0,1,.125.524,2.014,2.014,0,0,1-.065.687C-169.982,640.582-170.217,641.906-170.25,642.209Z"/>
      <path id="패스_3699" data-name="패스 3699" d="M-169.367,650.189a.826.826,0,0,1,.3-.517,1.914,1.914,0,0,1,1.189-.129l8.795,1.469c.537.088,1.021.1,1.318.461a.951.951,0,0,1,.22.734.767.767,0,0,1-.639.623,4.343,4.343,0,0,1-1.365.02c-1.543-.19-3.051-.489-4.456-.719-1.517-.252-3.23-.486-4.17-.69C-168.832,651.27-169.5,651.012-169.367,650.189Zm11.643-7.339a4.14,4.14,0,0,1,.4,3.2c-.57,2.371-2.7,3.172-4.782,2.828-1.738-.287-4.04-.49-4.948-2.357a4.282,4.282,0,0,1-.2-2.5,3.719,3.719,0,0,1,3.037-3.164,8.111,8.111,0,0,1,3.173.134C-159.646,641.33-158.489,641.686-157.724,642.85Zm-1.788,2.673a1.85,1.85,0,0,0-1.324-2.2,10.788,10.788,0,0,0-1.143-.254c-1.218-.185-2.667-.148-3.061,1.051a1.849,1.849,0,0,0,1.4,2.535c.309.084.635.186.963.256,1.06.258,2.519.27,3.069-1A1.092,1.092,0,0,0-159.512,645.523Z"/>
      <path id="패스_3700" data-name="패스 3700" d="M-145.759,653.277a1.575,1.575,0,0,1,.888.52.77.77,0,0,1,.129.588,1.2,1.2,0,0,1-.317.646,1.855,1.855,0,0,1-1.187.114l-8.843-1.461c-.1-.016-.208-.02-.318-.038a2.024,2.024,0,0,1-1.317-.476.949.949,0,0,1-.219-.734.96.96,0,0,1,.659-.75,4.239,4.239,0,0,1,1.366.08l.079.013c1.013.149,2.087.326,3.127.516l.313-1.992a1.167,1.167,0,0,1,.58-.766,1.037,1.037,0,0,1,1.438,1.018l-.326,2.07c1,.148,1.709.266,2.685.443.377.078.748.092,1.074.178A.752.752,0,0,0-145.759,653.277Zm-6.994-4.107a3.882,3.882,0,0,1-1.581.728,1.153,1.153,0,0,1-1.064-.533c-.251-.543.2-.939.582-1.265a21.658,21.658,0,0,1,2.274-1.686c.523-.318,1.956-1.33,1.956-1.33s.139-1.732.654-2.1a1.521,1.521,0,0,1,1.253-.019,1.1,1.1,0,0,1,.607,1.137c-.034.4-.3,1.119-.1,1.476.609,1.125,1.767,2.565,2.527,3.858.366.627.82,1.611-.134,1.892-.665.2-1.24-.351-1.583-.83l-2.426-3.094Z"/>
      <path id="패스_3701" data-name="패스 3701" d="M-141.155,655.238c.052.463-.086,1.106-.644,1.241-.489.113-1.36-.112-1.474-.7a1.653,1.653,0,0,1,.154-1.029.728.728,0,0,1,.809-.289,1.453,1.453,0,0,1,1.049.433A1.015,1.015,0,0,1-141.155,655.238Zm.593-11.064a2.988,2.988,0,0,1,.656.158c.845.383.322,2.08.209,2.76l-.769,4.658a3.608,3.608,0,0,1-.314,1.213c-.4.664-1.909.367-2.083-.359a3.74,3.74,0,0,1,.013-.76c.044-.365.125-.758.19-1.153l.874-5.291a2.145,2.145,0,0,1,.385-.959A.955.955,0,0,1-140.562,644.174Z"/>
    </g>
  </g>
</svg>
