<svg xmlns="http://www.w3.org/2000/svg" width="140.676" height="114.419" viewBox="0 0 140.676 114.419">
  <g id="그룹_1774" data-name="그룹 1774" transform="translate(45.605 -658.52)">
    <g id="그룹_1771" data-name="그룹 1771">
      <path id="패스_3702" data-name="패스 3702" d="M-30.791,710.414l85.084-47.028a13.9,13.9,0,0,1,18.892,5.443l20.149,36.453a13.9,13.9,0,0,1-5.442,18.892l-18.924,10.46a7.58,7.58,0,0,0,1.387,2.19c2.713,2.975,6.963,2.685,7.712,2.621a30.752,30.752,0,0,1-13.892,2.114,29.746,29.746,0,0,1-5.786-1.078L2.808,771.2a13.9,13.9,0,0,1-18.892-5.442l-20.149-36.454A13.9,13.9,0,0,1-30.791,710.414Z" fill="#fff"/>
    </g>
    <g id="그룹_1772" data-name="그룹 1772">
      <path id="패스_3703" data-name="패스 3703" d="M-10.532,771.8A14.917,14.917,0,0,1-23.6,764.109l-20.148-36.453a14.92,14.92,0,0,1,5.833-20.251h0l85.083-47.027a14.917,14.917,0,0,1,20.251,5.834l20.149,36.453a14.92,14.92,0,0,1-5.833,20.251l-18.088,10a6.338,6.338,0,0,0,.807,1.1c2.263,2.482,5.843,2.387,6.888,2.3a.982.982,0,0,1,1.058.768,1,1,0,0,1-.606,1.158,31.43,31.43,0,0,1-14.344,2.181,30.73,30.73,0,0,1-5.577-1L-3.349,769.943A14.8,14.8,0,0,1-10.532,771.8Zm-26.415-62.646A12.918,12.918,0,0,0-42,726.689l20.148,36.454a12.918,12.918,0,0,0,17.534,5.05l55.581-30.72a.987.987,0,0,1,.763-.085,28.7,28.7,0,0,0,14.688.362,8.764,8.764,0,0,1-3.74-2.386,8.584,8.584,0,0,1-1.571-2.477,1,1,0,0,1,.439-1.262l18.923-10.459a12.919,12.919,0,0,0,5.051-17.534L65.669,667.179a12.917,12.917,0,0,0-17.533-5.051Z" fill="#442a61"/>
    </g>
    <g id="그룹_1773" data-name="그룹 1773">
      <path id="패스_3704" data-name="패스 3704" d="M8.351,729.354a2.922,2.922,0,0,1-2.366,1.606A2.461,2.461,0,0,1,3.5,729.713a2.425,2.425,0,0,1-.285-1.578l-.1.053a.747.747,0,0,1-1.029-.263.756.756,0,0,1,.351-1.012l1.336-.71-.217-.408a.7.7,0,0,1,.391-.906.708.708,0,0,1,.982.176l.217.409,1.41-.751A.764.764,0,0,1,7.59,725a.751.751,0,0,1-.356,1l-.1.053a2.5,2.5,0,0,1,1.217,3.3Zm-1.476-1.436a1.094,1.094,0,0,0-1.5-.489,1.067,1.067,0,0,0-.458,1.528,1,1,0,0,0,1.65.266A.957.957,0,0,0,6.875,727.918ZM9.718,729.9c2.276-1.209,4.256-1.96,5.144-.291.875,1.645-.843,2.89-3.118,4.1S7.475,735.642,6.6,734C5.8,732.5,7.442,731.1,9.718,729.9Zm3.488-3.17a.952.952,0,0,1,.007.851.545.545,0,0,1-.238.239.754.754,0,0,1-.816-.043,3.553,3.553,0,0,1-.977-1.479l-.092-.173c-.167.1-.345.216-.507.3l-.037.02.6,1.125a1.544,1.544,0,0,1,.16.629.624.624,0,0,1-.086.346.5.5,0,0,1-.249.308.8.8,0,0,1-.4.085,1.074,1.074,0,0,1-.72-.458L7.682,724.4a1.749,1.749,0,0,1-.243-.7.688.688,0,0,1,.35-.566.684.684,0,0,1,.679-.124.91.91,0,0,1,.365.3,2.152,2.152,0,0,1,.333.506.6.6,0,0,0,.065.154l.579,1.09c.081-.028.347-.155.589-.266l-.618-1.163-.079-.149a1.745,1.745,0,0,1-.246-.551,1.125,1.125,0,0,1,.025-.49.652.652,0,0,1,.477-.506.621.621,0,0,1,.616.085,1.64,1.64,0,0,1,.428.565Zm-2.8,4.457c-1.151.611-2.361,1.319-2.06,1.887.27.507,1.561-.051,2.71-.663s2.494-1.247,2.139-1.915C12.89,729.923,11.553,730.57,10.4,731.182Z"/>
      <path id="패스_3705" data-name="패스 3705" d="M23.085,721.392a.553.553,0,0,1,.377.292.847.847,0,0,1,.095.567c-.128.386-.784.7-.808.716l-6.586,3.517a1.946,1.946,0,0,1-1.2.4.68.68,0,0,1-.542-.332.764.764,0,0,1,.119-.824,4.471,4.471,0,0,1,1.042-.665c.791-.452,1.3-.69,2.126-1.13l-.381-.719a4.567,4.567,0,0,1-.4.23c-.4.2-1.021.527-1.41.75a1.867,1.867,0,0,1-1.127.3c-.522-.088-.929-.791-.948-.828l-1.117-2.1a.766.766,0,0,1,.118-1,.86.86,0,0,1,1.153.02,4.107,4.107,0,0,0,.373.611c.083.067.237-.062.318-.089.4-.179.759-.42,1.155-.63l3.414-1.816a.86.86,0,0,1,.181-.079,1.5,1.5,0,0,0,.362-.241,2.685,2.685,0,0,0-.251-.533.658.658,0,0,1,.072-.847.807.807,0,0,1,1.356.278c.382.749.931,1.662,1.27,2.451a1.324,1.324,0,0,1,.067.662c-.051.5-.763.8-1.141,1.019-.519.308-.444.236-.977.52-.284.15-.5.281-.723.4.143.241.3.538.393.711.916-.486,1.948-1.083,2.672-1.42A1.6,1.6,0,0,1,23.085,721.392Zm-7.37,1.238c.458-.244.923-.476,1.368-.712.625-.315.89-.474,1.5-.814.154-.1.334-.178.507-.27.123-.065.246-.162.377-.216a2.538,2.538,0,0,0,.415-.2c.186-.067.528-.17.383-.441-.065-.124-.068-.249-.226-.308a.555.555,0,0,0-.505.124l-1.856.987c-.111.059-1.787.934-1.886.987-.315.153-1.309.491-1.042.967.04.074.046.055.085.1C15.063,723.072,15.505,722.741,15.715,722.63ZM23.8,723.9l.448.841c.09.143.6,1.075.676,1.274a.71.71,0,0,1-.359.937,1.1,1.1,0,0,1-.278.1c-.519.1-.761-.295-.97-.658-.092-.143-.426-.743-.517-.853a5.38,5.38,0,0,0-.847.4c-.533.283-.934.512-.934.512l-4.131,2.2c-.025.014-.566.159-.8-.162a1.03,1.03,0,0,1-.246-.82.8.8,0,0,1,.382-.505l6.191-3.307C23.083,723.5,23.6,723.516,23.8,723.9Z"/>
      <path id="패스_3706" data-name="패스 3706" d="M27.589,714.333a.966.966,0,0,1,.341.849c-.1.58-1.413,1.1-1.63,1.232a3.948,3.948,0,0,1-.387.223l-.4.211a3.889,3.889,0,0,0-.391.191l-1.471.752c-.841.447-1.275.407-1.58-.018a.71.71,0,0,1-.124-.679.824.824,0,0,1,.475-.539c.063-.033.144-.06.2-.092l.311-.165c.234-.125.574-.321.8-.459-.054-.13-.266-.557-.312-.675a.967.967,0,0,1-.069-.456.851.851,0,0,1,.467-.676.928.928,0,0,1,.755-.1c.325.161.533.732.76,1.071l.359-.19c.136-.073.452-.225.576-.291l.222-.118A1.062,1.062,0,0,1,27.589,714.333Zm2.973,7.59a2.833,2.833,0,0,1-3.651,2.321,3.036,3.036,0,0,1-1.485-1.209,5.4,5.4,0,0,1-1.4-3.587,2.991,2.991,0,0,1,1.8-2.144C28.534,715.988,30.617,719.608,30.562,721.923Zm-1.9-1.608c-.316-.562-.82-1.452-1.511-1.529-.6-.059-1.459.569-1.417,1.214a3.574,3.574,0,0,0,.955,2.126,1.835,1.835,0,0,0,1.06.737,1.99,1.99,0,0,0,.805-.3C29.237,722.056,29.028,720.977,28.661,720.315Zm3.429-5.186c.075-.04.162-.055.248-.1s.2-.074.3-.115a.7.7,0,0,1,.628.047.675.675,0,0,1,.258.275,1.342,1.342,0,0,1,.154.379.732.732,0,0,1,.03.476.95.95,0,0,1-.248.338c-.241.175-.706.375-.958.525a.062.062,0,0,0-.031.032s-.013.007.014.057c.205.415.546,1.026.769,1.446s.467.847.671,1.263l.092.172a2.373,2.373,0,0,1,.427,1.518.585.585,0,0,1-.3.384.046.046,0,0,0-.031,0c-.818.4-1.416-.516-1.693-1.035l-3.906-7.348a1.689,1.689,0,0,1-.227-1.052,1.024,1.024,0,0,1,.463-.47.739.739,0,0,1,.557-.058,1.281,1.281,0,0,1,.668.63.644.644,0,0,1,.092.141c.182.252.346.561.516.852.1.185.2.34.294.526a2.457,2.457,0,0,0,.145.272l.428.8a1.136,1.136,0,0,0,.169.258,1.907,1.907,0,0,0,.266-.125.474.474,0,0,0,.18-.08Z"/>
      <path id="패스_3707" data-name="패스 3707" d="M37,714.5a3.413,3.413,0,0,1-.712,1.347,1.015,1.015,0,0,1-1.022.2c-.464-.246-.357-.763-.267-1.191a18.653,18.653,0,0,1,.685-2.379c.193-.5.652-1.966.652-1.966s-.821-1.277-.659-1.807a1.338,1.338,0,0,1,.861-.679.961.961,0,0,1,1.026.468c.189.3.387.938.717,1.079,1.02.457,2.59.844,3.805,1.34.589.242,1.427.685.913,1.387a1.366,1.366,0,0,1-1.542.264l-3.33-.863Zm7.047-.859a1.358,1.358,0,0,1,.893-.111.674.674,0,0,1,.4.342,1.05,1.05,0,0,1,.122.616c-.122.4-.741.7-.765.709l-6.926,3.683c-.075.039-.155.1-.241.142a1.783,1.783,0,0,1-1.169.37.8.8,0,0,1-.484-1.267,3.739,3.739,0,0,1,.993-.67l.062-.033c.785-.434,1.626-.882,2.449-1.3l-.842-1.553a1.02,1.02,0,0,1,0-.839.91.91,0,0,1,1.542-.057l.873,1.613c.773-.427,1.329-.722,2.1-1.117.3-.147.567-.334.841-.447A.7.7,0,0,0,44.047,713.642Z"/>
      <path id="패스_3708" data-name="패스 3708" d="M50.612,706.217a3.536,3.536,0,0,1-.108,1.024,1.392,1.392,0,0,1-.708.964,2.169,2.169,0,0,1-1.007.282,6.215,6.215,0,0,1-.917-.052c-.3-.049-.567-.08-.836-.111a1.255,1.255,0,0,0-.755.132,2.052,2.052,0,0,0-.7.626c-.206.3-.183.731-.5.933a.554.554,0,0,1-.863-.429,2.6,2.6,0,0,1,.326-1.475,2.373,2.373,0,0,1,.916-1.025,1.659,1.659,0,0,1,.876-.261,6.431,6.431,0,0,1,.861.1,5.917,5.917,0,0,0,.836.11,1.657,1.657,0,0,0,.866-.221.969.969,0,0,0,.342-.341,1.272,1.272,0,0,0,.135-.405c.037-.257,0-.476.233-.664.43-.355.825-.089.943.4C50.579,705.948,50.6,706.1,50.612,706.217Z"/>
      <path id="패스_3709" data-name="패스 3709" d="M50.636,700.4a2.721,2.721,0,0,1,.54-.239c.791-.182,1.329,1.277,1.612,1.808l1.94,3.649a3.171,3.171,0,0,1,.426,1.011c.073.675-1.134,1.269-1.64.854a3.143,3.143,0,0,1-.4-.534c-.163-.278-.316-.593-.481-.9l-2.2-4.143a1.88,1.88,0,0,1-.241-.871A.84.84,0,0,1,50.636,700.4Zm5.464,8.009a.935.935,0,0,1,.213,1.2c-.279.339-1.005.646-1.4.3a1.44,1.44,0,0,1-.44-.8.64.64,0,0,1,.41-.631,1.26,1.26,0,0,1,.958-.255A.86.86,0,0,1,56.1,708.406Z"/>
    </g>
  </g>
</svg>
