<?xml version="1.0" encoding="utf-8"?>
<!-- Generator: Adobe Illustrator 25.1.0, SVG Export Plug-In . SVG Version: 6.00 Build 0)  -->
<svg version="1.1" id="Layer_1" xmlns="http://www.w3.org/2000/svg" xmlns:xlink="http://www.w3.org/1999/xlink" x="0px" y="0px"
	 viewBox="0 0 140.7 114.4" style="enable-background:new 0 0 140.7 114.4;" xml:space="preserve">
<style type="text/css">
	.st0{fill:#FFFFFF;}
	.st1{fill:#442A61;}
</style>
<g id="그룹_1774" transform="translate(45.605 -658.52)">
	<g id="그룹_1771">
		<path id="패스_3702" class="st0" d="M-23.2,687.2l97-6.2c7.7-0.5,14.3,5.3,14.8,13c0,0,0,0,0,0l2.7,41.6
			c0.5,7.7-5.3,14.3-13,14.8c0,0,0,0,0,0l-21.6,1.4c0,0.9,0.1,1.7,0.3,2.6c1.2,3.8,5.2,5.4,5.9,5.7c-4.7-0.3-9.3-1.7-13.5-4
			c-1.7-1-3.3-2.1-4.8-3.4l-63.4,4.1c-7.7,0.5-14.3-5.3-14.8-13c0,0,0,0,0,0l-2.7-41.6C-36.7,694.3-30.9,687.7-23.2,687.2
			C-23.2,687.2-23.2,687.2-23.2,687.2z"/>
	</g>
	<g id="그룹_1772">
		<path id="패스_3703" class="st1" d="M-31.1,751.4c-4.9-2.3-8.2-7.1-8.5-12.5l-2.7-41.6c-0.5-8.2,5.7-15.3,13.9-15.8l0,0l97-6.2
			c8.2-0.5,15.3,5.7,15.8,13.9l2.7,41.6c0.5,8.2-5.7,15.3-13.9,15.8l-20.6,1.3c0,0.5,0.1,0.9,0.3,1.3c1,3.2,4.3,4.7,5.2,5
			c0.5,0.2,0.7,0.7,0.6,1.1c-0.1,0.5-0.5,0.8-1,0.8c-4.9-0.3-9.7-1.7-13.9-4.1c-1.6-0.9-3.2-2-4.6-3.3l-63,4.1
			C-26.3,753-28.8,752.5-31.1,751.4z M-28.2,683.5c-7.1,0.5-12.5,6.6-12,13.7l2.7,41.6c0.5,7.1,6.6,12.5,13.7,12l63.4-4.1
			c0.3,0,0.5,0.1,0.7,0.2c3.7,3.3,8.3,5.6,13.1,6.6c-1.1-1-1.9-2.3-2.4-3.8c-0.3-0.9-0.4-1.9-0.4-2.9c0-0.5,0.4-0.9,0.9-1l21.6-1.4
			c7.1-0.5,12.5-6.6,12-13.7l-2.7-41.6c-0.5-7.1-6.6-12.5-13.7-12L-28.2,683.5z"/>
	</g>
	<g id="그룹_1773">
		<path id="패스_3704" d="M0.1,715.1c-0.8,0.6-1.9,0.8-2.8,0.4c-1-0.3-1.7-1.2-1.7-2.2c0-0.5,0.1-1.1,0.4-1.5l-0.1,0
			c-0.4,0-0.8-0.3-0.8-0.7c0,0,0,0,0,0c0-0.4,0.3-0.8,0.7-0.8c0,0,0,0,0,0l1.5-0.1l0-0.5c0-0.4,0.4-0.7,0.7-0.7
			c0.4-0.1,0.7,0.2,0.8,0.6l0,0.5l1.6-0.1c0.4,0,0.8,0.3,0.8,0.7c0,0.4-0.3,0.8-0.7,0.8l-0.1,0C1.3,712.6,1.2,714.2,0.1,715.1
			L0.1,715.1z M-0.6,713.1c0-0.6-0.5-1.1-1.1-1.1c0,0,0,0,0,0c-0.6,0-1.1,0.5-1.1,1.1c0,0,0,0.1,0,0.1c0,0.6,0.4,1,1,1
			c0.1,0,0.3,0,0.4-0.1C-0.9,714.1-0.6,713.7-0.6,713.1z M1.1,716.1c2.6-0.1,4.7,0,4.8,1.9c0.1,1.9-2,2.3-4.6,2.4
			c-2.6,0.1-4.7-0.1-4.8-1.9C-3.5,716.8-1.5,716.3,1.1,716.1z M5.6,714.8c0,0.3-0.1,0.6-0.4,0.8c-0.1,0.1-0.2,0.1-0.3,0.1
			c-0.3,0-0.6-0.1-0.7-0.4c-0.2-0.6-0.3-1.2-0.3-1.8l0-0.2c-0.2,0-0.4,0-0.6,0.1l0,0l0.1,1.3c0,0.2,0,0.4-0.1,0.6
			c0,0.1-0.1,0.2-0.2,0.3c-0.1,0.1-0.2,0.2-0.4,0.2c-0.1,0-0.3,0-0.4-0.1c-0.2-0.2-0.4-0.4-0.5-0.7l-0.2-4.6c0-0.2,0-0.5,0.1-0.7
			c0.1-0.2,0.3-0.3,0.6-0.4c0.2-0.1,0.5,0,0.7,0.2c0.1,0.1,0.2,0.3,0.2,0.4c0.1,0.2,0.1,0.4,0.1,0.6c0,0.1,0,0.1,0,0.2l0.1,1.2
			c0.1,0,0.4,0,0.6,0l-0.1-1.3l0-0.2c0-0.2,0-0.4,0-0.6c0-0.2,0.1-0.3,0.2-0.4c0.1-0.2,0.4-0.3,0.6-0.3c0.2,0,0.4,0.1,0.5,0.3
			c0.1,0.2,0.1,0.5,0.1,0.7L5.6,714.8z M1.2,717.6c-1.3,0.1-2.7,0.2-2.7,0.8c0,0.6,1.4,0.6,2.7,0.6c1.3-0.1,2.8-0.1,2.8-0.8
			C4,717.5,2.5,717.5,1.2,717.6L1.2,717.6z"/>
		<path id="패스_3705" d="M16.8,714.1c0.1,0.1,0.2,0.3,0.2,0.4c0,0.2,0,0.4-0.2,0.6c-0.3,0.3-1,0.3-1,0.3l-7.5,0.4
			c-0.4,0.1-0.9,0-1.3-0.2c-0.2-0.1-0.3-0.3-0.3-0.5c0-0.3,0.2-0.6,0.5-0.7c0.4-0.1,0.8-0.2,1.2-0.2c0.9-0.1,1.5-0.1,2.4-0.1l0-0.8
			c-0.2,0-0.3,0-0.5,0c-0.4,0-1.1,0-1.6,0.1c-0.4,0.1-0.8,0-1.1-0.2c-0.4-0.3-0.5-1.1-0.5-1.2L7,709.7c-0.1-0.4,0.2-0.7,0.5-0.9
			c0.4-0.1,0.9,0.1,1,0.5c0,0.2,0,0.5,0.1,0.7c0,0.1,0.2,0,0.3,0.1c0.4,0,0.9-0.1,1.3-0.1l3.9-0.2c0.1,0,0.1,0,0.2,0
			c0.1,0,0.3,0,0.4-0.1c0-0.2,0-0.4,0-0.6c-0.1-0.3,0.1-0.6,0.4-0.7c0.4-0.2,0.9,0,1.1,0.4c0.1,0.1,0.1,0.3,0.1,0.4
			c0,0.8,0.1,1.9,0.1,2.8c0,0.2-0.1,0.4-0.2,0.6c-0.3,0.4-1,0.4-1.5,0.4c-0.6,0.1-0.5,0-1.1,0.1c-0.3,0-0.6,0-0.8,0.1
			c0,0.3,0,0.6,0.1,0.8c1,0,2.2-0.1,3-0.1C16.2,713.9,16.5,714,16.8,714.1z M9.6,712.1c0.5,0,1,0,1.5-0.1c0.7,0,1,0,1.7-0.1
			c0.2,0,0.4,0,0.6,0c0.1,0,0.3,0,0.4,0c0.2,0,0.3,0,0.5,0c0.2,0,0.6,0.1,0.5-0.2c0-0.1,0-0.3-0.1-0.4c-0.1-0.1-0.3-0.2-0.5-0.1
			l-2.1,0.1c-0.1,0-2,0.1-2.1,0.1c-0.4,0-1.4-0.1-1.4,0.4c0,0.1,0,0.1,0,0.1C8.9,712.2,9.4,712.1,9.6,712.1z M16.4,716.7l0,1
			c0,0.2,0.1,1.2,0.1,1.4c0,0.4-0.3,0.7-0.7,0.7c-0.1,0-0.2,0-0.3,0c-0.5-0.1-0.6-0.6-0.6-1c0-0.2-0.1-0.9-0.1-1c-0.3,0-0.6,0-0.9,0
			c-0.6,0-1.1,0.1-1.1,0.1l-4.7,0.2c0,0-0.6-0.1-0.7-0.5c-0.1-0.3,0-0.6,0.1-0.8c0.1-0.2,0.3-0.3,0.6-0.3l7-0.4
			C15.9,716.1,16.4,716.3,16.4,716.7z"/>
		<path id="패스_3706" d="M23.9,709.7c0.1,0.3,0.1,0.6-0.1,0.9c-0.3,0.5-1.7,0.4-2,0.4c-0.1,0-0.3,0-0.4,0l-0.5,0
			c-0.1,0-0.3,0-0.4,0l-1.7,0.1c-1,0-1.3-0.2-1.4-0.7c-0.1-0.2,0-0.5,0.2-0.7c0.2-0.2,0.4-0.3,0.7-0.3c0.1,0,0.2,0,0.2,0l0.4,0
			c0.3,0,0.7,0,0.9-0.1c0-0.1,0-0.6,0-0.7c0-0.2,0.1-0.3,0.1-0.4c0.2-0.3,0.4-0.4,0.7-0.4c0.3,0,0.5,0.1,0.7,0.2
			c0.2,0.3,0.2,0.9,0.2,1.3l0.4,0c0.2,0,0.5,0,0.6,0l0.3,0C23.3,709.2,23.7,709.4,23.9,709.7z M23.4,717.8c-0.9,1.3-2.6,1.7-3.9,0.8
			c-0.1-0.1-0.3-0.2-0.4-0.3c-0.5-0.5-0.7-1.1-0.8-1.7c-0.4-1.3-0.3-2.6,0.3-3.8c0.6-0.8,1.6-1.2,2.5-1.2
			C24.1,711.6,24.4,715.7,23.4,717.8L23.4,717.8z M22.3,715.6c0-0.6-0.1-1.7-0.7-2c-0.5-0.3-1.6-0.1-1.8,0.5c-0.3,0.8-0.3,1.6,0,2.3
			c0.1,0.4,0.3,0.8,0.6,1.1c0.3,0.1,0.6,0.1,0.9,0.1C22.1,717.4,22.4,716.3,22.3,715.6L22.3,715.6z M27.6,712.3c0.1,0,0.2,0,0.3,0
			c0.1,0,0.2,0,0.3,0c0.2,0,0.4,0.1,0.5,0.3c0.1,0.1,0.1,0.2,0.1,0.4c0,0.1,0,0.3,0,0.4c0,0.2-0.1,0.3-0.2,0.4
			c-0.1,0.1-0.2,0.2-0.4,0.2c-0.3,0.1-0.8,0-1.1,0.1c0,0,0,0,0,0c0,0,0,0,0,0.1c0,0.5,0.1,1.2,0.1,1.6c0,0.5,0.1,1,0.1,1.4l0,0.2
			c0.1,0.5,0,1.1-0.3,1.6c-0.1,0.1-0.3,0.2-0.4,0.2c0,0,0,0,0,0c-0.9,0-1.1-1.1-1.1-1.7l-0.4-8.3c0-0.4,0.1-0.7,0.2-1
			c0.2-0.1,0.4-0.2,0.6-0.2c0.2,0,0.4,0.1,0.5,0.2c0.2,0.2,0.3,0.5,0.3,0.9c0,0.1,0,0.1,0,0.2c0.1,0.3,0.1,0.7,0.1,1
			c0,0.2,0,0.4,0,0.6c0,0.1,0,0.2,0,0.3l0,0.9c0,0.1,0,0.2,0,0.3c0.1,0,0.2,0,0.3,0C27.5,712.3,27.6,712.3,27.6,712.3L27.6,712.3z"
			/>
		<path id="패스_3707" d="M32.4,713.8c-0.3,0.4-0.7,0.7-1.2,0.9c-0.4,0.1-0.7,0-1-0.3c-0.3-0.4,0-0.8,0.3-1.2
			c0.5-0.7,1-1.3,1.6-1.9c0.4-0.4,1.4-1.5,1.4-1.5s-0.2-1.5,0.2-1.9c0.3-0.2,0.7-0.3,1.1-0.2c0.4,0.1,0.7,0.4,0.7,0.9
			c0,0.4-0.1,1,0.2,1.3c0.7,0.8,2,1.9,2.9,2.8c0.4,0.5,1,1.2,0.2,1.6c-0.5,0.2-1.1,0-1.5-0.4l-2.6-2.2L32.4,713.8z M39.1,716.1
			c0.3,0,0.6,0.1,0.9,0.3c0.1,0.1,0.2,0.3,0.2,0.5c0,0.2,0,0.4-0.2,0.6c-0.3,0.3-1,0.3-1,0.3l-7.8,0.4c-0.1,0-0.2,0-0.3,0
			c-0.4,0.1-0.8,0-1.2-0.2c-0.4-0.3-0.4-0.8-0.2-1.1c0.1-0.1,0.2-0.2,0.3-0.2c0.4-0.1,0.8-0.2,1.2-0.2l0.1,0
			c0.9-0.1,1.8-0.1,2.8-0.1l-0.1-1.8c0-0.3,0.1-0.6,0.4-0.8c0.4-0.3,1-0.2,1.3,0.2c0.1,0.1,0.1,0.2,0.2,0.4l0.1,1.8
			c0.9-0.1,1.5-0.1,2.4-0.1c0.3,0,0.7-0.1,1,0C39,716.1,39,716.1,39.1,716.1L39.1,716.1z"/>
		<path id="패스_3708" d="M48.2,712.2c-0.1,0.3-0.3,0.6-0.5,0.9c-0.2,0.3-0.6,0.5-1.1,0.6c-0.4,0-0.7,0-1-0.2
			c-0.3-0.1-0.5-0.3-0.8-0.4c-0.3-0.2-0.5-0.3-0.7-0.5c-0.2-0.1-0.5-0.2-0.7-0.2c-0.3,0-0.6,0.1-0.9,0.3c-0.3,0.2-0.5,0.6-0.9,0.6
			c-0.3,0-0.6-0.2-0.6-0.5c0-0.1,0-0.2,0-0.3c0.2-0.5,0.5-0.9,0.9-1.2c0.4-0.3,0.8-0.5,1.3-0.5c0.3,0,0.6,0,0.9,0.1
			c0.3,0.1,0.5,0.3,0.7,0.5c0.2,0.2,0.5,0.3,0.7,0.5c0.3,0.1,0.6,0.2,0.9,0.2c0.2,0,0.3-0.1,0.5-0.2c0.1-0.1,0.2-0.2,0.3-0.3
			c0.1-0.2,0.2-0.4,0.5-0.5c0.5-0.1,0.8,0.3,0.7,0.8C48.3,711.9,48.2,712.1,48.2,712.2z"/>
		<path id="패스_3709" d="M50.7,706.9c0.2,0,0.4,0,0.6,0c0.8,0.2,0.7,1.7,0.7,2.3l0.2,4.1c0,0.4,0,0.7,0,1.1
			c-0.2,0.6-1.6,0.7-1.8,0.1c-0.1-0.2-0.1-0.4-0.1-0.7c0-0.3,0-0.7-0.1-1l-0.2-4.7c0-0.3,0-0.6,0.2-0.9
			C50.2,707.1,50.4,706.9,50.7,706.9z M52.2,716.5c0.2,0.4,0.1,0.9-0.3,1.2c-0.4,0.2-1.2,0.2-1.4-0.3c-0.1-0.3-0.1-0.6-0.1-0.9
			c0.1-0.3,0.4-0.4,0.6-0.4c0.3-0.1,0.7,0,1,0.2C52.1,716.3,52.2,716.4,52.2,716.5L52.2,716.5z"/>
	</g>
</g>
</svg>
