<?xml version="1.0" encoding="utf-8"?>
<!-- Generator: Adobe Illustrator 25.1.0, SVG Export Plug-In . SVG Version: 6.00 Build 0)  -->
<svg version="1.1" id="Layer_1" xmlns="http://www.w3.org/2000/svg" xmlns:xlink="http://www.w3.org/1999/xlink" x="0px" y="0px"
	 viewBox="0 0 50 50" style="enable-background:new 0 0 50 50;" xml:space="preserve">
<style type="text/css">
	.st0{fill:url(#SVGID_1_);}
	.st1{fill:url(#SVGID_2_);}
	.st2{fill:url(#SVGID_3_);}
	.st3{fill:url(#SVGID_4_);}
	.st4{opacity:0.1;enable-background:new    ;}
	.st5{opacity:7.000000e-02;enable-background:new    ;}
	.st6{opacity:0.3;fill:#FFFFFF;enable-background:new    ;}
</style>
<g>
	
		<linearGradient id="SVGID_1_" gradientUnits="userSpaceOnUse" x1="25.5562" y1="48.9482" x2="-7.0686" y2="16.3234" gradientTransform="matrix(1 0 0 -1 0 52)">
		<stop  offset="0" style="stop-color:#008EFF"/>
		<stop  offset="1.000000e-02" style="stop-color:#008FFF"/>
		<stop  offset="0.26" style="stop-color:#00ACFF"/>
		<stop  offset="0.51" style="stop-color:#00C0FF"/>
		<stop  offset="0.76" style="stop-color:#00CDFF"/>
		<stop  offset="1" style="stop-color:#00D1FF"/>
	</linearGradient>
	<path class="st0" d="M3.5,0.8c-0.6,0.8-1,1.7-0.9,2.7v43c-0.1,1,0.3,2,0.9,2.7l0.1,0.1l24.1-24.1v-0.6L3.6,0.6L3.5,0.8z"/>
	
		<linearGradient id="SVGID_2_" gradientUnits="userSpaceOnUse" x1="45.7284" y1="26.997" x2="-1.3074" y2="26.997" gradientTransform="matrix(1 0 0 -1 0 52)">
		<stop  offset="0" style="stop-color:#FFD800"/>
		<stop  offset="1" style="stop-color:#FF8A00"/>
	</linearGradient>
	<path class="st1" d="M35.7,33.3l-8-8v-0.6l8-8l0.2,0.1l9.5,5.4c2.7,1.5,2.7,4.1,0,5.6l-9.5,5.4L35.7,33.3z"/>
	
		<linearGradient id="SVGID_3_" gradientUnits="userSpaceOnUse" x1="31.4316" y1="22.5415" x2="-12.7971" y2="-21.6872" gradientTransform="matrix(1 0 0 -1 0 52)">
		<stop  offset="0" style="stop-color:#FF3A44"/>
		<stop  offset="1" style="stop-color:#B11162"/>
	</linearGradient>
	<path class="st2" d="M35.9,33.2l-8.2-8.2L3.5,49.2c1.2,0.9,2.8,1,4,0.1L35.9,33.2"/>
	
		<linearGradient id="SVGID_4_" gradientUnits="userSpaceOnUse" x1="-2.6599" y1="65.5156" x2="17.1043" y2="45.7677" gradientTransform="matrix(1 0 0 -1 0 52)">
		<stop  offset="0" style="stop-color:#328E71"/>
		<stop  offset="7.000000e-02" style="stop-color:#2D9571"/>
		<stop  offset="0.48" style="stop-color:#15BD74"/>
		<stop  offset="0.8" style="stop-color:#06D575"/>
		<stop  offset="1" style="stop-color:#00DE76"/>
	</linearGradient>
	<path class="st3" d="M35.9,16.8L7.5,0.7c-1.2-0.9-2.9-0.9-4,0.1L27.7,25L35.9,16.8z"/>
	<path class="st4" d="M35.7,33l-28.3,16c-1.2,0.9-2.7,0.9-3.9,0l0,0l-0.1,0.1l0,0l0.1,0.1l0,0c1.2,0.9,2.7,0.9,3.9,0l28.4-16.1
		L35.7,33z"/>
	<path class="st5" d="M3.5,49c-0.6-0.8-1-1.7-0.9-2.7v0.3c-0.1,1,0.3,2,0.9,2.7l0.1-0.1L3.5,49z"/>
	<path class="st5" d="M45.4,27.5L35.7,33l0.2,0.2l9.5-5.5c1.1-0.5,1.9-1.6,2-2.8l0,0C47.2,26.1,46.5,27,45.4,27.5z"/>
	<path class="st6" d="M7.5,0.9l37.9,21.5c1,0.5,1.8,1.4,2,2.5l0,0c-0.1-1.2-0.9-2.3-2-2.8L7.5,0.7C4.8-0.9,2.6,0.4,2.6,3.5v0.3
		C2.6,0.7,4.8-0.6,7.5,0.9z"/>
</g>
</svg>
