<?xml version="1.0" encoding="utf-8"?>
<!-- Generator: Adobe Illustrator 24.3.0, SVG Export Plug-In . SVG Version: 6.00 Build 0)  -->
<svg version="1.1" id="레이어_1" xmlns="http://www.w3.org/2000/svg" xmlns:xlink="http://www.w3.org/1999/xlink" x="0px"
	 y="0px" viewBox="0 0 24 24" style="enable-background:new 0 0 24 24;" xml:space="preserve">
<style type="text/css">
	.st0{fill:#303030;}
	.st1{fill:none;}
</style>
<g id="패스_52">
	<path class="st0" d="M16.7,5c0.9,0,1.7,0.4,2.3,1l0.1,0.1c1.3,1.4,1.2,3.5-0.1,4.8l-1,1l-6,6.2l-6-6.2l-1-1l-0.1-0.1
		C3.7,9.5,3.7,7.3,5,6c0.6-0.6,1.4-1,2.3-1S9,5.4,9.6,6l1,1L12,8.5L13.4,7l1-1C15,5.4,15.9,5,16.7,5 M16.7,3C15.4,3,14,3.5,13,4.6
		l-1,1l-1-1C10,3.5,8.6,3,7.3,3S4.6,3.5,3.5,4.6c-2,2.1-2.1,5.5-0.1,7.6c0,0,0.1,0.1,0.1,0.1l1,1L12,21l7.5-7.7l1-1
		c2-2.1,2.1-5.5,0.1-7.6c0,0-0.1-0.1-0.1-0.1C19.4,3.5,18.1,3,16.7,3L16.7,3z"/>
</g>
<g>
	<rect x="0" y="0" class="st1" width="24" height="24"/>
</g>
</svg>
