<svg xmlns="http://www.w3.org/2000/svg" width="39.998" height="51.526" viewBox="0 0 39.998 51.526">
  <g id="그룹_1903" data-name="그룹 1903" transform="translate(-654.311 -625.096)" opacity="0.397">
    <g id="그룹_1891" data-name="그룹 1891" transform="translate(676.101 639.393)">
      <path id="패스_4670" data-name="패스 4670" d="M735.386,680.886a2.993,2.993,0,0,0,1.475-.354l6.346-3.666a1.008,1.008,0,0,0,0-1.889l-6.339-1.89a3.248,3.248,0,0,0-2.95,0l-6.346,1.9a1.008,1.008,0,0,0,0,1.889l6.34,3.661A2.993,2.993,0,0,0,735.386,680.886Z" transform="translate(-726.915 -672.732)" fill="#fff"/>
    </g>
    <g id="그룹_1892" data-name="그룹 1892" transform="translate(684.985 644.047)">
      <path id="패스_4671" data-name="패스 4671" d="M757.4,702.414a1.365,1.365,0,0,0,.725-.242l5.891-3.756a3.679,3.679,0,0,0,1.511-2.6l.314-6.412a1.215,1.215,0,0,0-.273-.917.794.794,0,0,0-.591-.244,1.4,1.4,0,0,0-.693.211l-6.289,3.632a3.266,3.266,0,0,0-1.474,2.555v6.653C756.516,701.974,756.861,702.414,757.4,702.414Z" transform="translate(-756.516 -688.24)" fill="#fff"/>
    </g>
    <g id="그룹_1893" data-name="그룹 1893" transform="translate(654.851 655.101)">
      <path id="패스_4672" data-name="패스 4672" d="M664.015,740.046c.534,0,.879-.44.879-1.122V731.64a3.456,3.456,0,0,0-1.432-2.613l-5.823-3.715a1.35,1.35,0,0,0-.717-.243.733.733,0,0,0-.547.227,1.193,1.193,0,0,0-.262.9l.376,7.628a3.685,3.685,0,0,0,1.511,2.6l5.289,3.375A1.366,1.366,0,0,0,664.015,740.046Z" transform="translate(-656.111 -725.07)" fill="#fff"/>
    </g>
    <g id="그룹_1894" data-name="그룹 1894" transform="translate(664.449 661.271)">
      <path id="패스_4673" data-name="패스 4673" d="M696.661,760.978c.534,0,.88-.441.88-1.123v-7.283a3.456,3.456,0,0,0-1.432-2.613l-6.414-4.091a1.366,1.366,0,0,0-.725-.242c-.534,0-.879.441-.879,1.122v7.288a3.451,3.451,0,0,0,1.432,2.612l6.413,4.087A1.366,1.366,0,0,0,696.661,760.978Z" transform="translate(-688.09 -745.627)" fill="#fff"/>
    </g>
    <g id="그룹_1895" data-name="그룹 1895" transform="translate(674.714 661.27)">
      <path id="패스_4674" data-name="패스 4674" d="M723.174,760.977a1.365,1.365,0,0,0,.725-.242l6.419-4.092a3.454,3.454,0,0,0,1.432-2.612v-7.283c0-.682-.346-1.123-.88-1.123a1.364,1.364,0,0,0-.726.242l-6.419,4.092a3.454,3.454,0,0,0-1.432,2.612v7.283C722.294,760.536,722.639,760.977,723.174,760.977Z" transform="translate(-722.294 -745.625)" fill="#fff"/>
    </g>
    <g id="그룹_1896" data-name="그룹 1896" transform="translate(674.714 649.95)">
      <path id="패스_4675" data-name="패스 4675" d="M723.174,722.728a1.364,1.364,0,0,0,.725-.242l6.419-4.092a3.454,3.454,0,0,0,1.432-2.612v-6.72c0-.7-.367-1.156-.936-1.156a1.4,1.4,0,0,0-.7.211l-6.345,3.662a3.264,3.264,0,0,0-1.475,2.555V721.6C722.294,722.286,722.639,722.728,723.174,722.728Z" transform="translate(-722.294 -707.906)" fill="#fff"/>
    </g>
    <g id="그룹_1897" data-name="그룹 1897" transform="translate(668.691 632.764)">
      <path id="패스_4676" data-name="패스 4676" d="M708.724,655.836a3.284,3.284,0,0,0,1.285-.235l4.626-1.361c.38-.167.589-.4.589-.664s-.209-.5-.589-.665l-4.626-2.033a3.642,3.642,0,0,0-2.571,0l-4.626,2.033c-.379.167-.589.4-.589.665s.209.5.589.664l4.626,1.361A3.283,3.283,0,0,0,708.724,655.836Z" transform="translate(-702.224 -650.644)" fill="#fff"/>
    </g>
    <g id="그룹_1898" data-name="그룹 1898" transform="translate(657.078 630.514)">
      <path id="패스_4677" data-name="패스 4677" d="M668.538,646.286a9.006,9.006,0,0,0,2.826-.483l3.569-1.368c.5-.192.725-.392.692-.615s-.308-.349-.84-.388l-3.812-.273c-.11-.008-.229-.012-.353-.012a9.018,9.018,0,0,0-2.827.484L664.227,645c-.5.192-.724.392-.691.615s.308.35.84.388l3.81.273C668.3,646.282,668.414,646.286,668.538,646.286Z" transform="translate(-663.532 -643.148)" fill="#fff"/>
    </g>
    <path id="패스_4678" data-name="패스 4678" d="M689.5,626.157l3.108,1.38a2.7,2.7,0,0,0,.963.194l3.4-.067c.529-.01.809-.12.858-.337.067-.3-.372-.518-.516-.589-.044-.022-.092-.044-.142-.066l-3.11-1.38a2.711,2.711,0,0,0-.966-.195l-3.4.067c-.529.011-.809.121-.858.338-.067.3.372.518.516.589C689.4,626.113,689.448,626.135,689.5,626.157Z" transform="translate(-24.161)" fill="#fff"/>
    <g id="그룹_1899" data-name="그룹 1899" transform="translate(656.262 636.525)">
      <path id="패스_4679" data-name="패스 4679" d="M667.744,672.588a2.633,2.633,0,0,0,1.435-.392l5.773-4.6a1.032,1.032,0,0,0-.091-1.916l-5.619-2.17a3.573,3.573,0,0,0-3,0l-4.736,2.976a1.032,1.032,0,0,0-.09,1.915l4.894,3.8A2.634,2.634,0,0,0,667.744,672.588Z" transform="translate(-660.812 -663.177)" fill="#fff"/>
    </g>
    <g id="그룹_1900" data-name="그룹 1900" transform="translate(654.311 644.053)">
      <path id="패스_4680" data-name="패스 4680" d="M662.755,702.433c.535,0,.88-.441.88-1.122v-6.653a3.263,3.263,0,0,0-1.475-2.555l-6.289-3.633a1.4,1.4,0,0,0-.693-.211.8.8,0,0,0-.592.244,1.211,1.211,0,0,0-.273.917l.314,6.413a3.68,3.68,0,0,0,1.511,2.6l5.891,3.756A1.365,1.365,0,0,0,662.755,702.433Z" transform="translate(-654.311 -688.259)" fill="#fff"/>
    </g>
    <g id="그룹_1901" data-name="그룹 1901" transform="translate(665.836 644.435)">
      <path id="패스_4681" data-name="패스 4681" d="M701.182,698.57a3,3,0,0,0,1.475-.354L709,694.554a1.008,1.008,0,0,0,0-1.889l-6.335-2.777a3.249,3.249,0,0,0-2.95,0l-6.345,2.779a1.007,1.007,0,0,0,0,1.888l6.34,3.661A3,3,0,0,0,701.182,698.57Z" transform="translate(-692.711 -689.533)" fill="#fff"/>
    </g>
    <g id="그룹_1902" data-name="그룹 1902" transform="translate(664.449 649.95)">
      <path id="패스_4682" data-name="패스 4682" d="M696.661,722.729c.535,0,.88-.44.88-1.122v-7.271a3.266,3.266,0,0,0-1.475-2.555l-6.34-3.661a1.4,1.4,0,0,0-.7-.211c-.568,0-.935.453-.935,1.155v6.721a3.454,3.454,0,0,0,1.432,2.613l6.414,4.091A1.365,1.365,0,0,0,696.661,722.729Z" transform="translate(-688.09 -707.908)" fill="#fff"/>
    </g>
    <path id="패스_4683" data-name="패스 4683" d="M757.4,740.04a1.365,1.365,0,0,0,.725-.242l5.294-3.376a3.675,3.675,0,0,0,1.511-2.6l.372-7.622a1.194,1.194,0,0,0-.262-.9.737.737,0,0,0-.548-.228,1.351,1.351,0,0,0-.717.242l-5.823,3.711a3.452,3.452,0,0,0-1.432,2.612v7.283C756.516,739.6,756.861,740.04,757.4,740.04Z" transform="translate(-71.531 -69.968)" fill="#fff"/>
  </g>
</svg>
