<?xml version="1.0" encoding="utf-8"?>
<!-- Generator: Adobe Illustrator 25.0.1, SVG Export Plug-In . SVG Version: 6.00 Build 0)  -->
<svg version="1.1" id="Layer_1" xmlns="http://www.w3.org/2000/svg" xmlns:xlink="http://www.w3.org/1999/xlink" x="0px" y="0px"
	 viewBox="0 0 15 15" style="enable-background:new 0 0 15 15;" xml:space="preserve">
<style type="text/css">
	.st0{fill-rule:evenodd;clip-rule:evenodd;fill:#333333;}
</style>
<g>
	<path class="st0" d="M14.2,9.6H14V3h0.2C14.7,3,15,2.6,15,2.2s-0.3-0.8-0.8-0.8H9.4L9.2,0.6C9.1,0.2,8.7-0.1,8.3,0
		C8,0.1,7.9,0.2,7.8,0.4C7.7,0.6,7.6,0.8,7.7,1l0.1,0.5H7.2L7.3,1C7.4,0.6,7.2,0.1,6.8,0C6.5,0,6.3,0,6.2,0.1C6,0.2,5.9,0.4,5.8,0.6
		L5.6,1.4H0.8C0.3,1.4,0,1.8,0,2.2S0.3,3,0.8,3L1,3v6.6H0.8C0.3,9.6,0,9.9,0,10.4c0,0.4,0.3,0.8,0.8,0.8h2.4L2.4,14
		c-0.1,0.2,0,0.4,0.1,0.6C2.6,14.8,2.8,14.9,3,15c0.4,0.1,0.8-0.2,0.9-0.6l0.8-3.3h2v2.1c0,0.4,0.4,0.8,0.8,0.8
		c0.4,0,0.8-0.3,0.8-0.8v-2.1h2l0.8,3.2c0.1,0.3,0.4,0.6,0.8,0.6c0.1,0,0.1,0,0.2,0c0.2-0.1,0.4-0.2,0.5-0.4
		c0.1-0.2,0.1-0.4,0.1-0.6l-0.7-2.9h2.4c0.4,0,0.8-0.4,0.8-0.8C15,9.9,14.7,9.6,14.2,9.6z M12.7,3v6.6H2.3V3H12.7z"/>
	<path class="st0" d="M4.5,7.9c0.2,0,0.3-0.1,0.4-0.2l2.2-1.2l0.2,0.4C7.4,7,7.5,7.1,7.7,7.2c0.2,0.1,0.3,0,0.5,0l2.6-1.2
		c0.3-0.2,0.4-0.5,0.3-0.9c-0.2-0.3-0.5-0.4-0.9-0.3L8.2,5.7L7.9,5.2C7.8,5,7.7,4.9,7.5,4.8c-0.2,0-0.4,0-0.6,0.2L4,6.8
		C3.8,7,3.8,7.4,4,7.6C4.1,7.8,4.3,7.9,4.5,7.9z"/>
</g>
</svg>
