<svg xmlns="http://www.w3.org/2000/svg" xmlns:xlink="http://www.w3.org/1999/xlink" width="24" height="24" viewBox="0 0 24 24">
  <defs>
    <style>
      .cls-1 {
        fill: none;
      }

      .cls-2 {
        clip-path: url(#clip-path);
      }

      .cls-3 {
        fill: #303030;
      }
    </style>
    <clipPath id="clip-path">
      <rect id="사각형_1023" data-name="사각형 1023" class="cls-1" width="24" height="24"/>
    </clipPath>
  </defs>
  <g id="share" transform="translate(12 12)">
    <g id="share-2" data-name="share" class="cls-2" transform="translate(-12 -12)">
      <path id="패스_3203" data-name="패스 3203" class="cls-3" d="M17,2a3,3,0,0,0-3,3,3.3,3.3,0,0,0,.1.7L8,9.9a3,3,0,1,0,0,4.4l6.2,4.2a2.8,2.8,0,0,0-.1.6,2.9,2.9,0,1,0,1-2.2L8.9,12.8a3.3,3.3,0,0,0,.1-.7,3.3,3.3,0,0,0-.1-.7l6-4.2A3,3,0,1,0,17,2m0,4a1,1,0,1,1,1-1,1,1,0,0,1-1,1M6,13.1a1,1,0,1,1,1-1,1,1,0,0,1-1,1m11.1,7a1,1,0,1,1,1-1,1,1,0,0,1-1,1"/>
    </g>
  </g>
</svg>
