<?xml version="1.0" encoding="utf-8"?>
<!-- Generator: Adobe Illustrator 24.3.0, SVG Export Plug-In . SVG Version: 6.00 Build 0)  -->
<svg version="1.1" id="레이어_1" xmlns="http://www.w3.org/2000/svg" xmlns:xlink="http://www.w3.org/1999/xlink" x="0px"
	 y="0px" viewBox="0 0 24 24" style="enable-background:new 0 0 24 24;" xml:space="preserve">
<style type="text/css">
	.st0{fill:#fff;}
</style>
<g>
	<g>
		<path class="st0" d="M12,5c1.4,0,2.5,1.1,2.5,2.5S13.4,10,12,10S9.5,8.9,9.5,7.5S10.6,5,12,5 M12,3C9.5,3,7.5,5,7.5,7.5
			S9.5,12,12,12s4.5-2,4.5-4.5S14.5,3,12,3L12,3z"/>
	</g>
</g>
<g>
	<g>
		<path class="st0" d="M12,14c3,0,5.5,2.1,5.9,4.9C17.7,19,17.5,19,17.3,19H6.7c-0.2,0-0.4,0-0.6-0.1C6.5,16.1,9,14,12,14 M12,12
			c-4.4,0-8,3.5-8,7.7c0,0.1,0,0.2,0,0.3c0.7,0.6,1.6,1,2.7,1h10.7c1,0,1.9-0.4,2.7-1c0-0.1,0-0.2,0-0.3C20,15.5,16.4,12,12,12
			L12,12z"/>
	</g>
</g>
</svg>
