<?xml version="1.0" encoding="utf-8"?>
<!-- Generator: Adobe Illustrator 24.3.0, SVG Export Plug-In . SVG Version: 6.00 Build 0)  -->
<svg version="1.1" id="레이어_1" xmlns="http://www.w3.org/2000/svg" xmlns:xlink="http://www.w3.org/1999/xlink" x="0px"
	 y="0px" viewBox="0 0 24 24" style="enable-background:new 0 0 24 24;" xml:space="preserve">
<style type="text/css">
	.st0{fill:none;}
	.st1{fill:#CCCCCC;}
</style>
<rect y="0" class="st0" width="24" height="24"/>
<g>
	<path class="st1" d="M15.2,6L15.2,6l1.4,1.4L17.2,8H18h2v10H4V8h2h0.8l0.6-0.6L8.8,6H15.2 M15.2,4H8.8c-0.5,0-1,0.2-1.4,0.6L6,6H4
		C2.9,6,2,6.9,2,8v10c0,1.1,0.9,2,2,2h16c1.1,0,2-0.9,2-2V8c0-1.1-0.9-2-2-2h-2l-1.4-1.4C16.2,4.2,15.7,4,15.2,4L15.2,4z"/>
	<path class="st1" d="M12,10.5c1.1,0,2,0.9,2,2s-0.9,2-2,2s-2-0.9-2-2S10.9,10.5,12,10.5 M12,8.5c-2.2,0-4,1.8-4,4s1.8,4,4,4
		s4-1.8,4-4S14.2,8.5,12,8.5L12,8.5z"/>
</g>
</svg>
