<svg xmlns="http://www.w3.org/2000/svg" viewBox="0 0 103 101"><defs><style>.cls-1{fill:#fff;}</style></defs><g id="레이어_2" data-name="레이어 2"><g id="레이어_1-2" data-name="레이어 1"><path class="cls-1" d="M2,45.12,1,45A50.5,50.5,0,0,1,92,20.65l-.8.59A49.51,49.51,0,0,0,2,45.12Z"/><path class="cls-1" d="M51.24,101A50.72,50.72,0,0,1,10.5,80.35l.81-.59a49.5,49.5,0,0,0,89.17-24.2l1,.1A50.33,50.33,0,0,1,51.24,101Z"/><path class="cls-1" d="M51.24,76a25.48,25.48,0,0,1-12.16-3.08l.48-.88a24.51,24.51,0,0,0,32.59-8.77l.85.52A25.32,25.32,0,0,1,51.24,76Z"/><path class="cls-1" d="M30.33,37.73l-.86-.52a25.51,25.51,0,0,1,33.92-9.13l-.47.88a24.51,24.51,0,0,0-32.59,8.77Z"/><path class="cls-1" d="M34.1,79.52l4,2-.35.67-3.2-1.65-1.28,2.49,2.89,1.49-.35.68-2.89-1.49-1.61,3.13-.78-.4Z"/><path class="cls-1" d="M44.25,91.56c-1.6-.28-2.19-1.48-1.87-3.3s1.26-2.76,2.87-2.48,2.2,1.48,1.89,3.3S45.86,91.83,44.25,91.56Zm.88-5.1c-1.14-.2-1.7.57-1.94,1.94s0,2.28,1.18,2.48,1.71-.56,2-1.94S46.28,86.66,45.13,86.46Z"/><path class="cls-1" d="M55.22,89l.33,2.83-.83.1-.63-5.57.82-.09.12,1a1.5,1.5,0,0,1,1.48-1.29,1.52,1.52,0,0,1,.42,0l.07.68-.44,0C55.61,86.73,55.06,87.52,55.22,89Z"/><path class="cls-1" d="M66.34,80.71l.85-.35-.65,5.42,1.19,2.84-.8.34-1.2-2.85-4.31-3.34.85-.35,3.54,2.75Z"/><path class="cls-1" d="M78,82.46c-1.25,1.05-2.54.72-3.72-.7S73,79,74.24,78s2.54-.73,3.73.69S79.24,81.41,78,82.46Zm-3.31-4c-.89.74-.67,1.66.22,2.73s1.76,1.45,2.65.7.68-1.66-.22-2.74S75.57,77.75,74.68,78.5Z"/><path class="cls-1" d="M80.43,71.6l.44-.7,2.78,1.75c1.06.67,1.73.56,2.2-.19s.2-1.78-1-2.52l-2.43-1.53.43-.7,4.74,3-.44.69-.83-.53a1.83,1.83,0,0,1,0,2.14c-.67,1.07-1.74,1.21-2.95.46Z"/><path class="cls-1" d="M15,32.69,17.74,28l.65.38-1.14,2,6.13,3.55-.44.75-6.13-3.55-1.15,2Z"/><path class="cls-1" d="M31.46,24.68l-.62.54-2.17-2.45c-.83-.94-1.51-1-2.17-.43S25.81,24,26.73,25l1.91,2.16-.63.55-5.2-5.87.63-.55,2.14,2.42a1.79,1.79,0,0,1,.61-2c.95-.84,2-.68,3,.38Z"/><path class="cls-1" d="M38.17,20.93c-1.22.53-2.24.25-2.69-.77s.06-2,1.28-2.49a1.78,1.78,0,0,1,1.85,0l-.37-.87a1.28,1.28,0,0,0-1.85-.71c-.81.35-1,.91-.85,1.52l-.78.34c-.34-1,.08-1.94,1.36-2.49a2,2,0,0,1,2.87,1l1.14,2.65a2.72,2.72,0,0,0,.43.65l-.77.33a1.42,1.42,0,0,1-.34-.49C39.42,20.11,39,20.58,38.17,20.93Zm-1-2.71c-.93.4-1.23,1-1,1.61s.9.79,1.83.39,1.23-1,1-1.6S38.13,17.83,37.21,18.22Z"/><path class="cls-1" d="M50.67,18l-.82.07-.3-3.26c-.11-1.25-.62-1.72-1.5-1.64s-1.53.93-1.4,2.3l.26,2.87-.83.08-.51-5.58.83-.08.09,1a1.79,1.79,0,0,1,1.7-1.28c1.27-.12,2,.65,2.16,2.06Z"/><path class="cls-1" d="M56.51,18.39l1.71-7.66.81.18-1,4.47.63.14,2.24-1.89.92.21L59.26,16l1.59,3.35-1-.21-1.4-3-.62-.14-.56,2.52Z"/><path class="cls-1" d="M71.09,19.64l-.07.12-.72-.41.07-.13c.25-.44.07-1-.61-1.38s-1.24-.25-1.48.18-.08.77.52,1.29l.52.46c.9.79,1.12,1.43.65,2.26s-1.54,1-2.69.36-1.54-1.65-1.06-2.49l.1-.16.72.4-.1.17c-.29.51,0,1.1.68,1.49s1.35.31,1.63-.17.12-.84-.45-1.34l-.54-.46c-.92-.8-1.13-1.46-.71-2.2s1.41-1,2.55-.38S71.54,18.84,71.09,19.64Z"/><path class="cls-1" d="M11.37,61.88c0,3.83-.31,6.83-1.64,8.92a6.79,6.79,0,0,1-4.06,2.91A4,4,0,0,1,1.61,73C.28,71.6,0,68.75,0,64.93S.28,58.13,1.61,56a7,7,0,0,1,4.06-2.93,4,4,0,0,1,4.06.76C11.06,55.25,11.37,58.08,11.37,61.88ZM3.21,64.07c0,3.23.16,5.58.87,6.46a1.46,1.46,0,0,0,1.59.38,2.68,2.68,0,0,0,1.62-1.24c.71-1.26.85-3.69.85-6.92S8,57.18,7.29,56.31a1.51,1.51,0,0,0-1.62-.38,2.65,2.65,0,0,0-1.59,1.24C3.37,58.42,3.21,60.87,3.21,64.07Zm14.57,7.56-3.25.87V50.71l3.25-.87Z"/><path class="cls-1" d="M26.58,51.66V47.74l3-.8v4.72l1.83-.49V46.3l3.09-.82V60.29l-3.09.83V54l-1.83.49v5.29L21,62.05V49.25l3-.8v3.92ZM22.47,70.47V63l3.25-.87v4.63l13.7-3.68v2.83Zm4.11-16-2.64.7v3.37l2.64-.7ZM35.93,45,39,44.14V59.46l-3.11.83Z"/><path class="cls-1" d="M41.65,61.46,61,56.27V59.1L41.65,64.29Zm4.35-16v2.9l13.67-3.67v2.81L46,51.18v3l14.17-3.79v2.8L42.74,57.85V43.53l17.19-4.61v2.83Z"/><path class="cls-1" d="M73.91,42.23v2.4l8.24-2.21V45.2L62.54,50.45V47.67l8.15-2.18v-2.4ZM63.54,55.67A4.61,4.61,0,0,1,65.41,52a19.05,19.05,0,0,1,7-3c3-.8,5.41-1.14,7-.7a2.44,2.44,0,0,1,1.87,2.66,4.48,4.48,0,0,1-1.87,3.63,18.71,18.71,0,0,1-7,3c-3,.8-5.41,1.15-7,.68A2.42,2.42,0,0,1,63.54,55.67Zm.38-17.93,16.86-4.52V36l-6.7,1.79c.67,1.56,3.68,1.68,6.93,1v2.73c-3.53.74-6.76.63-8.69-.59a19.67,19.67,0,0,1-8.69,5.25V43.44c3.21-1,6.25-2.84,6.91-4.75l-6.62,1.78ZM66.79,54.8a.75.75,0,0,0,.64.8c.88.24,2.52-.08,4.94-.73A14.77,14.77,0,0,0,77.31,53,1.43,1.43,0,0,0,78,51.81a.8.8,0,0,0-.64-.83c-.88-.21-2.52.08-4.94.73a15.22,15.22,0,0,0-4.94,1.92A1.5,1.5,0,0,0,66.79,54.8Z"/><path class="cls-1" d="M88,42.67l14.17-3.8v2.82l-3.25.87v3.57L103,45v2.82L83.62,53V50.22l4.23-1.14V45.52l-3.14.84v-8.5l13.94-3.73V31.38L84.71,35.11V32.28l17.19-4.6v8.4L88,39.82Zm7.71.75-4.6,1.24v3.56L95.68,47Z"/></g></g></svg>