<?xml version="1.0" encoding="utf-8"?>
<!-- Generator: Adobe Illustrator 24.3.0, SVG Export Plug-In . SVG Version: 6.00 Build 0)  -->
<svg version="1.1" id="레이어_1" xmlns="http://www.w3.org/2000/svg" xmlns:xlink="http://www.w3.org/1999/xlink" x="0px"
	 y="0px" viewBox="0 0 500 500" style="enable-background:new 0 0 500 500;" xml:space="preserve">
<style type="text/css">
	.st0{fill:#F8F8F8;}
	.st1{opacity:0.3;fill:#BBBBBB;enable-background:new    ;}
</style>
<rect class="st0" width="500" height="500"/>
<g>
	<path class="st1" d="M250,157.4l-80.2,46.3v92.6l80.2,46.3l1.6-0.9l78.5-45.3v-92.6L250,157.4z M320.4,205.6L292,222.2l-70.6-40.7
		l28.5-16.5L320.4,205.6z M250,246.6l-70.4-41l28.2-16.3l70.6,40.8L250,246.6z M176.3,211.3l70.4,41l0,80.9l-70.4-40.6V211.3z
		 M253.3,333.2l0-80.9l28.7-16.7V255l13.7-7.9v-19.5l28-16.3v81.3L253.3,333.2z"/>
</g>
</svg>
