<svg id="event" xmlns="http://www.w3.org/2000/svg" xmlns:xlink="http://www.w3.org/1999/xlink" width="60" height="60" viewBox="0 0 60 60">
  <defs>
    <linearGradient id="linear-gradient" x1="0.277" y1="0.027" x2="0.984" y2="0.734" gradientUnits="objectBoundingBox">
      <stop offset="0" stop-color="#ff9364"/>
      <stop offset="1" stop-color="#ff2f67"/>
    </linearGradient>
  </defs>
  <path id="패스_3612" data-name="패스 3612" d="M30,0H0L60,60V30Z" fill="url(#linear-gradient)"/>
  <path id="패스_3613" data-name="패스 3613" d="M32,11.05l-1.27,1.27L28.27,9.84,27.11,11l2.21,2.2-1.27,1.27-2.21-2.2-1.38,1.37,2.48,2.49-1.26,1.26-4-4L28,7Z" fill="#fff"/>
  <path id="패스_3614" data-name="패스 3614" d="M34.2,13.24l-2.65,5,5-2.64,1.67,1.66L29.7,21.44l-1.36-1.38,4.17-8.51Z" fill="#fff"/>
  <path id="패스_3615" data-name="패스 3615" d="M42.94,22l-1.27,1.27-2.48-2.48L38,21.92l2.21,2.21L39,25.39l-2.21-2.2-1.38,1.38,2.49,2.48-1.3,1.27-4-4L38.93,18Z" fill="#fff"/>
  <path id="패스_3616" data-name="패스 3616" d="M48.85,27.88,42.5,34.22,41.27,33l1.18-5.84-3.51,3.51L37.5,29.22l6.35-6.34,1.21,1.21L43.86,30l3.55-3.55Z" fill="#fff"/>
  <path id="패스_3617" data-name="패스 3617" d="M54.41,33.45l-1.26,1.27-1.66-1.66-5.07,5.08-1.53-1.53L50,31.54l-1.65-1.66,1.27-1.27Z" fill="#fff"/>
  <path id="패스_3618" data-name="패스 3618" d="M3.53,0H2.47L60,57.53V56.47Z" fill="#ffbebe"/>
  <path id="패스_3619" data-name="패스 3619" d="M60,32.47,27.53,0H26.47L60,33.53Z" fill="#ffbebe"/>
</svg>
