<svg xmlns="http://www.w3.org/2000/svg" width="16" height="20" viewBox="0 0 16 20">
  <g id="sns_apple" transform="translate(-3 -1.111)">
    <path id="svg_1_1_" d="M3,11.556,3.111,11a3.244,3.244,0,0,1,.222-1,2.093,2.093,0,0,1,.222-.889c.111-.222.222-.556.333-.778a2.424,2.424,0,0,1,.444-.556c.111-.222.333-.333.444-.556.222-.111.333-.333.667-.444.222-.111.556-.333.778-.444A2.06,2.06,0,0,1,7,6.111c.222,0,.556-.111.889-.111a3.076,3.076,0,0,1,1,.111c.333.111.778.222,1.222.333A3.007,3.007,0,0,0,11,6.778h.333a6.888,6.888,0,0,0,1.222-.333C13.222,6.222,13.778,6.111,14,6c.222,0,.556-.111.889-.111a3.076,3.076,0,0,1,1,.111c.333.111.667.111.889.222l.667.333A1.109,1.109,0,0,1,18,7c.111.222.333.333.444.444s.222.222.222.333h0L18.333,8c-.222.222-.444.333-.667.556a2.324,2.324,0,0,0-.444.667l-.333.667c-.111.222-.111.444-.222.667,0,.222-.111.556-.111,1a2.466,2.466,0,0,0,.111,1,2.06,2.06,0,0,0,.222.778l.333.667a2.424,2.424,0,0,0,.444.556l.444.444c.111.111.333.222.556.444a1.375,1.375,0,0,1,.333.222h0l-.222.667a13.035,13.035,0,0,1-.556,1.222,9.771,9.771,0,0,0-.667,1.111,6.163,6.163,0,0,1-.667.889l-.556.556c-.222.111-.333.333-.556.444s-.333.222-.556.222a.487.487,0,0,0-.333.111h-.222a.84.84,0,0,1-.444-.111,10.225,10.225,0,0,1-1-.333,5.166,5.166,0,0,1-1-.333A1.891,1.891,0,0,0,11.444,20c-.222,0-.556,0-.667.111a3.435,3.435,0,0,0-.889.222,5.166,5.166,0,0,0-1,.333l-.333.444H7.667c-.111,0-.222-.111-.333-.111-.222-.111-.333-.222-.556-.333s-.333-.333-.556-.556a3.068,3.068,0,0,1-.667-.889,3.859,3.859,0,0,1-.667-1,3.476,3.476,0,0,1-.556-1.111c-.222-.444-.333-.778-.556-1.222-.111-.444-.333-.889-.444-1.333a5.577,5.577,0,0,1-.222-1.333L3,12.556v-1Z" fill="#fff" fill-rule="evenodd"/>
    <path id="svg_4" d="M15,1.111h.111v.667A1.648,1.648,0,0,1,15,2.556a1.579,1.579,0,0,1-.222.667c-.111.222-.222.333-.333.556s-.333.444-.444.667-.333.333-.556.556a2.424,2.424,0,0,0-.556.444,1.579,1.579,0,0,1-.667.222,1.409,1.409,0,0,1-.667.111h-.333V5.333a1.648,1.648,0,0,1,.111-.778c.111-.222.111-.444.222-.667l.333-.667c.111-.222.333-.333.444-.556a1.109,1.109,0,0,1,.556-.444c.222-.111.444-.333.667-.444l.667-.333c.222-.111.444-.111.556-.222A.344.344,0,0,1,15,1.111Z" fill="#fff" fill-rule="evenodd"/>
  </g>
</svg>
