<svg id="sns3_ᄃ_지_1" data-name="sns3_대지 1" xmlns="http://www.w3.org/2000/svg" width="30" height="30" viewBox="0 0 30 30">
  <defs>
    <style>
      .cls-1 {
        fill: #8648b9;
      }

      .cls-2 {
        fill: none;
      }
    </style>
  </defs>
  <g id="그룹_1596" data-name="그룹 1596">
    <path id="패스_3498" data-name="패스 3498" class="cls-1" d="M12.58,13.15l-.8,2.3h1.63l-.8-2.3Z"/>
    <path id="패스_3499" data-name="패스 3499" class="cls-1" d="M15,4.95c-5.6,0-10.3,3.03-11.65,7.14a7.594,7.594,0,0,0-.37,2.38c0,3.4,2.27,6.4,5.7,8.08-.25.94-.91,3.4-1.04,3.94-.17.65.24.64.5.46.21-.14,3.29-2.23,4.63-3.14a16.244,16.244,0,0,0,2.23.17A12.947,12.947,0,0,0,25.28,19.4a8.035,8.035,0,0,0,1.74-4.94C27.02,9.21,21.64,4.95,15,4.95ZM9.09,17.19a.594.594,0,0,1-.18.41.585.585,0,0,1-.4.17H8.37a.678.678,0,0,1-.42-.17.583.583,0,0,1-.17-.41V12.97H6.65a.59.59,0,0,1,0-1.18h3.51a.615.615,0,0,1,.61.59.637.637,0,0,1-.04.24.607.607,0,0,1-.55.36H9.09Zm5.74.55a.566.566,0,0,1-.73-.36l-.3-.84H11.4l-.3.84a.584.584,0,1,1-1.1-.39l1.52-4.09.19-.53a.594.594,0,0,1,.04-.08.831.831,0,0,1,.84-.59.867.867,0,0,1,.83.5v.01L15.19,17a.466.466,0,0,1,.03.19A.57.57,0,0,1,14.83,17.74Zm3.79,0H16.23a.546.546,0,0,1-.54-.55V12.35a.64.64,0,0,1,.64-.65.649.649,0,0,1,.65.65v4.3h1.63a.541.541,0,0,1,.5.33.42.42,0,0,1,.06.21A.569.569,0,0,1,18.62,17.74Zm4.29-.19-1.73-2.27-.37.37v1.47a.645.645,0,1,1-1.29,0V12.35a.64.64,0,0,1,.64-.65.649.649,0,0,1,.65.65v1.69L22.86,12a.566.566,0,1,1,.8.8l-1.65,1.65,1.83,2.39a.589.589,0,0,1-.12.82.542.542,0,0,1-.35.11A.568.568,0,0,1,22.91,17.55Z"/>
  </g>
  <rect id="사각형_1078" data-name="사각형 1078" class="cls-2" width="30" height="30"/>
</svg>
