<svg xmlns="http://www.w3.org/2000/svg" width="30" height="30" viewBox="0 0 30 30">
  <defs>
    <style>
      .cls-1 {
        fill: #8648b9;
      }

      .cls-2 {
        fill: none;
      }
    </style>
  </defs>
  <g id="sns3-04" transform="translate(0 -0.04)">
    <g id="그룹_1593" data-name="그룹 1593">
      <path id="패스_3489" data-name="패스 3489" class="cls-1" d="M21.87,14.03a.87.87,0,1,0,.87.87A.858.858,0,0,0,21.87,14.03Z"/>
      <path id="패스_3490" data-name="패스 3490" class="cls-1" d="M16.4,14.01a.9.9,0,1,0,.9.9A.9.9,0,0,0,16.4,14.01Z"/>
      <path id="패스_3491" data-name="패스 3491" class="cls-1" d="M23.81,5.86H6.19A3.216,3.216,0,0,0,2.98,9.08V19.54a3.214,3.214,0,0,0,3.21,3.21h6.22l2.12,4.99s.15.43.5.43.5-.43.5-.43l2.12-4.99h6.17a3.214,3.214,0,0,0,3.21-3.21V9.08A3.231,3.231,0,0,0,23.81,5.86ZM10.53,15.1a2,2,0,0,1-1.99,1.98,1.638,1.638,0,0,1-1.19-.51v.35H5.91V10.99c.08.01,1.44,0,1.44,0v2.27c.33-.58,1.31-.57,1.31-.57a2,2,0,0,1,1.88,2.19A.771.771,0,0,1,10.53,15.1Zm2.53,1.83H11.65V12.9c0-.55-.68-.71-.68-.71V10.78a1.941,1.941,0,0,1,2.09,2.07v4.08Zm3.34.15a2.27,2.27,0,0,1-2.35-2.17,2.367,2.367,0,0,1,4.72,0A2.288,2.288,0,0,1,16.4,17.08Zm5.64,2.06H21.4V17.8h.39s.89.08.87-1.27c0,0-.18.55-1.41.55a1.856,1.856,0,0,1-1.76-1.84v-.65a2,2,0,0,1,1.96-1.91,1.453,1.453,0,0,1,1.23.54v-.43H24.1v4.29A1.977,1.977,0,0,1,22.04,19.14Z"/>
      <path id="패스_3492" data-name="패스 3492" class="cls-1" d="M8.22,14.09a.83.83,0,1,0,.83.83A.828.828,0,0,0,8.22,14.09Z"/>
    </g>
    <rect id="사각형_1075" data-name="사각형 1075" class="cls-2" width="30" height="30" transform="translate(0 0.04)"/>
  </g>
</svg>
