<?xml version="1.0" encoding="utf-8"?>
<!-- Generator: Adobe Illustrator 24.3.0, SVG Export Plug-In . SVG Version: 6.00 Build 0)  -->
<svg version="1.1" id="레이어_1" xmlns="http://www.w3.org/2000/svg" xmlns:xlink="http://www.w3.org/1999/xlink" xml:space="preserve" width="200px" height="35px">
<style type="text/css">
	.st0{fill:#8648B9;}
</style>
<g>
	<path class="st0" d="M18.5,27.4L29.8,34l-3.1-12.4l9.3-8.3l-12.4-1L18.5,1l-5.1,11.3L1,13.3l9.3,8.3L7.2,34L18.5,27.4z"/>
</g>
<g>
	<path class="st0" d="M59.3,27.4L70.6,34l-3.1-12.4l9.3-8.3l-12.4-1L59.3,1l-5.1,11.3l-12.4,1l9.3,8.3L47.9,34L59.3,27.4z"/>
</g>
<g>
	<path class="st0" d="M100,27.4l11.3,6.6l-3.1-12.4l9.3-8.3l-12.4-1L100,1l-5.1,11.3l-12.4,1l9.3,8.3L88.7,34L100,27.4z"/>
</g>
<g>
	<path class="st0" d="M140.8,27.4l11.3,6.6L149,21.6l9.3-8.3l-12.4-1L140.8,1l-5.1,11.3l-12.4,1l9.3,8.3L129.4,34L140.8,27.4z"/>
</g>
<g>
	<path class="st0" d="M181.5,27.4l11.3,6.6l-3.1-12.4l9.3-8.3l-12.4-1L181.5,1l-5.1,11.3l-12.4,1l9.3,8.3L170.2,34L181.5,27.4z"/>
</g>
</svg>
