<svg xmlns="http://www.w3.org/2000/svg" xmlns:xlink="http://www.w3.org/1999/xlink" viewBox="0 0 285.45 265.7"><defs><style>.cls-1{fill:url(#linear-gradient);}.cls-10,.cls-11,.cls-12,.cls-13,.cls-14,.cls-16,.cls-17,.cls-18,.cls-19,.cls-2,.cls-20,.cls-21,.cls-22,.cls-23,.cls-24,.cls-25,.cls-26,.cls-27,.cls-28,.cls-29,.cls-3,.cls-30,.cls-31,.cls-4,.cls-5,.cls-6,.cls-7,.cls-8,.cls-9{fill-rule:evenodd;}.cls-2{fill:url(#linear-gradient-2);}.cls-3{fill:url(#linear-gradient-3);}.cls-4{fill:url(#linear-gradient-4);}.cls-5{fill:url(#linear-gradient-5);}.cls-6{fill:url(#linear-gradient-6);}.cls-7{fill:url(#linear-gradient-7);}.cls-8{fill:url(#linear-gradient-8);}.cls-9{fill:url(#linear-gradient-9);}.cls-10{fill:url(#linear-gradient-10);}.cls-11{fill:url(#linear-gradient-11);}.cls-12{fill:url(#linear-gradient-12);}.cls-13{fill:url(#linear-gradient-13);}.cls-14{fill:url(#linear-gradient-14);}.cls-15{fill:url(#linear-gradient-15);}.cls-16{fill:url(#linear-gradient-16);}.cls-17{fill:url(#linear-gradient-17);}.cls-18{fill:url(#linear-gradient-18);}.cls-19{fill:url(#linear-gradient-19);}.cls-20{fill:url(#linear-gradient-20);}.cls-21{fill:url(#linear-gradient-21);}.cls-22{fill:url(#linear-gradient-22);}.cls-23{fill:url(#linear-gradient-23);}.cls-24{fill:url(#linear-gradient-24);}.cls-25{fill:url(#linear-gradient-25);}.cls-26{fill:url(#linear-gradient-26);}.cls-27{fill:url(#linear-gradient-27);}.cls-28{fill:url(#linear-gradient-28);}.cls-29{fill:url(#linear-gradient-29);}.cls-30{fill:url(#linear-gradient-30);}.cls-31{fill:url(#linear-gradient-31);}</style><linearGradient id="linear-gradient" x1="215.76" y1="282.55" x2="213.76" y2="-9.45" gradientUnits="userSpaceOnUse"><stop offset="0" stop-color="#d1823b"/><stop offset="0.27" stop-color="#d88f49"/><stop offset="0.62" stop-color="#ecac6b"/><stop offset="0.9" stop-color="#ffcb8e"/><stop offset="1" stop-color="#ffd5a3"/></linearGradient><linearGradient id="linear-gradient-2" x1="264.2" y1="282.22" x2="262.2" y2="-9.78" xlink:href="#linear-gradient"/><linearGradient id="linear-gradient-3" x1="257.39" y1="282.27" x2="255.39" y2="-9.73" xlink:href="#linear-gradient"/><linearGradient id="linear-gradient-4" x1="248.35" y1="282.34" x2="246.35" y2="-9.67" xlink:href="#linear-gradient"/><linearGradient id="linear-gradient-5" x1="236.16" y1="282.42" x2="234.16" y2="-9.58" xlink:href="#linear-gradient"/><linearGradient id="linear-gradient-6" x1="222.34" y1="282.5" x2="220.34" y2="-9.49" xlink:href="#linear-gradient"/><linearGradient id="linear-gradient-7" x1="206.86" y1="282.62" x2="204.86" y2="-9.38" xlink:href="#linear-gradient"/><linearGradient id="linear-gradient-8" x1="190.1" y1="282.73" x2="188.1" y2="-9.27" xlink:href="#linear-gradient"/><linearGradient id="linear-gradient-9" x1="266.78" y1="282.2" x2="264.78" y2="-9.79" xlink:href="#linear-gradient"/><linearGradient id="linear-gradient-10" x1="263.76" y1="282.22" x2="261.76" y2="-9.77" xlink:href="#linear-gradient"/><linearGradient id="linear-gradient-11" x1="251.66" y1="282.31" x2="249.66" y2="-9.7" xlink:href="#linear-gradient"/><linearGradient id="linear-gradient-12" x1="226.57" y1="282.48" x2="224.57" y2="-9.52" xlink:href="#linear-gradient"/><linearGradient id="linear-gradient-13" x1="188.76" y1="282.74" x2="186.76" y2="-9.26" xlink:href="#linear-gradient"/><linearGradient id="linear-gradient-14" x1="140.3" y1="283.07" x2="138.3" y2="-8.93" xlink:href="#linear-gradient"/><linearGradient id="linear-gradient-15" x1="70.6" y1="283.55" x2="68.6" y2="-8.45" xlink:href="#linear-gradient"/><linearGradient id="linear-gradient-16" x1="23.76" y1="283.87" x2="21.76" y2="-8.13" xlink:href="#linear-gradient"/><linearGradient id="linear-gradient-17" x1="30.81" y1="283.83" x2="28.81" y2="-8.18" xlink:href="#linear-gradient"/><linearGradient id="linear-gradient-18" x1="40.07" y1="283.76" x2="38.07" y2="-8.24" xlink:href="#linear-gradient"/><linearGradient id="linear-gradient-19" x1="52.47" y1="283.68" x2="50.47" y2="-8.33" xlink:href="#linear-gradient"/><linearGradient id="linear-gradient-20" x1="66.47" y1="283.58" x2="64.47" y2="-8.42" xlink:href="#linear-gradient"/><linearGradient id="linear-gradient-21" x1="82.1" y1="283.47" x2="80.1" y2="-8.53" xlink:href="#linear-gradient"/><linearGradient id="linear-gradient-22" x1="98.96" y1="283.35" x2="96.96" y2="-8.65" xlink:href="#linear-gradient"/><linearGradient id="linear-gradient-23" x1="20.82" y1="283.89" x2="18.82" y2="-8.11" xlink:href="#linear-gradient"/><linearGradient id="linear-gradient-24" x1="23.38" y1="283.87" x2="21.38" y2="-8.13" xlink:href="#linear-gradient"/><linearGradient id="linear-gradient-25" x1="35.03" y1="283.79" x2="33.03" y2="-8.21" xlink:href="#linear-gradient"/><linearGradient id="linear-gradient-26" x1="59.63" y1="283.62" x2="57.63" y2="-8.37" xlink:href="#linear-gradient"/><linearGradient id="linear-gradient-27" x1="97.08" y1="283.37" x2="95.08" y2="-8.63" xlink:href="#linear-gradient"/><linearGradient id="linear-gradient-28" x1="145.53" y1="283.04" x2="143.53" y2="-8.97" xlink:href="#linear-gradient"/><linearGradient id="linear-gradient-29" x1="140.82" y1="210.82" x2="142.82" y2="44.82" xlink:href="#linear-gradient"/><linearGradient id="linear-gradient-30" x1="94.85" y1="210.27" x2="96.85" y2="44.27" xlink:href="#linear-gradient"/><linearGradient id="linear-gradient-31" x1="188.2" y1="211.39" x2="190.2" y2="45.39" xlink:href="#linear-gradient"/></defs><g id="레이어_2" data-name="레이어 2"><g id="Layer_1" data-name="Layer 1"><path class="cls-1" d="M197.34,18.85c-1.15-.58-2.3-1.15-3.47-1.7l.21-.3a10.15,10.15,0,0,0,3.45,2l-.19,0Zm25.59,17.41-.09-.07h.07l0,.08ZM263,112.16l-.06-.47.14.11.09.07a2.75,2.75,0,0,0-.17.29Zm.25,28.13.06-.57.09.09.13.16-.28.32Zm-6.33,27.83.3-.84.11.23.12.25c-.18.11-.35.23-.53.36Zm-13.82,27.29.69-1,.09.38c0,.11,0,.23.07.34l-.85.32Zm-25.54,27.46c.54-.43,1.08-.86,1.61-1.3,0,.24,0,.48,0,.73s0,.33,0,.44c-.52,0-1,.07-1.54.13Zm-15.8,10.57.08,0-.05.13,0-.09Zm-23.39,15.89a126,126,0,0,1-14.6,3.43c5.2-2.53,9.24-3.66,13.2-3.53a13.18,13.18,0,0,1,1.4.1Zm10.1-3.52c-2,.8-4.05,1.54-6.11,2.24a22,22,0,0,0-6.36-1.29c-4.29-.2-8.36,1.11-13.2,3.75l.17-.42a10.6,10.6,0,0,1,2.26-3.31,120.34,120.34,0,0,0,15.05-3.89c.45.08.91.18,1.37.29a26.83,26.83,0,0,1,4.31,1.43c.87.37,1.71.77,2.51,1.2Zm14.09-6.65a124.49,124.49,0,0,1-12.37,6,38,38,0,0,0-3.67-1.82c-.44-.19-.88-.36-1.31-.52a1,1,0,0,0,.11-.17l.25-.52c.12-.23.2-.42.26-.56l.33-.73a121.56,121.56,0,0,0,14.31-6.64c.2.74.43,1.5.71,2.26a.71.71,0,0,0,.91.44.69.69,0,0,0,.19-.1c0,.09,0,.17,0,.25a10.9,10.9,0,0,0,.07,1.72h0a.74.74,0,0,0,.18.39l.05,0Zm20.38-14q-2.43,2.06-5,4a19,19,0,0,0-4.24.84c-3.72,1.21-6.78,3.59-10,7.35a2,2,0,0,1,0-.25,10.6,10.6,0,0,1,2.64-6.33c2.3-1.43,4.55-2.94,6.75-4.51a19.88,19.88,0,0,1,4.36-1,24.54,24.54,0,0,1,4.15-.15c.45,0,.9.05,1.34.09Zm11.41-10.92c-1.17,1.27-2.37,2.51-3.58,3.73q-3.07,3.06-6.34,5.91c-.89-.12-1.82-.2-2.77-.25l-1.21,0s0-.06,0-.09h0c0-.14,0-.32,0-.56s0-.42.05-.55c0-.7.07-1.38.07-2.05,2.66-2.23,5.22-4.59,7.67-7,.9-.89,1.77-1.79,2.63-2.71.26.4.53.79.81,1.18a.71.71,0,0,0,1,.17l.07-.06,0,.11a9.43,9.43,0,0,0,.5,1.5h0a.71.71,0,0,0,.29.33c.23.14.47.27.71.4Zm7.68-9.19q-2.22,2.94-4.62,5.73a22.1,22.1,0,0,1,4.62-5.73Zm6.06-8.73c-1,1.52-2,3-3,4.5a17.86,17.86,0,0,0-4,2c-2.93,2-5,4.84-6.87,8.91v-.05a9.27,9.27,0,0,1,.22-5q3.06-3.56,5.84-7.33a19.7,19.7,0,0,1,2.92-1.57h0a21.78,21.78,0,0,1,3.58-1.19c.43-.1.85-.2,1.27-.28Zm5.29-9.21q-2,3.87-4.27,7.58c-.86.13-1.73.3-2.62.51-.35.09-.68.17-1,.27h0l-.09-.5c0-.17-.07-.34-.11-.51-.13-.58-.27-1.15-.42-1.7q2.48-3.88,4.67-8c.24.22.5.44.76.66a.71.71,0,0,0,1-.08h0a7.94,7.94,0,0,0,.76,1.21.72.72,0,0,0,.38.28,7.47,7.47,0,0,0,.93.24Zm4.58-9.83q-1.35,3.27-2.89,6.45a20.88,20.88,0,0,1,2.89-6.45Zm3.38-9.19q-.74,2.26-1.55,4.5a16.42,16.42,0,0,0-3.11,2.68c-2.16,2.41-3.37,5.37-4.15,9.35a8.42,8.42,0,0,1-.87-4q2-4,3.66-8.25a17.72,17.72,0,0,1,2.2-2,20.41,20.41,0,0,1,2.93-1.86l.89-.44Zm2.74-9.84q-.94,4-2.16,8c-.7.3-1.42.63-2.13,1l-.79.43-.17-.38-.21-.43c-.25-.5-.51-1-.77-1.45.91-2.79,1.74-5.62,2.46-8.5.35.19.71.37,1.09.55a.71.71,0,0,0,.91-.26,9.91,9.91,0,0,0,1,.87.73.73,0,0,0,.41.15ZM267,139.53c-.11,1.47-.25,2.94-.42,4.39a14.77,14.77,0,0,0-1.93,2.9,17.19,17.19,0,0,0-1.5,9.16,8,8,0,0,1-1.74-3.91c.49-2.34.9-4.71,1.25-7.1a15.49,15.49,0,0,1,1.67-2.64,19.55,19.55,0,0,1,2.17-2.35l.5-.45Zm.38-11.93c0,.64,0,1.29,0,1.93,0,2.7-.09,5.38-.25,8a20.29,20.29,0,0,0-1.62,1.37l-.56.52-.21-.25-.28-.33c-.33-.37-.66-.73-1-1.07q.44-5.13.44-10.37l.32.08a.71.71,0,0,0,.8-.33,9.61,9.61,0,0,0,.87.53.69.69,0,0,0,.47.09,6.68,6.68,0,0,0,1-.2Zm-.34-7.64q.15,2.06.24,4.14a18.34,18.34,0,0,1-.24-4.14Zm-1-8.73c.17,1.16.33,2.31.47,3.47a13,13,0,0,0-1.25,2.9,15,15,0,0,0,.13,8,6.82,6.82,0,0,1-1.53-2c-.07-2.48-.22-4.93-.44-7.37a13.19,13.19,0,0,1,1-2.46,16.89,16.89,0,0,1,1.49-2.38l.14-.19Zm-1.52-8.39c.47,2.14.88,4.31,1.23,6.48-.34.4-.67.81-1,1.24l-.35.48-.16-.13-.3-.24c-.43-.34-.87-.66-1.3-1-.31-2.12-.67-4.23-1.09-6.31a.77.77,0,0,0,.48-.4,7.67,7.67,0,0,0,.84.32.69.69,0,0,0,.47,0,6.75,6.75,0,0,0,1.17-.5ZM262.7,95.4c.55,1.93,1,3.87,1.5,5.83a18.36,18.36,0,0,1-1.5-5.83Zm-2.27-7.17c.33,1,.66,1.9,1,2.87a12.5,12.5,0,0,0-.74,3,14,14,0,0,0,1.36,7.2,6,6,0,0,1-1-.86q-.9-4-2-7.82a11.88,11.88,0,0,1,.43-1.84,14.53,14.53,0,0,1,1-2.41l.08-.17Zm-2.95-7.64c.81,1.93,1.59,3.87,2.31,5.84q-.37.63-.72,1.32l-.22.44-.11-.06-.33-.17c-.39-.21-.79-.41-1.18-.59-.69-2-1.42-3.94-2.21-5.87a.84.84,0,0,0,.25-.34,6.63,6.63,0,0,0,.75.15.68.68,0,0,0,.46-.07,7.13,7.13,0,0,0,1-.65Zm-2.6-5.7c.61,1.27,1.21,2.55,1.78,3.84a17.18,17.18,0,0,1-1.78-3.84Zm-3.41-6.5q.63,1.11,1.23,2.25a11,11,0,0,0-.17,2.72,12.39,12.39,0,0,0,2.21,6.08A5.21,5.21,0,0,1,254,79c-1-2.2-2-4.38-3.07-6.51a13.2,13.2,0,0,1,.1-1.86,13.52,13.52,0,0,1,.48-2.21Zm-4.94-8.07q2.08,3.13,4,6.41c-.14.37-.27.75-.39,1.15,0,.12-.08.24-.11.36l-.05,0-.31-.1c-.44-.15-.87-.27-1.29-.38q-1.83-3.26-3.84-6.36h0a.73.73,0,0,0,.5-.55,5.58,5.58,0,0,0,.71,0,.7.7,0,0,0,.41-.16l.36-.33Zm-7.44-10c.51.63,1,1.26,1.53,1.91a10.5,10.5,0,0,0,.34,2,11.5,11.5,0,0,0,3.09,5.05,5.14,5.14,0,0,1-1.38-.62q-1.51-2.21-3.13-4.35a10.37,10.37,0,0,1-.43-2.33,12.75,12.75,0,0,1,0-1.64Zm-6.26-7.07q2.56,2.69,5,5.52c0,.28-.07.57-.1.86l0,.3-.3,0c-.48-.05-.94-.09-1.39-.11-1.54-1.85-3.13-3.66-4.78-5.41l.15-.08a.69.69,0,0,0,.39-.57c.21,0,.41-.07.62-.12h0a.73.73,0,0,0,.37-.23l.1-.12Zm-8.15-7.8,1.66,1.48a10.16,10.16,0,0,0,.5,1.31,10.69,10.69,0,0,0,3.49,4,5.36,5.36,0,0,1-1.7-.58l-.3-.3c-.76-.77-1.54-1.52-2.33-2.27a9.79,9.79,0,0,1-1.11-2.69v0c-.08-.32-.14-.64-.2-1ZM217,29.17q3.15,2.34,6.13,4.86l0,.47c0,.08,0,.15,0,.23h-.23c-.54,0-1,.09-1.55.16q-2.73-2.34-5.61-4.51a.73.73,0,0,0,.24-.53,5.17,5.17,0,0,0,.51-.18h0a.8.8,0,0,0,.33-.28l.13-.23Zm-8.49-5.8c.52.32,1,.65,1.54,1a10.28,10.28,0,0,0,.66,1.18,9.68,9.68,0,0,0,3.55,3.11,4.62,4.62,0,0,1-1.09-.19c-1-.72-2-1.43-3.06-2.12a8.94,8.94,0,0,1-1.32-2.23c-.1-.23-.19-.48-.28-.73Zm-8.09-4.64c2.14,1.12,4.25,2.31,6.32,3.55,0,.12,0,.24.08.37l0,.15-.16,0h0c-.51.11-1,.24-1.47.38-1.88-1.13-3.79-2.22-5.73-3.25a.67.67,0,0,0,0-.2c.15-.07.3-.16.44-.24a.78.78,0,0,0,.32-.35c.06-.15.11-.29.16-.44Z"/><path class="cls-2" d="M264.12,111.71l-.57-.48c-6.37-5-13.18-4.68-18-11.2-.37,4,4.16,14.69,7.09,18.25,3.94,4.79,6.9,7.23,11.85,8.54a8.84,8.84,0,0,1-2.71-5.31,12.86,12.86,0,0,1,.53-5.89,25.66,25.66,0,0,0-4.8-4,28,28,0,0,1,4.94,3.55,17.82,17.82,0,0,1,1.71-3.48Zm2.19,15.39c-4.36-2.24-6-9.39-.94-16.11,4.85-6.47,11.51-7.94,14.52-15.49,1.39,3.75-.22,15.27-2.13,19.47-1.73,3.81-6,11.36-11.45,12.13Zm.06-.69c-1.85-6.74-.83-10.68,5-16.6-4.73,5.49-6,9.08-4.36,16.45l-.61.15Z"/><path class="cls-3" d="M258.68,88.93c-.19-.12-.4-.23-.6-.34-6.64-3.55-12.82-2.16-18.33-7.34.31,3.7,6.19,12.77,9.45,15.56,4.38,3.75,7.48,5.5,12.22,5.9a8.28,8.28,0,0,1-3.34-4.43,11.88,11.88,0,0,1-.46-5.47,23.86,23.86,0,0,0-5-2.87,26.14,26.14,0,0,1,5.1,2.46,16.12,16.12,0,0,1,1-3.47Zm4.49,13.73c-4.35-1.34-7-7.62-3.46-14.59C263.1,81.36,269,79,270.49,71.54c1.88,3.21,2.27,14,1.21,18.17-1,3.77-3.66,11.37-8.53,13Zm-.05-.64c-2.78-5.87-2.49-9.64,1.86-16-3.44,5.78-4,9.27-1.33,15.76l-.53.23Z"/><path class="cls-4" d="M250,69q-.3-.12-.6-.21c-6.47-2.16-11.79,0-17.51-3.76.84,3.27,7.49,10.48,10.83,12.47,4.49,2.68,7.54,3.78,11.84,3.41a7.53,7.53,0,0,1-3.66-3.45,10.84,10.84,0,0,1-1.26-4.83,21.8,21.8,0,0,0-4.94-1.79,24.26,24.26,0,0,1,4.93,1.41A14.47,14.47,0,0,1,250,69Zm6.12,11.59c-4.1-.53-7.42-5.74-5.34-12.51,2-6.53,6.88-9.59,7.11-16.45,2.18,2.59,4.18,12.19,3.87,16.07-.29,3.52-1.53,10.73-5.64,12.89ZM256,80c-3.39-4.83-3.7-8.24-.78-14.59-2.2,5.7-2.17,8.91,1.23,14.3L256,80Z"/><path class="cls-5" d="M237.87,50.64l-.58-.08c-6.36-.73-10.81,2.29-16.79-.09,1.4,2.84,8.89,8.17,12.33,9.36,4.64,1.6,7.64,2,11.51.85a7,7,0,0,1-4-2.46A10.17,10.17,0,0,1,238.24,54a20.55,20.55,0,0,0-4.88-.7,22.78,22.78,0,0,1,4.8.35,13.38,13.38,0,0,1-.29-3Zm7.84,9.46c-3.86.29-7.91-3.85-7.3-10.46.59-6.37,4.47-10.11,3.37-16.44,2.49,1.95,6.17,10.37,6.63,14,.41,3.28.66,10.13-2.7,12.91Zm-.24-.49c-4-3.78-5-6.85-3.52-13.24C241,52,241.67,55,245.82,59.25l-.35.36Z"/><path class="cls-6" d="M223.51,35.44l-.55,0c-5.93.34-9.53,3.82-15.38,2.59,1.73,2.37,9.43,6.07,12.78,6.61,4.49.72,7.31.62,10.67-1.06A6.47,6.47,0,0,1,227,42a9.38,9.38,0,0,1-2.57-3.5,19.53,19.53,0,0,0-4.57.14,21,21,0,0,1,4.45-.44,12.54,12.54,0,0,1-.75-2.75Zm8.67,7.41c-3.48.89-7.84-2.26-8.33-8.41-.48-5.92,2.48-10,.46-15.58,2.59,1.39,7.3,8.51,8.29,11.75.9,2.94,2.22,9.17-.42,12.24Zm-.29-.41c-4.3-2.81-5.65-5.47-5.33-11.55.06,5.32,1.11,7.9,5.59,11.17l-.26.38Z"/><path class="cls-7" d="M207.32,23.44l-.5.1c-5.36,1.11-8.17,4.77-13.66,4.45,1.9,1.93,9.42,4.24,12.54,4.28,4.19,0,6.74-.42,9.58-2.41a6.06,6.06,0,0,1-3.93-.91,8.7,8.7,0,0,1-2.82-2.84,17.79,17.79,0,0,0-4.15.74,19.17,19.17,0,0,1,4-1,11.28,11.28,0,0,1-1.05-2.41ZM216.23,29c-3.06,1.28-7.46-1-8.74-6.53-1.24-5.34.9-9.42-1.7-14.27,2.55.91,7.81,6.77,9.16,9.58,1.22,2.56,3.26,8.06,1.28,11.22Zm-.32-.34c-4.3-2-5.89-4.22-6.43-9.8.78,4.84,2.09,7.05,6.61,9.42l-.18.38Z"/><path class="cls-8" d="M189.88,14.79l-.47.17c-5.12,1.95-7.31,6-12.79,6.56,2.18,1.6,10,2.7,13.06,2.24,4.15-.61,6.6-1.48,9.08-3.89a6,6,0,0,1-4-.28,8.79,8.79,0,0,1-3.23-2.36,17.78,17.78,0,0,0-4,1.39A19.16,19.16,0,0,1,191.31,17a11.79,11.79,0,0,1-1.43-2.21Zm9.69,4.1c-2.82,1.75-7.52.19-9.67-5.07C187.84,8.75,189.31,4.38,186,0c2.66.5,8.78,5.45,10.55,8,1.61,2.33,4.5,7.43,3,10.87Zm-.38-.28c-4.55-1.28-6.48-3.24-7.89-8.66,1.53,4.65,3.18,6.63,8,8.25l-.13.41Z"/><path class="cls-9" d="M264.5,140c-.17-.22-.35-.43-.54-.65-6-6.86-13.64-7.93-17.68-16.17-1.24,4.34,1.57,17.16,4.08,21.72,3.37,6.13,6.15,9.46,11.37,11.93a10,10,0,0,1-1.91-6.46,14.57,14.57,0,0,1,1.81-6.42,29.32,29.32,0,0,0-4.49-5.41,31.46,31.46,0,0,1,4.74,5A19.2,19.2,0,0,1,264.5,140Zm-.77,17.52c-4.37-3.38-4.68-11.65,2.3-18.06,6.73-6.17,14.42-6.41,19.33-14.17.76,4.45-3.41,16.89-6.4,21.16-2.72,3.87-9,11.36-15.23,11.07Zm.22-.74c-.66-7.87,1.29-12,8.95-17.39-6.39,5.11-8.52,8.83-8.24,17.35l-.71,0Z"/><path class="cls-10" d="M258.38,168l-.38-.83c-4.4-8.88-12.09-12.13-14-21.9-2.51,4.21-3.14,18.44-1.79,23.92,1.83,7.37,3.82,11.63,8.59,15.68a10.9,10.9,0,0,1-.19-7.3,15.81,15.81,0,0,1,3.69-6.23,31.53,31.53,0,0,0-3.2-6.92,34.57,34.57,0,0,1,3.59,6.53,21.09,21.09,0,0,1,3.72-2.95Zm-5.7,18.16c-3.63-4.77-1.65-13.52,7.46-18.29,8.77-4.6,16.9-2.71,24.22-9.47-.44,4.88-8.3,16.76-12.62,20.4-3.92,3.3-12.62,9.39-19.06,7.36Zm.44-.73c1.51-8.42,4.71-12.23,14.24-15.72-8.12,3.57-11.4,6.88-13.49,15.88l-.75-.16Z"/><path class="cls-11" d="M244.79,195.57c0-.32-.12-.64-.19-1-2.31-10.51-9.56-15.95-9-26.76-3.75,3.78-8.14,18.61-8.15,24.75,0,8.24,1,13.25,4.95,18.78a11.89,11.89,0,0,1,1.71-7.75,17,17,0,0,1,5.53-5.6,34.72,34.72,0,0,0-1.57-8.14,37.32,37.32,0,0,1,2.07,7.82,23.54,23.54,0,0,1,4.7-2.13ZM234,213.22c-2.58-6,1.79-14.68,12.65-17.33,10.45-2.55,18.52,1.57,28-3.64-1.74,5-13.13,15.49-18.63,18.2-5,2.45-15.76,6.6-22,2.77Zm.65-.65c3.79-8.49,8.17-11.67,19.12-12.85-9.49,1.64-13.81,4.27-18.37,13.21l-.75-.36Z"/><path class="cls-12" d="M219.77,223.43c0-.36.07-.72.1-1.08.8-11.74-5.13-19.66-1.28-30.84-5.09,2.81-14.25,17-16.14,23.45-2.54,8.64-3,14.2-.58,21.21a12.94,12.94,0,0,1,4.18-7.6,18.57,18.57,0,0,1,7.51-4.17,38.08,38.08,0,0,0,.86-9,40.29,40.29,0,0,1-.24,8.84,25.29,25.29,0,0,1,5.59-.79Zm-16.71,15.2c-.87-7.07,6.39-14.85,18.59-14.29,11.74.54,18.94,7.34,30.49,4.79-3.37,4.73-18.53,12.22-25.14,13.36-6,1-18.55,2.08-23.94-3.86Zm.88-.48c6.59-7.74,12.15-9.73,24-7.6-10.46-1.2-15.8.23-23.33,8.21l-.68-.61Z"/><path class="cls-13" d="M184.69,242.3c.17-.35.34-.7.51-1.07,5.3-11.69,2.26-22.07,10.48-32-6.28.93-21.08,12-25.47,17.82-5.9,7.87-8.55,13.36-8.71,21.49a14.17,14.17,0,0,1,7.18-6.19,20.38,20.38,0,0,1,9.28-1.4,41.63,41.63,0,0,0,4.33-8.89,45.06,45.06,0,0,1-3.62,8.95,27.89,27.89,0,0,1,6,1.33Zm-22.91,9.17c1.81-7.57,12.21-12.75,24.48-7.52,11.81,5,16.57,14.75,29.36,16.55-5.26,3.55-23.63,5.42-30.82,4.06-6.53-1.23-19.78-5-23-13.09Zm1.09-.16c9.69-5.39,16.14-5.31,27.46,1.4-10.25-5.23-16.25-5.8-27-.52l-.46-.88Z"/><path class="cls-14" d="M160.82,247.65q-20.44,6.91-42.35,12.12L120,265.7a349.8,349.8,0,0,0,41.75-12.6c-1-1.22-1.19-3.46-.94-5.45Z"/><path class="cls-15" d="M66.29,222.2c.24.2.49.39.74.58l-.7,0c0-.12,0-.26,0-.44v-.1ZM23.67,100.75c0,.16-.07.33-.11.49l-.13.09.24-.58ZM42.33,58.17l-.65.95c-.09,0-.19.06-.28.09.34-.35.64-.69.93-1ZM71.66,28.39l-.34.24h-.1l.44-.25ZM92.09,16.11l.15.4-1,.46a8.08,8.08,0,0,0,.66-.65l.19-.21ZM78.83,21.79Q81.85,20,85,18.4a5.36,5.36,0,0,0,.26.77.69.69,0,0,0,.31.34,1.74,1.74,0,0,0,.26.15q-3.08,1.62-6,3.41c-.32-.09-.64-.17-1-.24h0l-.15,0,0-.15c.07-.29.12-.58.17-.86ZM75.69,23.7c.48-.3,1-.6,1.45-.89a10.82,10.82,0,0,1-.45,1.29A10.53,10.53,0,0,1,76,25.4c-1,.64-2,1.3-2.92,2a8.71,8.71,0,0,0,1.65-1.84,8.49,8.49,0,0,0,.93-1.83ZM62.37,33.39c1.92-1.59,3.89-3.14,5.9-4.62a4.77,4.77,0,0,0,.34.63.74.74,0,0,0,.33.28h0a5.17,5.17,0,0,0,.51.18.66.66,0,0,0,0,.14q-3.09,2.31-6,4.82l-.91-.08H62.3c0-.08,0-.15,0-.23,0-.38,0-.74,0-1.11Zm-3,2.63c.51-.46,1-.9,1.54-1.34a12.67,12.67,0,0,1-.29,1.69v0a11.32,11.32,0,0,1-.46,1.39q-1.91,1.74-3.73,3.57l-.77.78-.48.1a10.57,10.57,0,0,0,3.48-4A9.22,9.22,0,0,0,59.32,36ZM47.53,48q2.31-2.69,4.77-5.24a5.84,5.84,0,0,0,.42.56.73.73,0,0,0,.37.23h0a6.18,6.18,0,0,0,.62.12.65.65,0,0,0,.11.32c-1.77,1.87-3.48,3.81-5.12,5.79l-.62.06-.31,0c0-.1,0-.2,0-.31,0-.54-.13-1.06-.22-1.57Zm-2.67,3.2c.47-.58,1-1.17,1.43-1.74l0,.24a13.65,13.65,0,0,1,0,2.21c0,.32-.06.64-.11,1-.94,1.21-1.86,2.45-2.76,3.69a9.67,9.67,0,0,0,1-2.39,11.16,11.16,0,0,0,.37-3Zm-5.27,7c.84-1.21,1.71-2.41,2.59-3.59a15.38,15.38,0,0,1-2.59,3.59Zm-5,7.73q1.84-3.12,3.86-6.12a5.9,5.9,0,0,0,.79.79.7.7,0,0,0,.41.16,5.58,5.58,0,0,0,.71,0,.88.88,0,0,0,.05.15q-2.23,3.44-4.25,7l-.41.13-.32.1,0,0c0-.12-.07-.24-.11-.36-.21-.67-.44-1.3-.69-1.9Zm-2.09,3.68c.38-.71.77-1.4,1.17-2.1l.24.74a13.6,13.6,0,0,1,.5,2.3,4.43,4.43,0,0,1,.06.51q-.88,1.71-1.74,3.45a9.6,9.6,0,0,0,.15-1.2,12.43,12.43,0,0,0-.38-3.7Zm-4.48,9C29,76.63,30,74.57,31,72.55v.11a14.14,14.14,0,0,1-2.48,6.51,3.92,3.92,0,0,1-.45-.46Zm-2.86,7c.7-1.87,1.45-3.73,2.23-5.56A7.26,7.26,0,0,0,29,81.24a.65.65,0,0,0,.45.07l.37-.06c-.88,2.15-1.7,4.34-2.46,6.55L27,88l-.32.17-.11.06-.22-.44c-.37-.73-.77-1.41-1.18-2.06ZM23.64,90.1c.3-.9.61-1.8.93-2.69.18.32.36.65.53,1a15.45,15.45,0,0,1,1,2.41,3.31,3.31,0,0,1,.12.42c-.48,1.58-.94,3.16-1.37,4.77a11.68,11.68,0,0,0,0-1.87,13.46,13.46,0,0,0-1.15-4Zm-3.06,10.84q.92-3.91,2.07-7.73a4.43,4.43,0,0,1,.06.51,15.83,15.83,0,0,1-1.52,7.64c-.21-.13-.41-.27-.61-.42ZM19,108.63q.52-3.12,1.2-6.18a7.38,7.38,0,0,0,1.83.89.66.66,0,0,0,.46,0,5.07,5.07,0,0,0,.65-.24q-.72,3.57-1.23,7.21l-.48.37-.31.24L21,111l-.35-.48A20.89,20.89,0,0,0,19,108.63Zm-.75,5.07c.14-1.08.29-2.17.46-3.24.26.31.51.63.76,1A16.11,16.11,0,0,1,21,113.8c.15.29.28.57.41.86q-.53,5-.63,10.16a5.38,5.38,0,0,1-.77.81,15.06,15.06,0,0,0,.14-8,14,14,0,0,0-1.87-3.9Zm-.93,12.11q.12-4.34.54-8.58l.09.29c.66,2.36.57,5-.19,8.48l-.44-.19ZM17.51,137c-.14-2.46-.22-4.95-.22-7.45,0-.73,0-1.45,0-2.18a7.47,7.47,0,0,0,1.73.45.69.69,0,0,0,.47-.09,8.25,8.25,0,0,0,.86-.53.77.77,0,0,0,.39.32c0,3.71.17,7.39.5,11l-.31.35-.29.33-.2.25-.56-.52a24.63,24.63,0,0,0-2.39-2Zm.5,6c-.15-1.36-.27-2.73-.37-4.11.43.34.86.71,1.29,1.1a18.82,18.82,0,0,1,2.17,2.35c.24.32.48.64.7,1q.69,5.25,1.81,10.34A7.38,7.38,0,0,1,22.28,156a17.17,17.17,0,0,0-1.5-9.16A15.59,15.59,0,0,0,18,143Zm2.08,13q-.94-4.4-1.58-8.9v0c1.17,2.37,1.63,5.12,1.57,8.88Zm2.58,9.94q-1.16-3.81-2.07-7.71a7.33,7.33,0,0,0,1.15,0,.76.76,0,0,0,.41-.15,8.75,8.75,0,0,0,.95-.87.72.72,0,0,0,.92.26l.44-.21c.77,3.05,1.66,6.05,2.65,9l-.31.61c-.06.11-.13.26-.21.43l-.17.38-.79-.43a29.65,29.65,0,0,0-3-1.34Zm2,6.06c-.51-1.42-1-2.85-1.46-4.29.59.26,1.17.54,1.76.84a21,21,0,0,1,2.93,1.86c.35.27.69.54,1,.83q2.13,5.5,4.78,10.75a8.09,8.09,0,0,1-.8,2.65c-.78-4-2-6.94-4.15-9.35A17.43,17.43,0,0,0,24.68,172Zm6,13.87q-2.53-5-4.63-10.31l.53.57c2,2.3,3.3,5.29,4.32,9.67,0,0,0,0,0,0l-.23,0Zm4.85,8.72c-1.46-2.39-2.84-4.85-4.14-7.35a8.71,8.71,0,0,0,1.61-.35.72.72,0,0,0,.38-.28,8.81,8.81,0,0,0,.76-1.21h0a.71.71,0,0,0,1,.08l.26-.22q2.31,4.28,5,8.33c-.08.29-.15.59-.21.89s-.08.34-.11.51-.07.34-.09.5h0c-.33-.1-.67-.18-1-.27a31.52,31.52,0,0,0-3.43-.63Zm3.85,5.92q-1.47-2.13-2.85-4.32c.69.11,1.39.26,2.09.43a21.59,21.59,0,0,1,3.59,1.19h0c.56.24,1.1.51,1.61.78q3.51,4.84,7.45,9.3a8.87,8.87,0,0,1-.07,3.81v.05c-1.89-4.07-4-6.91-6.87-8.91a18.81,18.81,0,0,0-4.94-2.33ZM49.26,213q-4-4.41-7.51-9.2c.18.11.35.23.52.35,2.68,1.87,4.81,4.62,7,8.85ZM60.36,224q-3.33-2.9-6.43-6c-1.15-1.14-2.27-2.31-3.36-3.49a10.88,10.88,0,0,0,1.22-.64.77.77,0,0,0,.29-.33h0a10.56,10.56,0,0,0,.5-1.5l0-.11.07.06a.72.72,0,0,0,1-.17l.5-.72q1.08,1.14,2.19,2.25,4,4,8.43,7.67c0,.46,0,.94.06,1.42,0,.13,0,.32,0,.55s0,.42,0,.55h0s0,.07,0,.1l-1.21,0c-1.18.06-2.31.18-3.41.34Zm6.28,5.11c-1.63-1.25-3.24-2.53-4.81-3.85.65-.08,1.32-.13,2-.16a24.38,24.38,0,0,1,4.14.15,21.39,21.39,0,0,1,3,.6c2.82,2.05,5.74,4,8.73,5.78a10.36,10.36,0,0,1,2,5.48c0,.08,0,.16,0,.25-3.27-3.76-6.32-6.14-10-7.35a19.52,19.52,0,0,0-5.06-.9Zm10.79,7.37q-3.27-2-6.42-4.19a22.22,22.22,0,0,1,6.42,4.19Zm17.49,8.84a124.84,124.84,0,0,1-12.3-5.85l.3-.32a.74.74,0,0,0,.18-.39h0a9.83,9.83,0,0,0,.06-1.72c0-.08,0-.16,0-.25a.57.57,0,0,0,.19.1.71.71,0,0,0,.91-.44c.23-.65.43-1.28.61-1.91a122.7,122.7,0,0,0,14.56,6.63l.17.39c.06.14.15.33.27.56s.18.37.25.52a.62.62,0,0,0,.11.17c-.44.16-.87.33-1.31.52a40.09,40.09,0,0,0-4,2Zm7.79,2.9c-2-.69-4.07-1.42-6.07-2.21.9-.48,1.84-.94,2.83-1.36a26.41,26.41,0,0,1,4.3-1.43c.31-.08.61-.14.91-.2a120.32,120.32,0,0,0,15.68,4,10.55,10.55,0,0,1,2.09,3.15c.07.14.12.28.18.42-4.84-2.64-8.91-3.95-13.2-3.76a22.52,22.52,0,0,0-6.72,1.43ZM122.09,253a123.35,123.35,0,0,1-15.56-3.57,18,18,0,0,1,1.92-.16c4-.14,8.09,1,13.35,3.61a.74.74,0,0,0,.32.07l0,.05Z"/><path class="cls-16" d="M21.32,111.71l.58-.48c6.37-5,13.17-4.68,18-11.2.37,4-4.17,14.69-7.1,18.25-3.93,4.79-6.89,7.23-11.84,8.54a9,9,0,0,0,2.71-5.31,12.86,12.86,0,0,0-.53-5.89,25.89,25.89,0,0,1,4.79-4A28.27,28.27,0,0,0,23,115.19a17.32,17.32,0,0,0-1.72-3.48ZM19.14,127.1c4.36-2.24,6-9.39.94-16.11-4.85-6.47-11.51-7.94-14.52-15.49-1.39,3.75.22,15.27,2.12,19.47,1.74,3.81,6,11.36,11.46,12.13Zm-.07-.69c1.85-6.74.84-10.68-5-16.6,4.73,5.49,6,9.08,4.35,16.45l.61.15Z"/><path class="cls-17" d="M26.76,88.93l.61-.34C34,85,40.19,86.43,45.69,81.25,45.39,85,39.51,94,36.25,96.81c-4.38,3.75-7.49,5.5-12.23,5.9a8.24,8.24,0,0,0,3.35-4.43,11.88,11.88,0,0,0,.46-5.47,24,24,0,0,1,5-2.87,26.31,26.31,0,0,0-5.09,2.46,16.15,16.15,0,0,0-1-3.47Zm-4.48,13.73c4.35-1.34,7-7.62,3.46-14.59C22.35,81.36,16.49,79,15,71.54c-1.88,3.21-2.27,14-1.21,18.17,1,3.77,3.65,11.37,8.53,13Zm0-.64c2.78-5.87,2.49-9.64-1.86-16,3.44,5.78,4,9.27,1.32,15.76l.54.23Z"/><path class="cls-18" d="M35.42,69A5.89,5.89,0,0,1,36,68.8c6.48-2.16,11.8,0,17.52-3.76-.84,3.27-7.5,10.48-10.84,12.47-4.48,2.68-7.53,3.78-11.84,3.41a7.51,7.51,0,0,0,3.67-3.45,10.84,10.84,0,0,0,1.26-4.83,21.8,21.8,0,0,1,4.94-1.79,24.08,24.08,0,0,0-4.93,1.41A15.07,15.07,0,0,0,35.42,69ZM29.3,80.6c4.1-.53,7.42-5.74,5.34-12.51-2-6.53-6.88-9.59-7.12-16.45-2.17,2.59-4.17,12.19-3.86,16.07C24,71.23,25.18,78.44,29.3,80.6Zm.14-.56c3.39-4.83,3.71-8.24.79-14.59,2.19,5.7,2.16,8.91-1.23,14.3l.44.29Z"/><path class="cls-19" d="M47.58,50.64l.58-.08c6.35-.73,10.81,2.29,16.78-.09-1.39,2.84-8.88,8.17-12.33,9.36-4.63,1.6-7.63,2-11.51.85a7,7,0,0,0,4-2.46A10.17,10.17,0,0,0,47.21,54a20.54,20.54,0,0,1,4.87-.7,22.74,22.74,0,0,0-4.79.35,14,14,0,0,0,.29-3ZM39.74,60.1c3.86.29,7.9-3.85,7.29-10.46-.59-6.37-4.46-10.11-3.36-16.44-2.49,1.95-6.18,10.37-6.63,14-.41,3.28-.66,10.13,2.7,12.91Zm.24-.49c4-3.78,5-6.85,3.52-13.24.92,5.65.27,8.59-3.87,12.88l.35.36Z"/><path class="cls-20" d="M61.94,35.44l.55,0c5.93.34,9.53,3.82,15.37,2.59-1.73,2.37-9.43,6.07-12.77,6.61-4.49.72-7.31.62-10.67-1.06A6.44,6.44,0,0,0,58.49,42a9.27,9.27,0,0,0,2.57-3.5,19.6,19.6,0,0,1,4.58.14,21.09,21.09,0,0,0-4.45-.44,12.54,12.54,0,0,0,.75-2.75Zm-8.68,7.41c3.49.89,7.85-2.26,8.34-8.41.48-5.92-2.48-10-.47-15.58-2.58,1.39-7.29,8.51-8.28,11.75-.9,2.94-2.22,9.17.41,12.24Zm.3-.41c4.29-2.81,5.64-5.47,5.33-11.55-.06,5.32-1.12,7.9-5.59,11.17l.26.38Z"/><path class="cls-21" d="M78.13,23.44l.5.1C84,24.65,86.8,28.31,92.29,28c-1.9,1.93-9.42,4.24-12.54,4.28-4.19,0-6.75-.42-9.58-2.41A6.06,6.06,0,0,0,74.1,29a8.7,8.7,0,0,0,2.82-2.84,17.79,17.79,0,0,1,4.15.74,19.09,19.09,0,0,0-4-1,11.31,11.31,0,0,0,1.06-2.41ZM69.22,29c3,1.28,7.46-1,8.74-6.53,1.24-5.34-.91-9.42,1.69-14.27-2.54.91-7.8,6.77-9.15,9.58-1.22,2.56-3.27,8.06-1.28,11.22Zm.32-.34c4.3-2,5.89-4.22,6.43-9.8-.78,4.84-2.09,7.05-6.61,9.42l.18.38Z"/><path class="cls-22" d="M95.56,14.79,96,15c5.12,1.95,7.31,6,12.79,6.56-2.18,1.6-10,2.7-13.06,2.24-4.15-.61-6.6-1.48-9.08-3.89a6,6,0,0,0,4-.28,8.63,8.63,0,0,0,3.23-2.36,17.78,17.78,0,0,1,4,1.39A18.86,18.86,0,0,0,94.14,17a11.26,11.26,0,0,0,1.42-2.21Zm-9.68,4.1c2.82,1.75,7.52.19,9.67-5.07,2.06-5.07.59-9.44,3.92-13.82-2.66.5-8.78,5.45-10.55,8-1.61,2.33-4.5,7.43-3,10.87Zm.37-.28c4.56-1.28,6.49-3.24,7.9-8.66-1.53,4.65-3.18,6.63-8,8.25l.12.41Z"/><path class="cls-23" d="M20.94,140l.55-.65c6-6.86,13.64-7.93,17.68-16.17,1.24,4.34-1.57,17.16-4.08,21.72-3.37,6.13-6.15,9.46-11.37,11.93a10,10,0,0,0,1.91-6.46,14.45,14.45,0,0,0-1.82-6.42,29.42,29.42,0,0,1,4.5-5.41,31.46,31.46,0,0,0-4.74,5A18.81,18.81,0,0,0,20.94,140Zm.78,17.52c4.37-3.38,4.68-11.65-2.31-18.06C12.69,133.28,5,133,.09,125.28c-.76,4.45,3.41,16.89,6.4,21.16,2.71,3.87,9,11.36,15.23,11.07Zm-.22-.74c.65-7.87-1.29-12-8.95-17.39,6.38,5.11,8.52,8.83,8.24,17.35l.71,0Z"/><path class="cls-24" d="M27.06,168l.39-.83c4.4-8.88,12.08-12.13,14-21.9,2.52,4.21,3.15,18.44,1.79,23.92-1.82,7.37-3.81,11.63-8.58,15.68a11,11,0,0,0,.19-7.3,15.71,15.71,0,0,0-3.7-6.23,32.09,32.09,0,0,1,3.21-6.92A34,34,0,0,0,30.79,171,20.8,20.8,0,0,0,27.06,168Zm5.71,18.16c3.63-4.77,1.65-13.52-7.46-18.29-8.78-4.6-16.9-2.71-24.22-9.47.44,4.88,8.29,16.76,12.62,20.4,3.92,3.3,12.62,9.39,19.06,7.36Zm-.44-.73c-1.51-8.42-4.71-12.23-14.24-15.72,8.12,3.57,11.4,6.88,13.49,15.88l.75-.16Z"/><path class="cls-25" d="M40.65,195.57c.06-.32.13-.64.2-1,2.31-10.51,9.56-15.95,9-26.76,3.75,3.78,8.14,18.61,8.14,24.75,0,8.24-1,13.25-4.95,18.78a11.82,11.82,0,0,0-1.7-7.75,17.1,17.1,0,0,0-5.53-5.6,34.72,34.72,0,0,1,1.57-8.14,37.32,37.32,0,0,0-2.07,7.82,23.63,23.63,0,0,0-4.71-2.13Zm10.77,17.65c2.58-6-1.8-14.68-12.65-17.33-10.45-2.55-18.53,1.57-28-3.64,1.74,5,13.12,15.49,18.63,18.2,5,2.45,15.76,6.6,22,2.77Zm-.65-.65c-3.8-8.49-8.17-11.67-19.13-12.85,9.5,1.64,13.82,4.27,18.37,13.21l.76-.36Z"/><path class="cls-26" d="M65.68,223.43c0-.36-.07-.72-.1-1.08-.8-11.74,5.13-19.66,1.27-30.84,5.09,2.81,14.26,17,16.15,23.45,2.53,8.64,3,14.2.57,21.21a12.87,12.87,0,0,0-4.17-7.6,18.57,18.57,0,0,0-7.51-4.17,38.08,38.08,0,0,1-.86-9,41,41,0,0,0,.23,8.84,25.12,25.12,0,0,0-5.58-.79Zm16.71,15.2c.87-7.07-6.4-14.85-18.59-14.29-11.75.54-18.95,7.34-30.49,4.79,3.37,4.73,18.53,12.22,25.14,13.36,6,1,18.55,2.08,23.94-3.86Zm-.88-.48c-6.59-7.74-12.15-9.73-24-7.6,10.46-1.2,15.8.23,23.33,8.21l.68-.61Z"/><path class="cls-27" d="M100.76,242.3c-.17-.35-.35-.7-.51-1.07-5.31-11.69-2.27-22.07-10.48-32,6.28.93,21.08,12,25.47,17.82,5.9,7.87,8.55,13.36,8.7,21.49a14.15,14.15,0,0,0-7.17-6.19,20.38,20.38,0,0,0-9.28-1.4,41.63,41.63,0,0,1-4.33-8.89,45.06,45.06,0,0,0,3.62,8.95,27.76,27.76,0,0,0-6,1.33Zm22.9,9.17c-1.8-7.57-12.21-12.75-24.47-7.52-11.81,5-16.58,14.75-29.36,16.55,5.25,3.55,23.62,5.42,30.82,4.06,6.53-1.23,19.77-5,23-13.09Zm-1.08-.16c-9.7-5.39-16.15-5.31-27.46,1.4,10.24-5.23,16.25-5.8,27-.52l.46-.88Z"/><path class="cls-28" d="M124.65,247.65c13.62,4.61,27.77,8.62,42.34,12.12l-1.54,5.93a350.36,350.36,0,0,1-41.75-12.6c1-1.22,1.2-3.46,1-5.45Z"/><path class="cls-29" d="M99.25,64.66c-1.3,0-2.4.52-2.4,2.32-.19,37.06,8.7,67.87,37.44,85.15a8.4,8.4,0,0,1-3,5.62c-4.48,3.78-4.38,8.15-.39,11.48,3.52,2.93,4.29,5.84,1.56,8.87-1.66,1.84-3.49,3.17-7.29,4.43-1.81.6-2.31,3.1-1.83,5,.22.81-.09,1.26-.65,1.43-6.79,2.1-13.16,4.91-14.2,12.26l32.7.12h3l32.7-.12c-1-7.35-7.41-10.16-14.2-12.26-.56-.17-.86-.62-.65-1.43.48-1.86,0-4.36-1.83-5-3.8-1.26-5.63-2.59-7.29-4.43-2.73-3-2-5.94,1.56-8.87,4-3.33,4.09-7.7-.39-11.48A8.43,8.43,0,0,1,151,152c28.55-17.31,37.39-48,37.21-85a2.11,2.11,0,0,0-2.4-2.32c-29-.36-57.54-.36-86.57,0Z"/><path class="cls-30" d="M99.8,83.25c-7.49.45-4.87-10.42-9.35-13a10.14,10.14,0,0,0-13.26,3.62C70.74,85,78.72,112,84.78,121.8c6.79,11,14.11,10.92,25.7,15,2.41.85,1.36,3.83-1.34,3.5-1-.12-.91-1.94-1.67-2.67-2.76-2.68-5,.68-4,3.34a6.73,6.73,0,0,0,7.53,4.62c4.43-.57,6.9-5.06,6.14-9.79l-3-4.34c-11.79-1-18.91-3-24.7-13.19-4.56-8.05-12-32.81-6.71-41.65,1.37-2.31,4.18-2.15,5.71,1.1,2.11,4.5,3,9.05,5.34,11a8.61,8.61,0,0,0,6.68,2c-.17-1.89-.5-5.62-.67-7.51Z"/><path class="cls-31" d="M185.65,83.25c7.49.45,4.87-10.42,9.35-13a10.14,10.14,0,0,1,13.26,3.62c6.44,11.15-1.53,38.16-7.59,48-6.8,11-14.11,10.92-25.7,15-2.41.85-1.36,3.83,1.34,3.5,1-.12.91-1.94,1.66-2.67,2.76-2.68,5,.68,4,3.34a6.73,6.73,0,0,1-7.53,4.62c-4.43-.57-6.9-5.06-6.14-9.79l3-4.34c11.79-1,18.91-3,24.7-13.19,4.56-8.05,12-32.81,6.71-41.65-1.37-2.31-4.19-2.15-5.71,1.1-2.11,4.5-3,9.05-5.34,11a8.61,8.61,0,0,1-6.68,2c.17-1.89.5-5.62.67-7.51Z"/></g></g></svg>