<?xml version="1.0" encoding="utf-8"?>
<!-- Generator: Adobe Illustrator 26.0.3, SVG Export Plug-In . SVG Version: 6.00 Build 0)  -->
<svg version="1.1" id="레이어_1" xmlns="http://www.w3.org/2000/svg" xmlns:xlink="http://www.w3.org/1999/xlink" x="0px"
	 y="0px" viewBox="0 0 420.3 44.5" style="enable-background:new 0 0 420.3 44.5;" xml:space="preserve">
<style type="text/css">
	.st0{fill:#FFFFFF;}
	.st1{clip-path:url(#SVGID_00000162325022813183532570000004441175605653347997_);}
	.st2{clip-path:url(#SVGID_00000155850477832374895810000015738183516628714646_);}
</style>
<g id="그룹_10" transform="translate(-559 -369)">
	<g id="그룹_8" transform="translate(813.938 369)">
		<path id="패스_17" class="st0" d="M47.9,31.3V5h16.2v4.1h-11v7.3h8.5v4.1h-8.5v10.8H47.9z"/>
		<g id="그룹_7">
			<g>
				<defs>
					<rect id="SVGID_1_" x="0" y="4.5" width="165.4" height="40"/>
				</defs>
				<clipPath id="SVGID_00000065034189570313536730000006036495718425444494_">
					<use xlink:href="#SVGID_1_"  style="overflow:visible;"/>
				</clipPath>
				<g id="그룹_6" style="clip-path:url(#SVGID_00000065034189570313536730000006036495718425444494_);">
					<path id="패스_18" class="st0" d="M87.3,28.3c-2.2,2.3-5.4,3.6-8.6,3.4c-3.2,0.1-6.3-1.1-8.5-3.4c-2.1-2.2-3.2-5.5-3.2-9.8
						v-0.9c0-4.2,1.1-7.5,3.3-9.8c2.3-2.3,5.4-3.5,8.6-3.4c3.2-0.1,6.3,1.1,8.5,3.3c2.1,2.2,3.2,5.5,3.2,9.8v0.8
						C90.6,22.8,89.5,26,87.3,28.3 M78.8,27.6c1.8,0.1,3.6-0.8,4.6-2.3c1.2-1.9,1.7-4.1,1.6-6.3v-1.3c0-3-0.5-5.2-1.5-6.8
						c-1.1-1.6-2.9-2.4-4.8-2.3c-1.8-0.1-3.5,0.8-4.5,2.3c-1.1,1.9-1.7,4.1-1.6,6.3v1.3C72.6,24.6,74.7,27.6,78.8,27.6"/>
					<path id="패스_19" class="st0" d="M93,31.3l8-13.5L93.6,5h5.9l5.3,9.3h0.1l5.1-9.3h5.3l-7.3,12.8l7.8,13.6h-5.9l-5.7-9.9H104
						l-5.6,9.9L93,31.3z"/>
					<path id="패스_20" class="st0" d="M128.8,31.1V4.9h3.4v23.3h11.5v2.9H128.8z"/>
					<path id="패스_21" class="st0" d="M158,31.6c-3.2,0.2-6.2-1-8.4-3.3c-2-2.2-3-5.5-3-9.8v-0.9c0-2,0.3-4.1,0.9-6
						c0.5-1.5,1.4-2.9,2.6-4.1c1.1-1,2.4-1.7,3.8-2.2c1.5-0.5,3.1-0.7,4.7-0.7c2.2-0.1,4.4,0.4,6.4,1.4v2.8
						c-2.1-0.9-4.4-1.3-6.7-1.4c-2.2-0.1-4.3,0.7-5.9,2.3c-1.5,1.5-2.2,3.9-2.2,7.2v1.4c0,6.9,2.8,10.3,8.3,10.3
						c2.4-0.1,4.7-0.6,6.8-1.7v2.9C163.1,31.1,160.6,31.7,158,31.6"/>
					<path id="패스_22" class="st0" d="M28.5,5L3.9,27.1h4.7L33.3,5H28.5z"/>
					<path id="패스_23" class="st0" d="M30.2,7.7v22.2c0,0.4-0.2,0.6-0.8,1.1L16.6,41.1L3.9,31C3.2,30.5,3,30.3,3,29.9V7.7
						l10.5,9.4l2.3-2.1L4.7,5H0v26.1c0,0.4,0.1,0.7,0.4,1c0.1,0.1,0.1,0.1,0.2,0.2l15.1,11.9c0.6,0.4,1.3,0.4,1.9,0l15.1-11.9
						c0.1-0.1,0.2-0.1,0.2-0.2c0.2-0.3,0.4-0.6,0.4-1V5L30.2,7.7z"/>
					<path id="패스_24" class="st0" d="M29.4,27.1l-9.6-8.6l-2.3,2.1l7.3,6.5L29.4,27.1z"/>
					<path id="패스_25" class="st0" d="M33.3,5"/>
					<path id="패스_26" class="st0" d="M62.2,44.4V38h3.6v0.5h-3v2.4h2.3v0.5h-2.3v2.9L62.2,44.4z"/>
					<path id="패스_27" class="st0" d="M71.3,43.7c-1.1,1.1-2.8,1.1-3.9,0.1c0,0,0,0-0.1-0.1c-0.5-0.7-0.8-1.5-0.7-2.4v-0.2
						c-0.1-0.8,0.2-1.7,0.7-2.4c1.1-1.1,2.8-1.1,3.9-0.1c0,0,0,0,0.1,0.1c0.5,0.7,0.8,1.5,0.7,2.4v0.1C72.1,42.2,71.8,43,71.3,43.7
						 M69.3,44c0.6,0,1.2-0.2,1.5-0.7c0.4-0.6,0.6-1.2,0.5-1.9v-0.3c0-0.7-0.1-1.4-0.5-2c-0.4-0.5-1-0.7-1.6-0.7
						c-0.6,0-1.2,0.2-1.5,0.7c-0.4,0.5-0.6,1.2-0.5,1.9v0.3c0,0.7,0.1,1.4,0.5,2C68.1,43.8,68.7,44,69.3,44"/>
					<path id="패스_28" class="st0" d="M72.8,44.4l2.1-3.3l-1.9-3.1h0.7l1.7,2.6h0l1.6-2.6h0.7l-1.9,3.1l2,3.3h-0.7l-1.8-2.8h0
						l-1.8,2.8L72.8,44.4z"/>
					<path id="패스_29" class="st0" d="M81.2,44.4V38h0.6v5.8h2.9v0.5L81.2,44.4z"/>
					<path id="패스_30" class="st0" d="M85.9,44.4V38h3.7v0.5h-3.1v2.3h2.4v0.5h-2.4v2.5h3.1v0.5L85.9,44.4z"/>
					<path id="패스_31" class="st0" d="M90.3,44.4l2.3-6.4h0.6l2.3,6.4h-0.6l-0.7-1.9h-2.6l-0.7,1.9L90.3,44.4z M92.9,38.9
						l-1.1,3.1H94L92.9,38.9L92.9,38.9z"/>
					<path id="패스_32" class="st0" d="M96.5,44.4V38h1.8c0.5,0,1.1,0.1,1.5,0.5c0.4,0.3,0.5,0.8,0.5,1.3c0.1,0.8-0.5,1.5-1.3,1.7
						v0l1.7,2.9H100l-1.6-2.8h-1.3v2.8L96.5,44.4z M97.1,41.1h1.1c0.4,0,0.8-0.1,1.1-0.3c0.2-0.3,0.4-0.6,0.3-1
						c0-0.3-0.1-0.7-0.3-0.9c-0.3-0.2-0.7-0.3-1.1-0.3h-1.1L97.1,41.1z"/>
					<path id="패스_33" class="st0" d="M101.8,44.4V38h0.7l3.2,5.3h0V38h0.6v6.4h-0.6l-3.3-5.5h0v5.5L101.8,44.4z"/>
					<rect id="사각형_7" x="108" y="38" class="st0" width="0.6" height="6.4"/>
					<path id="패스_34" class="st0" d="M110.2,44.4V38h0.7l3.2,5.3h0V38h0.6v6.4h-0.6l-3.3-5.5h0v5.5L110.2,44.4z"/>
					<path id="패스_35" class="st0" d="M118.9,44.5c-0.8,0-1.6-0.2-2.1-0.8c-0.5-0.7-0.8-1.5-0.8-2.4v-0.2
						c-0.1-0.9,0.2-1.8,0.8-2.4c0.6-0.5,1.3-0.8,2.1-0.8c0.6,0,1.1,0.1,1.6,0.4v0.5c-0.5-0.2-1.1-0.4-1.7-0.4
						c-0.6,0-1.3,0.2-1.7,0.7c-0.4,0.6-0.6,1.2-0.5,1.9v0.2c0,0.7,0.1,1.4,0.5,2c0.4,0.5,1.1,0.7,1.7,0.7c0.4,0,0.9-0.1,1.3-0.2
						v-1.9h-1.4v-0.5h2v2.8C120.2,44.4,119.5,44.5,118.9,44.5"/>
					<path id="패스_36" class="st0" d="M127,44.5c-0.8,0-1.5-0.3-2-0.8c-0.5-0.7-0.8-1.5-0.7-2.4v-0.2c-0.1-0.9,0.2-1.7,0.8-2.4
						c0.5-0.5,1.3-0.8,2-0.8c0.5,0,1.1,0.1,1.5,0.4v0.5c-0.5-0.2-1-0.3-1.6-0.3c-0.6,0-1.2,0.2-1.6,0.6c-0.4,0.5-0.6,1.2-0.6,1.9
						v0.3c0,0.7,0.1,1.4,0.5,2c0.4,0.5,1,0.7,1.6,0.7c0.6,0,1.1-0.1,1.6-0.4v0.5C128.2,44.4,127.6,44.5,127,44.5"/>
					<path id="패스_37" class="st0" d="M129.9,44.4V38h3.7v0.5h-3.1v2.3h2.4v0.5h-2.4v2.5h3.1v0.5L129.9,44.4z"/>
					<path id="패스_38" class="st0" d="M135,44.4V38h0.7l3.2,5.3h0V38h0.6v6.4h-0.6l-3.3-5.5h0v5.5L135,44.4z"/>
					<path id="패스_39" class="st0" d="M142.6,44.4v-5.8h-2V38h4.6v0.5h-2v5.8L142.6,44.4z"/>
					<path id="패스_40" class="st0" d="M146.2,44.4V38h3.7v0.5h-3.1v2.3h2.4v0.5h-2.4v2.5h3.1v0.5L146.2,44.4z"/>
					<path id="패스_41" class="st0" d="M151.3,44.4V38h1.8c0.5,0,1.1,0.1,1.5,0.5c0.4,0.3,0.5,0.8,0.5,1.3
						c0.1,0.8-0.5,1.5-1.3,1.7v0l1.7,2.9h-0.7l-1.6-2.8h-1.3v2.8L151.3,44.4z M151.9,41.1h1.1c0.4,0,0.8-0.1,1.1-0.3
						c0.2-0.3,0.4-0.6,0.3-1c0-0.3-0.1-0.7-0.3-0.9c-0.3-0.2-0.7-0.3-1.1-0.3h-1.1L151.9,41.1z"/>
				</g>
			</g>
		</g>
	</g>
	<g id="그룹_5" transform="translate(559 369)">
		<path id="패스_5" class="st0" d="M36.3,31.6V5.1h16.4v4.1h-11v7.4h8.6v4.2h-8.6v10.8H36.3z"/>
		<g id="그룹_4" transform="translate(0 0)">
			<g>
				<defs>
					<rect id="SVGID_00000150783119437891455270000009321243265338468267_" width="186.1" height="36.3"/>
				</defs>
				<clipPath id="SVGID_00000001663826486634199150000011760881528037376642_">
					<use xlink:href="#SVGID_00000150783119437891455270000009321243265338468267_"  style="overflow:visible;"/>
				</clipPath>
				<g id="그룹_3" style="clip-path:url(#SVGID_00000001663826486634199150000011760881528037376642_);">
					<path id="패스_6" class="st0" d="M76.1,28.6c-2.3,2.3-5.4,3.6-8.7,3.5c-3.2,0.1-6.3-1.1-8.6-3.4c-2.1-2.3-3.2-5.5-3.2-9.9
						v-0.9c0-4.3,1.1-7.5,3.3-9.8c2.3-2.3,5.4-3.6,8.7-3.5c3.2-0.1,6.3,1.1,8.6,3.4c2.1,2.2,3.2,5.5,3.2,9.9v0.9
						C79.4,23,78.3,26.3,76.1,28.6 M67.5,27.9c1.9,0.1,3.6-0.8,4.7-2.3c1.2-1.9,1.7-4.1,1.6-6.3v-1.3c0-3-0.5-5.3-1.5-6.8
						c-1.1-1.6-2.9-2.5-4.9-2.3c-1.8-0.1-3.6,0.8-4.6,2.3c-1.2,1.9-1.7,4.1-1.6,6.3v1.4C61.3,24.8,63.4,27.9,67.5,27.9"/>
					<path id="패스_7" class="st0" d="M81.8,31.6L89.9,18L82.4,5.1h5.9l5.3,9.4h0.1l5.1-9.4h5.3l-7.3,12.9l7.9,13.7h-5.9l-5.7-10
						h-0.2l-5.7,10H81.8z"/>
					<path id="패스_8" class="st0" d="M118.4,31.6V5.1h16.5v4.1h-11.2v6.7h8.8V20h-8.8v7.4h11.5v4.2H118.4z"/>
					<path id="패스_9" class="st0" d="M140.1,31.6V5.1h8.8c8.3,0,12.5,4.2,12.5,12.6v0.8c0,4.3-1.1,7.6-3.2,9.8
						c-2.1,2.2-5.2,3.4-9.3,3.4H140.1z M145.5,27.4h3.5c2.4,0,4.1-0.7,5.2-2c1.1-1.3,1.6-3.5,1.6-6.5v-1.3c0-3.1-0.6-5.3-1.8-6.5
						c-1.2-1.3-3-1.9-5.4-1.9h-3.2L145.5,27.4z"/>
					<path id="패스_10" class="st0" d="M176.1,32.1c-6.9,0-10.4-3.3-10.4-9.8V5.1h5.4v16.9c0,2.2,0.4,3.7,1.3,4.6
						c1.1,1,2.5,1.5,4,1.4c1.4,0.1,2.8-0.4,3.8-1.4c0.8-0.9,1.2-2.5,1.2-4.7V5.1h4.9v17.1c0,3.4-0.8,5.9-2.4,7.5
						C182,31.3,179.5,32.1,176.1,32.1"/>
					<path id="패스_11" class="st0" d="M23.8,3.7c-0.2,0-0.3,0-0.5,0v19.9L13.9,33c0.3,0.2,0.5,0.4,0.7,0.7l9.5-9.5l0.1-0.1V3.7
						C24.1,3.7,23.9,3.7,23.8,3.7"/>
					<path id="패스_12" class="st0" d="M2.6,3.3l9.9,9.9l9.9-9.9c-0.3-0.2-0.5-0.4-0.7-0.7l-9.2,9.2L3.3,2.6
						C3.2,2.9,2.9,3.2,2.6,3.3"/>
					<path id="패스_13" class="st0" d="M11.2,33l-9.4-9.4V3.7c-0.3,0.1-0.7,0.1-1,0V24l9.7,9.7C10.7,33.4,10.9,33.2,11.2,33"/>
					<path id="패스_14" class="st0" d="M23.8,0c-0.7,0-1.3,0.6-1.3,1.3c0,0.7,0.6,1.3,1.3,1.3c0.7,0,1.3-0.6,1.3-1.3
						C25.1,0.6,24.5,0,23.8,0"/>
					
						<rect id="사각형_4" x="0.9" y="17.8" transform="matrix(0.7071 -0.7071 0.7071 0.7071 -10.8134 10.2124)" class="st0" width="12" height="0.7"/>
					
						<rect id="사각형_5" x="17.8" y="12.2" transform="matrix(0.7071 -0.7071 0.7071 0.7071 -7.5217 18.1595)" class="st0" width="0.7" height="12"/>
					<path id="패스_15" class="st0" d="M1.3,0C0.6,0,0,0.6,0,1.3s0.6,1.3,1.3,1.3C2,2.6,2.6,2,2.6,1.3C2.6,0.6,2,0,1.3,0"/>
					<path id="패스_16" class="st0" d="M12.5,33.7c-0.7,0-1.3,0.6-1.3,1.3c0,0.7,0.6,1.3,1.3,1.3c0.7,0,1.3-0.6,1.3-1.3
						C13.8,34.3,13.3,33.7,12.5,33.7"/>
				</g>
			</g>
		</g>
	</g>
</g>
</svg>
