<?xml version="1.0" encoding="utf-8"?>
<!-- Generator: Adobe Illustrator 25.1.0, SVG Export Plug-In . SVG Version: 6.00 Build 0)  -->
<svg version="1.1" id="Layer_1" xmlns="http://www.w3.org/2000/svg" xmlns:xlink="http://www.w3.org/1999/xlink" x="0px" y="0px"
	 viewBox="0 0 350 350" style="enable-background:new 0 0 350 350;" xml:space="preserve">
<style type="text/css">
	.st0{fill:#A5D1F5;}
	.st1{fill:#0959A7;}
	.st2{fill:#6EBDFF;}
	.st3{fill:#FFFFFF;}
	.st4{fill:#E0F4FB;}
</style>
<g>
	<g>
		<g>
			<rect x="58.4" y="183.1" class="st0" width="50.9" height="56.2"/>
			<path class="st1" d="M110,239.9H57.7v-57.5H110V239.9z M59,238.6h49.6v-54.9H59V238.6z"/>
		</g>
		<g>
			<g>
				<g>
					<g>
						<path class="st0" d="M105,341.1l-20.6-6.7c-1-0.3-2.2,0.1-2.4,0.8l-3.2,11.3c-0.2,0.7,0.6,1.3,1.7,1.3h22
							C108.3,347.8,110.1,342.8,105,341.1z"/>
						<path class="st1" d="M102.5,348.4h-22c-0.9,0-1.6-0.3-2.1-0.9c-0.3-0.4-0.4-0.8-0.2-1.2l3.2-11.3c0.1-0.4,0.4-0.8,0.9-1
							c0.7-0.4,1.6-0.4,2.4-0.2l20.6,6.7c2.9,0.9,3.6,2.8,3.4,4.2C108.3,346.5,106.3,348.4,102.5,348.4z M83.7,334.9
							c-0.3,0-0.6,0.1-0.8,0.2c-0.2,0.1-0.2,0.2-0.3,0.2l-3.2,11.3c0.2,0.3,0.5,0.4,1,0.4h22c2.9,0,4.7-1.3,4.9-2.6
							c0.2-1.1-0.8-2.1-2.5-2.7L84.2,335C84,335,83.8,334.9,83.7,334.9z"/>
					</g>
				</g>
			</g>
		</g>
		<g>
			<g>
				<g>
					<path class="st2" d="M80.6,323.8c0,0-1.3,6-2.2,10.2c-0.5,2.2,1.2,4.2,3.4,4.2h14.8c3.5-21.4,8.6-57.4,10.8-77.8
						c3.8-35.7,5.6-67.8,5.7-88.6c0,0,0,0,0,0H82c0,0,0,0,0,0c3.6,22.6,5.5,56.2,4.7,88.6C86.1,283.6,84.2,306.2,80.6,323.8z"/>
					<path class="st1" d="M97.1,338.9H81.8c-1.3,0-2.4-0.6-3.2-1.5c-0.8-1-1.1-2.3-0.8-3.5l0.1-0.5c1.7-8,2.1-9.5,2.1-9.7
						c3.3-16.5,5.4-38.3,6-63.1c0.8-31.8-1-65.7-4.7-88.5l0-0.3l0.4-0.5l0.3,0h31.3l0.4,0.4l0,0.3c0,22.7-2.1,55.8-5.7,88.7
						c-2.2,20.9-7.4,57.1-10.8,77.8L97.1,338.9z M82.7,172.5c3.6,22.9,5.4,56.5,4.6,88c-0.6,24.9-2.7,46.8-6,63.4
						c0,0.1-1.2,5.6-2.1,9.8l-0.1,0.5c-0.2,0.8,0,1.7,0.6,2.4c0.5,0.7,1.4,1.1,2.2,1.1H96c3.4-20.7,8.5-56.4,10.7-77.2
						c3.5-32.5,5.6-65.3,5.7-88H82.7z"/>
				</g>
			</g>
		</g>
		<g>
			<g>
				<g>
					<g>
						<path class="st0" d="M67.9,341.1l-20.6-6.7c-1-0.3-2.2,0.1-2.4,0.8l-3.2,11.3c-0.2,0.7,0.6,1.3,1.7,1.3h22
							C71.2,347.8,73.1,342.8,67.9,341.1z"/>
						<path class="st1" d="M65.4,348.4h-22c-0.9,0-1.6-0.3-2.1-0.9c-0.3-0.4-0.4-0.8-0.2-1.2l3.2-11.3c0.1-0.4,0.4-0.8,0.9-1
							c0.7-0.4,1.6-0.4,2.4-0.2l20.6,6.7c2.9,0.9,3.6,2.8,3.4,4.2C71.3,346.5,69.2,348.4,65.4,348.4z M46.6,334.9
							c-0.3,0-0.6,0.1-0.8,0.2c-0.2,0.1-0.2,0.2-0.3,0.2l-3.2,11.3c0.2,0.3,0.5,0.4,1,0.4h22c2.9,0,4.7-1.3,4.9-2.6
							c0.2-1.1-0.8-2.1-2.5-2.7L47.2,335C47,335,46.8,334.9,46.6,334.9z"/>
					</g>
				</g>
			</g>
		</g>
		<g>
			<g>
				<g>
					<path class="st2" d="M43.8,323.8c0,0-1.1,6.2-1.9,10.3c-0.3,1.8,1,3.5,2.9,3.5l14.9,0.4c3.5-21.4,8.7-57.1,10.9-77.4
						c3.8-35.7,5.6-67.8,5.7-88.6c0,0,0,0,0,0h-31c0,0,0,0,0,0c3.6,22.6,5.5,56.2,4.7,88.6C49.2,283.6,47.3,306.2,43.8,323.8z"/>
					<path class="st1" d="M60.2,338.6l-15.5-0.4c-1.1,0-2.1-0.5-2.7-1.3c-0.7-0.8-1-1.9-0.8-3l1.1-5.8c0.6-3.5,0.8-4.3,0.8-4.5
						c3.3-16.5,5.4-38.3,6-63.1c0.8-31.8-1-65.7-4.7-88.5l0-0.3l0.4-0.5l0.3,0h31.3l0.4,0.4l0,0.3c0,22.7-2.1,55.8-5.7,88.7
						c-2.2,20.6-7.4,56.3-10.9,77.5L60.2,338.6z M44.4,323.9c0,0.1-0.4,2-0.8,4.4l-1.1,5.8c-0.1,0.7,0.1,1.4,0.5,1.9
						c0.4,0.5,1.1,0.8,1.8,0.9l14.3,0.3c3.5-21.2,8.6-56.4,10.8-76.8c3.5-32.5,5.6-65.3,5.7-88H45.9c3.6,22.9,5.4,56.5,4.6,88
						C49.9,285.5,47.8,307.4,44.4,323.9z"/>
				</g>
			</g>
		</g>
		<g>
			<path class="st3" d="M125,190.1l-4.6,15.3c-0.3,0.9-1.5,0.7-1.5-0.2l0.4-16.1L125,190.1z"/>
			<path class="st1" d="M119.7,206.6c-0.1,0-0.2,0-0.2,0c-0.7-0.1-1.2-0.7-1.2-1.4l0.4-16.8l7.1,1.2l-4.8,16
				C120.9,206.2,120.3,206.6,119.7,206.6z M120,189.8l-0.4,15.3c0,0,0,0.1,0.1,0.1c0.1,0,0.1,0,0.1-0.1l4.3-14.6L120,189.8z"/>
		</g>
		<g>
			<g>
				<path class="st4" d="M118.3,71.2c10.1,18.7,18.9,60.7,7.9,116.6c-0.4,1.8-2.1,2.9-3.9,2.5l-10.5-2.7
					c12.4-53.5-4.6-101.4-7.6-108.7L118.3,71.2z"/>
				<path class="st1" d="M123.1,191c-0.3,0-0.6,0-0.9-0.1l-11.1-2.8l0.1-0.6c13.4-57.9-7.4-107.8-7.6-108.3l1.2-0.5
					c0.2,0.5,21,50.4,7.8,108.4l9.9,2.5c0.7,0.2,1.4,0.1,2-0.3c0.6-0.4,1-1,1.1-1.6c10.8-55.1,2.5-97-7.9-116.1l1.1-0.6
					c10.5,19.3,18.9,61.5,8,117c-0.2,1-0.8,1.9-1.7,2.5C124.6,190.8,123.8,191,123.1,191z"/>
			</g>
			<g>
				<path class="st2" d="M108.4,83.9c0-0.1-0.1-0.2-0.1-0.3C108.3,83.8,108.4,83.9,108.4,83.9z"/>
				<path class="st1" d="M108,84.8l-0.4-1l0.6-0.2l-0.1-0.3l0.1,0.3l0.6-0.3c0,0.1,0.1,0.1,0.1,0.2l0,0.1c0.1,0.3,0.1,0.6-0.3,0.8
					L108,84.8z"/>
			</g>
		</g>
		<g>
			<path class="st0" d="M90.9,58.9c-0.4-0.1-0.8-0.2-1.2-0.2c-0.9-0.2-1.9-0.4-2.8-0.5c-8.3-1.4-17.4-1.6-25.9-1.3l2,127.5
				c0.7,0,1.3,0,2,0c12.4-0.3,24.8-0.6,37.2-0.9l-11-124.5C91.2,58.9,91,58.9,90.9,58.9z"/>
			<path class="st1" d="M62.5,185L60.4,56.2l0.6,0c9.8-0.4,18.5,0.1,26,1.3c1,0.2,1.9,0.3,2.8,0.5l1.9,0.4l0.1,0.5l11,125.1
				L62.5,185z M61.7,57.5l2,126.2l37.8-0.9L90.6,59.5l-1-0.2c-0.9-0.2-1.9-0.4-2.8-0.5C79.6,57.6,71.1,57.1,61.7,57.5z"/>
		</g>
		<g>
			<path class="st4" d="M58.5,56.9c-2,0.1-4,0.2-5.9,0.4C39.7,57.8,27,67,32.7,87.3l0.9,97.4v54.5h24.3c2.9,0,5.2-2.4,5.2-5.2
				l-2-177.2C60.2,56.9,59.3,56.9,58.5,56.9z"/>
			<path class="st1" d="M57.9,239.9H32.9v-55.2L32,87.4c-2.5-8.9-1.6-16.5,2.4-22c3.8-5.2,10.4-8.4,18.1-8.7
				c1.7-0.1,3.6-0.3,5.9-0.4c0.9,0,1.7-0.1,2.6-0.1l0.7,0l2,177.9c0,1.6-0.6,3.1-1.7,4.2C60.9,239.3,59.4,239.9,57.9,239.9z
				 M34.2,238.6h23.6c1.2,0,2.4-0.5,3.2-1.3c0.9-0.9,1.3-2,1.3-3.2l-2-176.5c-0.6,0-1.3,0.1-1.9,0.1c-2.2,0.1-4.1,0.2-5.9,0.4
				c-7.3,0.3-13.6,3.3-17.1,8.2c-3.8,5.2-4.5,12.4-2.2,21l0,0.2l0.9,97.4V238.6z"/>
		</g>
		<g>
			<path class="st4" d="M121.2,77.6c-4.9-17-30-18.6-30-18.6l15.3,174.8c0.3,2.9,2.7,5.2,5.7,5.2h7.5c0,0,1-122.8,1.1-142.9
				L121.2,77.6z"/>
			<path class="st1" d="M120.3,239.6h-8.1c-3.3,0-6-2.5-6.3-5.8L90.5,58.2l0.8,0c0.3,0,25.6,1.8,30.6,19.1l-1.3,0.4
				C116.4,63,96.2,60.1,92,59.7l15.3,174c0.2,2.6,2.4,4.6,5,4.6h6.8c0.1-9.7,1-123.1,1.1-142.3l1.3,0c-0.1,19.9-1.1,141.7-1.1,142.9
				L120.3,239.6z"/>
		</g>
		<g>
			<g>
				<path class="st0" d="M88,9.5L87.3,3c-9.6,1.1-19,3.3-26.6,8.9c-0.3,0.2-0.5,0.6-0.4,1l0.7,6.6C62,29.9,69.2,37.8,76.8,37
					c7.6-0.8,13-10,11.9-20.5L88,9.5z"/>
				<path class="st1" d="M75.7,37.7c-7.6,0-14.4-7.9-15.4-18.2l-0.7-6.6c-0.1-0.6,0.2-1.2,0.7-1.6c8.4-6.2,18.8-8.1,26.9-9l0.7-0.1
					l1.5,14.2c0.5,5.2-0.4,10.3-2.8,14.3c-2.4,4.1-5.8,6.5-9.7,6.9C76.5,37.7,76.1,37.7,75.7,37.7z M86.7,3.7
					C78.9,4.6,69,6.5,61.1,12.4c-0.1,0.1-0.2,0.2-0.2,0.4l0.7,6.6c1,10.1,7.8,17.8,15.1,17c3.5-0.4,6.6-2.6,8.7-6.3
					c2.2-3.8,3.1-8.5,2.6-13.5L86.7,3.7z"/>
			</g>
		</g>
		<g>
			<path class="st3" d="M88.4,31l-1.1-10.3c-0.4-4.1-2.4-7.5-5.1-9.6L66.1,23.3l0.3,3.1c-1.8,0.2-3.1,2.1-2.9,4.3
				c0.2,2.1,1.8,3.7,3.5,3.6C67,34.5,67,34.8,67,35l2,19.8c-0.7,0.3-1.6,1-2.2,1.4c1.6,1.8,3.7,3.1,5.4,4.8c1.2,1.1,2.4,2.6,3.8,3.8
				c0.3-0.1,0.6-0.1,1-0.2c2-0.2,3.3-0.4,4.5-1.3c1.2-1.8,2.1-3.8,2.4-5.9c-0.6-0.6-1.2-1.1-1.9-1.6c0-0.1,0-0.1,0-0.2l-1.2-11.2
				C85.8,42.9,89,37.3,88.4,31z"/>
			<path class="st1" d="M75.9,65.6l-0.3-0.2c-0.9-0.8-1.7-1.7-2.6-2.5c-0.5-0.5-0.9-0.9-1.3-1.3c-0.7-0.7-1.5-1.4-2.3-2
				c-1.1-0.9-2.1-1.8-3.1-2.8l-0.6-0.6l0.7-0.4c0.2-0.1,0.5-0.3,0.8-0.5c0.3-0.2,0.7-0.5,1-0.7l-2-19.4c0-0.1,0-0.1,0-0.2
				c-1.8-0.3-3.2-2-3.4-4.1c-0.1-1.2,0.2-2.4,0.8-3.3c0.5-0.8,1.2-1.3,2-1.6L65.4,23l16.8-12.6l0.4,0.3c3,2.3,4.9,6,5.4,10L89,31
				c0.6,6.3-2.4,12.1-7.4,14l1.1,10.6c0.7,0.5,1.3,1,1.7,1.5l0.2,0.2l-0.1,0.3c-0.4,2.1-1.2,4.2-2.5,6.1L82,63.9
				c-1.3,1-2.8,1.2-4.8,1.4c-0.3,0-0.6,0.1-0.9,0.1L75.9,65.6z M67.9,56.4c0.8,0.8,1.6,1.4,2.4,2.1c0.8,0.7,1.6,1.3,2.4,2.1
				c0.4,0.4,0.9,0.9,1.4,1.4c0.7,0.7,1.4,1.5,2.2,2.2c0.2,0,0.5-0.1,0.7-0.1c1.9-0.2,3.1-0.3,4.1-1.1c1.1-1.7,1.8-3.5,2.2-5.2
				c-0.4-0.4-0.9-0.9-1.6-1.3l-0.3-0.2l0-0.4l0-0.1l-1.2-11.6l0.5-0.2c4.7-1.5,7.6-6.9,7-12.8l-1.1-10.3c-0.4-3.5-2-6.7-4.5-8.8
				L66.8,23.6l0.4,3.4L66.5,27c-0.7,0.1-1.3,0.5-1.7,1.1c-0.5,0.7-0.7,1.6-0.6,2.5c0.2,1.8,1.5,3.1,2.8,3l0.9,0l-0.2,0.9
				c-0.1,0.2-0.1,0.4-0.1,0.5l2.1,20.3l-0.4,0.2c-0.3,0.1-0.8,0.5-1.2,0.8C68,56.3,67.9,56.3,67.9,56.4z"/>
		</g>
		<g>
			<g>
				<g>
					<path class="st1" d="M73.2,26.1c0.1,0.8,0.6,1.4,1.3,1.3c0.6-0.1,1.1-0.7,1-1.5c-0.1-0.8-0.6-1.4-1.3-1.3S73.1,25.3,73.2,26.1z
						"/>
				</g>
				<g>
					<g>
						<g>
							<path class="st1" d="M80.6,37.7c0.4,0,0.7-0.1,0.9-0.2c0.3-0.1,0.4-0.4,0.3-0.7c-0.1-0.3-0.4-0.4-0.7-0.3
								c-0.1,0-1.9,0.7-3.2-1.2c-0.2-0.2-0.5-0.3-0.8-0.1c-0.3,0.2-0.3,0.5-0.2,0.8C78,37.5,79.5,37.8,80.6,37.7z"/>
						</g>
					</g>
					<g>
						<g>
							<g>
								<g>
									<path class="st1" d="M84.7,24.8c0.1,0.8,0.6,1.4,1.3,1.3s1.1-0.7,1-1.5c-0.1-0.8-0.6-1.4-1.3-1.3
										C85.1,23.4,84.6,24.1,84.7,24.8z"/>
								</g>
							</g>
						</g>
						<g>
							<g>
								<g>
									<path class="st1" d="M80.8,33.2l1.6-0.1c0.4,0,0.7-0.2,0.9-0.5c0.2-0.3,0.3-0.7,0.2-1l-2.5-7.5c-0.1-0.3-0.4-0.5-0.7-0.3
										c-0.3,0.1-0.5,0.4-0.4,0.7l2.5,7.5L82.4,32l-1.6,0.1c-0.3,0-0.5,0.3-0.5,0.6C80.3,33,80.5,33.2,80.8,33.2z"/>
								</g>
							</g>
						</g>
					</g>
				</g>
			</g>
			<g>
				<path class="st1" d="M83,21c-0.1,0-0.2,0-0.3-0.1c-0.2-0.2-0.3-0.5-0.1-0.7c0-0.1,1.1-1.5,2.5-1.6c0.8-0.1,1.5,0.2,2.2,0.9
					c0.2,0.2,0.2,0.5,0,0.7c-0.2,0.2-0.5,0.2-0.7,0c-0.5-0.4-0.9-0.6-1.5-0.6c-1,0.1-1.8,1.2-1.8,1.2C83.3,20.9,83.2,21,83,21z"/>
			</g>
			<g>
				<path class="st1" d="M71.8,22.4c-0.1,0-0.2,0-0.3-0.1c-0.2-0.2-0.3-0.5-0.1-0.7c0,0,2.1-2.7,5.4-0.6c0.2,0.1,0.3,0.5,0.1,0.7
					c-0.1,0.2-0.5,0.3-0.7,0.1c-2.5-1.6-4,0.3-4,0.4C72,22.3,71.9,22.4,71.8,22.4z"/>
			</g>
		</g>
		<g>
			<path class="st1" d="M69.9,16.9c-0.3,0-0.5-0.2-0.6-0.4c-0.1-0.3,0-0.7,0.4-0.9L82,10.6c0.3-0.1,0.7,0,0.9,0.4
				c0.1,0.3,0,0.7-0.4,0.9l-12.3,5.1C70.1,16.9,70,16.9,69.9,16.9z"/>
		</g>
		<g>
			<path class="st2" d="M66.1,17.8l1.8-0.8L66.1,17.8z"/>
			<path class="st1" d="M66.1,18.5c-0.2,0-0.5-0.1-0.6-0.4c-0.2-0.3,0-0.7,0.3-0.9l1.8-0.8c0.3-0.2,0.7,0,0.9,0.3
				c0.2,0.3,0,0.7-0.3,0.9l-1.8,0.8C66.3,18.5,66.2,18.5,66.1,18.5z"/>
		</g>
		<g>
			<path class="st2" d="M79.9,7.8L87.3,6L79.9,7.8z"/>
			<path class="st1" d="M79.9,8.5c-0.3,0-0.6-0.2-0.6-0.5c-0.1-0.4,0.1-0.7,0.5-0.8l7.4-1.8c0.3-0.1,0.7,0.1,0.8,0.5
				c0.1,0.4-0.1,0.7-0.5,0.8L80,8.4C80,8.4,79.9,8.5,79.9,8.5z"/>
		</g>
		<g>
			<path class="st2" d="M84.4,9.2l3.2-0.8L84.4,9.2z"/>
			<path class="st1" d="M84.4,9.8c-0.3,0-0.6-0.2-0.6-0.5c-0.1-0.3,0.1-0.7,0.5-0.8l3.2-0.8c0.3-0.1,0.7,0.1,0.8,0.5
				c0.1,0.3-0.1,0.7-0.5,0.8l-3.2,0.8C84.5,9.8,84.5,9.8,84.4,9.8z"/>
		</g>
		<g>
			<path class="st1" d="M96.6,121C96.6,121,96.6,121,96.6,121c-0.4,0-0.7-0.4-0.7-0.7l4.1-40.7c0.1-0.7-0.3-1.4-0.9-1.7L97,76.9
				c-0.5-0.2-0.8-0.7-0.9-1.2c-0.1-0.5,0.1-1,0.4-1.4l3.6-3.6c0.3-0.3,0.3-0.7,0-0.9l-9.5-10.4c-0.2-0.3-0.2-0.7,0-0.9
				c0.3-0.2,0.7-0.2,0.9,0l9.5,10.4c0.7,0.8,0.7,2,0,2.7l-3.6,3.6c-0.1,0.1-0.1,0.2-0.1,0.2c0,0.1,0,0.2,0.2,0.2l2.2,1.1
				c1.1,0.5,1.8,1.7,1.6,3l-4.1,40.7C97.2,120.8,97,121,96.6,121z"/>
		</g>
		<g>
			<path class="st2" d="M116,164.4h3.6H116z"/>
			<path class="st1" d="M119.6,165H116c-0.4,0-0.7-0.3-0.7-0.7c0-0.4,0.3-0.7,0.7-0.7h3.6c0.4,0,0.7,0.3,0.7,0.7
				C120.2,164.8,119.9,165,119.6,165z"/>
		</g>
		<g>
			<path class="st2" d="M60,108.1h1.8H60z"/>
			<path class="st1" d="M61.7,108.7H60c-0.4,0-0.7-0.3-0.7-0.7c0-0.4,0.3-0.7,0.7-0.7h1.8c0.4,0,0.7,0.3,0.7,0.7
				C62.4,108.4,62.1,108.7,61.7,108.7z"/>
		</g>
		<g>
			<g>
				<path class="st3" d="M53.9,179h3.3c0-0.3,0-0.6-0.2-0.9l-3.4-5.3c-0.5-0.7-1.4-0.9-2.2-0.5c-0.7,0.5-0.9,1.4-0.5,2.2L53.9,179z"
					/>
				<path class="st1" d="M57.9,179.7h-4.3l-3.1-4.8c-0.7-1-0.4-2.4,0.7-3.1c0.5-0.3,1.1-0.4,1.7-0.3c0.6,0.1,1.1,0.5,1.4,1l3.4,5.3
					c0.2,0.4,0.3,0.8,0.3,1.3L57.9,179.7z M54.3,178.4h2.2l-3.3-5.2c-0.1-0.2-0.3-0.3-0.6-0.4c-0.2-0.1-0.5,0-0.7,0.1
					c-0.2,0.1-0.3,0.3-0.4,0.6c-0.1,0.2,0,0.5,0.1,0.7L54.3,178.4z"/>
			</g>
			<g>
				<path class="st3" d="M39.9,179h15.6l-0.4-0.6c-0.1-0.1-0.1-0.2-0.2-0.3l-5.2-7.9c-1.5-2.2-4.5-2.8-6.7-1.4l-2.8,1.9
					c-2.2,1.5-2.8,4.5-1.4,6.7L39.9,179z"/>
				<path class="st1" d="M56.6,179.7H39.6l-1.2-1.9c-0.8-1.2-1.1-2.7-0.8-4.1c0.3-1.4,1.1-2.7,2.3-3.5l2.8-1.9
					c1.2-0.8,2.7-1.1,4.1-0.8c1.4,0.3,2.7,1.1,3.5,2.3l5.2,7.9c0.1,0.1,0.1,0.2,0.2,0.3L56.6,179.7z M40.3,178.4h14l-5.1-7.8
					c-0.6-0.9-1.6-1.6-2.7-1.8c-1.1-0.2-2.2,0-3.1,0.6l-2.8,1.9c-0.9,0.6-1.6,1.6-1.8,2.7c-0.2,1.1,0,2.2,0.6,3.1L40.3,178.4z"/>
			</g>
		</g>
		<g>
			<g>
				<path class="st3" d="M112.4,98H99.5c-0.8,0-1.5-0.7-1.5-1.5v-6.3c0-0.8,0.7-1.5,1.5-1.5h12.9c0.8,0,1.5,0.7,1.5,1.5v6.3
					C113.9,97.3,113.2,98,112.4,98z"/>
				<path class="st1" d="M111.9,98.6h-12c-1.4,0-2.6-1.2-2.6-2.6v-5.3c0-1.4,1.2-2.6,2.6-2.6h12c1.4,0,2.6,1.2,2.6,2.6V96
					C114.5,97.5,113.4,98.6,111.9,98.6z M100,89.4c-0.7,0-1.3,0.6-1.3,1.3V96c0,0.7,0.6,1.3,1.3,1.3h12c0.7,0,1.3-0.6,1.3-1.3v-5.3
					c0-0.7-0.6-1.3-1.3-1.3H100z"/>
			</g>
		</g>
		<g>
			<path class="st3" d="M106,86.1v2.1V86.1z"/>
			<path class="st1" d="M106,88.8c-0.4,0-0.7-0.3-0.7-0.7v-2.1c0-0.4,0.3-0.7,0.7-0.7c0.4,0,0.7,0.3,0.7,0.7v2.1
				C106.6,88.6,106.3,88.8,106,88.8z"/>
		</g>
		<g>
			<path class="st4" d="M60.7,57.3l-8.1,12.1c-0.4,0.6-0.3,1.4,0.2,1.8l3.9,3.2c0.5,0.4,0.4,1.2-0.1,1.5l-2.1,1.3
				c-0.8,0.5-1.2,1.5-1,2.4l8.6,39.9l-1.1-52l0-10.5L60.7,57.3z"/>
			<path class="st1" d="M61.6,119.8L53,79.9c-0.3-1.2,0.3-2.5,1.3-3.1l2.1-1.3c0.1-0.1,0.1-0.2,0.1-0.2c0-0.1,0-0.2-0.1-0.2
				l-3.9-3.2c-0.8-0.7-1-1.9-0.3-2.7l8.3-12.4l1.4-0.1l0,11.2l1.1,52L61.6,119.8z M60.4,58.9l-7.3,10.9c-0.2,0.3-0.2,0.7,0.1,1
				l3.9,3.2c0.4,0.3,0.6,0.8,0.6,1.3c0,0.5-0.3,1-0.7,1.2L55,77.8c-0.6,0.4-0.9,1.1-0.7,1.8l7.2,33.3l-1-45.1L60.4,58.9z"/>
		</g>
		<g>
			<g>
				<path class="st1" d="M68,103.2c-0.2,0-0.4-0.1-0.6-0.3c-12.5-21.6-3.3-46-3.2-46.3c0.1-0.3,0.5-0.5,0.8-0.4
					c0.3,0.1,0.5,0.5,0.4,0.8c-0.1,0.2-9.1,24.1,3.1,45.1c0.2,0.3,0.1,0.7-0.2,0.9C68.2,103.2,68.1,103.2,68,103.2z"/>
			</g>
			<circle class="st1" cx="67.7" cy="102.6" r="3.6"/>
		</g>
		<g>
			<path class="st1" d="M90.5,116.6c-0.4,0-0.7-0.3-0.7-0.7c0-0.4,0.3-0.7,0.7-0.7c1,0,1.9-0.4,1.9-3.1V89.3c0-1.7-1.4-3.1-3.1-3.1
				c-1.7,0-3.1,1.4-3.1,3.1v22.9c0,0.9,0.2,3.1,2.3,3.1c0.4,0,0.7,0.3,0.7,0.7c0,0.4-0.3,0.7-0.7,0.7c-2.2,0-3.6-1.7-3.6-4.4V89.3
				c0-2.4,2-4.4,4.4-4.4c2.4,0,4.4,2,4.4,4.4v22.9C93.7,115.2,92.6,116.6,90.5,116.6z"/>
		</g>
		<g>
			<path class="st1" d="M90.5,85.4l-1.3-0.2c2.1-15-2.3-26.6-2.3-26.7l1.2-0.5C88.2,58.2,92.7,70,90.5,85.4z"/>
		</g>
		<g>
			<path class="st3" d="M68.1,55.4c0,0,4.9,8.1,9.9,9.1l-2.6,8.3c0,0-10.7-4.3-10-16L68.1,55.4z"/>
			<path class="st1" d="M75.8,73.6l-0.7-0.3c-0.1,0-11.1-4.7-10.4-16.6l0-0.4l3.5-1.9l0.3,0.5c0,0.1,4.8,7.9,9.5,8.8l0.7,0.1
				L75.8,73.6z M66.1,57.2c-0.4,9.3,6.7,13.6,8.9,14.7l2.2-6.9c-4.3-1.3-8.2-6.9-9.3-8.7L66.1,57.2z"/>
		</g>
		<g>
			<path class="st3" d="M82.8,56.4c0,0,0.2,6.1-4.8,8.1l4,7.3c0,0,5.4-5,4.6-13.4L82.8,56.4z"/>
			<path class="st1" d="M81.8,72.8l-4.7-8.7l0.7-0.3c4.5-1.8,4.4-7.2,4.4-7.5l0-1.1l5.1,2.7l0,0.4c0.7,8.6-4.6,13.7-4.9,13.9
				L81.8,72.8z M78.9,64.8l3.2,5.9c1.3-1.5,4.3-5.8,3.9-11.9l-2.6-1.4C83.2,59.3,82.4,63,78.9,64.8z"/>
		</g>
		<g>
			<path class="st2" d="M79.6,73.1c0.2-0.1,0.4-0.3,0.6-0.6l1.4-2.4c0.9-1.7,0-4.3-1.6-4.2l-3.1,0.3c-1.5,0.1-2.1,2.9-0.9,4.4
				l1.7,2.1c0.1,0.2,0.3,0.3,0.5,0.4l-1.7,51.4l7,7.4l4.8-8.1L79.6,73.1z"/>
			<path class="st1" d="M83.6,132.9l-7.7-8.2l0-0.3l1.7-51c-0.1-0.1-0.2-0.2-0.3-0.3l-1.7-2.1c-0.8-1-1.1-2.7-0.5-4
				c0.4-0.9,1-1.4,1.8-1.5l3.1-0.3c0.8-0.1,1.5,0.4,2,1.1c0.8,1.2,0.8,2.8,0.1,4l-1.4,2.4c-0.1,0.2-0.3,0.4-0.4,0.6l8.6,50.5
				L83.6,132.9z M77.2,124.2l6.2,6.6l4.2-7.1l-8.7-50.9l0.4-0.2c0.1-0.1,0.3-0.2,0.4-0.4l1.4-2.4c0.5-0.8,0.3-2-0.1-2.6
				c-0.1-0.2-0.4-0.6-0.8-0.5L77,66.8c-0.4,0-0.6,0.4-0.7,0.7c-0.3,0.7-0.3,1.9,0.3,2.6l1.7,2.1c0.1,0.1,0.2,0.2,0.3,0.3l0.3,0.2
				L77.2,124.2z"/>
		</g>
		<g>
			<path class="st3" d="M46,102.5h12.2H46z"/>
			<path class="st1" d="M58.3,103.2H46c-0.4,0-0.7-0.3-0.7-0.7c0-0.4,0.3-0.7,0.7-0.7h12.2c0.4,0,0.7,0.3,0.7,0.7
				C58.9,102.9,58.6,103.2,58.3,103.2z"/>
		</g>
		<path class="st1" d="M89.4,115.9c0,0.5-0.4,0.9-0.9,0.9s-0.9-0.4-0.9-0.9c0-0.5,0.4-0.9,0.9-0.9S89.4,115.4,89.4,115.9z"/>
		<path class="st1" d="M91.5,116c0,0.5-0.4,0.9-0.9,0.9s-0.9-0.4-0.9-0.9c0-0.5,0.4-0.9,0.9-0.9S91.5,115.5,91.5,116z"/>
		<g>
			<path class="st4" d="M33.7,68.2L2.4,120.7c0,0-2.6,5.7-1.4,9.3c0.8,2.5,4.6,7.1,4.6,7.1l33.8,41.7l12-9.6l-33.1-42.2l17.1-26.6
				L33.7,68.2z"/>
			<path class="st1" d="M39.2,179.6L5,137.5c-0.2-0.2-3.9-4.7-4.7-7.3c-1.2-3.8,1.4-9.5,1.5-9.7l31.4-52.6l1.1,0.7L2.9,121
				c0,0-2.4,5.4-1.4,8.7c0.7,2.3,4.4,6.8,4.5,6.9l33.4,41.2l11-8.8l-33-42.1l17.4-27l1.1,0.7l-16.9,26.2l33.3,42.4L39.2,179.6z"/>
		</g>
		<g>
			<path class="st3" d="M36.3,179.1h23.3H36.3z"/>
			<path class="st1" d="M59.6,179.7H36.3c-0.4,0-0.7-0.3-0.7-0.7c0-0.4,0.3-0.7,0.7-0.7h23.3c0.4,0,0.7,0.3,0.7,0.7
				C60.2,179.4,59.9,179.7,59.6,179.7z"/>
		</g>
	</g>
	<g>
		<g>
			<g>
				<g>
					<g>
						<path class="st0" d="M207.3,341.1l20.6-6.7c1-0.3,2.2,0.1,2.4,0.8l3.2,11.3c0.2,0.7-0.6,1.3-1.7,1.3h-22
							C204,347.8,202.1,342.8,207.3,341.1z"/>
						<path class="st1" d="M231.9,348.4h-22c-3.8,0-5.9-1.9-6.1-3.7c-0.2-1.4,0.6-3.2,3.4-4.2l20.6-6.7c0.8-0.3,1.7-0.2,2.4,0.2
							c0.5,0.2,0.8,0.6,0.9,1l3.2,11.3c0.1,0.4,0,0.9-0.2,1.2C233.5,348.1,232.7,348.4,231.9,348.4z M207.5,341.8
							c-1.8,0.6-2.7,1.6-2.5,2.7c0.2,1.3,1.9,2.6,4.9,2.6h22c0.5,0,0.9-0.2,1-0.4l-3.2-11.4c0-0.1-0.1-0.1-0.3-0.2
							c-0.3-0.2-0.9-0.3-1.4-0.1L207.5,341.8z"/>
					</g>
				</g>
			</g>
		</g>
		<g>
			<g>
				<g>
					<path class="st2" d="M231.7,323.8c0,0,1.3,6,2.2,10.2c0.5,2.2-1.2,4.2-3.4,4.2h-14.8c-3.5-21.4-8.6-57.4-10.8-77.8
						c-3.8-35.7-5.6-67.8-5.7-88.6c0,0,0,0,0,0h31c0,0,0,0,0,0c-3.6,22.6-5.5,56.2-4.7,88.6C226.2,283.6,228.1,306.2,231.7,323.8z"
						/>
					<path class="st1" d="M230.5,338.9h-15.3l-0.1-0.5c-3.4-20.7-8.6-56.8-10.8-77.8c-3.5-32.9-5.6-66-5.7-88.7l0-0.3l0.4-0.4l0.3,0
						h31.3l0.4,0.5l0,0.3c-3.7,22.8-5.5,56.7-4.7,88.5c0.6,24.8,2.7,46.7,6,63.1c0.1,0.3,0.4,1.8,2.1,9.7l0.1,0.5
						c0.3,1.2,0,2.5-0.8,3.5C232.9,338.4,231.7,338.9,230.5,338.9z M216.3,337.6h14.2c0.9,0,1.7-0.4,2.2-1.1
						c0.5-0.7,0.7-1.5,0.6-2.4l-0.1-0.5c-0.9-4.2-2.1-9.7-2.1-9.8c-3.3-16.6-5.4-38.5-6-63.4c-0.8-31.5,1-65.1,4.6-88h-29.7
						c0.1,22.6,2.2,55.4,5.7,88C207.8,281.2,212.8,316.9,216.3,337.6z"/>
				</g>
			</g>
		</g>
		<g>
			<g>
				<g>
					<g>
						<path class="st0" d="M277.8,341.1l20.6-6.7c1-0.3,2.2,0.1,2.4,0.8l3.2,11.3c0.2,0.7-0.6,1.3-1.7,1.3h-22
							C274.6,347.8,272.7,342.8,277.8,341.1z"/>
						<path class="st1" d="M302.4,348.4h-22c-3.8,0-5.9-1.9-6.1-3.7c-0.2-1.4,0.6-3.2,3.4-4.2l20.6-6.7c0.8-0.3,1.7-0.2,2.4,0.2
							c0.5,0.2,0.8,0.6,0.9,1l3.2,11.3c0.1,0.4,0,0.9-0.2,1.2C304,348.1,303.3,348.4,302.4,348.4z M278,341.8
							c-1.8,0.6-2.7,1.6-2.5,2.7c0.2,1.3,1.9,2.6,4.9,2.6h22c0.5,0,0.9-0.2,1-0.4l-3.2-11.4c0-0.1-0.1-0.1-0.3-0.2
							c-0.3-0.2-0.9-0.3-1.4-0.1L278,341.8z"/>
					</g>
				</g>
			</g>
		</g>
		<g>
			<g>
				<g>
					<g>
						<path class="st2" d="M272.1,232.8c-0.1,10.2,3.2,20.1,9.9,37.3c6.8,17.4,17.6,49.2,21.9,61.9c0.9,2.7-1.1,5.5-3.9,5.5l-11.9,0
							c-0.5,0-1-0.3-1.2-0.8c-22.6-56.3-37.6-76-39.3-99c-0.1-1.6-0.2-3.2-0.2-4.8H272.1z"/>
						<path class="st1" d="M299.9,338.1H288c-0.8,0-1.5-0.5-1.8-1.2c-8.8-21.9-16.4-38.2-22.6-51.3c-9.8-21-15.7-33.7-16.8-47.9
							c-0.1-1.4-0.2-3-0.2-4.8l0-0.7h26.2l0,0.7c-0.1,9.8,2.8,18.9,9.8,37.1c6.4,16.6,16.8,46.7,21.9,61.9c0.5,1.5,0.3,3.1-0.7,4.4
							C302.9,337.4,301.4,338.1,299.9,338.1z M247.9,233.4c0.1,1.5,0.1,2.9,0.2,4.1c1,14,6.9,26.6,16.6,47.5
							c6.1,13.1,13.8,29.5,22.6,51.4c0.1,0.2,0.3,0.4,0.6,0.4h11.9c1.1,0,2.2-0.5,2.9-1.5c0.7-0.9,0.8-2.1,0.5-3.2
							c-5.1-15.2-15.5-45.3-21.9-61.9c-6.9-17.9-9.9-27.1-9.9-36.9H247.9z"/>
					</g>
				</g>
			</g>
		</g>
		<g>
			<path class="st4" d="M177.2,137.8c0.8,0.9,2.5,2.9,5.8,2.3c2.5-0.4,4.5-2.5,5.1-4.9l19.3-56.7l-13.1-4.9c-1.2-0.6-4.6,3-5,4.3
				l-11.9,34.9L177.2,137.8z"/>
			<path class="st1" d="M181.8,140.9c-2.8,0-4.4-1.8-5.1-2.6l0.9-0.9l0.1,0.1c0.8,0.9,2.3,2.5,5.1,2c2.2-0.4,4-2.1,4.6-4.4
				l19.1-56.2l-12.5-4.7c0,0-0.2-0.1-0.7,0.2c-1.4,0.8-3.2,2.9-3.4,3.7L178.1,113l-1.2-0.4l11.9-34.9c0.3-1.2,2.7-3.8,4.3-4.6
				c0.6-0.3,1.1-0.3,1.5-0.1l13.6,5.1l-19.5,57.3c-0.7,2.8-3,4.9-5.6,5.3C182.7,140.9,182.2,140.9,181.8,140.9z"/>
		</g>
		<g>
			
				<rect x="201.5" y="177.5" transform="matrix(-1 -1.224647e-16 1.224647e-16 -1 453.8507 411.0818)" class="st0" width="50.9" height="56.2"/>
			<path class="st1" d="M253,234.3h-52.2v-57.5H253V234.3z M202.1,233h49.6v-54.9h-49.6V233z"/>
		</g>
		<g>
			<path class="st0" d="M219.8,58.5c0.4-0.1,0.8-0.2,1.2-0.2c0.9-0.2,1.9-0.4,2.8-0.5c8.3-1.4,17.4-1.6,25.9-1.3l-2,127.5
				c-0.7,0-1.3,0-2,0c-12.4-0.3-24.8-0.6-37.2-0.9l11-124.5C219.6,58.5,219.7,58.5,219.8,58.5z"/>
			<path class="st1" d="M248.3,184.6l-40.5-0.9L218.9,58l2-0.4c0.9-0.2,1.9-0.4,2.8-0.5c7.5-1.2,16.3-1.7,26-1.3l0.6,0L248.3,184.6z
				 M209.3,182.4l37.8,0.9l2-126.2c-9.4-0.3-17.9,0.1-25.1,1.3c-0.9,0.2-1.9,0.3-2.8,0.5l-1,0.2L209.3,182.4z"/>
		</g>
		<g>
			<path class="st4" d="M189.3,78.4c4.9-17,30.2-19.8,30.2-19.8l7.9,69.6l22.3-71.8c0.9,0,1.7,0.1,2.6,0.1c2,0.1,4,0.2,5.9,0.4
				c10.9,0.1,23.2,9.6,17.5,30l-6.3,61l5.7,86.9c0.3,3.1-0.6,4.1-3.7,4.1l-73.6,0.1l-2.3-128.7L189.3,78.4z"/>
			<path class="st1" d="M197.2,239.6l-2.4-129.3c0-0.4,0.3-0.7,0.6-0.7c0.4,0,0.7,0.3,0.7,0.6l2.3,128.1l72.9-0.1
				c1.4,0,2.2-0.2,2.6-0.6c0.4-0.4,0.5-1.3,0.4-2.7l-5.7-86.9l6.3-61.1c3.2-11.4,0.4-18.3-2.4-22.1c-3.3-4.4-8.7-7.1-14.5-7.1
				c-1.8-0.1-3.7-0.3-5.9-0.4c-0.7,0-1.4-0.1-2.1-0.1l-23,74.2L219,59.3c-3.9,0.6-24.7,4.3-29,19.3c-0.1,0.3-0.5,0.5-0.8,0.4
				c-0.3-0.1-0.5-0.5-0.4-0.8c4.9-17.3,29.7-20.2,30.8-20.3l0.6-0.1l7.6,67.2l21.5-69.3l0.5,0c1,0,1.8,0.1,2.6,0.1
				c2.2,0.1,4.2,0.2,5.9,0.4c6.1,0,11.9,2.9,15.4,7.7c3,4,6,11.3,2.7,23.1l-6.3,60.9l5.7,86.8c0.2,1.8-0.1,2.9-0.8,3.7
				c-0.7,0.7-1.8,1.1-3.5,1.1L197.2,239.6z"/>
		</g>
		<g>
			<path class="st4" d="M218.9,58.6l-6.5,9.8c-0.4,0.6-0.2,1.4,0.4,1.8l4.2,2.9c0.5,0.4,0.5,1.1,0,1.5l-2,1.5
				c-0.8,0.6-1.1,1.6-0.8,2.5l11.4,39.2L218.9,58.6z"/>
			<path class="st1" d="M225.6,118.6c-0.3,0-0.5-0.2-0.6-0.5l-11.4-39.2c-0.3-1.2,0.1-2.5,1.1-3.2l2-1.5c0.1-0.1,0.1-0.2,0.1-0.2
				c0-0.1,0-0.2-0.1-0.2l-4.2-2.9c-0.9-0.6-1.1-1.8-0.5-2.7l6.5-9.9c0.2-0.3,0.6-0.4,0.9-0.2c0.3,0.2,0.4,0.6,0.2,0.9l-6.5,9.8
				c-0.2,0.3-0.1,0.7,0.2,0.9l4.2,2.9c0.4,0.3,0.7,0.8,0.7,1.3c0,0.5-0.2,1-0.6,1.3l-2,1.5c-0.6,0.4-0.8,1.1-0.6,1.8l11.4,39.2
				c0.1,0.3-0.1,0.7-0.4,0.8C225.7,118.6,225.6,118.6,225.6,118.6z"/>
		</g>
		<g>
			<g>
				<path class="st3" d="M198.4,97.6h12.9c0.8,0,1.5-0.7,1.5-1.5v-6.3c0-0.8-0.7-1.5-1.5-1.5h-12.9c-0.8,0-1.5,0.7-1.5,1.5v6.3
					C196.9,96.9,197.6,97.6,198.4,97.6z"/>
				<path class="st1" d="M210.8,98.2h-12c-1.4,0-2.6-1.2-2.6-2.6v-5.3c0-1.4,1.2-2.6,2.6-2.6h12c1.4,0,2.6,1.2,2.6,2.6v5.3
					C213.4,97.1,212.3,98.2,210.8,98.2z M198.8,89c-0.7,0-1.3,0.6-1.3,1.3v5.3c0,0.7,0.6,1.3,1.3,1.3h12c0.7,0,1.3-0.6,1.3-1.3v-5.3
					c0-0.7-0.6-1.3-1.3-1.3H198.8z"/>
			</g>
		</g>
		<g>
			<path class="st3" d="M204.8,85.7v2.1V85.7z"/>
			<path class="st1" d="M204.8,88.4c-0.4,0-0.7-0.3-0.7-0.7v-2.1c0-0.4,0.3-0.7,0.7-0.7c0.4,0,0.7,0.3,0.7,0.7v2.1
				C205.5,88.2,205.2,88.4,204.8,88.4z"/>
		</g>
		<g>
			<path class="st4" d="M249.7,56.8l4.6,13.9c0.2,0.7-0.1,1.4-0.7,1.7l-4.7,2c-0.6,0.3-0.7,1-0.3,1.5l1.6,1.8
				c0.6,0.7,0.8,1.8,0.3,2.6l-19,36.2L249.7,56.8z"/>
			<path class="st1" d="M231.5,117.2c-0.1,0-0.2,0-0.3-0.1c-0.3-0.2-0.4-0.6-0.3-0.9l19-36.2c0.3-0.6,0.2-1.4-0.2-1.9l-1.6-1.8
				c-0.3-0.4-0.5-0.9-0.4-1.4c0.1-0.5,0.5-0.9,0.9-1.1l4.7-2c0.3-0.1,0.5-0.5,0.4-0.9L249.1,57c-0.1-0.3,0.1-0.7,0.4-0.8
				c0.3-0.1,0.7,0.1,0.8,0.4l4.6,13.9c0.4,1-0.1,2.1-1.1,2.5l-4.7,2c-0.1,0.1-0.2,0.1-0.2,0.2c0,0.1,0,0.2,0.1,0.2l1.6,1.8
				c0.8,0.9,1,2.3,0.4,3.4l-19,36.2C232,117.1,231.7,117.2,231.5,117.2z"/>
		</g>
		<g>
			<g>
				<path class="st1" d="M249.8,110.4c-0.1,0-0.2,0-0.2,0c-0.3-0.1-0.5-0.5-0.4-0.9c10.6-26-3.6-51.8-3.7-52.1
					c-0.2-0.3-0.1-0.7,0.3-0.9c0.3-0.2,0.7-0.1,0.9,0.3c0.1,0.3,14.6,26.6,3.8,53.2C250.3,110.2,250,110.4,249.8,110.4z"/>
			</g>
			<path class="st1" d="M246,110.3c0.3,2.3,2.4,3.8,4.7,3.5c2.3-0.3,3.8-2.4,3.5-4.7c-0.3-2.3-2.4-3.8-4.7-3.5
				C247.3,106,245.7,108.1,246,110.3z"/>
		</g>
		<g>
			<path class="st3" d="M208.7,102.1h-12.2H208.7z"/>
			<path class="st1" d="M208.7,102.8h-12.2c-0.4,0-0.7-0.3-0.7-0.7s0.3-0.7,0.7-0.7h12.2c0.4,0,0.7,0.3,0.7,0.7
				S209.1,102.8,208.7,102.8z"/>
		</g>
		<g>
			<g>
				<path class="st1" d="M212.3,121.4c-0.4,0-0.7-0.3-0.7-0.7c0-0.4,0.3-0.7,0.7-0.7c2.1,0,2.3-2.2,2.3-3.1V94.1
					c0-1.7-1.4-3.1-3.1-3.1c-1.7,0-3.1,1.4-3.1,3.1V117c0,2.7,0.9,3.1,1.9,3.1c0.4,0,0.7,0.3,0.7,0.7c0,0.4-0.3,0.7-0.7,0.7
					c-2.1,0-3.2-1.5-3.2-4.4V94.1c0-2.4,2-4.4,4.4-4.4c2.4,0,4.4,2,4.4,4.4V117C216,119.7,214.6,121.4,212.3,121.4z"/>
			</g>
			<g>
				<path class="st1" d="M210.3,90c-0.4-16.9,8.3-30.9,8.3-31l1.1,0.7c-0.1,0.1-8.5,13.8-8.1,30.3L210.3,90z"/>
			</g>
			<path class="st1" d="M211.5,120.6c0,0.5,0.4,0.9,0.9,0.9c0.5,0,0.9-0.4,0.9-0.9s-0.4-0.9-0.9-0.9
				C211.9,119.7,211.5,120.1,211.5,120.6z"/>
			<path class="st1" d="M209.3,120.7c0,0.5,0.4,0.9,0.9,0.9c0.5,0,0.9-0.4,0.9-0.9s-0.4-0.9-0.9-0.9
				C209.8,119.8,209.3,120.2,209.3,120.7z"/>
		</g>
		<g>
			<path class="st0" d="M249,18.9c0.3-0.9,1.2-1.4,1.6-2.2c0.5-1.1-0.1-2.4-0.8-3.3c-0.7-0.9-1.7-1.7-2.2-2.8c-0.4-0.9-0.4-2-0.7-3
				c-0.3-1-1.2-1.9-2.2-1.7c-0.5,0.1-0.9,0.4-1.4,0.5c-1.3,0.2-2.2-1.3-3.1-2.3c-1.1-1.1-2.7-1.5-4.2-1.1c-1,0.3-2.1,1-3.1,0.6
				c-0.8-0.3-1.3-1.3-2.1-1.4c-1.3-0.1-1.9,1.6-3.1,2c-0.8,0.3-1.7-0.1-2.6-0.3c-1.6-0.3-3.4,0.4-4.3,1.8c-0.5,0.7-0.8,1.6-1.5,2.2
				c-0.9,0.7-2.3,0.6-3.1,1.4c-0.7,0.7-0.6,1.9-0.2,2.9c0.4,1,1,1.8,1.2,2.8c0.6,2.7-1.4,5.9,0.3,7.9c0.4,0.5,1,0.9,1.2,1.5
				c0.1,0.6-0.3,1.3-0.2,1.9c0.2,1.5,2.8,3.4,2.8,3.4s20.2,0.6,24.4-0.9c1.5-0.5,2.4-1.7,3.1-3.1C250,23.3,248.2,21.2,249,18.9z"/>
			<path class="st1" d="M229.6,30.6c-4.4,0-7.9-0.1-8.3-0.1l-0.2,0l-0.2-0.1c-0.3-0.2-2.9-2.1-3.1-3.8c0-0.4,0.1-0.8,0.1-1.1
				c0.1-0.3,0.1-0.5,0.1-0.7c-0.1-0.2-0.3-0.5-0.6-0.7c-0.2-0.1-0.3-0.3-0.4-0.5c-1.2-1.4-0.9-3.3-0.6-5c0.2-1.1,0.4-2.2,0.2-3.2
				c-0.1-0.5-0.4-1-0.7-1.6c-0.2-0.4-0.4-0.7-0.5-1.1c-0.5-1.4-0.4-2.7,0.4-3.6c0.5-0.6,1.3-0.8,1.9-1c0.5-0.1,0.9-0.3,1.2-0.5
				c0.4-0.3,0.6-0.7,0.8-1.2c0.1-0.3,0.3-0.6,0.5-0.8c1.1-1.6,3.1-2.5,5-2.1c0.3,0,0.5,0.1,0.8,0.2c0.6,0.2,1.1,0.3,1.5,0.1
				c0.4-0.1,0.7-0.5,1.1-0.9c0.6-0.6,1.2-1.3,2.3-1.2c0.7,0.1,1.2,0.5,1.6,0.9c0.2,0.2,0.5,0.4,0.7,0.5c0.5,0.2,1.1,0,1.8-0.3
				c0.3-0.1,0.6-0.2,0.9-0.3c1.7-0.5,3.6,0,4.8,1.3c0.2,0.2,0.5,0.5,0.7,0.8c0.7,0.9,1.2,1.4,1.8,1.3c0.2,0,0.3-0.1,0.5-0.2
				c0.2-0.1,0.5-0.2,0.8-0.3c1.4-0.3,2.5,0.9,2.9,2.2c0.2,0.5,0.2,1,0.3,1.4c0.1,0.5,0.2,1,0.4,1.5c0.3,0.7,0.8,1.2,1.3,1.8
				c0.2,0.3,0.5,0.5,0.7,0.8c1.1,1.4,1.4,2.8,0.9,4c-0.2,0.5-0.6,0.8-0.9,1.2c-0.3,0.3-0.6,0.6-0.7,1c-0.3,0.9-0.1,1.8,0.1,2.7
				c0.2,1.3,0.5,2.7-0.3,4.3c-0.8,1.8-2,2.9-3.5,3.4C243.4,30.4,235.7,30.6,229.6,30.6z M221.6,29.2c2.1,0.1,20.1,0.5,23.9-0.9
				c1.1-0.4,2-1.3,2.7-2.8c0.6-1.2,0.4-2.3,0.2-3.5c-0.2-1.1-0.4-2.2,0-3.3c0.2-0.6,0.6-1.1,1-1.5c0.3-0.3,0.5-0.5,0.6-0.8
				c0.5-1-0.4-2.2-0.7-2.6c-0.2-0.3-0.4-0.5-0.7-0.8c-0.6-0.7-1.2-1.3-1.6-2.2c-0.2-0.6-0.3-1.2-0.4-1.8c-0.1-0.4-0.1-0.9-0.3-1.2
				c-0.2-0.7-0.8-1.4-1.5-1.3c-0.2,0-0.3,0.1-0.5,0.2c-0.2,0.1-0.5,0.2-0.8,0.3c-1.4,0.3-2.3-0.9-3.1-1.8c-0.2-0.2-0.4-0.5-0.6-0.7
				c-0.9-0.9-2.3-1.3-3.6-0.9c-0.3,0.1-0.5,0.2-0.8,0.3c-0.8,0.3-1.8,0.7-2.8,0.3c-0.5-0.2-0.8-0.5-1.1-0.8
				c-0.3-0.3-0.6-0.5-0.8-0.6c-0.4,0-0.7,0.3-1.2,0.8c-0.4,0.5-0.9,1-1.6,1.2c-0.8,0.3-1.6,0.1-2.3-0.1c-0.2-0.1-0.4-0.1-0.7-0.2
				c-1.4-0.3-2.9,0.4-3.7,1.5c-0.1,0.2-0.3,0.5-0.4,0.7c-0.3,0.6-0.6,1.2-1.2,1.6c-0.5,0.4-1.1,0.6-1.7,0.7c-0.5,0.2-1,0.3-1.3,0.6
				c-0.5,0.5-0.4,1.5-0.1,2.2c0.1,0.4,0.3,0.7,0.5,1c0.3,0.6,0.6,1.2,0.8,1.9c0.3,1.2,0.1,2.5-0.1,3.7c-0.3,1.6-0.5,3,0.3,3.9
				c0.1,0.1,0.2,0.2,0.4,0.4c0.4,0.4,0.8,0.8,1,1.4c0.1,0.5,0,0.9-0.1,1.3c-0.1,0.3-0.1,0.5-0.1,0.7
				C219.3,27.2,220.6,28.5,221.6,29.2z"/>
		</g>
		<g>
			<path class="st3" d="M220.4,32.1l0.3-10.3c0.1-4.1,1.9-7.6,4.4-9.9l16.9,10.9l-0.1,3.1c1.8,0.1,3.2,1.9,3.2,4.1
				c-0.1,2.1-1.5,3.8-3.3,3.8c0.1,0.2,0.1,0.5,0.1,0.7l-0.6,19.8c0.7,0.2,1.8,1,2.4,1.3c-1.5,1.9-3.6,3.4-5.2,5.3
				c-1.1,1.2-2.3,2.8-3.6,4.1c-0.3-0.1-0.6-0.1-1-0.1c-2,0-3.4-0.1-4.6-1c-1.3-1.7-2.3-3.6-2.8-5.7c0.5-0.6,1.1-1.2,1.8-1.8
				c0-0.1,0-0.1,0-0.2l0.4-11.2C223.9,43.8,220.2,38.4,220.4,32.1z"/>
			<path class="st1" d="M235.3,65.7l-0.3-0.1c-0.3,0-0.6-0.1-0.9-0.1c-2.1,0-3.6-0.1-4.9-1.1l-0.1-0.1c-1.4-1.9-2.4-3.9-3-5.9
				l-0.1-0.3l0.2-0.3c0.4-0.5,1-1.1,1.6-1.7l0.3-10.6c-5.1-1.6-8.6-7.1-8.4-13.4l0.3-10.3c0.1-4.1,1.8-7.9,4.6-10.4l0.4-0.3
				l17.6,11.4l-0.1,2.9c0.8,0.2,1.6,0.7,2.1,1.4c0.7,0.9,1.1,2,1,3.3c-0.1,2.2-1.4,3.9-3.1,4.4c0,0.1,0,0.1,0,0.2l-0.6,19.3
				c0.4,0.2,0.8,0.4,1.1,0.6c0.3,0.2,0.6,0.4,0.9,0.5l0.7,0.3l-0.5,0.6c-0.9,1.1-1.9,2.1-3,3.1c-0.8,0.7-1.6,1.5-2.2,2.2
				c-0.4,0.4-0.8,0.9-1.2,1.4c-0.7,0.9-1.5,1.8-2.4,2.7L235.3,65.7z M230,63.4c1,0.7,2.3,0.8,4.1,0.8c0.2,0,0.5,0,0.7,0.1
				c0.7-0.7,1.4-1.6,2.1-2.4c0.4-0.5,0.8-1,1.3-1.5c0.7-0.8,1.5-1.6,2.3-2.3c0.8-0.7,1.6-1.5,2.3-2.3c-0.1,0-0.2-0.1-0.2-0.1
				c-0.5-0.3-1-0.6-1.4-0.7l-0.5-0.2l0.6-20.3c0-0.1,0-0.3-0.1-0.5l-0.3-0.8l0.9,0c1.4,0,2.6-1.4,2.6-3.2c0-0.9-0.2-1.8-0.7-2.4
				c-0.5-0.6-1.1-1-1.8-1l-0.7,0l0.1-3.4l-16.2-10.4c-2.3,2.3-3.7,5.6-3.8,9.1l-0.3,10.3c-0.2,5.9,3.1,11.1,7.9,12.3l0.5,0.1
				l-0.4,11.8c0-0.1,0,0,0,0.1l0,0.3l-0.2,0.2c-0.6,0.5-1.1,1-1.5,1.4C227.9,60.1,228.8,61.8,230,63.4z"/>
		</g>
		<g>
			<path class="st0" d="M224.8,47.4l7.9-0.1c1.5,0,2.7-1.3,2.7-2.8l-0.1-7c0-1.5-1.3-2.7-2.8-2.7l-7.9,0.1c-1.5,0-2.7,1.3-2.7,2.8
				l0.1,7C222,46.2,223.3,47.4,224.8,47.4z"/>
			<path class="st1" d="M225.5,48.1c-1.1,0-2.1-0.4-2.9-1.2c-0.8-0.8-1.3-1.8-1.3-3l-0.1-5.4c0-1.1,0.4-2.2,1.2-3
				c0.8-0.8,1.8-1.3,3-1.3l6.3-0.1c1.1,0,2.2,0.4,3,1.2c0.8,0.8,1.3,1.8,1.3,3l0.1,5.4c0,2.3-1.8,4.2-4.1,4.3L225.5,48.1
				C225.6,48.1,225.6,48.1,225.5,48.1z M231.7,35.5c0,0-6.3,0.1-6.3,0.1c-0.8,0-1.5,0.3-2,0.9c-0.5,0.6-0.8,1.3-0.8,2.1l0.1,5.4
				c0,0.8,0.3,1.5,0.9,2c0.6,0.5,1.3,0.8,2.1,0.8l6.3-0.1c1.6,0,2.9-1.3,2.9-2.9l-0.1-5.4c0-0.8-0.3-1.5-0.9-2
				C233.2,35.8,232.5,35.5,231.7,35.5z"/>
		</g>
		<g>
			<g>
				<g>
					<path class="st1" d="M235.3,26.1c0,0.8-0.5,1.4-1.2,1.4c-0.6,0-1.2-0.7-1.2-1.4c0-0.8,0.5-1.4,1.2-1.4
						C234.8,24.7,235.3,25.3,235.3,26.1z"/>
				</g>
				<g>
					<g>
						<g>
							<g>
								<g>
									<path class="st1" d="M223.7,25.7c0,0.8-0.5,1.4-1.2,1.4c-0.6,0-1.2-0.7-1.2-1.4c0-0.8,0.5-1.4,1.2-1.4
										C223.2,24.3,223.7,24.9,223.7,25.7z"/>
								</g>
							</g>
						</g>
						<g>
							<g>
								<g>
									<path class="st1" d="M228.1,33.7l-1.6,0c-0.4,0-0.7-0.2-1-0.5c-0.2-0.3-0.3-0.7-0.2-1l1.9-7.7c0.1-0.3,0.4-0.5,0.7-0.4
										c0.3,0.1,0.5,0.4,0.4,0.7l-1.9,7.7l0.1,0.2l1.6,0c0.3,0,0.6,0.3,0.6,0.6C228.7,33.5,228.4,33.7,228.1,33.7z"/>
								</g>
							</g>
						</g>
					</g>
				</g>
			</g>
			<g>
				<path class="st1" d="M225.1,21.7c0.1,0,0.2,0,0.3-0.1c0.2-0.2,0.2-0.5,0.1-0.7c0-0.1-1.2-1.4-2.7-1.4c-0.8,0-1.5,0.3-2.1,1
					c-0.2,0.2-0.2,0.5,0,0.7c0.2,0.2,0.5,0.2,0.7,0c0.4-0.5,0.9-0.7,1.4-0.7c1,0,1.9,1.1,1.9,1.1C224.8,21.7,224.9,21.7,225.1,21.7z
					"/>
			</g>
			<g>
				<path class="st1" d="M236.4,22.3c0.1,0,0.2,0,0.3-0.1c0.2-0.2,0.2-0.5,0-0.7c0,0-2.3-2.5-5.4-0.2c-0.2,0.2-0.3,0.5-0.1,0.7
					c0.2,0.2,0.5,0.3,0.7,0.1c2.4-1.8,4,0,4.1,0.1C236.1,22.3,236.3,22.3,236.4,22.3z"/>
			</g>
		</g>
		<g>
			<path class="st1" d="M238.1,29.9C238.1,29.9,238.1,29.9,238.1,29.9l-6.7-0.3c-1.2,0-2.1-1-2-2.2l0.1-3c0-1.2,1-2.1,2.2-2l6.6,0.3
				c1.2,0,2.1,1,2,2.2l-0.1,3C240.2,29,239.3,29.9,238.1,29.9z M231.5,28.7l6.6,0.3c0.3,0,0.6-0.1,0.8-0.3c0.2-0.2,0.4-0.5,0.4-0.8
				l0.1-3c0-0.3-0.1-0.6-0.3-0.8c-0.2-0.2-0.5-0.4-0.8-0.4l-6.6-0.3c-0.6,0-1.2,0.5-1.2,1.1l-0.1,3
				C230.4,28.1,230.9,28.6,231.5,28.7L231.5,28.7z"/>
		</g>
		<g>
			<path class="st1" d="M223.9,29.3C223.8,29.3,223.8,29.3,223.9,29.3l-3.5-0.1c-1.3-0.1-2.4-1.2-2.4-2.5l0.1-2.4
				c0-0.7,0.3-1.3,0.8-1.7c0.5-0.4,1.1-0.7,1.8-0.7L224,22c0.7,0,1.3,0.3,1.7,0.8c0.4,0.5,0.7,1.1,0.6,1.8l-0.1,2.4
				c0,0.7-0.3,1.3-0.8,1.7C225.1,29.1,224.5,29.3,223.9,29.3z M220.6,22.9c-0.8,0-1.4,0.6-1.5,1.4l-0.1,2.4c0,0.8,0.6,1.5,1.4,1.5
				l3.4,0.1c0.4,0,0.8-0.1,1.1-0.4c0.3-0.3,0.5-0.6,0.5-1l0.1-2.4c0-0.4-0.1-0.8-0.4-1.1c-0.3-0.3-0.6-0.5-1-0.5L220.6,22.9
				C220.6,22.9,220.6,22.9,220.6,22.9z"/>
		</g>
		<g>
			<path class="st1" d="M237.8,28.6c0,0-0.4,0-0.4,0c-0.3,0-0.5-0.2-0.5-0.5c0-0.3,0.2-0.5,0.5-0.5l0.4,0c0.3,0,0.5,0.2,0.5,0.5
				C238.2,28.4,238,28.6,237.8,28.6z"/>
		</g>
		<g>
			<path class="st1" d="M232.9,47.4c-0.2,0-0.4-0.1-0.5-0.3l-1.7-4.1c-0.1-0.2,0-0.5,0.3-0.6c0.2-0.1,0.5,0,0.6,0.3l1.7,4.1
				c0.1,0.2,0,0.5-0.3,0.6C233.1,47.4,233,47.4,232.9,47.4z"/>
		</g>
		<g>
			<path class="st1" d="M229.7,47.5c-0.2,0-0.4-0.1-0.5-0.3l-0.8-1.9c-0.1-0.2,0-0.5,0.3-0.6c0.2-0.1,0.5,0,0.6,0.3l0.8,1.9
				c0.1,0.2,0,0.5-0.3,0.6C229.8,47.5,229.8,47.5,229.7,47.5z"/>
		</g>
		<g>
			<path class="st1" d="M226.5,47.4c-0.2,0-0.4-0.1-0.5-0.3l-1.7-4.1c-0.1-0.2,0-0.5,0.3-0.6c0.3-0.1,0.5,0,0.6,0.3l1.7,4.1
				c0.1,0.2,0,0.5-0.3,0.6C226.6,47.4,226.5,47.4,226.5,47.4z"/>
		</g>
		<g>
			<path class="st1" d="M228.5,44.3c-0.2,0-0.4-0.1-0.4-0.3l-0.4-0.9c-0.1-0.2,0-0.5,0.2-0.7c0.2-0.1,0.5,0,0.7,0.2l0.4,0.9
				c0.1,0.2,0,0.5-0.2,0.7C228.6,44.3,228.6,44.3,228.5,44.3z"/>
		</g>
		<g>
			<path class="st2" d="M238,19.9l4.8-0.3L238,19.9z"/>
			<path class="st1" d="M238,20.5c-0.3,0-0.6-0.3-0.7-0.6c0-0.4,0.3-0.7,0.6-0.7l4.8-0.3c0.3,0,0.7,0.3,0.7,0.6
				c0,0.4-0.3,0.7-0.6,0.7L238,20.5C238,20.5,238,20.5,238,20.5z"/>
		</g>
		<g>
			<path class="st2" d="M241.8,22.4l2.6-0.2L241.8,22.4z"/>
			<path class="st1" d="M241.8,23.1c-0.3,0-0.6-0.3-0.7-0.6c0-0.4,0.2-0.7,0.6-0.7l2.6-0.2c0.4,0,0.7,0.2,0.7,0.6
				c0,0.4-0.2,0.7-0.6,0.7L241.8,23.1C241.9,23.1,241.8,23.1,241.8,23.1z"/>
		</g>
		<g>
			<path class="st2" d="M244.7,19.5l1-0.1L244.7,19.5z"/>
			<path class="st1" d="M244.7,20.2c-0.3,0-0.6-0.3-0.7-0.6c0-0.4,0.2-0.7,0.6-0.7l1-0.1c0.4,0,0.7,0.2,0.7,0.6
				c0,0.4-0.2,0.7-0.6,0.7L244.7,20.2C244.7,20.2,244.7,20.2,244.7,20.2z"/>
		</g>
		<g>
			<path class="st3" d="M242.7,55c0,0-4.9,8.1-9.9,9.1l2.6,8.3c0,0,10.7-4.3,10-16L242.7,55z"/>
			<path class="st1" d="M235,73.2l-3-9.7l0.7-0.1c4.7-0.9,9.4-8.7,9.5-8.8l0.3-0.5L246,56l0,0.4c0.7,12-10.3,16.6-10.4,16.6
				L235,73.2z M233.6,64.5l2.2,6.9c2.2-1.1,9.3-5.4,8.9-14.7l-1.8-0.9C241.8,57.6,237.9,63.2,233.6,64.5z"/>
		</g>
		<g>
			<path class="st3" d="M228,56c0,0-0.2,6.1,4.8,8.1l-4,7.3c0,0-5.4-5-4.6-13.4L228,56z"/>
			<path class="st1" d="M229,72.4l-0.6-0.6c-0.2-0.2-5.6-5.3-4.9-13.9l0-0.4l5.1-2.7l0,1.1c0,0.2-0.1,5.7,4.4,7.5l0.7,0.3L229,72.4z
				 M224.8,58.4c-0.4,6.1,2.6,10.4,3.9,11.9l3.2-5.9c-3.5-1.8-4.3-5.5-4.5-7.4L224.8,58.4z"/>
		</g>
		<g>
			<path class="st2" d="M231.1,72.7c-0.2-0.1-0.4-0.3-0.6-0.6l-1.4-2.4c-0.9-1.7,0-4.3,1.6-4.2l3.1,0.3c1.5,0.1,2.1,2.9,0.9,4.4
				l-1.7,2.1c-0.1,0.2-0.3,0.3-0.5,0.4l1.7,51.4l-7,7.4l-4.8-8.1L231.1,72.7z"/>
			<path class="st1" d="M227.2,132.5l-5.4-9l0-0.2l8.6-50.3c-0.2-0.2-0.3-0.4-0.4-0.6l-1.4-2.4c-0.7-1.2-0.6-2.8,0.1-4
				c0.5-0.8,1.3-1.2,2-1.1l3.1,0.3c0.8,0.1,1.4,0.6,1.8,1.5c0.5,1.3,0.3,2.9-0.5,4l-1.7,2.1c-0.1,0.1-0.2,0.2-0.3,0.3l1.7,51.3
				L227.2,132.5z M223.2,123.2l4.2,7.1l6.2-6.6l-1.7-51.5l0.3-0.2c0.1-0.1,0.2-0.2,0.3-0.3l1.7-2.1c0.6-0.7,0.6-1.9,0.3-2.6
				c-0.1-0.2-0.3-0.6-0.7-0.7l-3.1-0.3c-0.4,0-0.7,0.3-0.8,0.5c-0.4,0.6-0.6,1.8-0.1,2.6l1.4,2.4c0.1,0.2,0.2,0.3,0.4,0.4l0.4,0.2
				L223.2,123.2z"/>
		</g>
		<g>
			<circle class="st4" cx="227.9" cy="146.9" r="2"/>
			<path class="st1" d="M227.9,149.6c-1.4,0-2.6-1.2-2.6-2.6c0-1.4,1.2-2.6,2.6-2.6c1.4,0,2.6,1.2,2.6,2.6
				C230.5,148.4,229.4,149.6,227.9,149.6z M227.9,145.6c-0.7,0-1.3,0.6-1.3,1.3c0,0.7,0.6,1.3,1.3,1.3c0.7,0,1.3-0.6,1.3-1.3
				C229.2,146.2,228.6,145.6,227.9,145.6z"/>
		</g>
		<g>
			<circle class="st4" cx="228" cy="160.7" r="2"/>
			<path class="st1" d="M228,163.3c-1.4,0-2.6-1.2-2.6-2.6c0-1.4,1.2-2.6,2.6-2.6c1.4,0,2.6,1.2,2.6,2.6
				C230.6,162.2,229.5,163.3,228,163.3z M228,159.4c-0.7,0-1.3,0.6-1.3,1.3c0,0.7,0.6,1.3,1.3,1.3c0.7,0,1.3-0.6,1.3-1.3
				C229.3,160,228.8,159.4,228,159.4z"/>
		</g>
		<g>
			<path class="st4" d="M177.3,138L139,84.9c-0.6-1.1-0.5-3,0.7-3.4l8.3-3.2c1.9-0.7,4.1-0.1,5.4,1.6l25.4,34.5L177.3,138z"/>
			<path class="st1" d="M177.3,138.6c-0.2,0-0.4-0.1-0.5-0.3l-38.3-53.1c-0.5-0.9-0.7-2.2-0.3-3.1c0.3-0.6,0.7-1.1,1.3-1.3l8.2-3.2
				c2.2-0.8,4.7-0.1,6.1,1.8l25.4,34.5c0.2,0.3,0.2,0.7-0.1,0.9c-0.3,0.2-0.7,0.2-0.9-0.1l-25.4-34.5c-1.1-1.4-3-2-4.6-1.4l-8.3,3.2
				c-0.3,0.1-0.4,0.2-0.5,0.5c-0.2,0.6-0.1,1.4,0.2,1.9l38.3,53c0.2,0.3,0.1,0.7-0.1,0.9C177.6,138.6,177.4,138.6,177.3,138.6z"/>
		</g>
		<g>
			<path class="st3" d="M144.5,81.9c0.1,0.1,0.2,0.3,0.3,0.3c0.1,0.1,0.3,0.1,0.5,0c0,0,0,0,0.1,0c0.3-0.2,0.4-0.5,0.2-0.8
				c-1-2.3,1.1-3.7,1.1-3.8l0.6-0.4l-2.8-3.1l-4.1-2c-0.1-0.1-0.3-0.2-0.3-0.4c-0.1-0.2,0-0.3,0-0.5c0.1-0.1,0.2-0.3,0.4-0.3
				c0.2-0.1,0.3,0,0.5,0l4,2l5.1,5c0.8,1.1,0.9,2,0.4,2.9l-1.9,3.8c-0.8,1.6-2.7,2.2-4.3,1.4l-7.1-3.6l-4.4-2.2
				c-0.2-0.1-0.3-0.3-0.4-0.5c-0.1-0.2-0.1-0.4,0-0.5c0.1-0.3,0.7-0.4,1-0.2l4.5,2.2l0.5-1.1l-6.5-3.2c-0.1-0.1-0.3-0.2-0.3-0.4
				c-0.1-0.2,0-0.3,0-0.5c0.2-0.3,0.5-0.4,0.8-0.3l6.5,3.2l0.3-0.6l5.6-0.5C144.1,79.1,143.8,80.5,144.5,81.9z"/>
			<path class="st1" d="M131.1,80.4c0.2,0.4,0.6,0.8,1,1l4.4,2.2l7.1,3.6c1.4,0.7,3,0.6,4.3-0.2c0.7-0.4,1.2-1,1.6-1.7l1.9-3.8
				c0.7-1.4,0.5-2.7-0.5-4.2l-0.1-0.1c0,0-5.4-5.2-5.4-5.2l-4.1-2c-0.4-0.2-0.9-0.2-1.4-0.1c-0.5,0.2-0.8,0.5-1,0.9
				c-0.2,0.4-0.2,0.8-0.1,1.3l-2.9-1.4c-0.9-0.4-2-0.1-2.4,0.9c-0.1,0.2-0.2,0.5-0.2,0.7L133,72c-0.4-0.2-0.9-0.2-1.4-0.1
				c-0.5,0.2-0.9,0.5-1.1,1c-0.2,0.4-0.3,1-0.1,1.4c0.1,0.3,0.3,0.6,0.6,0.8c-0.2,0.2-0.4,0.4-0.6,0.6c-0.2,0.4-0.2,0.9-0.1,1.4
				c0.2,0.5,0.5,0.8,0.9,1l0.2,0.1c-0.2,0.1-0.3,0.3-0.4,0.5C130.9,79.3,130.9,79.8,131.1,80.4z M141.4,74l2.4,1.2l1.7,1.8
				c-0.3,0.3-0.6,0.7-0.8,1.1c-0.6,1-0.8,2.3-0.2,3.8c0.1,0.1,0.2,0.3,0.3,0.3c0.1,0.1,0.3,0.1,0.5,0c0,0,0,0,0.1,0
				c0.3-0.2,0.4-0.5,0.2-0.8c-1-2.3,1.1-3.7,1.1-3.8l0.6-0.4l-2.8-3.1l-4.1-2c-0.1-0.1-0.3-0.2-0.3-0.4c-0.1-0.2,0-0.3,0-0.5
				c0.1-0.1,0.2-0.3,0.4-0.3c0.2-0.1,0.3,0,0.5,0l4,2l5.1,5c0.8,1.1,0.9,2,0.4,2.9l-1.9,3.8c-0.8,1.6-2.7,2.2-4.3,1.4l-7.1-3.6
				l-4.4-2.2c-0.2-0.1-0.3-0.3-0.4-0.5c-0.1-0.2-0.1-0.4,0-0.5c0.1-0.3,0.7-0.4,1-0.2l4.5,2.2l0.5-1.1l-6.5-3.2
				c-0.1-0.1-0.3-0.2-0.3-0.4c-0.1-0.2,0-0.3,0-0.5c0.2-0.3,0.5-0.4,0.8-0.3l6.5,3.2l0.3-0.6l0.2-0.4c0,0,0-0.1,0-0.1l-0.1-0.1
				l-7.3-3.6c-0.1-0.1-0.2-0.2-0.3-0.4c-0.1-0.2,0-0.4,0-0.5c0.1-0.2,0.2-0.3,0.4-0.4c0.2-0.1,0.3,0,0.4,0l7.3,3.6l0.1,0.1l0-0.1
				c0,0,0.5-1.1,0.5-1.1l-0.1-0.1l-5.6-2.7c-0.1-0.1-0.3-0.2-0.3-0.4c-0.1-0.2,0-0.3,0-0.5c0.1-0.2,0.2-0.3,0.4-0.3
				c0.2-0.1,0.3,0,0.5,0l5.6,2.8l0.2,0.1L141.4,74z"/>
			<path class="st3" d="M131.9,74.4c-0.1-0.1-0.2-0.2-0.3-0.4c-0.1-0.2,0-0.4,0-0.5c0.1-0.2,0.2-0.3,0.4-0.4c0.2-0.1,0.3,0,0.4,0
				l7.3,3.6l-0.6,1.3L131.9,74.4z"/>
			<path class="st3" d="M134.8,72.8c-0.1-0.1-0.3-0.2-0.3-0.4c-0.1-0.2,0-0.3,0-0.5c0.1-0.2,0.2-0.3,0.4-0.3c0.2-0.1,0.3,0,0.5,0
				l5.6,2.8l-0.6,1.2L134.8,72.8z"/>
		</g>
		<g>
			<path class="st4" d="M277,74.1l16.3,50l47.3,20.9c1.9,0.8,3,2.8,2.7,4.9l-8,8.7c-0.1,1.3,1.2,0.4,0,0l-51.8-22.3
				c-2.5-0.9-3.8-2.2-4.5-4.7l-10-29.3L277,74.1z"/>
			<path class="st1" d="M335.6,159.9c0,0-0.1,0-0.1,0c-0.3-0.1-0.7-0.3-0.8-0.9l-51.4-22.1c-2.7-1-4.1-2.5-4.8-5.1l-10-29.2
				c-0.1-0.3,0.1-0.7,0.4-0.8c0.3-0.1,0.7,0.1,0.8,0.4l10,29.3c0.6,2.2,1.7,3.4,4.1,4.3l51.4,22.1l7.5-8.2c0.2-1.7-0.8-3.3-2.3-4
				l-47.6-21l-16.3-50.3c-0.1-0.3,0.1-0.7,0.4-0.8c0.3-0.1,0.7,0.1,0.8,0.4l16.2,49.8l47,20.8c2.2,0.9,3.4,3.2,3.1,5.6l0,0.2
				l-7.6,8.3c0.2,0.2,0.2,0.5,0.2,0.7C336.4,159.6,336,159.9,335.6,159.9z"/>
		</g>
		<g>
			<path class="st1" d="M228.2,38.4c-0.3,0-0.7,0-1-0.1c-0.3,0-0.4-0.3-0.4-0.6c0-0.3,0.3-0.4,0.6-0.4c2.6,0.4,3.5-1.1,3.5-1.1
				c0.1-0.2,0.4-0.3,0.7-0.2c0.2,0.1,0.3,0.4,0.2,0.7C231.6,36.8,230.7,38.4,228.2,38.4z"/>
		</g>
		<g>
			<g>
				<path class="st4" d="M327.8,171.2L296,159.5c-1.5-0.6-2.2-2.2-1.7-3.7l17.9-48.4c0.6-1.5,2.2-2.2,3.7-1.7l31.7,11.8
					c1.5,0.6,2.2,2.2,1.7,3.7l-17.9,48.4C330.9,171,329.3,171.8,327.8,171.2z"/>
				<path class="st1" d="M328.3,171.8c-0.5,0-1-0.1-1.5-0.3l-30.1-11.1c-1.1-0.4-2-1.2-2.5-2.3c-0.5-1.1-0.5-2.3-0.1-3.4l17.3-46.8
					c0.8-2.3,3.4-3.4,5.7-2.6l30.1,11.1c1.1,0.4,2,1.2,2.5,2.3c0.5,1.1,0.5,2.3,0.1,3.4l-17.3,46.8c-0.4,1.1-1.2,2-2.3,2.5
					C329.5,171.7,328.9,171.8,328.3,171.8z M315.5,106.4c-1.3,0-2.4,0.8-2.9,2l-17.3,46.8c-0.3,0.8-0.3,1.6,0.1,2.4
					c0.3,0.8,1,1.3,1.7,1.6l30.1,11.1c0.8,0.3,1.6,0.3,2.4-0.1c0.8-0.3,1.3-1,1.6-1.7l17.3-46.8c0.3-0.8,0.3-1.6-0.1-2.4
					c-0.3-0.8-1-1.3-1.7-1.6l-30.1-11.1C316.2,106.4,315.9,106.4,315.5,106.4z"/>
			</g>
			<g>
				<g>
					<path class="st3" d="M317.7,109c-1.2-0.5-2.6,0.2-3.1,1.4l-15.2,41.1c-0.5,1.2,0.2,2.6,1.4,3.1l26.6,9.9
						c1.2,0.5,2.6-0.2,3.1-1.4l15.1-40.8c0.5-1.4-0.2-2.9-1.5-3.4L317.7,109z"/>
					<path class="st1" d="M328.2,165.2c-0.4,0-0.7-0.1-1.1-0.2l-26.6-9.9c-0.8-0.3-1.4-0.8-1.7-1.6c-0.3-0.7-0.4-1.6-0.1-2.3
						l15.2-41.1c0.3-0.8,0.8-1.4,1.6-1.7c0.7-0.3,1.6-0.4,2.3-0.1c0,0,26.4,9.8,26.4,9.8c1.7,0.6,2.6,2.5,1.9,4.2l-15.1,40.8
						c-0.3,0.8-0.8,1.4-1.6,1.7C329.1,165.1,328.6,165.2,328.2,165.2z M316.8,109.5c-0.2,0-0.5,0.1-0.7,0.2c-0.4,0.2-0.7,0.5-0.9,1
						L300,151.7c-0.2,0.4-0.1,0.9,0.1,1.3c0.2,0.4,0.5,0.7,1,0.9l26.6,9.9c0.4,0.2,0.9,0.1,1.3-0.1c0.4-0.2,0.7-0.5,0.9-1l15.1-40.8
						c0.4-1-0.1-2.1-1.2-2.5l-26.4-9.8C317.2,109.5,317,109.5,316.8,109.5z"/>
				</g>
				<g>
					<g>
						<g>
							<g>
								<path class="st0" d="M329.1,126.6l-12.6-4.7c-0.4-0.1-0.5-0.7-0.3-1.2c0.2-0.5,0.7-0.8,1-0.7l12.6,4.7
									c0.4,0.1,0.5,0.7,0.3,1.2C329.9,126.5,329.4,126.8,329.1,126.6z"/>
							</g>
						</g>
						<g>
							<g>
								<path class="st0" d="M336.6,129.4l-4.3-1.6c-0.4-0.1-0.5-0.7-0.3-1.2c0.2-0.5,0.7-0.8,1-0.7l4.3,1.6
									c0.4,0.1,0.5,0.7,0.3,1.2C337.4,129.2,337,129.5,336.6,129.4z"/>
							</g>
						</g>
						<g>
							<g>
								<path class="st0" d="M322.8,128.2l12.6,4.7c0.4,0.1,0.8-0.2,1-0.7c0.2-0.5,0-1-0.3-1.2l-12.6-4.7c-0.4-0.1-0.8,0.2-1,0.7
									C322.2,127.5,322.4,128,322.8,128.2z"/>
							</g>
						</g>
						<g>
							<g>
								<path class="st0" d="M314.3,129l19.1,7.1c0.6,0.2,1.2,0,1.4-0.5c0.2-0.5-0.1-1.1-0.7-1.3l-19.1-7.1c-0.6-0.2-1.2,0-1.4,0.5
									C313.4,128.2,313.7,128.7,314.3,129z"/>
							</g>
						</g>
						<g>
							<g>
								<path class="st0" d="M315.2,125.4l4.3,1.6c0.4,0.1,0.8-0.2,1-0.7c0.2-0.5,0-1-0.3-1.2l-4.3-1.6c-0.4-0.1-0.8,0.2-1,0.7
									C314.7,124.7,314.9,125.2,315.2,125.4z"/>
							</g>
						</g>
					</g>
					<g>
						<g>
							<g>
								<path class="st0" d="M321.4,146.9l-12.6-4.7c-0.4-0.1-0.5-0.7-0.3-1.2c0.2-0.5,0.7-0.8,1-0.7l12.6,4.7
									c0.4,0.1,0.5,0.7,0.3,1.2S321.8,147.1,321.4,146.9z"/>
							</g>
						</g>
						<g>
							<g>
								<path class="st0" d="M328.9,149.7l-4.3-1.6c-0.4-0.1-0.5-0.7-0.3-1.2c0.2-0.5,0.7-0.8,1-0.7l4.3,1.6
									c0.4,0.1,0.5,0.7,0.3,1.2C329.8,149.5,329.3,149.9,328.9,149.7z"/>
							</g>
						</g>
						<g>
							<g>
								<path class="st0" d="M315.1,148.5l12.6,4.7c0.4,0.1,0.8-0.2,1-0.7c0.2-0.5,0-1-0.3-1.2l-12.6-4.7c-0.4-0.1-0.8,0.2-1,0.7
									C314.6,147.8,314.7,148.3,315.1,148.5z"/>
							</g>
						</g>
						<g>
							<g>
								<path class="st0" d="M306.6,149.3l19.1,7.1c0.6,0.2,1.2,0,1.4-0.5c0.2-0.5-0.1-1.1-0.7-1.3l-19.1-7.1
									c-0.6-0.2-1.2,0-1.4,0.5C305.8,148.5,306.1,149.1,306.6,149.3z"/>
							</g>
						</g>
						<g>
							<g>
								<path class="st0" d="M307.6,145.7l4.3,1.6c0.4,0.1,0.8-0.2,1-0.7c0.2-0.5,0-1-0.3-1.2l-4.3-1.6c-0.4-0.1-0.8,0.2-1,0.7
									C307,145,307.2,145.5,307.6,145.7z"/>
							</g>
						</g>
					</g>
					<g>
						<g>
							<g>
								<path class="st0" d="M325.3,136.7l-12.6-4.7c-0.4-0.1-0.5-0.7-0.3-1.2c0.2-0.5,0.7-0.8,1-0.7l12.6,4.7
									c0.4,0.1,0.5,0.7,0.3,1.2C326.2,136.5,325.7,136.8,325.3,136.7z"/>
							</g>
						</g>
						<g>
							<g>
								<path class="st0" d="M332.8,139.5l-4.3-1.6c-0.4-0.1-0.5-0.7-0.3-1.2s0.7-0.8,1-0.7l4.3,1.6c0.4,0.1,0.5,0.7,0.3,1.2
									C333.7,139.3,333.2,139.6,332.8,139.5z"/>
							</g>
						</g>
						<g>
							<g>
								<path class="st0" d="M319,138.2l12.6,4.7c0.4,0.1,0.8-0.2,1-0.7c0.2-0.5,0-1-0.3-1.2l-12.6-4.7c-0.4-0.1-0.8,0.2-1,0.7
									C318.5,137.6,318.6,138.1,319,138.2z"/>
							</g>
						</g>
						<g>
							<g>
								<path class="st0" d="M310.2,138.9l12.6,4.7c0.4,0.1,0.8-0.2,1-0.7c0.2-0.5,0-1-0.3-1.2l-12.6-4.7c-0.4-0.1-0.8,0.2-1,0.7
									C309.7,138.2,309.8,138.8,310.2,138.9z"/>
							</g>
						</g>
						<g>
							<g>
								<path class="st0" d="M311.5,135.5l4.3,1.6c0.4,0.1,0.8-0.2,1-0.7c0.2-0.5,0-1-0.3-1.2l-4.3-1.6c-0.4-0.1-0.8,0.2-1,0.7
									C311,134.8,311.1,135.3,311.5,135.5z"/>
							</g>
						</g>
					</g>
				</g>
			</g>
			<g>
				<path class="st2" d="M336.1,118.1l-11.7-4.3c-0.9-0.3-1.3-1.3-1-2.2c0.3-0.9,1.3-1.3,2.2-1l11.7,4.3c0.9,0.3,1.3,1.3,1,2.2
					C337.9,117.9,337,118.4,336.1,118.1z"/>
				<path class="st1" d="M336.7,118.8c-0.3,0-0.5,0-0.8-0.1c0,0-11.7-4.3-11.7-4.3c-0.6-0.2-1.1-0.7-1.3-1.2
					c-0.3-0.6-0.3-1.2-0.1-1.8c0.2-0.6,0.7-1.1,1.2-1.3c0.6-0.3,1.2-0.3,1.8-0.1l11.7,4.3c0.6,0.2,1.1,0.7,1.3,1.2
					c0.3,0.6,0.3,1.2,0.1,1.8C338.5,118.2,337.6,118.8,336.7,118.8z M336.3,117.4c0.5,0.2,1.2-0.1,1.4-0.6c0.1-0.3,0.1-0.5,0-0.8
					c-0.1-0.3-0.3-0.5-0.6-0.6l-11.7-4.3c-0.3-0.1-0.5-0.1-0.8,0c-0.3,0.1-0.5,0.3-0.6,0.6c-0.1,0.3-0.1,0.5,0,0.8
					c0.1,0.3,0.3,0.5,0.6,0.6L336.3,117.4z"/>
			</g>
		</g>
		<g>
			<g>
				<path class="st3" d="M341.6,146.6l-0.5-0.2c-0.4-0.2-0.6-0.6-0.4-1l1.6-3.7c0.2-0.4,0.6-0.6,1-0.4l0.5,0.2
					c0.4,0.2,0.6,0.6,0.4,1l-1.6,3.7C342.5,146.6,342,146.8,341.6,146.6z"/>
				<path class="st1" d="M341.8,147.2c-0.2,0-0.5,0-0.7-0.1l-0.1,0c-0.9-0.4-1.2-1.4-0.9-2.2l1.4-3.2c0.4-0.9,1.4-1.2,2.2-0.9
					c0.5,0.2,0.8,0.5,1,1c0.2,0.4,0.2,0.9,0,1.3l-1.4,3.2C343.1,146.9,342.5,147.2,341.8,147.2z M343.1,141.9c0,0-0.1,0-0.1,0
					c-0.1,0-0.2,0.1-0.2,0.2l-1.4,3.2c-0.1,0.2,0,0.4,0.2,0.5l-0.2,0.6l0.3-0.6c0.2,0.1,0.4,0,0.5-0.2l1.4-3.2
					c0.1-0.2,0-0.4-0.2-0.5C343.3,141.9,343.2,141.9,343.1,141.9z"/>
			</g>
			<g>
				<g>
					<path class="st3" d="M340.4,157.2c-0.4,0.7-1.2,0.9-1.8,0.5l-5.7-3.1c-0.7-0.4-0.9-1.2-0.5-1.8c0.4-0.7,1.2-0.9,1.8-0.5
						l5.7,3.1C340.5,155.7,340.8,156.5,340.4,157.2z"/>
					<path class="st1" d="M339.2,158.5c-0.3,0-0.7-0.1-1-0.2l-5.7-3.1c-1-0.5-1.3-1.8-0.8-2.7c0.3-0.5,0.7-0.8,1.2-1
						c0.5-0.2,1.1-0.1,1.5,0.2l5.7,3.1c0.5,0.3,0.8,0.7,1,1.2c0.2,0.5,0.1,1.1-0.2,1.5c-0.3,0.5-0.7,0.8-1.2,1
						C339.6,158.5,339.4,158.5,339.2,158.5z M333.6,152.7c-0.2,0-0.5,0.1-0.6,0.4c-0.2,0.3-0.1,0.8,0.3,1l5.7,3.1
						c0.2,0.1,0.4,0.1,0.5,0.1c0.2-0.1,0.3-0.2,0.4-0.3c0.1-0.2,0.1-0.4,0.1-0.5c-0.1-0.2-0.2-0.3-0.3-0.4l-5.7-3.1
						C333.8,152.7,333.7,152.7,333.6,152.7z"/>
				</g>
				<g>
					<path class="st3" d="M342.2,154.7c-0.4,0.7-1.2,0.9-1.8,0.5l-7.7-4.2c-0.7-0.4-0.9-1.2-0.5-1.8c0.4-0.7,1.2-0.9,1.8-0.5
						l7.7,4.2C342.3,153.2,342.6,154.1,342.2,154.7z"/>
					<path class="st1" d="M341,156.1c-0.3,0-0.7-0.1-1-0.2l-7.7-4.2c-0.5-0.3-0.8-0.7-1-1.2c-0.2-0.5-0.1-1.1,0.2-1.5
						c0.3-0.5,0.7-0.8,1.2-1c0.5-0.2,1.1-0.1,1.5,0.2l7.7,4.2c0.5,0.3,0.8,0.7,1,1.2c0.2,0.5,0.1,1.1-0.2,1.5
						c-0.3,0.5-0.7,0.8-1.2,1C341.4,156.1,341.2,156.1,341,156.1z M333.3,149.1c-0.1,0-0.1,0-0.2,0c-0.2,0.1-0.3,0.2-0.4,0.3
						c-0.1,0.2-0.1,0.4-0.1,0.5c0.1,0.2,0.2,0.3,0.3,0.4l7.7,4.2c0.3,0.2,0.8,0.1,1-0.3c0.1-0.2,0.1-0.4,0.1-0.5
						c-0.1-0.2-0.2-0.3-0.3-0.4l-7.7-4.2C333.5,149.2,333.4,149.1,333.3,149.1z"/>
				</g>
				<g>
					<path class="st3" d="M344.8,149.6c-0.4,0.7-1.2,0.9-1.8,0.5l-7.7-4.2c-0.7-0.4-0.9-1.2-0.5-1.8c0.4-0.7,1.2-0.9,1.8-0.5
						l7.7,4.2C345,148.1,345.2,148.9,344.8,149.6z"/>
					<path class="st1" d="M343.6,151c-0.3,0-0.7-0.1-1-0.2l-7.7-4.2c-0.5-0.3-0.8-0.7-1-1.2c-0.2-0.5-0.1-1.1,0.2-1.5
						c0.5-1,1.8-1.3,2.7-0.8l7.7,4.2c1,0.5,1.3,1.8,0.8,2.7c-0.3,0.5-0.7,0.8-1.2,1C344,150.9,343.8,151,343.6,151z M335.9,144
						c-0.2,0-0.5,0.1-0.6,0.4c-0.1,0.2-0.1,0.4-0.1,0.5c0.1,0.2,0.2,0.3,0.3,0.4l7.7,4.2c0.3,0.2,0.8,0.1,1-0.3
						c0.2-0.3,0.1-0.8-0.3-1l-7.7-4.2C336.2,144,336,144,335.9,144z"/>
				</g>
				<g>
					<path class="st3" d="M343.5,152.1c-0.4,0.7-1.2,0.9-1.8,0.5l-8.5-4.6c-0.7-0.4-0.9-1.2-0.5-1.8c0.4-0.7,1.2-0.9,1.8-0.5
						l8.5,4.6C343.6,150.6,343.8,151.5,343.5,152.1z"/>
					<path class="st1" d="M342.3,153.5c-0.3,0-0.7-0.1-1-0.2l-8.5-4.6c-1-0.5-1.3-1.8-0.8-2.7c0.3-0.5,0.7-0.8,1.2-1
						c0.5-0.2,1.1-0.1,1.5,0.2l8.5,4.6c1,0.5,1.3,1.8,0.8,2.7C343.7,153.1,343,153.5,342.3,153.5z M333.8,146.1c-0.1,0-0.1,0-0.2,0
						c-0.2,0.1-0.3,0.2-0.4,0.3c-0.2,0.3-0.1,0.8,0.3,1l8.5,4.6c0.3,0.2,0.8,0.1,1-0.3c0.2-0.3,0.1-0.8-0.3-1l-8.5-4.6
						C334.1,146.1,334,146.1,333.8,146.1z"/>
				</g>
			</g>
		</g>
	</g>
</g>
</svg>
