<?xml version="1.0" encoding="utf-8"?>
<!-- Generator: Adobe Illustrator 25.1.0, SVG Export Plug-In . SVG Version: 6.00 Build 0)  -->
<svg version="1.1" id="Layer_1" xmlns="http://www.w3.org/2000/svg" xmlns:xlink="http://www.w3.org/1999/xlink" x="0px" y="0px"
	 viewBox="0 0 50 50" style="enable-background:new 0 0 50 50;" xml:space="preserve">
<g id="XMLID_1_">
	<g id="XMLID_2_">
		<path id="XMLID_4_" d="M38.6,26.6c-0.1-6.3,5.2-9.4,5.4-9.5c-3-4.3-7.6-4.9-9.2-5c-3.9-0.4-7.6,2.3-9.6,2.3c-2,0-5-2.3-8.3-2.2
			c-4.2,0.1-8.1,2.5-10.3,6.3c-4.4,7.7-1.1,19,3.1,25.2c2.1,3,4.6,6.4,7.9,6.3c3.2-0.1,4.4-2,8.2-2c3.8,0,4.9,2,8.2,2
			c3.4-0.1,5.6-3.1,7.6-6.1c2.5-3.5,3.4-6.9,3.5-7.1C45.3,36.7,38.7,34.2,38.6,26.6z"/>
		<path id="XMLID_3_" d="M32.4,8c1.7-2.1,2.9-5.1,2.6-8c-2.5,0.1-5.6,1.7-7.4,3.8c-1.6,1.8-3,4.9-2.6,7.7
			C27.7,11.7,30.6,10.1,32.4,8z"/>
	</g>
</g>
</svg>
