<?xml version="1.0" encoding="utf-8"?>
<!-- Generator: Adobe Illustrator 26.0.3, SVG Export Plug-In . SVG Version: 6.00 Build 0)  -->
<svg version="1.1" id="레이어_1" xmlns="http://www.w3.org/2000/svg" xmlns:xlink="http://www.w3.org/1999/xlink" x="0px"
	 y="0px" viewBox="0 0 40 47.45" style="enable-background:new 0 0 40 47.45;" xml:space="preserve">
<style type="text/css">
	.st0{fill:#FFFFFF;}
</style>
<g>
	<polygon class="st0" points="34.33,0 4.64,26.53 10.3,26.53 40,0 	"/>
	<path class="st0" d="M36.35,3.26v26.68c0,0.51-0.24,0.69-1.02,1.34L20,43.42L4.67,31.29c-0.78-0.65-1.02-0.83-1.02-1.34V3.26
		l12.63,11.28L19.1,12L5.67,0H0v31.35c0,0.43,0.15,0.87,0.46,1.22c0.08,0.09,0.17,0.17,0.26,0.25l18.15,14.36
		c0.33,0.25,0.76,0.32,1.13,0.32h0c0.37,0,0.8-0.06,1.13-0.32l18.15-14.36c0.09-0.07,0.18-0.15,0.26-0.24
		c0.31-0.35,0.46-0.78,0.46-1.22V0L36.35,3.26z"/>
	<polygon class="st0" points="35.36,26.53 23.76,16.17 20.94,18.71 29.7,26.53 	"/>
	<polygon class="st0" points="40,0 40,0 40,0 	"/>
</g>
</svg>
