<?xml version="1.0" encoding="utf-8"?>
<!-- Generator: Adobe Illustrator 24.3.0, SVG Export Plug-In . SVG Version: 6.00 Build 0)  -->
<svg version="1.1" id="레이어_1" xmlns="http://www.w3.org/2000/svg" xmlns:xlink="http://www.w3.org/1999/xlink" x="0px"
	 y="0px" viewBox="0 0 24 24" style="enable-background:new 0 0 24 24;" xml:space="preserve">
<style type="text/css">
	.st0{fill:#FFFFFF;}
</style>
<g>
	<path class="st0" d="M20,8c0-1.1-0.9-2-2-2h-2h-1.5h-5H8H6C4.9,6,4,6.9,4,8L3,19c0,1.1,0.9,2,2,2h14c1.1,0,2-0.9,2-2L20,8z M5,19
		L6,8.2l0-0.1V8h2v4h1.5V8h5v4H16V8h2v0.1l0,0.1L19,19H5z"/>
	<path class="st0" d="M12,3.5c1.4,0,2.5,1.1,2.5,2.5H16c0-2.2-1.8-4-4-4C9.8,2,8,3.8,8,6h1.5C9.5,4.6,10.6,3.5,12,3.5z"/>
</g>
</svg>
