<?xml version="1.0" encoding="utf-8"?>
<!-- Generator: Adobe Illustrator 24.3.0, SVG Export Plug-In . SVG Version: 6.00 Build 0)  -->
<svg version="1.1" id="레이어_1" xmlns="http://www.w3.org/2000/svg" xmlns:xlink="http://www.w3.org/1999/xlink" x="0px"
	 y="0px" viewBox="0 0 24 24" style="enable-background:new 0 0 24 24;" xml:space="preserve">
<style type="text/css">
	.st0{fill:none;}
	.st1{fill:#303030;}
</style>
<rect y="0" class="st0" width="24" height="24"/>
<path class="st1" d="M21.7,19.9l-4.6-4.6c1-1.3,1.6-3,1.6-4.8c0-4.3-3.5-7.9-7.9-7.9S3,6.2,3,10.5s3.5,7.9,7.9,7.9
	c1.8,0,3.5-0.6,4.8-1.7l4.6,4.6L21.7,19.9z M5,10.5c0-3.2,2.6-5.9,5.9-5.9s5.9,2.6,5.9,5.9c0,3.2-2.6,5.9-5.9,5.9S5,13.8,5,10.5z"/>
</svg>
