<?xml version="1.0" encoding="utf-8"?>
<!-- Generator: Adobe Illustrator 24.3.0, SVG Export Plug-In . SVG Version: 6.00 Build 0)  -->
<svg version="1.1" id="레이어_1" xmlns="http://www.w3.org/2000/svg" xmlns:xlink="http://www.w3.org/1999/xlink" x="0px"
	 y="0px" viewBox="0 0 24 24" style="enable-background:new 0 0 24 24;" xml:space="preserve">
<style type="text/css">
	.st0{fill:#CCCCCC;}
	.st1{fill:none;}
</style>
<g>
	<path class="st0" d="M12,8c-2.2,0-4,1.8-4,4s1.8,4,4,4s4-1.8,4-4S14.2,8,12,8z M12,14.5c-1.4,0-2.5-1.1-2.5-2.5s1.1-2.5,2.5-2.5
		s2.5,1.1,2.5,2.5S13.4,14.5,12,14.5z"/>
	<path class="st0" d="M20.8,9.8l-1.2-0.2c-0.1-0.4-0.3-0.8-0.5-1.2l0.7-1c0.4-0.6,0.3-1.3-0.1-1.8l-1.2-1.2
		c-0.3-0.3-0.6-0.4-0.9-0.4c-0.3,0-0.6,0.1-0.9,0.3l-1,0.7c-0.4-0.2-0.8-0.4-1.2-0.5l-0.2-1.2C14.1,2.5,13.5,2,12.9,2h-1.7
		c-0.6,0-1.2,0.5-1.3,1.2L9.6,4.4C9.1,4.5,8.7,4.7,8.3,4.9l-1-0.7C7.1,4,6.8,3.9,6.5,3.9c-0.3,0-0.7,0.1-0.9,0.4L4.3,5.5
		C3.9,6,3.8,6.7,4.2,7.3l0.7,1C4.7,8.7,4.5,9.1,4.4,9.6L3.2,9.8C2.5,9.9,2,10.5,2,11.1v1.7c0,0.6,0.5,1.2,1.2,1.3l1.2,0.2
		c0.1,0.4,0.3,0.8,0.5,1.2l-0.7,1c-0.4,0.6-0.3,1.3,0.1,1.8l1.2,1.2c0.3,0.3,0.6,0.4,0.9,0.4c0.3,0,0.6-0.1,0.9-0.3l1-0.7
		c0.4,0.2,0.8,0.4,1.2,0.5l0.2,1.2c0.1,0.7,0.7,1.2,1.3,1.2h1.7c0.6,0,1.2-0.5,1.3-1.2l0.2-1.2c0.4-0.1,0.8-0.3,1.2-0.5l1,0.7
		c0.3,0.2,0.6,0.3,0.9,0.3c0.3,0,0.7-0.1,0.9-0.4l1.2-1.2c0.5-0.5,0.5-1.2,0.1-1.8l-0.7-1c0.2-0.4,0.4-0.8,0.5-1.2l1.2-0.2
		c0.7-0.1,1.2-0.7,1.2-1.3v-1.7C22,10.5,21.5,9.9,20.8,9.8z M20.5,12.7L19.3,13c-0.5,0.1-1,0.5-1.1,1c-0.1,0.3-0.2,0.7-0.4,1
		c-0.3,0.5-0.2,1.1,0.1,1.5l0.7,1l-1,1l-1-0.7c-0.3-0.2-0.5-0.3-0.8-0.3c-0.2,0-0.5,0.1-0.7,0.2c-0.3,0.2-0.7,0.3-1,0.4
		c-0.5,0.2-0.9,0.6-1,1.1l-0.2,1.2h-1.5L11,19.3c-0.1-0.5-0.5-1-1-1.1c-0.3-0.1-0.7-0.2-1-0.4c-0.2-0.1-0.5-0.2-0.7-0.2
		c-0.3,0-0.6,0.1-0.8,0.3l-1,0.7l-1-1l0.7-1c0.3-0.5,0.3-1,0.1-1.5c-0.2-0.3-0.3-0.7-0.4-1c-0.2-0.5-0.6-0.9-1.1-1l-1.2-0.2v-1.5
		L4.7,11c0.5-0.1,1-0.5,1.1-1c0.1-0.3,0.2-0.7,0.4-1C6.5,8.5,6.4,8,6.1,7.5l-0.7-1l1-1l1,0.7C7.7,6.3,8,6.4,8.3,6.4
		c0.2,0,0.5-0.1,0.7-0.2c0.3-0.2,0.7-0.3,1-0.4c0.5-0.2,0.9-0.6,1-1.1l0.2-1.2h1.5L13,4.7c0.1,0.5,0.5,1,1,1.1
		c0.3,0.1,0.7,0.2,1,0.4c0.2,0.1,0.5,0.2,0.7,0.2c0.3,0,0.6-0.1,0.8-0.3l1-0.7l1,1l-0.7,1c-0.3,0.5-0.3,1-0.1,1.5
		c0.2,0.3,0.3,0.7,0.4,1c0.2,0.5,0.6,0.9,1.1,1l1.2,0.2V12.7z"/>
</g>
<rect class="st1" width="24" height="24"/>
</svg>
