<?xml version="1.0" encoding="utf-8"?>
<!-- Generator: Adobe Illustrator 26.0.3, SVG Export Plug-In . SVG Version: 6.00 Build 0)  -->
<svg version="1.1" id="레이어_1" xmlns="http://www.w3.org/2000/svg" xmlns:xlink="http://www.w3.org/1999/xlink" x="0px"
	 y="0px" viewBox="0 0 500 500" style="enable-background:new 0 0 500 500;" xml:space="preserve">
<style type="text/css">
	.st0{fill:#F8F8F8;}
	.st1{opacity:0.6;fill:#DDDDDD;}
	.st2{fill:#DDDDDD;}
</style>
<rect class="st0" width="500" height="500"/>
<g>
	<polygon class="st1" points="304.3,160.5 191.8,261.1 213.2,261.1 325.8,160.5 	"/>
	<path class="st2" d="M312,172.9V274c0,1.9-0.9,2.6-3.9,5.1l-58.1,46l-58.1-46c-2.9-2.5-3.9-3.2-3.9-5.1V172.9l47.9,42.8l10.7-9.6
		l-50.9-45.5h-21.5v118.8c0,1.6,0.6,3.3,1.7,4.6c0.3,0.3,0.6,0.7,1,0.9l68.8,54.4c1.3,1,2.9,1.2,4.3,1.2h0c1.4,0,3-0.2,4.3-1.2
		l68.8-54.4c0.4-0.3,0.7-0.6,1-0.9c1.2-1.3,1.7-3,1.7-4.6V160.5L312,172.9z"/>
	<polygon class="st2" points="308.2,261.1 264.2,221.8 253.6,231.4 286.8,261.1 	"/>
	<polygon class="st2" points="325.8,160.5 325.8,160.5 325.8,160.5 	"/>
</g>
</svg>
