<?xml version="1.0" encoding="utf-8"?>
<!-- Generator: Adobe Illustrator 26.0.2, SVG Export Plug-In . SVG Version: 6.00 Build 0)  -->
<svg version="1.1" id="Layer_1" xmlns="http://www.w3.org/2000/svg" xmlns:xlink="http://www.w3.org/1999/xlink" x="0px" y="0px"
	 viewBox="0 0 103 101.1" style="enable-background:new 0 0 103 101.1;" xml:space="preserve">
<style type="text/css">
	.st0{fill:#3C3E98;}
</style>
<g id="레이어_1" transform="translate(0 0.082)">
	<path id="패스_4876" class="st0" d="M2,45.1L1,45C4,17.3,28.9-2.8,56.6,0.2c14.1,1.5,27,8.9,35.4,20.4l-0.8,0.6
		C75.1-0.8,44.1-5.7,22,10.5C10.8,18.7,3.5,31.3,2,45.1z"/>
	<path id="패스_4877" class="st0" d="M51.2,101c-16.1,0-31.2-7.7-40.7-20.7l0.8-0.6c16.2,22.1,47.1,26.8,69.2,10.7
		c11.3-8.3,18.6-20.9,20-34.9l1,0.1C98.9,81.5,77.2,101.1,51.2,101z"/>
	<path id="패스_4878" class="st0" d="M51.2,76c-4.2,0-8.4-1.1-12.2-3.1l0.5-0.9c11.5,6.2,25.8,2.4,32.6-8.8l0.8,0.5
		C68.4,71.4,60.1,76,51.2,76z"/>
	<path id="패스_4879" class="st0" d="M30.3,37.7l-0.9-0.5c7.1-11.6,22-15.6,33.9-9.1L62.9,29C51.5,22.7,37.1,26.6,30.3,37.7z"/>
	<path id="패스_4880" class="st0" d="M34.1,79.5l4,2l-0.3,0.7l-3.2-1.7L33.3,83l2.9,1.5l-0.3,0.7l-2.9-1.5l-1.6,3.1l-0.8-0.4
		L34.1,79.5z"/>
	<path id="패스_4881" class="st0" d="M44.2,91.6c-1.6-0.3-2.2-1.5-1.9-3.3s1.3-2.8,2.9-2.5s2.2,1.5,1.9,3.3S45.9,91.8,44.2,91.6z
		 M45.1,86.5c-1.1-0.2-1.7,0.6-1.9,1.9s0,2.3,1.2,2.5s1.7-0.6,2-1.9S46.3,86.7,45.1,86.5z"/>
	<path id="패스_4882" class="st0" d="M55.2,89l0.3,2.8l-0.8,0.1l-0.6-5.6l0.8-0.1l0.1,1c0.1-0.7,0.7-1.3,1.5-1.3
		c0.1,0,0.3,0,0.4,0l0.1,0.7h-0.4C55.6,86.7,55.1,87.5,55.2,89z"/>
	<path id="패스_4883" class="st0" d="M66.3,80.7l0.8-0.3l-0.7,5.4l1.2,2.8L66.9,89l-1.2-2.8l-4.3-3.3l0.8-0.3l3.5,2.8L66.3,80.7z"
		/>
	<path id="패스_4884" class="st0" d="M78,82.5c-1.2,1.1-2.5,0.7-3.7-0.7S73,79,74.2,78s2.5-0.7,3.7,0.7S79.2,81.4,78,82.5z
		 M74.7,78.5c-0.9,0.7-0.7,1.7,0.2,2.7s1.8,1.4,2.7,0.7s0.7-1.7-0.2-2.7S75.6,77.7,74.7,78.5L74.7,78.5z"/>
	<path id="패스_4885" class="st0" d="M80.4,71.6l0.4-0.7l2.8,1.8c1.1,0.7,1.7,0.6,2.2-0.2s0.2-1.8-1-2.5l-2.4-1.5l0.4-0.7l4.7,3
		l-0.4,0.7l-0.8-0.5c0.5,0.6,0.5,1.5,0,2.1c-0.7,1.1-1.7,1.2-2.9,0.5L80.4,71.6z"/>
	<path id="패스_4886" class="st0" d="M15,32.7l2.7-4.7l0.6,0.4l-1.1,2l6.1,3.6l-0.4,0.8l-6.1-3.5l-1.1,2L15,32.7z"/>
	<path id="패스_4887" class="st0" d="M31.5,24.7l-0.6,0.5l-2.2-2.5c-0.8-0.9-1.5-1-2.2-0.4S25.8,24,26.7,25l1.9,2.2L28,27.7
		l-5.2-5.9l0.6-0.5l2.1,2.4c-0.2-0.7,0-1.5,0.6-2c1-0.8,2-0.7,3,0.4L31.5,24.7z"/>
	<path id="패스_4888" class="st0" d="M38.2,20.9c-1.2,0.5-2.2,0.2-2.7-0.8s0.1-2,1.3-2.5c0.6-0.3,1.3-0.3,1.8,0l-0.4-0.9
		c-0.2-0.7-0.9-1-1.6-0.8c-0.1,0-0.2,0.1-0.2,0.1c-0.7,0.2-1,0.8-0.9,1.5c0,0,0,0,0,0l-0.8,0.3c-0.3-1,0.2-2.1,1.2-2.4
		c0,0,0.1,0,0.1,0c1-0.6,2.2-0.2,2.7,0.7c0.1,0.1,0.1,0.2,0.1,0.3l1.1,2.6c0.1,0.2,0.3,0.5,0.4,0.6l-0.8,0.3
		c-0.1-0.1-0.3-0.3-0.3-0.5C39.4,20.1,39,20.6,38.2,20.9z M37.2,18.2c-0.9,0.4-1.2,1-1,1.6s0.9,0.8,1.8,0.4s1.2-1,1-1.6
		S38.1,17.8,37.2,18.2L37.2,18.2z"/>
	<path id="패스_4889" class="st0" d="M50.7,18l-0.8,0.1l-0.3-3.3c-0.1-1.2-0.6-1.7-1.5-1.6s-1.5,0.9-1.4,2.3l0.3,2.9l-0.8,0.1
		l-0.5-5.6l0.8-0.1l0.1,1c0.2-0.8,0.9-1.3,1.7-1.3c1.3-0.1,2,0.6,2.2,2.1L50.7,18z"/>
	<path id="패스_4890" class="st0" d="M56.5,18.4l1.7-7.7l0.8,0.2l-1,4.5l0.6,0.1l2.2-1.9l0.9,0.2L59.3,16l1.6,3.3l-1-0.2l-1.4-3
		L57.8,16l-0.6,2.5L56.5,18.4z"/>
	<path id="패스_4891" class="st0" d="M71.1,19.6L71,19.8l-0.7-0.4l0.1-0.1c0.2-0.4,0.1-1-0.6-1.4s-1.2-0.2-1.5,0.2
		s-0.1,0.8,0.5,1.3l0.5,0.5c0.9,0.8,1.1,1.4,0.7,2.3s-1.5,1-2.7,0.4s-1.5-1.6-1.1-2.5l0.1-0.2l0.7,0.4l-0.1,0.2
		c-0.3,0.5,0,1.1,0.7,1.5s1.3,0.3,1.6-0.2s0.1-0.8-0.4-1.3l-0.5-0.5c-0.9-0.8-1.1-1.5-0.7-2.2s1.4-1,2.6-0.4S71.5,18.8,71.1,19.6z"
		/>
	<path id="패스_4892" class="st0" d="M11.4,61.9c0,3.8-0.3,6.8-1.6,8.9c-0.9,1.5-2.4,2.5-4.1,2.9C4.3,74.2,2.7,74,1.6,73
		C0.3,71.6,0,68.7,0,64.9s0.3-6.8,1.6-8.9c0.9-1.4,2.4-2.5,4.1-2.9c1.4-0.5,3-0.2,4.1,0.8C11.1,55.2,11.4,58.1,11.4,61.9z M3.2,64.1
		c0,3.2,0.2,5.6,0.9,6.5c0.4,0.4,1,0.6,1.6,0.4c0.7-0.2,1.3-0.6,1.6-1.2C8,68.4,8.1,66,8.1,62.7S8,57.2,7.3,56.3
		c-0.4-0.4-1.1-0.6-1.6-0.4c-0.7,0.2-1.2,0.6-1.6,1.2C3.4,58.4,3.2,60.9,3.2,64.1z M17.8,71.6l-3.2,0.9V50.7l3.2-0.9V71.6z"/>
	<path id="패스_4893" class="st0" d="M26.6,51.7v-3.9l3-0.8v4.7l1.8-0.5v-4.9l3.1-0.8v14.8l-3.1,0.8V54l-1.8,0.5v5.3L21,62V49.2
		l3-0.8v3.9L26.6,51.7z M22.5,70.5V63l3.2-0.9v4.6l13.7-3.7v2.8L22.5,70.5z M26.6,54.5l-2.6,0.7v3.4l2.6-0.7V54.5z M35.9,45l3.1-0.9
		v15.3l-3.1,0.8L35.9,45z"/>
	<path id="패스_4894" class="st0" d="M41.7,61.5L61,56.3v2.8l-19.3,5.2V61.5z M46,45.5v2.9l13.7-3.7v2.8L46,51.2v3l14.2-3.8v2.8
		l-17.4,4.7V43.5l17.2-4.6v2.8L46,45.5z"/>
	<path id="패스_4895" class="st0" d="M73.9,42.2v2.4l8.2-2.2v2.8l-19.6,5.2v-2.8l8.2-2.2v-2.4L73.9,42.2z M63.5,55.7
		c0-1.4,0.7-2.8,1.9-3.7c2.1-1.5,4.5-2.5,7-3c3-0.8,5.4-1.1,7-0.7c1.2,0.3,2,1.4,1.9,2.7c0,1.4-0.7,2.8-1.9,3.6
		c-2.1,1.5-4.5,2.5-7,3c-3,0.8-5.4,1.2-7,0.7C64.2,58,63.4,56.9,63.5,55.7z M63.9,37.7l16.9-4.5V36l-6.7,1.8c0.7,1.6,3.7,1.7,6.9,1
		v2.7c-3.5,0.7-6.8,0.6-8.7-0.6c-2.4,2.5-5.4,4.3-8.7,5.2v-2.7c3.2-1,6.3-2.8,6.9-4.8l-6.6,1.8V37.7z M66.8,54.8
		c0,0.4,0.2,0.7,0.6,0.8c0.9,0.2,2.5-0.1,4.9-0.7c1.7-0.3,3.4-1,4.9-1.9c0.4-0.3,0.7-0.7,0.7-1.2c0-0.4-0.2-0.8-0.6-0.8
		c-0.9-0.2-2.5,0.1-4.9,0.7c-1.7,0.3-3.4,1-4.9,1.9C67.1,53.9,66.8,54.3,66.8,54.8z"/>
	<path id="패스_4896" class="st0" d="M88,42.7l14.2-3.8v2.8l-3.2,0.9v3.6L103,45v2.8L83.6,53v-2.8l4.2-1.1v-3.6l-3.1,0.8v-8.5
		l13.9-3.7v-2.8l-13.9,3.7v-2.8l17.2-4.6v8.4L88,39.8V42.7z M95.7,43.4l-4.6,1.2v3.6l4.6-1.2L95.7,43.4z"/>
</g>
</svg>
