<?xml version="1.0" encoding="utf-8"?>
<!-- Generator: Adobe Illustrator 24.3.0, SVG Export Plug-In . SVG Version: 6.00 Build 0)  -->
<svg version="1.1" id="레이어_1" xmlns="http://www.w3.org/2000/svg" xmlns:xlink="http://www.w3.org/1999/xlink" x="0px"
	 y="0px" viewBox="0 0 20 20" style="enable-background:new 0 0 20 20;" xml:space="preserve">
<style type="text/css">
	.st0{fill:#381B1A;}
	.st1{fill:#F0DB24;}
</style>
<g>
	<path class="st0" d="M10,2C5,2,1,5.2,1,9.1c0,2.6,1.7,4.8,4.3,6.1c-0.2,0.7-0.7,2.5-0.8,2.9c-0.1,0.5,0.2,0.5,0.4,0.3
		c0.2-0.1,2.5-1.7,3.5-2.4c0.5,0.1,1.1,0.1,1.7,0.1c5,0,9-3.2,9-7.1C19,5.2,15,2,10,2"/>
	<g>
		<path class="st1" d="M6.4,7H3.7C3.5,7,3.3,7.2,3.3,7.5s0.2,0.4,0.4,0.4h0.9v3.2c0,0.1,0,0.2,0.1,0.3c0.1,0.1,0.2,0.1,0.3,0.1h0.1
			c0.1,0,0.2,0,0.3-0.1c0.1-0.1,0.1-0.2,0.1-0.3V7.9h0.8c0.2,0,0.4-0.2,0.4-0.4C6.8,7.2,6.6,7,6.4,7z"/>
		<path class="st1" d="M12.7,10.7h-1.2V7.4C11.5,7.2,11.3,7,11,7c-0.3,0-0.5,0.2-0.5,0.5v3.5c0,0,0,0.1,0,0.1c0,0,0,0.1,0,0.1
			c0,0.2,0.2,0.4,0.4,0.4h1.8c0.2,0,0.4-0.2,0.4-0.4C13.1,10.8,12.9,10.7,12.7,10.7z"/>
		<path class="st1" d="M16.6,10.8L15.3,9l1.2-1.2c0.2-0.2,0.2-0.4,0-0.6C16.3,7,16,7,15.9,7.2l-1.5,1.5V7.4c0-0.3-0.2-0.5-0.5-0.5
			c-0.3,0-0.5,0.2-0.5,0.5V11c0,0.3,0.2,0.5,0.5,0.5c0.3,0,0.5-0.2,0.5-0.5V9.9l0.3-0.3l1.3,1.7c0.1,0.2,0.4,0.2,0.6,0.1
			C16.7,11.3,16.8,11,16.6,10.8z"/>
		<path class="st1" d="M10.1,10.9L8.8,7.3l0,0C8.7,7.1,8.5,7,8.2,7C7.9,7,7.6,7.1,7.6,7.4c0,0,0,0,0,0.1l-1.3,3.5
			c-0.1,0.2,0,0.5,0.3,0.6c0.2,0.1,0.5,0,0.6-0.3l0.2-0.6h1.8l0.2,0.6c0.1,0.2,0.3,0.3,0.6,0.3C10.1,11.4,10.2,11.2,10.1,10.9z
			 M7.6,9.8L8.2,8c0,0,0,0,0,0l0.6,1.7H7.6z"/>
	</g>
</g>
</svg>
