<?xml version="1.0" encoding="utf-8"?>
<!-- Generator: Adobe Illustrator 26.0.2, SVG Export Plug-In . SVG Version: 6.00 Build 0)  -->
<svg version="1.1" id="Layer_1" xmlns="http://www.w3.org/2000/svg" xmlns:xlink="http://www.w3.org/1999/xlink" x="0px" y="0px"
	 viewBox="0 0 30 30" style="enable-background:new 0 0 30 30;" xml:space="preserve">
<style type="text/css">
	.st0{fill:#3C3E98;}
	.st1{fill:none;}
</style>
<g id="sns3-05" transform="translate(0 -0.04)">
	<g id="그룹_1594">
		<circle id="타원_48" class="st0" cx="20.3" cy="9.8" r="1.2"/>
		<path id="패스_3493" class="st0" d="M15,9.9c2.8,0,5.1,2.3,5.1,5.1s-2.3,5.1-5.1,5.1S9.9,17.9,9.9,15S12.2,9.9,15,9.9L15,9.9z
			 M18,15c0-1.6-1.3-2.9-3-2.9c-1.6,0-2.9,1.3-2.9,3c0,1.6,1.3,2.9,2.9,2.9C16.6,18,17.9,16.7,18,15z"/>
		<path id="패스_3494" class="st0" d="M5.1,10.1c0-2.8,2.2-5,5-5h9.8c2.8,0,5,2.2,5,5v9.8c0,2.8-2.2,5-5,5h-9.8c-2.8,0-5-2.2-5-5
			L5.1,10.1L5.1,10.1z M7.2,19.9c0,1.6,1.3,2.8,2.8,2.8h9.8c1.6,0,2.8-1.3,2.8-2.8v-9.8c0-1.6-1.3-2.8-2.8-2.8h-9.8
			c-1.6,0-2.8,1.3-2.8,2.8L7.2,19.9L7.2,19.9z"/>
	</g>
	<rect id="사각형_1076" y="0" class="st1" width="30" height="30"/>
</g>
</svg>
