<?xml version="1.0" encoding="utf-8"?>
<!-- Generator: Adobe Illustrator 26.0.2, SVG Export Plug-In . SVG Version: 6.00 Build 0)  -->
<svg version="1.1" id="Layer_1" xmlns="http://www.w3.org/2000/svg" xmlns:xlink="http://www.w3.org/1999/xlink" x="0px" y="0px"
	 viewBox="0 0 30 30" style="enable-background:new 0 0 30 30;" xml:space="preserve">
<style type="text/css">
	.st0{fill:#3C3E98;}
	.st1{fill:none;}
</style>
<g id="sns3-06" transform="translate(0 -0.04)">
	<g id="그룹_1595">
		<path id="패스_3495" class="st0" d="M20.5,19.8v-9h1.9v7.5h3.9v1.5H20.5z"/>
		<path id="패스_3496" class="st0" d="M17.3,13.7c0-0.4-0.1-0.7-0.4-1c-0.3-0.3-0.7-0.4-1.1-0.4h-1.5V15h1.5
			c0.4,0,0.8-0.1,1.1-0.4C17.2,14.4,17.3,14,17.3,13.7z M18.3,11.5c0.6,0.5,0.9,1.2,0.9,2c0,0.5-0.1,1.1-0.4,1.5
			c-0.3,0.4-0.7,0.8-1.2,1l1.9,3.7v0.1h-2l-1.7-3.3h-1.5v3.3h-1.8v-9h3.3C16.7,10.7,17.6,11,18.3,11.5z"/>
		<path id="패스_3497" class="st0" d="M7.5,19.9c-0.9,0-1.8-0.2-2.5-0.8c-0.6-0.6-1-1.4-0.9-2.3v-6h1.9v5.9c0,0.5,0.1,0.9,0.4,1.3
			c0.3,0.3,0.7,0.4,1.2,0.4c1.1,0,1.6-0.5,1.6-1.6v-6h1.9v5.9c0,0.9-0.3,1.7-0.9,2.4C9.3,19.7,8.4,20,7.5,19.9z"/>
	</g>
	<rect id="사각형_1077" y="0" class="st1" width="30" height="30"/>
</g>
</svg>
