<?xml version="1.0" encoding="utf-8"?>
<!-- Generator: Adobe Illustrator 26.0.2, SVG Export Plug-In . SVG Version: 6.00 Build 0)  -->
<svg version="1.1" id="Layer_1" xmlns="http://www.w3.org/2000/svg" xmlns:xlink="http://www.w3.org/1999/xlink" x="0px" y="0px"
	 viewBox="0 0 30 30" style="enable-background:new 0 0 30 30;" xml:space="preserve">
<style type="text/css">
	.st0{fill:#3C3E98;}
	.st1{fill:none;}
</style>
<g id="sns3-04" transform="translate(0 -0.04)">
	<g id="그룹_1593">
		<path id="패스_3489" class="st0" d="M21.9,14c-0.5,0-0.9,0.4-0.9,0.9s0.4,0.9,0.9,0.9c0.5,0,0.9-0.4,0.9-0.9
			C22.7,14.4,22.4,14,21.9,14C21.9,14,21.9,14,21.9,14z"/>
		<path id="패스_3490" class="st0" d="M16.4,14c-0.5,0-0.9,0.4-0.9,0.9s0.4,0.9,0.9,0.9c0.5,0,0.9-0.4,0.9-0.9c0,0,0,0,0,0
			C17.3,14.4,16.9,14,16.4,14z"/>
		<path id="패스_3491" class="st0" d="M23.8,5.9H6.2C4.4,5.9,3,7.3,3,9.1v10.5c0,1.8,1.4,3.2,3.2,3.2h6.2l2.1,5
			c0,0,0.1,0.4,0.5,0.4s0.5-0.4,0.5-0.4l2.1-5h6.2c1.8,0,3.2-1.4,3.2-3.2V9.1C27,7.3,25.6,5.9,23.8,5.9z M10.5,15.1c0,1.1-0.9,2-2,2
			c-0.4,0-0.9-0.2-1.2-0.5v0.4H5.9V11c0.1,0,1.4,0,1.4,0v2.3c0.3-0.6,1.3-0.6,1.3-0.6c1.1,0.1,1.9,1,1.9,2.1c0,0,0,0.1,0,0.1
			C10.5,15,10.5,15,10.5,15.1z M13.1,16.9h-1.4v-4c0-0.6-0.7-0.7-0.7-0.7v-1.4c1.1-0.1,2,0.7,2.1,1.8c0,0.1,0,0.2,0,0.3V16.9z
			 M16.4,17.1c-1.2,0-2.3-0.9-2.4-2.2c0.1-1.3,1.2-2.3,2.5-2.2c1.2,0.1,2.1,1,2.2,2.2C18.7,16.2,17.7,17.1,16.4,17.1z M22,19.1h-0.6
			v-1.3h0.4c0,0,0.9,0.1,0.9-1.3c0,0-0.2,0.5-1.4,0.5c-1-0.1-1.8-0.9-1.8-1.8v-0.6c0-1.1,0.9-1.9,2-1.9c0.5,0,0.9,0.2,1.2,0.5v-0.4
			h1.4v4.3c0,1.1-0.8,2-1.9,2.1C22.2,19.1,22.1,19.1,22,19.1z"/>
		<path id="패스_3492" class="st0" d="M8.2,14.1c-0.5,0-0.8,0.4-0.8,0.8s0.4,0.8,0.8,0.8c0.5,0,0.8-0.4,0.8-0.8l0,0
			C9.1,14.5,8.7,14.1,8.2,14.1C8.2,14.1,8.2,14.1,8.2,14.1z"/>
	</g>
	<rect id="사각형_1075" y="0" class="st1" width="30" height="30"/>
</g>
</svg>
