<?xml version="1.0" encoding="utf-8"?>
<!-- Generator: Adobe Illustrator 24.3.0, SVG Export Plug-In . SVG Version: 6.00 Build 0)  -->
<svg version="1.1" id="레이어_1" xmlns="http://www.w3.org/2000/svg" xmlns:xlink="http://www.w3.org/1999/xlink" x="0px"
	 y="0px" viewBox="0 0 20 20" style="enable-background:new 0 0 20 20;" xml:space="preserve">
<style type="text/css">
	.st0{fill:#4779BD;}
	.st1{fill:#38A052;}
	.st2{fill:#F0B61A;}
	.st3{fill:#DD4335;}
</style>
<g>
	<path class="st0" d="M18.8,10.2c0-0.6,0-1.2-0.2-1.8h-8.5v3.5H15c-0.2,1.1-0.8,2.1-1.8,2.7v2.2h2.9C17.8,15.3,18.8,12.9,18.8,10.2
		L18.8,10.2z"/>
	<path class="st1" d="M10.2,19c2.4,0,4.5-0.8,6-2.2l-2.9-2.2c-0.8,0.5-1.8,0.9-3.1,0.9c-2.3,0-4.3-1.6-5.1-3.7h-3V14
		C3.7,17.1,6.8,19,10.2,19z"/>
	<path class="st2" d="M5.1,11.7c-0.4-1.1-0.4-2.3,0-3.4V6h-3c-1.3,2.5-1.3,5.5,0,8.1L5.1,11.7z"/>
	<path class="st3" d="M10.2,4.6c1.3,0,2.5,0.5,3.5,1.3l2.6-2.6c-1.6-1.5-3.8-2.4-6-2.3c-3.4,0-6.5,1.9-8,5l3,2.3
		C5.8,6.1,7.8,4.6,10.2,4.6z"/>
</g>
</svg>
