<?xml version="1.0" encoding="utf-8"?>
<!-- Generator: Adobe Illustrator 26.0.2, SVG Export Plug-In . SVG Version: 6.00 Build 0)  -->
<svg version="1.1" id="sns3-03" xmlns="http://www.w3.org/2000/svg" xmlns:xlink="http://www.w3.org/1999/xlink" x="0px" y="0px"
	 viewBox="0 0 30 30" style="enable-background:new 0 0 30 30;" xml:space="preserve">
<style type="text/css">
	.st0{fill:#3C3E98;}
	.st1{fill:none;}
</style>
<path id="패스_3488" class="st0" d="M25.5,9.2c-0.6,0.8-1.2,1.5-2,2.1c0,0.2,0,0.4,0,0.5c0,6.4-5.2,11.7-11.7,11.7
	c-2.2,0-4.4-0.6-6.3-1.8c2.2,0.3,4.4-0.3,6.1-1.7c-1.8,0-3.3-1.2-3.8-2.8c0.6,0.1,1.2,0.1,1.9-0.1c-1.9-0.4-3.3-2.1-3.3-4V13
	c0.6,0.3,1.2,0.5,1.9,0.5c-1.8-1.2-2.4-3.6-1.3-5.5c2.1,2.6,5.2,4.1,8.5,4.3c-0.1-0.3-0.1-0.6-0.1-0.9c0-2.3,1.8-4.1,4.1-4.1
	c1.1,0,2.2,0.5,3,1.3c0.9-0.2,1.8-0.5,2.6-1c-0.3,1-0.9,1.8-1.8,2.3C23.9,9.8,24.7,9.6,25.5,9.2z"/>
<rect id="사각형_1074" y="0" class="st1" width="30" height="30"/>
</svg>
