<?xml version="1.0" encoding="utf-8"?>
<!-- Generator: Adobe Illustrator 26.0.2, SVG Export Plug-In . SVG Version: 6.00 Build 0)  -->
<svg version="1.1" id="sns3_ᄃ_지_1" xmlns="http://www.w3.org/2000/svg" xmlns:xlink="http://www.w3.org/1999/xlink" x="0px"
	 y="0px" viewBox="0 0 30 30" style="enable-background:new 0 0 30 30;" xml:space="preserve">
<style type="text/css">
	.st0{fill:#3C3E98;}
	.st1{fill:none;}
</style>
<g id="그룹_1596">
	<path id="패스_3498" class="st0" d="M12.6,13.1l-0.8,2.3h1.6L12.6,13.1L12.6,13.1z"/>
	<path id="패스_3499" class="st0" d="M15,4.9c-5.6,0-10.3,3-11.6,7.1C3.1,12.9,3,13.7,3,14.5c0,3.4,2.3,6.4,5.7,8.1
		c-0.2,0.9-0.9,3.4-1,3.9c-0.2,0.6,0.2,0.6,0.5,0.5c0.2-0.1,3.3-2.2,4.6-3.1c0.7,0.1,1.5,0.2,2.2,0.2c3.9,0.1,7.7-1.6,10.3-4.6
		c1.1-1.4,1.7-3.1,1.7-4.9C27,9.2,21.6,4.9,15,4.9z M9.1,17.2c0,0.2-0.1,0.3-0.2,0.4c-0.1,0.1-0.2,0.2-0.4,0.2H8.4
		c-0.2,0-0.3-0.1-0.4-0.2c-0.1-0.1-0.2-0.3-0.2-0.4V13H6.7c-0.3,0-0.6-0.3-0.6-0.6c0-0.3,0.3-0.6,0.6-0.6h3.5c0.3,0,0.6,0.3,0.6,0.6
		c0,0.1,0,0.2,0,0.2c-0.1,0.2-0.3,0.4-0.6,0.4H9.1V17.2z M14.8,17.7c-0.3,0.1-0.6,0-0.7-0.3c0,0,0,0,0,0l-0.3-0.8h-2.4l-0.3,0.8
		c-0.1,0.3-0.4,0.5-0.7,0.4S9.9,17.3,10,17c0,0,0,0,0,0l1.5-4.1l0.2-0.5c0,0,0-0.1,0-0.1c0.1-0.4,0.5-0.6,0.8-0.6
		c0.4,0,0.7,0.2,0.8,0.5v0l1.8,4.8c0,0.1,0,0.1,0,0.2C15.2,17.4,15.1,17.7,14.8,17.7z M18.6,17.7h-2.4c-0.3,0-0.5-0.2-0.5-0.5v-4.8
		c0-0.4,0.3-0.6,0.6-0.6c0,0,0,0,0,0c0.4,0,0.6,0.3,0.6,0.6c0,0,0,0,0,0v4.3h1.6c0.2,0,0.4,0.1,0.5,0.3c0,0.1,0.1,0.1,0.1,0.2
		C19.2,17.5,18.9,17.7,18.6,17.7z M22.9,17.5l-1.7-2.3l-0.4,0.4v1.5c0,0.4-0.3,0.6-0.6,0.6c-0.4,0-0.6-0.3-0.6-0.6c0,0,0,0,0,0v-4.8
		c0-0.4,0.3-0.6,0.6-0.6c0,0,0,0,0,0c0.4,0,0.6,0.3,0.6,0.6c0,0,0,0,0,0V14l2.1-2c0.2-0.2,0.6-0.2,0.8,0c0.2,0.2,0.2,0.6,0,0.8
		c0,0,0,0,0,0L22,14.4l1.8,2.4c0.2,0.3,0.1,0.6-0.1,0.8c-0.1,0.1-0.2,0.1-0.4,0.1C23.2,17.8,23,17.7,22.9,17.5z"/>
</g>
<rect id="사각형_1078" y="0" class="st1" width="30" height="30"/>
</svg>
