<?xml version="1.0" encoding="utf-8"?>
<!-- Generator: Adobe Illustrator 26.0.2, SVG Export Plug-In . SVG Version: 6.00 Build 0)  -->
<svg version="1.1" id="레이어_1" xmlns="http://www.w3.org/2000/svg" xmlns:xlink="http://www.w3.org/1999/xlink" x="0px"
	 y="0px" viewBox="0 0 200 35" style="enable-background:new 0 0 200 35;" xml:space="preserve">
<style type="text/css">
	.st0{fill:#3C3E98;}
</style>
<g>
	<path class="st0" d="M18.5,5.8l3.3,7.3c0.3,0.7,0.9,1.1,1.7,1.2l7.7,0.6l-5.8,5.2c-0.6,0.5-0.8,1.3-0.6,2l1.9,7.8l-7.2-4.2
		c-0.3-0.2-0.7-0.3-1-0.3s-0.7,0.1-1,0.3l-7.2,4.2l1.9-7.8c0.2-0.7-0.1-1.5-0.6-2l-5.8-5.2l7.7-0.6c0.7-0.1,1.4-0.5,1.7-1.2
		L18.5,5.8 M18.5,1l-5.1,11.3L1,13.3l9.3,8.3L7.2,34l11.3-6.6L29.8,34l-3.1-12.4l9.3-8.3l-12.4-1L18.5,1L18.5,1z"/>
</g>
<g>
	<path class="st0" d="M59.3,5.8l3.3,7.3c0.3,0.7,0.9,1.1,1.7,1.2l7.7,0.6l-5.8,5.2c-0.6,0.5-0.8,1.3-0.6,2l1.9,7.8l-7.2-4.2
		c-0.3-0.2-0.7-0.3-1-0.3s-0.7,0.1-1,0.3L51,29.9l1.9-7.8c0.2-0.7-0.1-1.5-0.6-2l-5.8-5.2l7.7-0.6c0.7-0.1,1.4-0.5,1.7-1.2L59.3,5.8
		 M59.3,1l-5.1,11.3l-12.4,1l9.3,8.3L47.9,34l11.3-6.6L70.6,34l-3.1-12.4l9.3-8.3l-12.4-1L59.3,1L59.3,1z"/>
</g>
<g>
	<path class="st0" d="M100,5.8l3.3,7.3c0.3,0.7,0.9,1.1,1.7,1.2l7.7,0.6l-5.8,5.2c-0.6,0.5-0.8,1.3-0.6,2l1.9,7.8l-7.2-4.2
		c-0.3-0.2-0.7-0.3-1-0.3s-0.7,0.1-1,0.3l-7.2,4.2l1.9-7.8c0.2-0.7-0.1-1.5-0.6-2l-5.8-5.2l7.7-0.6c0.7-0.1,1.4-0.5,1.7-1.2L100,5.8
		 M100,1l-5.1,11.3l-12.4,1l9.3,8.3L88.7,34l11.3-6.6l11.3,6.6l-3.1-12.4l9.3-8.3l-12.4-1L100,1L100,1z"/>
</g>
<g>
	<path class="st0" d="M140.8,5.8l3.3,7.3c0.3,0.7,0.9,1.1,1.7,1.2l7.7,0.6l-5.8,5.2c-0.6,0.5-0.8,1.3-0.6,2l1.9,7.8l-7.2-4.2
		c-0.3-0.2-0.7-0.3-1-0.3s-0.7,0.1-1,0.3l-7.2,4.2l1.9-7.8c0.2-0.7-0.1-1.5-0.6-2l-5.8-5.2l7.7-0.6c0.7-0.1,1.4-0.5,1.7-1.2
		L140.8,5.8 M140.8,1l-5.1,11.3l-12.4,1l9.3,8.3L129.4,34l11.3-6.6L152,34l-3-12.4l9.3-8.3l-12.4-1L140.8,1L140.8,1z"/>
</g>
<g>
	<path class="st0" d="M181.5,5.8l3.3,7.3c0.3,0.7,0.9,1.1,1.7,1.2l7.7,0.6l-5.8,5.2c-0.6,0.5-0.8,1.3-0.6,2l1.9,7.8l-7.2-4.2
		c-0.3-0.2-0.7-0.3-1-0.3s-0.7,0.1-1,0.3l-7.2,4.2l1.9-7.8c0.2-0.7-0.1-1.5-0.6-2l-5.8-5.2l7.7-0.6c0.7-0.1,1.4-0.5,1.7-1.2
		L181.5,5.8 M181.5,1l-5.1,11.3l-12.4,1l9.3,8.3L170.2,34l11.3-6.6l11.3,6.6l-3.1-12.4l9.3-8.3l-12.4-1L181.5,1L181.5,1z"/>
</g>
</svg>
